M48
;DRILL file {Pcbnew (2013-07-07 BZR 4022)-stable} date 17/11/2014 11:32:17
;FORMAT={-:-/ absolute / metric / decimal}
FMAT,2
METRIC,TZ
T1C0.300
T2C0.550
%
G90
G05
M71
T1
X168.7Y-205.
X168.8Y-191.3
X169.1Y-214.9
X170.2Y-213.3
X171.3Y-210.3
X171.3Y-211.3
X173.7Y-210.3
X173.7Y-211.3
X175.5Y-204.2
X176.Y-205.8
X176.3Y-202.4
X176.5Y-209.1
X176.8Y-190.9
X176.8Y-192.9
X176.8Y-194.9
X176.8Y-196.9
X176.8Y-198.9
X176.8Y-215.5
X176.9Y-219.9
X178.7Y-202.4
X179.5Y-207.5
X181.5Y-200.4
X181.5Y-201.4
X182.2Y-208.5
X182.2Y-209.8
X183.9Y-203.2
X183.9Y-204.2
X184.1Y-215.5
X184.5Y-202.4
X185.4Y-215.
X185.7Y-192.9
X186.7Y-211.1
X187.1Y-192.1
X187.1Y-193.7
X187.7Y-191.3
X187.7Y-192.9
X187.7Y-194.5
X187.7Y-196.1
X187.7Y-202.1
X188.5Y-203.2
X189.6Y-204.2
X191.4Y-194.5
X192.3Y-221.3
X194.4Y-214.
T2
X178.95Y-220.075G85X178.95Y-220.725
G05
X179.85Y-217.7G85X180.15Y-217.7
G05
X184.85Y-217.7G85X185.15Y-217.7
G05
X186.05Y-220.725G85X186.05Y-220.075
G05
T0
M30
