G04 (created by PCBNEW (2013-may-18)-stable) date Fri 12 Dec 2014 10:12:50 AM CET*
%MOIN*%
G04 Gerber Fmt 3.4, Leading zero omitted, Abs format*
%FSLAX34Y34*%
G01*
G70*
G90*
G04 APERTURE LIST*
%ADD10C,0.00590551*%
%ADD11R,0.11811X0.0590551*%
%ADD12R,0.065X0.016*%
%ADD13R,0.0433071X0.0433071*%
%ADD14R,0.045X0.025*%
%ADD15R,0.025X0.045*%
%ADD16R,0.0197X0.0906*%
%ADD17R,0.0787X0.0984*%
%ADD18R,0.035X0.055*%
%ADD19R,0.055X0.035*%
%ADD20R,0.0709X0.0512*%
%ADD21R,0.0709X0.1496*%
%ADD22R,0.0374016X0.0826772*%
%ADD23R,0.0354331X0.0374016*%
G04 APERTURE END LIST*
G54D10*
G54D11*
X30651Y-29887D03*
X30651Y-29100D03*
X30651Y-28312D03*
X30651Y-27525D03*
X30651Y-26738D03*
X30651Y-25950D03*
X25848Y-25163D03*
X25848Y-25950D03*
X25848Y-26738D03*
X25848Y-27525D03*
X25848Y-28312D03*
X25848Y-29100D03*
X25848Y-29887D03*
X30650Y-25150D03*
G54D12*
X31550Y-33625D03*
X31550Y-33375D03*
X31550Y-33125D03*
X31550Y-32875D03*
X29450Y-34375D03*
X31550Y-34375D03*
X31550Y-34125D03*
X31550Y-33875D03*
X29450Y-32625D03*
X29450Y-32875D03*
X29450Y-33125D03*
X29450Y-33375D03*
X29450Y-33625D03*
X29450Y-33875D03*
X31550Y-32625D03*
X29450Y-34125D03*
G54D13*
X35850Y-38433D03*
X35150Y-38433D03*
X35500Y-37566D03*
X33900Y-35316D03*
X34600Y-35316D03*
X34250Y-36183D03*
G54D14*
X29250Y-35550D03*
X29250Y-34950D03*
G54D15*
X25550Y-32000D03*
X24950Y-32000D03*
X25550Y-32750D03*
X24950Y-32750D03*
X25550Y-33500D03*
X24950Y-33500D03*
X23700Y-34250D03*
X24300Y-34250D03*
G54D14*
X31000Y-35550D03*
X31000Y-34950D03*
X30000Y-35550D03*
X30000Y-34950D03*
X31750Y-35550D03*
X31750Y-34950D03*
G54D15*
X28300Y-32500D03*
X27700Y-32500D03*
X28550Y-36000D03*
X27950Y-36000D03*
G54D14*
X35500Y-36800D03*
X35500Y-36200D03*
X34250Y-36950D03*
X34250Y-37550D03*
G54D15*
X33700Y-34500D03*
X34300Y-34500D03*
X23700Y-33500D03*
X24300Y-33500D03*
X23700Y-32750D03*
X24300Y-32750D03*
X23700Y-32000D03*
X24300Y-32000D03*
X34700Y-31750D03*
X35300Y-31750D03*
X34700Y-33250D03*
X35300Y-33250D03*
X34700Y-32500D03*
X35300Y-32500D03*
X34700Y-31000D03*
X35300Y-31000D03*
X34700Y-30250D03*
X35300Y-30250D03*
X34700Y-29500D03*
X35300Y-29500D03*
X24300Y-28250D03*
X23700Y-28250D03*
G54D16*
X29870Y-37142D03*
X30185Y-37142D03*
X30500Y-37142D03*
X30815Y-37142D03*
X31130Y-37142D03*
G54D17*
X28748Y-37181D03*
X28748Y-39346D03*
X32252Y-37181D03*
X32252Y-39346D03*
G54D15*
X35300Y-28750D03*
X34700Y-28750D03*
G54D18*
X28275Y-33300D03*
X27525Y-33300D03*
X24275Y-25600D03*
X23525Y-25600D03*
G54D19*
X27500Y-36875D03*
X27500Y-37625D03*
G54D18*
X25875Y-34300D03*
X25125Y-34300D03*
G54D19*
X34250Y-38375D03*
X34250Y-39125D03*
G54D20*
X25931Y-37156D03*
X25931Y-36250D03*
X25931Y-35344D03*
G54D21*
X23569Y-36250D03*
G54D15*
X31450Y-24250D03*
X32050Y-24250D03*
G54D14*
X35500Y-34700D03*
X35500Y-35300D03*
G54D22*
X32919Y-23250D03*
X34080Y-23250D03*
G54D23*
X33500Y-23850D03*
G54D18*
X28375Y-35250D03*
X27625Y-35250D03*
M02*
