M48
;DRILL file {Pcbnew (2013-may-18)-stable} date Fri 12 Dec 2014 09:59:34 AM CET
;FORMAT={3:3/ absolute / metric / suppress leading zeros}
FMAT,2
METRIC,TZ
T1C0.200
T2C0.300
T3C0.813
T4C0.899
T5C3.048
%
G90
G05
M71
T1
X62230Y-67945
X68580Y-67945
X69215Y-80645
X69215Y-92075
X69850Y-69850
X70485Y-99695
X71755Y-70485
X73660Y-69215
X74930Y-64135
X74930Y-67945
X80645Y-79375
X81915Y-83820
X83820Y-84455
X83820Y-92075
X84455Y-93980
X84455Y-99695
X86995Y-71120
X86995Y-73025
X86995Y-74930
X86995Y-76835
X86995Y-78740
X86995Y-82550
X86995Y-84455
X88900Y-86360
X90805Y-86360
X92075Y-88900
T2
X68580Y-89535
T3
X84455Y-63500
X84455Y-68580
X92075Y-63500
X92075Y-68580
X95885Y-62230
X95885Y-64770
X95885Y-67310
X95885Y-69850
X95885Y-72390
X95885Y-74930
X95885Y-77470
X95885Y-80010
X95885Y-82550
X95885Y-85090
X95885Y-87630
X95885Y-90170
T4
X75270Y-96939
X79670Y-96939
T5
X59690Y-60325
X59690Y-99060
X95885Y-99060
T0
M30
