G04 (created by PCBNEW (2013-may-18)-stable) date Fri 12 Dec 2014 10:12:50 AM CET*
%MOIN*%
G04 Gerber Fmt 3.4, Leading zero omitted, Abs format*
%FSLAX34Y34*%
G01*
G70*
G90*
G04 APERTURE LIST*
%ADD10C,0.00590551*%
%ADD11C,0.00885827*%
%ADD12C,0.00738189*%
%ADD13C,0.019685*%
%ADD14C,0.0001*%
G04 APERTURE END LIST*
G54D10*
G54D11*
X25124Y-30289D02*
X25006Y-30643D01*
X24888Y-30289D01*
X24769Y-30609D02*
X24753Y-30626D01*
X24769Y-30643D01*
X24786Y-30626D01*
X24769Y-30609D01*
X24769Y-30643D01*
X24415Y-30643D02*
X24618Y-30643D01*
X24516Y-30643D02*
X24516Y-30289D01*
X24550Y-30339D01*
X24584Y-30373D01*
X24618Y-30390D01*
X24263Y-30609D02*
X24246Y-30626D01*
X24263Y-30643D01*
X24280Y-30626D01*
X24263Y-30609D01*
X24263Y-30643D01*
X24027Y-30289D02*
X23993Y-30289D01*
X23960Y-30305D01*
X23943Y-30322D01*
X23926Y-30356D01*
X23909Y-30424D01*
X23909Y-30508D01*
X23926Y-30575D01*
X23943Y-30609D01*
X23960Y-30626D01*
X23993Y-30643D01*
X24027Y-30643D01*
X24061Y-30626D01*
X24078Y-30609D01*
X24095Y-30575D01*
X24111Y-30508D01*
X24111Y-30424D01*
X24095Y-30356D01*
X24078Y-30322D01*
X24061Y-30305D01*
X24027Y-30289D01*
G54D12*
X36996Y-31619D02*
X36996Y-31324D01*
X36869Y-31619D02*
X36869Y-31464D01*
X36883Y-31436D01*
X36911Y-31422D01*
X36953Y-31422D01*
X36982Y-31436D01*
X36996Y-31450D01*
X36771Y-31422D02*
X36658Y-31422D01*
X36728Y-31324D02*
X36728Y-31577D01*
X36714Y-31605D01*
X36686Y-31619D01*
X36658Y-31619D01*
X36602Y-31422D02*
X36489Y-31422D01*
X36560Y-31324D02*
X36560Y-31577D01*
X36546Y-31605D01*
X36517Y-31619D01*
X36489Y-31619D01*
X36391Y-31422D02*
X36391Y-31717D01*
X36391Y-31436D02*
X36363Y-31422D01*
X36307Y-31422D01*
X36278Y-31436D01*
X36264Y-31450D01*
X36250Y-31478D01*
X36250Y-31563D01*
X36264Y-31591D01*
X36278Y-31605D01*
X36307Y-31619D01*
X36363Y-31619D01*
X36391Y-31605D01*
X36138Y-31605D02*
X36110Y-31619D01*
X36053Y-31619D01*
X36025Y-31605D01*
X36011Y-31577D01*
X36011Y-31563D01*
X36025Y-31535D01*
X36053Y-31521D01*
X36096Y-31521D01*
X36124Y-31507D01*
X36138Y-31478D01*
X36138Y-31464D01*
X36124Y-31436D01*
X36096Y-31422D01*
X36053Y-31422D01*
X36025Y-31436D01*
X35885Y-31591D02*
X35871Y-31605D01*
X35885Y-31619D01*
X35899Y-31605D01*
X35885Y-31591D01*
X35885Y-31619D01*
X35885Y-31436D02*
X35871Y-31450D01*
X35885Y-31464D01*
X35899Y-31450D01*
X35885Y-31436D01*
X35885Y-31464D01*
X35533Y-31310D02*
X35786Y-31689D01*
X35224Y-31310D02*
X35477Y-31689D01*
X34999Y-31422D02*
X34999Y-31661D01*
X35013Y-31689D01*
X35027Y-31703D01*
X35055Y-31717D01*
X35097Y-31717D01*
X35125Y-31703D01*
X34999Y-31605D02*
X35027Y-31619D01*
X35083Y-31619D01*
X35111Y-31605D01*
X35125Y-31591D01*
X35140Y-31563D01*
X35140Y-31478D01*
X35125Y-31450D01*
X35111Y-31436D01*
X35083Y-31422D01*
X35027Y-31422D01*
X34999Y-31436D01*
X34858Y-31619D02*
X34858Y-31422D01*
X34858Y-31324D02*
X34872Y-31338D01*
X34858Y-31352D01*
X34844Y-31338D01*
X34858Y-31324D01*
X34858Y-31352D01*
X34760Y-31422D02*
X34647Y-31422D01*
X34718Y-31324D02*
X34718Y-31577D01*
X34704Y-31605D01*
X34676Y-31619D01*
X34647Y-31619D01*
X34549Y-31619D02*
X34549Y-31324D01*
X34422Y-31619D02*
X34422Y-31464D01*
X34437Y-31436D01*
X34465Y-31422D01*
X34507Y-31422D01*
X34535Y-31436D01*
X34549Y-31450D01*
X34155Y-31422D02*
X34155Y-31619D01*
X34282Y-31422D02*
X34282Y-31577D01*
X34268Y-31605D01*
X34240Y-31619D01*
X34197Y-31619D01*
X34169Y-31605D01*
X34155Y-31591D01*
X34015Y-31619D02*
X34015Y-31324D01*
X34015Y-31436D02*
X33987Y-31422D01*
X33930Y-31422D01*
X33902Y-31436D01*
X33888Y-31450D01*
X33874Y-31478D01*
X33874Y-31563D01*
X33888Y-31591D01*
X33902Y-31605D01*
X33930Y-31619D01*
X33987Y-31619D01*
X34015Y-31605D01*
X33748Y-31591D02*
X33733Y-31605D01*
X33748Y-31619D01*
X33762Y-31605D01*
X33748Y-31591D01*
X33748Y-31619D01*
X33480Y-31605D02*
X33508Y-31619D01*
X33565Y-31619D01*
X33593Y-31605D01*
X33607Y-31591D01*
X33621Y-31563D01*
X33621Y-31478D01*
X33607Y-31450D01*
X33593Y-31436D01*
X33565Y-31422D01*
X33508Y-31422D01*
X33480Y-31436D01*
X33312Y-31619D02*
X33340Y-31605D01*
X33354Y-31591D01*
X33368Y-31563D01*
X33368Y-31478D01*
X33354Y-31450D01*
X33340Y-31436D01*
X33312Y-31422D01*
X33269Y-31422D01*
X33241Y-31436D01*
X33227Y-31450D01*
X33213Y-31478D01*
X33213Y-31563D01*
X33227Y-31591D01*
X33241Y-31605D01*
X33269Y-31619D01*
X33312Y-31619D01*
X33087Y-31619D02*
X33087Y-31422D01*
X33087Y-31450D02*
X33073Y-31436D01*
X33044Y-31422D01*
X33002Y-31422D01*
X32974Y-31436D01*
X32960Y-31464D01*
X32960Y-31619D01*
X32960Y-31464D02*
X32946Y-31436D01*
X32918Y-31422D01*
X32876Y-31422D01*
X32848Y-31436D01*
X32834Y-31464D01*
X32834Y-31619D01*
X32482Y-31310D02*
X32735Y-31689D01*
X32243Y-31619D02*
X32384Y-31619D01*
X32384Y-31324D01*
X32102Y-31619D02*
X32131Y-31605D01*
X32145Y-31591D01*
X32159Y-31563D01*
X32159Y-31478D01*
X32145Y-31450D01*
X32131Y-31436D01*
X32102Y-31422D01*
X32060Y-31422D01*
X32032Y-31436D01*
X32018Y-31450D01*
X32004Y-31478D01*
X32004Y-31563D01*
X32018Y-31591D01*
X32032Y-31605D01*
X32060Y-31619D01*
X32102Y-31619D01*
X31877Y-31422D02*
X31877Y-31619D01*
X31877Y-31450D02*
X31863Y-31436D01*
X31835Y-31422D01*
X31793Y-31422D01*
X31765Y-31436D01*
X31751Y-31464D01*
X31751Y-31619D01*
X31484Y-31422D02*
X31484Y-31661D01*
X31498Y-31689D01*
X31512Y-31703D01*
X31540Y-31717D01*
X31582Y-31717D01*
X31610Y-31703D01*
X31484Y-31605D02*
X31512Y-31619D01*
X31568Y-31619D01*
X31596Y-31605D01*
X31610Y-31591D01*
X31624Y-31563D01*
X31624Y-31478D01*
X31610Y-31450D01*
X31596Y-31436D01*
X31568Y-31422D01*
X31512Y-31422D01*
X31484Y-31436D01*
X31343Y-31619D02*
X31343Y-31324D01*
X31343Y-31464D02*
X31174Y-31464D01*
X31174Y-31619D02*
X31174Y-31324D01*
X30907Y-31619D02*
X30907Y-31464D01*
X30921Y-31436D01*
X30949Y-31422D01*
X31006Y-31422D01*
X31034Y-31436D01*
X30907Y-31605D02*
X30935Y-31619D01*
X31006Y-31619D01*
X31034Y-31605D01*
X31048Y-31577D01*
X31048Y-31549D01*
X31034Y-31521D01*
X31006Y-31507D01*
X30935Y-31507D01*
X30907Y-31492D01*
X30767Y-31619D02*
X30767Y-31422D01*
X30767Y-31324D02*
X30781Y-31338D01*
X30767Y-31352D01*
X30753Y-31338D01*
X30767Y-31324D01*
X30767Y-31352D01*
X30626Y-31619D02*
X30626Y-31422D01*
X30626Y-31478D02*
X30612Y-31450D01*
X30598Y-31436D01*
X30570Y-31422D01*
X30542Y-31422D01*
X30331Y-31605D02*
X30359Y-31619D01*
X30415Y-31619D01*
X30443Y-31605D01*
X30457Y-31577D01*
X30457Y-31464D01*
X30443Y-31436D01*
X30415Y-31422D01*
X30359Y-31422D01*
X30331Y-31436D01*
X30317Y-31464D01*
X30317Y-31492D01*
X30457Y-31521D01*
X30064Y-31619D02*
X30064Y-31324D01*
X30064Y-31605D02*
X30092Y-31619D01*
X30148Y-31619D01*
X30176Y-31605D01*
X30190Y-31591D01*
X30204Y-31563D01*
X30204Y-31478D01*
X30190Y-31450D01*
X30176Y-31436D01*
X30148Y-31422D01*
X30092Y-31422D01*
X30064Y-31436D01*
X29923Y-31619D02*
X29923Y-31324D01*
X29923Y-31464D02*
X29754Y-31464D01*
X29754Y-31619D02*
X29754Y-31324D01*
X29487Y-31619D02*
X29487Y-31464D01*
X29501Y-31436D01*
X29529Y-31422D01*
X29586Y-31422D01*
X29614Y-31436D01*
X29487Y-31605D02*
X29515Y-31619D01*
X29586Y-31619D01*
X29614Y-31605D01*
X29628Y-31577D01*
X29628Y-31549D01*
X29614Y-31521D01*
X29586Y-31507D01*
X29515Y-31507D01*
X29487Y-31492D01*
X29220Y-31605D02*
X29248Y-31619D01*
X29304Y-31619D01*
X29332Y-31605D01*
X29347Y-31591D01*
X29361Y-31563D01*
X29361Y-31478D01*
X29347Y-31450D01*
X29332Y-31436D01*
X29304Y-31422D01*
X29248Y-31422D01*
X29220Y-31436D01*
X29093Y-31619D02*
X29093Y-31324D01*
X29065Y-31507D02*
X28981Y-31619D01*
X28981Y-31422D02*
X29093Y-31535D01*
X28742Y-31605D02*
X28770Y-31619D01*
X28826Y-31619D01*
X28854Y-31605D01*
X28868Y-31577D01*
X28868Y-31464D01*
X28854Y-31436D01*
X28826Y-31422D01*
X28770Y-31422D01*
X28742Y-31436D01*
X28728Y-31464D01*
X28728Y-31492D01*
X28868Y-31521D01*
X28601Y-31619D02*
X28601Y-31422D01*
X28601Y-31478D02*
X28587Y-31450D01*
X28573Y-31436D01*
X28545Y-31422D01*
X28517Y-31422D01*
X28208Y-31310D02*
X28461Y-31689D01*
X28109Y-31464D02*
X28011Y-31464D01*
X27969Y-31619D02*
X28109Y-31619D01*
X28109Y-31324D01*
X27969Y-31324D01*
X27856Y-31605D02*
X27814Y-31619D01*
X27744Y-31619D01*
X27715Y-31605D01*
X27701Y-31591D01*
X27687Y-31563D01*
X27687Y-31535D01*
X27701Y-31507D01*
X27715Y-31492D01*
X27744Y-31478D01*
X27800Y-31464D01*
X27828Y-31450D01*
X27842Y-31436D01*
X27856Y-31408D01*
X27856Y-31380D01*
X27842Y-31352D01*
X27828Y-31338D01*
X27800Y-31324D01*
X27730Y-31324D01*
X27687Y-31338D01*
X27561Y-31619D02*
X27561Y-31324D01*
X27448Y-31324D01*
X27420Y-31338D01*
X27406Y-31352D01*
X27392Y-31380D01*
X27392Y-31422D01*
X27406Y-31450D01*
X27420Y-31464D01*
X27448Y-31478D01*
X27561Y-31478D01*
X27223Y-31450D02*
X27251Y-31436D01*
X27266Y-31422D01*
X27280Y-31394D01*
X27280Y-31380D01*
X27266Y-31352D01*
X27251Y-31338D01*
X27223Y-31324D01*
X27167Y-31324D01*
X27139Y-31338D01*
X27125Y-31352D01*
X27111Y-31380D01*
X27111Y-31394D01*
X27125Y-31422D01*
X27139Y-31436D01*
X27167Y-31450D01*
X27223Y-31450D01*
X27251Y-31464D01*
X27266Y-31478D01*
X27280Y-31507D01*
X27280Y-31563D01*
X27266Y-31591D01*
X27251Y-31605D01*
X27223Y-31619D01*
X27167Y-31619D01*
X27139Y-31605D01*
X27125Y-31591D01*
X27111Y-31563D01*
X27111Y-31507D01*
X27125Y-31478D01*
X27139Y-31464D01*
X27167Y-31450D01*
X26998Y-31352D02*
X26984Y-31338D01*
X26956Y-31324D01*
X26886Y-31324D01*
X26858Y-31338D01*
X26844Y-31352D01*
X26830Y-31380D01*
X26830Y-31408D01*
X26844Y-31450D01*
X27012Y-31619D01*
X26830Y-31619D01*
X26577Y-31324D02*
X26633Y-31324D01*
X26661Y-31338D01*
X26675Y-31352D01*
X26703Y-31394D01*
X26717Y-31450D01*
X26717Y-31563D01*
X26703Y-31591D01*
X26689Y-31605D01*
X26661Y-31619D01*
X26605Y-31619D01*
X26577Y-31605D01*
X26562Y-31591D01*
X26548Y-31563D01*
X26548Y-31492D01*
X26562Y-31464D01*
X26577Y-31450D01*
X26605Y-31436D01*
X26661Y-31436D01*
X26689Y-31450D01*
X26703Y-31464D01*
X26717Y-31492D01*
X26295Y-31324D02*
X26352Y-31324D01*
X26380Y-31338D01*
X26394Y-31352D01*
X26422Y-31394D01*
X26436Y-31450D01*
X26436Y-31563D01*
X26422Y-31591D01*
X26408Y-31605D01*
X26380Y-31619D01*
X26323Y-31619D01*
X26295Y-31605D01*
X26281Y-31591D01*
X26267Y-31563D01*
X26267Y-31492D01*
X26281Y-31464D01*
X26295Y-31450D01*
X26323Y-31436D01*
X26380Y-31436D01*
X26408Y-31450D01*
X26422Y-31464D01*
X26436Y-31492D01*
X26141Y-31507D02*
X25916Y-31507D01*
X25775Y-31619D02*
X25775Y-31324D01*
X25775Y-31436D02*
X25747Y-31422D01*
X25691Y-31422D01*
X25663Y-31436D01*
X25649Y-31450D01*
X25634Y-31478D01*
X25634Y-31563D01*
X25649Y-31591D01*
X25663Y-31605D01*
X25691Y-31619D01*
X25747Y-31619D01*
X25775Y-31605D01*
X25508Y-31619D02*
X25508Y-31422D01*
X25508Y-31478D02*
X25494Y-31450D01*
X25480Y-31436D01*
X25452Y-31422D01*
X25424Y-31422D01*
X25213Y-31605D02*
X25241Y-31619D01*
X25297Y-31619D01*
X25325Y-31605D01*
X25339Y-31577D01*
X25339Y-31464D01*
X25325Y-31436D01*
X25297Y-31422D01*
X25241Y-31422D01*
X25213Y-31436D01*
X25199Y-31464D01*
X25199Y-31492D01*
X25339Y-31521D01*
X24946Y-31619D02*
X24946Y-31464D01*
X24960Y-31436D01*
X24988Y-31422D01*
X25044Y-31422D01*
X25072Y-31436D01*
X24946Y-31605D02*
X24974Y-31619D01*
X25044Y-31619D01*
X25072Y-31605D01*
X25086Y-31577D01*
X25086Y-31549D01*
X25072Y-31521D01*
X25044Y-31507D01*
X24974Y-31507D01*
X24946Y-31492D01*
X24805Y-31619D02*
X24805Y-31324D01*
X24777Y-31507D02*
X24692Y-31619D01*
X24692Y-31422D02*
X24805Y-31535D01*
X24524Y-31619D02*
X24552Y-31605D01*
X24566Y-31591D01*
X24580Y-31563D01*
X24580Y-31478D01*
X24566Y-31450D01*
X24552Y-31436D01*
X24524Y-31422D01*
X24482Y-31422D01*
X24453Y-31436D01*
X24439Y-31450D01*
X24425Y-31478D01*
X24425Y-31563D01*
X24439Y-31591D01*
X24453Y-31605D01*
X24482Y-31619D01*
X24524Y-31619D01*
X24172Y-31422D02*
X24172Y-31619D01*
X24299Y-31422D02*
X24299Y-31577D01*
X24285Y-31605D01*
X24257Y-31619D01*
X24214Y-31619D01*
X24186Y-31605D01*
X24172Y-31591D01*
X24074Y-31422D02*
X23961Y-31422D01*
X24032Y-31324D02*
X24032Y-31577D01*
X24017Y-31605D01*
X23989Y-31619D01*
X23961Y-31619D01*
X33586Y-39574D02*
X33530Y-39574D01*
X33501Y-39588D01*
X33473Y-39616D01*
X33459Y-39672D01*
X33459Y-39771D01*
X33473Y-39827D01*
X33501Y-39855D01*
X33530Y-39869D01*
X33586Y-39869D01*
X33614Y-39855D01*
X33642Y-39827D01*
X33656Y-39771D01*
X33656Y-39672D01*
X33642Y-39616D01*
X33614Y-39588D01*
X33586Y-39574D01*
X33333Y-39869D02*
X33333Y-39672D01*
X33333Y-39728D02*
X33319Y-39700D01*
X33305Y-39686D01*
X33276Y-39672D01*
X33248Y-39672D01*
X33150Y-39869D02*
X33150Y-39672D01*
X33150Y-39574D02*
X33164Y-39588D01*
X33150Y-39602D01*
X33136Y-39588D01*
X33150Y-39574D01*
X33150Y-39602D01*
X32883Y-39672D02*
X32883Y-39911D01*
X32897Y-39939D01*
X32911Y-39953D01*
X32939Y-39967D01*
X32981Y-39967D01*
X33009Y-39953D01*
X32883Y-39855D02*
X32911Y-39869D01*
X32967Y-39869D01*
X32995Y-39855D01*
X33009Y-39841D01*
X33023Y-39813D01*
X33023Y-39728D01*
X33009Y-39700D01*
X32995Y-39686D01*
X32967Y-39672D01*
X32911Y-39672D01*
X32883Y-39686D01*
X32742Y-39869D02*
X32742Y-39672D01*
X32742Y-39574D02*
X32756Y-39588D01*
X32742Y-39602D01*
X32728Y-39588D01*
X32742Y-39574D01*
X32742Y-39602D01*
X32602Y-39672D02*
X32602Y-39869D01*
X32602Y-39700D02*
X32588Y-39686D01*
X32559Y-39672D01*
X32517Y-39672D01*
X32489Y-39686D01*
X32475Y-39714D01*
X32475Y-39869D01*
X32208Y-39869D02*
X32208Y-39714D01*
X32222Y-39686D01*
X32250Y-39672D01*
X32306Y-39672D01*
X32334Y-39686D01*
X32208Y-39855D02*
X32236Y-39869D01*
X32306Y-39869D01*
X32334Y-39855D01*
X32348Y-39827D01*
X32348Y-39799D01*
X32334Y-39771D01*
X32306Y-39757D01*
X32236Y-39757D01*
X32208Y-39742D01*
X32025Y-39869D02*
X32053Y-39855D01*
X32067Y-39827D01*
X32067Y-39574D01*
X31561Y-39869D02*
X31561Y-39574D01*
X31561Y-39855D02*
X31589Y-39869D01*
X31645Y-39869D01*
X31674Y-39855D01*
X31688Y-39841D01*
X31702Y-39813D01*
X31702Y-39728D01*
X31688Y-39700D01*
X31674Y-39686D01*
X31645Y-39672D01*
X31589Y-39672D01*
X31561Y-39686D01*
X31308Y-39855D02*
X31336Y-39869D01*
X31392Y-39869D01*
X31420Y-39855D01*
X31435Y-39827D01*
X31435Y-39714D01*
X31420Y-39686D01*
X31392Y-39672D01*
X31336Y-39672D01*
X31308Y-39686D01*
X31294Y-39714D01*
X31294Y-39742D01*
X31435Y-39771D01*
X31181Y-39855D02*
X31153Y-39869D01*
X31097Y-39869D01*
X31069Y-39855D01*
X31055Y-39827D01*
X31055Y-39813D01*
X31069Y-39785D01*
X31097Y-39771D01*
X31139Y-39771D01*
X31167Y-39757D01*
X31181Y-39728D01*
X31181Y-39714D01*
X31167Y-39686D01*
X31139Y-39672D01*
X31097Y-39672D01*
X31069Y-39686D01*
X30928Y-39869D02*
X30928Y-39672D01*
X30928Y-39574D02*
X30942Y-39588D01*
X30928Y-39602D01*
X30914Y-39588D01*
X30928Y-39574D01*
X30928Y-39602D01*
X30661Y-39672D02*
X30661Y-39911D01*
X30675Y-39939D01*
X30689Y-39953D01*
X30717Y-39967D01*
X30760Y-39967D01*
X30788Y-39953D01*
X30661Y-39855D02*
X30689Y-39869D01*
X30746Y-39869D01*
X30774Y-39855D01*
X30788Y-39841D01*
X30802Y-39813D01*
X30802Y-39728D01*
X30788Y-39700D01*
X30774Y-39686D01*
X30746Y-39672D01*
X30689Y-39672D01*
X30661Y-39686D01*
X30521Y-39672D02*
X30521Y-39869D01*
X30521Y-39700D02*
X30507Y-39686D01*
X30478Y-39672D01*
X30436Y-39672D01*
X30408Y-39686D01*
X30394Y-39714D01*
X30394Y-39869D01*
X30028Y-39869D02*
X30028Y-39574D01*
X30028Y-39686D02*
X30000Y-39672D01*
X29944Y-39672D01*
X29916Y-39686D01*
X29902Y-39700D01*
X29888Y-39728D01*
X29888Y-39813D01*
X29902Y-39841D01*
X29916Y-39855D01*
X29944Y-39869D01*
X30000Y-39869D01*
X30028Y-39855D01*
X29789Y-39672D02*
X29719Y-39869D01*
X29649Y-39672D02*
X29719Y-39869D01*
X29747Y-39939D01*
X29761Y-39953D01*
X29789Y-39967D01*
X29269Y-39869D02*
X29297Y-39855D01*
X29311Y-39827D01*
X29311Y-39574D01*
X29157Y-39869D02*
X29157Y-39672D01*
X29157Y-39574D02*
X29171Y-39588D01*
X29157Y-39602D01*
X29143Y-39588D01*
X29157Y-39574D01*
X29157Y-39602D01*
X29016Y-39869D02*
X29016Y-39672D01*
X29016Y-39700D02*
X29002Y-39686D01*
X28974Y-39672D01*
X28932Y-39672D01*
X28904Y-39686D01*
X28890Y-39714D01*
X28890Y-39869D01*
X28890Y-39714D02*
X28875Y-39686D01*
X28847Y-39672D01*
X28805Y-39672D01*
X28777Y-39686D01*
X28763Y-39714D01*
X28763Y-39869D01*
X28622Y-39672D02*
X28622Y-39967D01*
X28622Y-39686D02*
X28594Y-39672D01*
X28538Y-39672D01*
X28510Y-39686D01*
X28496Y-39700D01*
X28482Y-39728D01*
X28482Y-39813D01*
X28496Y-39841D01*
X28510Y-39855D01*
X28538Y-39869D01*
X28594Y-39869D01*
X28622Y-39855D01*
X28355Y-39869D02*
X28355Y-39574D01*
X28327Y-39757D02*
X28243Y-39869D01*
X28243Y-39672D02*
X28355Y-39785D01*
X28116Y-39869D02*
X28116Y-39672D01*
X28116Y-39574D02*
X28130Y-39588D01*
X28116Y-39602D01*
X28102Y-39588D01*
X28116Y-39574D01*
X28116Y-39602D01*
X27976Y-39672D02*
X27976Y-39869D01*
X27976Y-39700D02*
X27962Y-39686D01*
X27933Y-39672D01*
X27891Y-39672D01*
X27863Y-39686D01*
X27849Y-39714D01*
X27849Y-39869D01*
X27708Y-39841D02*
X27694Y-39855D01*
X27708Y-39869D01*
X27723Y-39855D01*
X27708Y-39841D01*
X27708Y-39869D01*
X27610Y-39672D02*
X27498Y-39672D01*
X27568Y-39869D02*
X27568Y-39616D01*
X27554Y-39588D01*
X27526Y-39574D01*
X27498Y-39574D01*
X27399Y-39869D02*
X27399Y-39672D01*
X27399Y-39728D02*
X27385Y-39700D01*
X27371Y-39686D01*
X27343Y-39672D01*
X27315Y-39672D01*
G54D13*
X36824Y-30156D02*
X36561Y-30156D01*
X36449Y-30568D02*
X36824Y-30568D01*
X36824Y-29781D01*
X36449Y-29781D01*
X36149Y-30531D02*
X36036Y-30568D01*
X35849Y-30568D01*
X35774Y-30531D01*
X35736Y-30493D01*
X35699Y-30418D01*
X35699Y-30343D01*
X35736Y-30268D01*
X35774Y-30231D01*
X35849Y-30193D01*
X35999Y-30156D01*
X36074Y-30118D01*
X36111Y-30081D01*
X36149Y-30006D01*
X36149Y-29931D01*
X36111Y-29856D01*
X36074Y-29818D01*
X35999Y-29781D01*
X35811Y-29781D01*
X35699Y-29818D01*
X35362Y-30568D02*
X35362Y-29781D01*
X35062Y-29781D01*
X34987Y-29818D01*
X34949Y-29856D01*
X34912Y-29931D01*
X34912Y-30043D01*
X34949Y-30118D01*
X34987Y-30156D01*
X35062Y-30193D01*
X35362Y-30193D01*
X34462Y-30118D02*
X34537Y-30081D01*
X34574Y-30043D01*
X34612Y-29968D01*
X34612Y-29931D01*
X34574Y-29856D01*
X34537Y-29818D01*
X34462Y-29781D01*
X34312Y-29781D01*
X34237Y-29818D01*
X34199Y-29856D01*
X34162Y-29931D01*
X34162Y-29968D01*
X34199Y-30043D01*
X34237Y-30081D01*
X34312Y-30118D01*
X34462Y-30118D01*
X34537Y-30156D01*
X34574Y-30193D01*
X34612Y-30268D01*
X34612Y-30418D01*
X34574Y-30493D01*
X34537Y-30531D01*
X34462Y-30568D01*
X34312Y-30568D01*
X34237Y-30531D01*
X34199Y-30493D01*
X34162Y-30418D01*
X34162Y-30268D01*
X34199Y-30193D01*
X34237Y-30156D01*
X34312Y-30118D01*
X33862Y-29856D02*
X33824Y-29818D01*
X33749Y-29781D01*
X33562Y-29781D01*
X33487Y-29818D01*
X33449Y-29856D01*
X33412Y-29931D01*
X33412Y-30006D01*
X33449Y-30118D01*
X33899Y-30568D01*
X33412Y-30568D01*
X32737Y-29781D02*
X32887Y-29781D01*
X32962Y-29818D01*
X32999Y-29856D01*
X33074Y-29968D01*
X33112Y-30118D01*
X33112Y-30418D01*
X33074Y-30493D01*
X33037Y-30531D01*
X32962Y-30568D01*
X32812Y-30568D01*
X32737Y-30531D01*
X32699Y-30493D01*
X32662Y-30418D01*
X32662Y-30231D01*
X32699Y-30156D01*
X32737Y-30118D01*
X32812Y-30081D01*
X32962Y-30081D01*
X33037Y-30118D01*
X33074Y-30156D01*
X33112Y-30231D01*
X31987Y-29781D02*
X32137Y-29781D01*
X32212Y-29818D01*
X32249Y-29856D01*
X32324Y-29968D01*
X32362Y-30118D01*
X32362Y-30418D01*
X32324Y-30493D01*
X32287Y-30531D01*
X32212Y-30568D01*
X32062Y-30568D01*
X31987Y-30531D01*
X31949Y-30493D01*
X31912Y-30418D01*
X31912Y-30231D01*
X31949Y-30156D01*
X31987Y-30118D01*
X32062Y-30081D01*
X32212Y-30081D01*
X32287Y-30118D01*
X32324Y-30156D01*
X32362Y-30231D01*
X30712Y-30156D02*
X30600Y-30193D01*
X30562Y-30231D01*
X30525Y-30306D01*
X30525Y-30418D01*
X30562Y-30493D01*
X30600Y-30531D01*
X30675Y-30568D01*
X30975Y-30568D01*
X30975Y-29781D01*
X30712Y-29781D01*
X30637Y-29818D01*
X30600Y-29856D01*
X30562Y-29931D01*
X30562Y-30006D01*
X30600Y-30081D01*
X30637Y-30118D01*
X30712Y-30156D01*
X30975Y-30156D01*
X30187Y-30568D02*
X30187Y-30043D01*
X30187Y-30193D02*
X30150Y-30118D01*
X30112Y-30081D01*
X30037Y-30043D01*
X29962Y-30043D01*
X29400Y-30531D02*
X29475Y-30568D01*
X29625Y-30568D01*
X29700Y-30531D01*
X29737Y-30456D01*
X29737Y-30156D01*
X29700Y-30081D01*
X29625Y-30043D01*
X29475Y-30043D01*
X29400Y-30081D01*
X29362Y-30156D01*
X29362Y-30231D01*
X29737Y-30306D01*
X28687Y-30568D02*
X28687Y-30156D01*
X28725Y-30081D01*
X28800Y-30043D01*
X28950Y-30043D01*
X29025Y-30081D01*
X28687Y-30531D02*
X28762Y-30568D01*
X28950Y-30568D01*
X29025Y-30531D01*
X29062Y-30456D01*
X29062Y-30381D01*
X29025Y-30306D01*
X28950Y-30268D01*
X28762Y-30268D01*
X28687Y-30231D01*
X28312Y-30568D02*
X28312Y-29781D01*
X28237Y-30268D02*
X28012Y-30568D01*
X28012Y-30043D02*
X28312Y-30343D01*
X27562Y-30568D02*
X27637Y-30531D01*
X27675Y-30493D01*
X27712Y-30418D01*
X27712Y-30193D01*
X27675Y-30118D01*
X27637Y-30081D01*
X27562Y-30043D01*
X27450Y-30043D01*
X27375Y-30081D01*
X27338Y-30118D01*
X27300Y-30193D01*
X27300Y-30418D01*
X27338Y-30493D01*
X27375Y-30531D01*
X27450Y-30568D01*
X27562Y-30568D01*
X26625Y-30043D02*
X26625Y-30568D01*
X26963Y-30043D02*
X26963Y-30456D01*
X26925Y-30531D01*
X26850Y-30568D01*
X26738Y-30568D01*
X26663Y-30531D01*
X26625Y-30493D01*
X26363Y-30043D02*
X26063Y-30043D01*
X26250Y-29781D02*
X26250Y-30456D01*
X26213Y-30531D01*
X26138Y-30568D01*
X26063Y-30568D01*
G54D14*
G36*
X33903Y-37940D02*
X33905Y-37996D01*
X33909Y-38044D01*
X33914Y-38076D01*
X33916Y-38081D01*
X33924Y-38099D01*
X33935Y-38107D01*
X33953Y-38110D01*
X33986Y-38108D01*
X33998Y-38107D01*
X34037Y-38102D01*
X34070Y-38097D01*
X34085Y-38093D01*
X34094Y-38089D01*
X34101Y-38081D01*
X34106Y-38067D01*
X34112Y-38042D01*
X34117Y-38003D01*
X34125Y-37946D01*
X34125Y-37943D01*
X34153Y-37810D01*
X34202Y-37672D01*
X34271Y-37530D01*
X34331Y-37431D01*
X34361Y-37387D01*
X34399Y-37335D01*
X34441Y-37278D01*
X34486Y-37221D01*
X34528Y-37167D01*
X34567Y-37121D01*
X34597Y-37086D01*
X34611Y-37072D01*
X34639Y-37046D01*
X34673Y-37099D01*
X34691Y-37132D01*
X34703Y-37161D01*
X34705Y-37174D01*
X34705Y-37191D01*
X34704Y-37227D01*
X34701Y-37277D01*
X34698Y-37337D01*
X34695Y-37399D01*
X34692Y-37463D01*
X34687Y-37522D01*
X34682Y-37578D01*
X34675Y-37633D01*
X34666Y-37693D01*
X34654Y-37758D01*
X34639Y-37834D01*
X34620Y-37921D01*
X34597Y-38025D01*
X34575Y-38121D01*
X34547Y-38244D01*
X34524Y-38349D01*
X34505Y-38439D01*
X34490Y-38517D01*
X34480Y-38586D01*
X34471Y-38649D01*
X34466Y-38710D01*
X34463Y-38771D01*
X34461Y-38835D01*
X34461Y-38887D01*
X34462Y-38996D01*
X34467Y-39087D01*
X34477Y-39168D01*
X34492Y-39243D01*
X34512Y-39316D01*
X34531Y-39370D01*
X34570Y-39457D01*
X34622Y-39542D01*
X34683Y-39620D01*
X34749Y-39688D01*
X34817Y-39741D01*
X34851Y-39760D01*
X34897Y-39779D01*
X34928Y-39783D01*
X34949Y-39772D01*
X34958Y-39757D01*
X34964Y-39732D01*
X34970Y-39694D01*
X34974Y-39661D01*
X34981Y-39593D01*
X34925Y-39527D01*
X34869Y-39452D01*
X34821Y-39367D01*
X34780Y-39272D01*
X34745Y-39161D01*
X34715Y-39033D01*
X34712Y-39021D01*
X34704Y-38980D01*
X34699Y-38943D01*
X34695Y-38907D01*
X34693Y-38870D01*
X34693Y-38830D01*
X34697Y-38784D01*
X34703Y-38730D01*
X34712Y-38666D01*
X34725Y-38589D01*
X34741Y-38496D01*
X34761Y-38386D01*
X34777Y-38301D01*
X34800Y-38173D01*
X34820Y-38063D01*
X34836Y-37969D01*
X34850Y-37887D01*
X34861Y-37815D01*
X34870Y-37750D01*
X34878Y-37689D01*
X34885Y-37629D01*
X34891Y-37567D01*
X34893Y-37546D01*
X34899Y-37455D01*
X34901Y-37353D01*
X34899Y-37247D01*
X34894Y-37145D01*
X34886Y-37052D01*
X34876Y-36983D01*
X34861Y-36913D01*
X34840Y-36833D01*
X34816Y-36752D01*
X34791Y-36677D01*
X34767Y-36616D01*
X34741Y-36559D01*
X34661Y-36564D01*
X34600Y-36569D01*
X34557Y-36577D01*
X34527Y-36589D01*
X34506Y-36610D01*
X34487Y-36641D01*
X34470Y-36682D01*
X34453Y-36726D01*
X34435Y-36768D01*
X34415Y-36809D01*
X34393Y-36853D01*
X34366Y-36902D01*
X34334Y-36957D01*
X34295Y-37021D01*
X34248Y-37098D01*
X34192Y-37189D01*
X34143Y-37266D01*
X34096Y-37344D01*
X34051Y-37425D01*
X34009Y-37504D01*
X33972Y-37580D01*
X33943Y-37647D01*
X33923Y-37702D01*
X33916Y-37727D01*
X33910Y-37767D01*
X33906Y-37820D01*
X33904Y-37879D01*
X33903Y-37940D01*
X33903Y-37940D01*
X33903Y-37940D01*
G37*
G36*
X32506Y-37344D02*
X32594Y-37344D01*
X32681Y-37344D01*
X32681Y-37148D01*
X32682Y-37062D01*
X32684Y-36995D01*
X32690Y-36945D01*
X32699Y-36909D01*
X32713Y-36885D01*
X32733Y-36871D01*
X32760Y-36864D01*
X32794Y-36862D01*
X32802Y-36862D01*
X32853Y-36870D01*
X32890Y-36894D01*
X32912Y-36934D01*
X32917Y-36951D01*
X32917Y-36969D01*
X32918Y-37006D01*
X32919Y-37061D01*
X32920Y-37132D01*
X32920Y-37217D01*
X32920Y-37315D01*
X32921Y-37422D01*
X32920Y-37538D01*
X32920Y-37660D01*
X32920Y-37698D01*
X32917Y-38407D01*
X32881Y-38439D01*
X32838Y-38465D01*
X32790Y-38473D01*
X32744Y-38462D01*
X32718Y-38445D01*
X32687Y-38418D01*
X32681Y-38168D01*
X32676Y-37919D01*
X32594Y-37919D01*
X32512Y-37919D01*
X32513Y-38165D01*
X32513Y-38263D01*
X32516Y-38343D01*
X32520Y-38407D01*
X32527Y-38457D01*
X32538Y-38496D01*
X32552Y-38529D01*
X32570Y-38557D01*
X32594Y-38582D01*
X32599Y-38588D01*
X32641Y-38621D01*
X32684Y-38641D01*
X32703Y-38645D01*
X32797Y-38656D01*
X32884Y-38647D01*
X32917Y-38637D01*
X32979Y-38611D01*
X33024Y-38577D01*
X33059Y-38531D01*
X33072Y-38506D01*
X33103Y-38444D01*
X33103Y-37667D01*
X33103Y-36890D01*
X33076Y-36832D01*
X33037Y-36768D01*
X32984Y-36720D01*
X32917Y-36689D01*
X32835Y-36674D01*
X32791Y-36673D01*
X32710Y-36682D01*
X32642Y-36709D01*
X32588Y-36754D01*
X32548Y-36811D01*
X32532Y-36857D01*
X32520Y-36925D01*
X32511Y-37013D01*
X32507Y-37121D01*
X32506Y-37188D01*
X32506Y-37344D01*
X32506Y-37344D01*
X32506Y-37344D01*
G37*
G36*
X31145Y-38635D02*
X31217Y-38635D01*
X31261Y-38634D01*
X31287Y-38627D01*
X31300Y-38613D01*
X31304Y-38588D01*
X31304Y-38582D01*
X31307Y-38573D01*
X31314Y-38577D01*
X31314Y-38429D01*
X31314Y-38160D01*
X31314Y-37892D01*
X31345Y-37905D01*
X31410Y-37940D01*
X31462Y-37985D01*
X31489Y-38023D01*
X31500Y-38043D01*
X31507Y-38063D01*
X31512Y-38088D01*
X31515Y-38121D01*
X31518Y-38166D01*
X31519Y-38228D01*
X31520Y-38239D01*
X31521Y-38316D01*
X31519Y-38374D01*
X31515Y-38416D01*
X31506Y-38446D01*
X31496Y-38465D01*
X31479Y-38478D01*
X31475Y-38480D01*
X31427Y-38493D01*
X31382Y-38485D01*
X31347Y-38461D01*
X31314Y-38429D01*
X31314Y-38577D01*
X31320Y-38579D01*
X31344Y-38600D01*
X31346Y-38603D01*
X31399Y-38640D01*
X31458Y-38656D01*
X31522Y-38651D01*
X31560Y-38641D01*
X31612Y-38611D01*
X31652Y-38566D01*
X31675Y-38514D01*
X31680Y-38482D01*
X31683Y-38432D01*
X31684Y-38364D01*
X31684Y-38284D01*
X31684Y-38275D01*
X31682Y-38206D01*
X31681Y-38154D01*
X31678Y-38116D01*
X31674Y-38087D01*
X31668Y-38064D01*
X31660Y-38042D01*
X31648Y-38017D01*
X31644Y-38009D01*
X31614Y-37957D01*
X31578Y-37913D01*
X31532Y-37874D01*
X31473Y-37836D01*
X31415Y-37805D01*
X31313Y-37754D01*
X31317Y-37560D01*
X31318Y-37490D01*
X31320Y-37439D01*
X31322Y-37403D01*
X31325Y-37378D01*
X31330Y-37361D01*
X31337Y-37350D01*
X31343Y-37343D01*
X31369Y-37327D01*
X31407Y-37320D01*
X31416Y-37320D01*
X31450Y-37322D01*
X31474Y-37326D01*
X31479Y-37328D01*
X31495Y-37344D01*
X31506Y-37371D01*
X31514Y-37411D01*
X31519Y-37468D01*
X31521Y-37542D01*
X31521Y-37579D01*
X31521Y-37749D01*
X31593Y-37749D01*
X31665Y-37749D01*
X31661Y-37533D01*
X31660Y-37458D01*
X31659Y-37401D01*
X31656Y-37359D01*
X31653Y-37328D01*
X31648Y-37305D01*
X31642Y-37285D01*
X31633Y-37266D01*
X31632Y-37264D01*
X31602Y-37218D01*
X31558Y-37184D01*
X31556Y-37182D01*
X31527Y-37167D01*
X31500Y-37158D01*
X31469Y-37154D01*
X31424Y-37152D01*
X31413Y-37152D01*
X31364Y-37153D01*
X31330Y-37157D01*
X31303Y-37165D01*
X31275Y-37179D01*
X31269Y-37183D01*
X31233Y-37208D01*
X31206Y-37240D01*
X31187Y-37275D01*
X31156Y-37339D01*
X31153Y-37743D01*
X31152Y-37849D01*
X31152Y-37959D01*
X31151Y-38070D01*
X31150Y-38175D01*
X31149Y-38271D01*
X31148Y-38353D01*
X31148Y-38392D01*
X31145Y-38635D01*
X31145Y-38635D01*
X31145Y-38635D01*
G37*
G36*
X30472Y-37911D02*
X30472Y-38040D01*
X30472Y-38149D01*
X30473Y-38240D01*
X30475Y-38315D01*
X30477Y-38376D01*
X30481Y-38425D01*
X30486Y-38463D01*
X30493Y-38494D01*
X30501Y-38518D01*
X30511Y-38539D01*
X30524Y-38557D01*
X30539Y-38575D01*
X30545Y-38581D01*
X30593Y-38620D01*
X30636Y-38637D01*
X30636Y-37910D01*
X30636Y-37778D01*
X30637Y-37663D01*
X30638Y-37567D01*
X30640Y-37489D01*
X30642Y-37431D01*
X30645Y-37394D01*
X30647Y-37380D01*
X30669Y-37348D01*
X30703Y-37328D01*
X30745Y-37322D01*
X30787Y-37330D01*
X30819Y-37348D01*
X30849Y-37375D01*
X30853Y-37871D01*
X30853Y-37974D01*
X30853Y-38072D01*
X30853Y-38162D01*
X30853Y-38241D01*
X30852Y-38307D01*
X30851Y-38358D01*
X30850Y-38391D01*
X30849Y-38403D01*
X30833Y-38446D01*
X30804Y-38472D01*
X30760Y-38482D01*
X30752Y-38482D01*
X30718Y-38481D01*
X30691Y-38477D01*
X30686Y-38475D01*
X30674Y-38470D01*
X30665Y-38463D01*
X30657Y-38452D01*
X30651Y-38435D01*
X30646Y-38410D01*
X30642Y-38376D01*
X30640Y-38330D01*
X30638Y-38272D01*
X30637Y-38198D01*
X30636Y-38107D01*
X30636Y-37998D01*
X30636Y-37910D01*
X30636Y-38637D01*
X30656Y-38645D01*
X30727Y-38656D01*
X30804Y-38653D01*
X30848Y-38644D01*
X30895Y-38622D01*
X30939Y-38584D01*
X30976Y-38536D01*
X30998Y-38487D01*
X31001Y-38471D01*
X31004Y-38448D01*
X31007Y-38416D01*
X31009Y-38375D01*
X31011Y-38321D01*
X31012Y-38255D01*
X31013Y-38172D01*
X31013Y-38072D01*
X31013Y-37953D01*
X31013Y-37891D01*
X31013Y-37768D01*
X31013Y-37666D01*
X31013Y-37580D01*
X31013Y-37512D01*
X31012Y-37457D01*
X31010Y-37414D01*
X31009Y-37381D01*
X31006Y-37356D01*
X31003Y-37337D01*
X30999Y-37322D01*
X30995Y-37310D01*
X30990Y-37297D01*
X30988Y-37295D01*
X30956Y-37237D01*
X30918Y-37197D01*
X30871Y-37170D01*
X30811Y-37157D01*
X30745Y-37153D01*
X30694Y-37154D01*
X30657Y-37158D01*
X30628Y-37167D01*
X30606Y-37177D01*
X30553Y-37217D01*
X30512Y-37272D01*
X30486Y-37335D01*
X30483Y-37345D01*
X30480Y-37371D01*
X30478Y-37417D01*
X30476Y-37483D01*
X30474Y-37568D01*
X30473Y-37670D01*
X30472Y-37789D01*
X30472Y-37911D01*
X30472Y-37911D01*
X30472Y-37911D01*
G37*
G36*
X29816Y-38405D02*
X29817Y-38442D01*
X29819Y-38470D01*
X29824Y-38491D01*
X29831Y-38510D01*
X29842Y-38531D01*
X29844Y-38537D01*
X29868Y-38576D01*
X29894Y-38603D01*
X29928Y-38623D01*
X29981Y-38642D01*
X30044Y-38653D01*
X30110Y-38655D01*
X30169Y-38648D01*
X30192Y-38641D01*
X30238Y-38616D01*
X30280Y-38577D01*
X30314Y-38532D01*
X30328Y-38497D01*
X30333Y-38471D01*
X30336Y-38428D01*
X30339Y-38374D01*
X30340Y-38314D01*
X30340Y-38299D01*
X30340Y-38143D01*
X30264Y-38143D01*
X30187Y-38143D01*
X30187Y-38286D01*
X30187Y-38429D01*
X30155Y-38461D01*
X30116Y-38487D01*
X30073Y-38493D01*
X30030Y-38477D01*
X30016Y-38467D01*
X30002Y-38455D01*
X29994Y-38442D01*
X29988Y-38425D01*
X29985Y-38399D01*
X29983Y-38358D01*
X29981Y-38307D01*
X29980Y-38250D01*
X29980Y-38210D01*
X29983Y-38180D01*
X29989Y-38156D01*
X29998Y-38132D01*
X30006Y-38116D01*
X30030Y-38078D01*
X30068Y-38029D01*
X30123Y-37969D01*
X30164Y-37928D01*
X30209Y-37882D01*
X30250Y-37838D01*
X30284Y-37800D01*
X30306Y-37771D01*
X30314Y-37760D01*
X30322Y-37742D01*
X30328Y-37719D01*
X30332Y-37689D01*
X30335Y-37647D01*
X30337Y-37589D01*
X30339Y-37540D01*
X30340Y-37457D01*
X30338Y-37392D01*
X30333Y-37341D01*
X30325Y-37302D01*
X30313Y-37270D01*
X30295Y-37243D01*
X30278Y-37223D01*
X30226Y-37182D01*
X30160Y-37157D01*
X30081Y-37149D01*
X30044Y-37150D01*
X29975Y-37161D01*
X29923Y-37181D01*
X29884Y-37212D01*
X29854Y-37257D01*
X29851Y-37265D01*
X29840Y-37290D01*
X29832Y-37313D01*
X29827Y-37339D01*
X29824Y-37372D01*
X29822Y-37417D01*
X29822Y-37478D01*
X29822Y-37496D01*
X29821Y-37667D01*
X29894Y-37670D01*
X29968Y-37673D01*
X29969Y-37560D01*
X29971Y-37480D01*
X29977Y-37419D01*
X29989Y-37375D01*
X30008Y-37346D01*
X30035Y-37329D01*
X30070Y-37322D01*
X30083Y-37322D01*
X30118Y-37325D01*
X30141Y-37337D01*
X30153Y-37351D01*
X30163Y-37365D01*
X30170Y-37382D01*
X30173Y-37406D01*
X30175Y-37441D01*
X30176Y-37492D01*
X30176Y-37521D01*
X30175Y-37591D01*
X30172Y-37642D01*
X30167Y-37676D01*
X30161Y-37692D01*
X30146Y-37712D01*
X30120Y-37742D01*
X30086Y-37777D01*
X30065Y-37798D01*
X29997Y-37863D01*
X29943Y-37917D01*
X29901Y-37962D01*
X29870Y-38001D01*
X29848Y-38038D01*
X29834Y-38076D01*
X29825Y-38118D01*
X29821Y-38168D01*
X29818Y-38229D01*
X29817Y-38285D01*
X29816Y-38354D01*
X29816Y-38405D01*
X29816Y-38405D01*
X29816Y-38405D01*
G37*
G36*
X33778Y-38609D02*
X33780Y-38631D01*
X33781Y-38635D01*
X33795Y-38640D01*
X33828Y-38644D01*
X33875Y-38645D01*
X33934Y-38644D01*
X34000Y-38641D01*
X34070Y-38636D01*
X34140Y-38630D01*
X34222Y-38621D01*
X34284Y-38613D01*
X34330Y-38605D01*
X34362Y-38596D01*
X34382Y-38583D01*
X34393Y-38565D01*
X34399Y-38540D01*
X34399Y-38509D01*
X34399Y-38476D01*
X34399Y-38384D01*
X34326Y-38384D01*
X34268Y-38385D01*
X34202Y-38388D01*
X34134Y-38393D01*
X34067Y-38400D01*
X34008Y-38406D01*
X33962Y-38413D01*
X33937Y-38419D01*
X33891Y-38440D01*
X33848Y-38474D01*
X33811Y-38516D01*
X33787Y-38559D01*
X33782Y-38579D01*
X33778Y-38609D01*
X33778Y-38609D01*
X33778Y-38609D01*
G37*
G36*
X31817Y-38635D02*
X31898Y-38635D01*
X31980Y-38635D01*
X31983Y-38003D01*
X31984Y-37887D01*
X31985Y-37777D01*
X31986Y-37676D01*
X31988Y-37585D01*
X31989Y-37506D01*
X31991Y-37441D01*
X31992Y-37393D01*
X31994Y-37363D01*
X31996Y-37353D01*
X32018Y-37329D01*
X32053Y-37318D01*
X32093Y-37318D01*
X32133Y-37330D01*
X32167Y-37353D01*
X32177Y-37365D01*
X32182Y-37372D01*
X32186Y-37381D01*
X32190Y-37392D01*
X32192Y-37408D01*
X32195Y-37430D01*
X32196Y-37460D01*
X32197Y-37501D01*
X32198Y-37553D01*
X32199Y-37619D01*
X32199Y-37699D01*
X32200Y-37797D01*
X32200Y-37914D01*
X32200Y-38016D01*
X32200Y-38635D01*
X32282Y-38635D01*
X32364Y-38635D01*
X32364Y-37661D01*
X32364Y-36687D01*
X32282Y-36687D01*
X32200Y-36687D01*
X32200Y-36968D01*
X32200Y-37248D01*
X32157Y-37209D01*
X32101Y-37170D01*
X32042Y-37150D01*
X31984Y-37149D01*
X31931Y-37165D01*
X31884Y-37196D01*
X31849Y-37244D01*
X31829Y-37300D01*
X31826Y-37326D01*
X31823Y-37373D01*
X31821Y-37442D01*
X31819Y-37531D01*
X31818Y-37641D01*
X31817Y-37772D01*
X31817Y-37922D01*
X31817Y-37995D01*
X31817Y-38635D01*
X31817Y-38635D01*
X31817Y-38635D01*
G37*
G36*
X29169Y-38635D02*
X29252Y-38635D01*
X29302Y-38634D01*
X29331Y-38628D01*
X29340Y-38622D01*
X29340Y-38608D01*
X29341Y-38576D01*
X29342Y-38524D01*
X29342Y-38457D01*
X29342Y-38375D01*
X29342Y-38280D01*
X29342Y-38175D01*
X29342Y-38060D01*
X29342Y-37939D01*
X29342Y-37891D01*
X29339Y-37174D01*
X29254Y-37171D01*
X29169Y-37168D01*
X29169Y-37902D01*
X29169Y-38635D01*
X29169Y-38635D01*
X29169Y-38635D01*
G37*
G36*
X28446Y-38636D02*
X28532Y-38633D01*
X28617Y-38630D01*
X28622Y-37991D01*
X28628Y-37352D01*
X28657Y-37330D01*
X28694Y-37315D01*
X28736Y-37318D01*
X28779Y-37338D01*
X28799Y-37355D01*
X28830Y-37386D01*
X28830Y-38011D01*
X28830Y-38635D01*
X28912Y-38635D01*
X28994Y-38635D01*
X28994Y-37902D01*
X28994Y-37168D01*
X28926Y-37171D01*
X28858Y-37174D01*
X28852Y-37222D01*
X28846Y-37270D01*
X28822Y-37237D01*
X28799Y-37214D01*
X28764Y-37189D01*
X28737Y-37174D01*
X28672Y-37152D01*
X28611Y-37150D01*
X28556Y-37168D01*
X28510Y-37204D01*
X28476Y-37255D01*
X28471Y-37266D01*
X28467Y-37278D01*
X28464Y-37292D01*
X28461Y-37309D01*
X28458Y-37333D01*
X28456Y-37364D01*
X28455Y-37404D01*
X28453Y-37456D01*
X28452Y-37520D01*
X28451Y-37599D01*
X28451Y-37694D01*
X28450Y-37807D01*
X28449Y-37940D01*
X28449Y-37971D01*
X28446Y-38636D01*
X28446Y-38636D01*
X28446Y-38636D01*
G37*
G36*
X27561Y-38628D02*
X27571Y-38631D01*
X27598Y-38634D01*
X27638Y-38635D01*
X27663Y-38635D01*
X27766Y-38635D01*
X27800Y-38539D01*
X27812Y-38506D01*
X27830Y-38455D01*
X27853Y-38391D01*
X27881Y-38315D01*
X27910Y-38231D01*
X27942Y-38143D01*
X27965Y-38077D01*
X28096Y-37710D01*
X28097Y-38173D01*
X28097Y-38635D01*
X28190Y-38635D01*
X28283Y-38635D01*
X28283Y-37661D01*
X28283Y-36686D01*
X28193Y-36689D01*
X28102Y-36693D01*
X28099Y-37098D01*
X28096Y-37503D01*
X27936Y-37095D01*
X27776Y-36687D01*
X27679Y-36687D01*
X27632Y-36687D01*
X27604Y-36689D01*
X27590Y-36693D01*
X27586Y-36700D01*
X27588Y-36709D01*
X27594Y-36723D01*
X27607Y-36755D01*
X27626Y-36804D01*
X27652Y-36865D01*
X27682Y-36938D01*
X27716Y-37020D01*
X27752Y-37108D01*
X27769Y-37148D01*
X27807Y-37238D01*
X27841Y-37322D01*
X27873Y-37398D01*
X27899Y-37463D01*
X27920Y-37516D01*
X27935Y-37554D01*
X27943Y-37574D01*
X27944Y-37578D01*
X27940Y-37589D01*
X27929Y-37620D01*
X27913Y-37667D01*
X27890Y-37729D01*
X27863Y-37803D01*
X27832Y-37888D01*
X27798Y-37981D01*
X27761Y-38081D01*
X27752Y-38105D01*
X27715Y-38206D01*
X27680Y-38301D01*
X27648Y-38387D01*
X27620Y-38464D01*
X27597Y-38528D01*
X27578Y-38578D01*
X27566Y-38612D01*
X27561Y-38628D01*
X27561Y-38628D01*
X27561Y-38628D01*
X27561Y-38628D01*
G37*
G36*
X26925Y-38635D02*
X27194Y-38635D01*
X27462Y-38635D01*
X27462Y-37661D01*
X27462Y-36687D01*
X27369Y-36687D01*
X27276Y-36687D01*
X27276Y-37568D01*
X27276Y-38449D01*
X27104Y-38452D01*
X26931Y-38455D01*
X26928Y-38545D01*
X26925Y-38635D01*
X26925Y-38635D01*
X26925Y-38635D01*
G37*
G36*
X26663Y-38635D02*
X26751Y-38635D01*
X26838Y-38635D01*
X26838Y-38488D01*
X26838Y-38340D01*
X26751Y-38340D01*
X26663Y-38340D01*
X26663Y-38488D01*
X26663Y-38635D01*
X26663Y-38635D01*
X26663Y-38635D01*
G37*
G36*
X34815Y-38475D02*
X34818Y-38510D01*
X34828Y-38525D01*
X34847Y-38522D01*
X34859Y-38515D01*
X34876Y-38506D01*
X34908Y-38493D01*
X34950Y-38475D01*
X34975Y-38465D01*
X35027Y-38443D01*
X35068Y-38422D01*
X35106Y-38395D01*
X35150Y-38358D01*
X35161Y-38347D01*
X35265Y-38239D01*
X35352Y-38120D01*
X35425Y-37988D01*
X35484Y-37842D01*
X35529Y-37680D01*
X35539Y-37635D01*
X35547Y-37589D01*
X35553Y-37546D01*
X35557Y-37501D01*
X35558Y-37448D01*
X35558Y-37382D01*
X35558Y-37326D01*
X35557Y-37262D01*
X35557Y-37206D01*
X35558Y-37161D01*
X35560Y-37130D01*
X35562Y-37119D01*
X35576Y-37118D01*
X35606Y-37120D01*
X35649Y-37125D01*
X35700Y-37134D01*
X35705Y-37134D01*
X35853Y-37156D01*
X35985Y-37165D01*
X36104Y-37163D01*
X36215Y-37149D01*
X36317Y-37123D01*
X36369Y-37105D01*
X36401Y-37087D01*
X36417Y-37066D01*
X36420Y-37039D01*
X36414Y-37014D01*
X36389Y-36962D01*
X36350Y-36923D01*
X36303Y-36901D01*
X36297Y-36900D01*
X36265Y-36898D01*
X36214Y-36902D01*
X36144Y-36911D01*
X36072Y-36922D01*
X35998Y-36934D01*
X35940Y-36942D01*
X35894Y-36945D01*
X35853Y-36943D01*
X35813Y-36935D01*
X35769Y-36923D01*
X35714Y-36904D01*
X35698Y-36898D01*
X35634Y-36872D01*
X35577Y-36841D01*
X35523Y-36803D01*
X35472Y-36756D01*
X35422Y-36697D01*
X35371Y-36626D01*
X35317Y-36540D01*
X35260Y-36437D01*
X35197Y-36316D01*
X35192Y-36307D01*
X35168Y-36262D01*
X35152Y-36234D01*
X35140Y-36219D01*
X35130Y-36215D01*
X35121Y-36218D01*
X35105Y-36230D01*
X35078Y-36252D01*
X35045Y-36282D01*
X35009Y-36316D01*
X34973Y-36351D01*
X34941Y-36382D01*
X34917Y-36407D01*
X34904Y-36423D01*
X34903Y-36425D01*
X34910Y-36437D01*
X34927Y-36461D01*
X34953Y-36493D01*
X34962Y-36503D01*
X35069Y-36646D01*
X35159Y-36799D01*
X35230Y-36959D01*
X35281Y-37125D01*
X35305Y-37246D01*
X35312Y-37296D01*
X35315Y-37342D01*
X35316Y-37389D01*
X35315Y-37443D01*
X35311Y-37512D01*
X35309Y-37530D01*
X35300Y-37630D01*
X35288Y-37724D01*
X35274Y-37807D01*
X35258Y-37876D01*
X35242Y-37928D01*
X35237Y-37938D01*
X35218Y-37968D01*
X35184Y-38008D01*
X35137Y-38056D01*
X35081Y-38109D01*
X35018Y-38165D01*
X35000Y-38180D01*
X34933Y-38239D01*
X34883Y-38291D01*
X34849Y-38340D01*
X34828Y-38387D01*
X34817Y-38438D01*
X34815Y-38475D01*
X34815Y-38475D01*
X34815Y-38475D01*
G37*
G36*
X29169Y-36994D02*
X29252Y-36994D01*
X29300Y-36992D01*
X29329Y-36988D01*
X29340Y-36979D01*
X29342Y-36964D01*
X29343Y-36930D01*
X29343Y-36885D01*
X29342Y-36832D01*
X29342Y-36829D01*
X29339Y-36693D01*
X29257Y-36693D01*
X29175Y-36693D01*
X29172Y-36843D01*
X29169Y-36994D01*
X29169Y-36994D01*
X29169Y-36994D01*
G37*
G36*
X34088Y-36457D02*
X34098Y-36493D01*
X34127Y-36523D01*
X34172Y-36546D01*
X34231Y-36560D01*
X34302Y-36566D01*
X34382Y-36562D01*
X34405Y-36559D01*
X34457Y-36549D01*
X34521Y-36532D01*
X34589Y-36510D01*
X34653Y-36486D01*
X34681Y-36473D01*
X34815Y-36400D01*
X34937Y-36309D01*
X35045Y-36201D01*
X35141Y-36075D01*
X35224Y-35931D01*
X35293Y-35771D01*
X35349Y-35593D01*
X35357Y-35565D01*
X35370Y-35505D01*
X35373Y-35460D01*
X35367Y-35425D01*
X35351Y-35395D01*
X35339Y-35381D01*
X35316Y-35358D01*
X35297Y-35344D01*
X35291Y-35342D01*
X35281Y-35351D01*
X35262Y-35376D01*
X35235Y-35414D01*
X35204Y-35461D01*
X35170Y-35515D01*
X35081Y-35657D01*
X35001Y-35781D01*
X34928Y-35889D01*
X34860Y-35981D01*
X34796Y-36061D01*
X34735Y-36128D01*
X34676Y-36186D01*
X34616Y-36235D01*
X34555Y-36275D01*
X34492Y-36312D01*
X34453Y-36331D01*
X34350Y-36373D01*
X34242Y-36400D01*
X34164Y-36411D01*
X34088Y-36419D01*
X34088Y-36457D01*
X34088Y-36457D01*
X34088Y-36457D01*
G37*
G36*
X26578Y-34278D02*
X26579Y-34396D01*
X26583Y-34519D01*
X26588Y-34659D01*
X26595Y-34810D01*
X26603Y-34969D01*
X26612Y-35130D01*
X26623Y-35288D01*
X26634Y-35438D01*
X26642Y-35545D01*
X26651Y-35630D01*
X26663Y-35724D01*
X26677Y-35820D01*
X26693Y-35913D01*
X26709Y-35998D01*
X26725Y-36068D01*
X26729Y-36085D01*
X26752Y-36156D01*
X26782Y-36226D01*
X26814Y-36287D01*
X26847Y-36337D01*
X26867Y-36360D01*
X26905Y-36397D01*
X28812Y-36399D01*
X29015Y-36399D01*
X29214Y-36399D01*
X29406Y-36399D01*
X29591Y-36399D01*
X29766Y-36399D01*
X29932Y-36398D01*
X30087Y-36398D01*
X30230Y-36397D01*
X30359Y-36397D01*
X30474Y-36396D01*
X30573Y-36396D01*
X30655Y-36395D01*
X30719Y-36394D01*
X30764Y-36393D01*
X30788Y-36392D01*
X30791Y-36392D01*
X30886Y-36378D01*
X30961Y-36360D01*
X31019Y-36338D01*
X31062Y-36312D01*
X31093Y-36278D01*
X31104Y-36259D01*
X31118Y-36226D01*
X31134Y-36175D01*
X31153Y-36110D01*
X31173Y-36035D01*
X31193Y-35953D01*
X31212Y-35869D01*
X31226Y-35802D01*
X31239Y-35727D01*
X31249Y-35649D01*
X31255Y-35574D01*
X31258Y-35506D01*
X31256Y-35449D01*
X31250Y-35411D01*
X31228Y-35364D01*
X31194Y-35334D01*
X31151Y-35321D01*
X31103Y-35329D01*
X31076Y-35342D01*
X31053Y-35359D01*
X31036Y-35382D01*
X31021Y-35414D01*
X31009Y-35459D01*
X30997Y-35520D01*
X30992Y-35550D01*
X30968Y-35683D01*
X30940Y-35794D01*
X30908Y-35886D01*
X30873Y-35960D01*
X30833Y-36016D01*
X30818Y-36032D01*
X30790Y-36057D01*
X30763Y-36075D01*
X30731Y-36088D01*
X30689Y-36098D01*
X30631Y-36107D01*
X30614Y-36109D01*
X30589Y-36111D01*
X30544Y-36113D01*
X30480Y-36115D01*
X30399Y-36117D01*
X30302Y-36118D01*
X30192Y-36120D01*
X30069Y-36121D01*
X29935Y-36122D01*
X29792Y-36123D01*
X29641Y-36124D01*
X29484Y-36125D01*
X29322Y-36126D01*
X29158Y-36127D01*
X28992Y-36128D01*
X28826Y-36128D01*
X28662Y-36128D01*
X28501Y-36129D01*
X28346Y-36129D01*
X28196Y-36128D01*
X28055Y-36128D01*
X27924Y-36128D01*
X27804Y-36127D01*
X27696Y-36126D01*
X27603Y-36125D01*
X27526Y-36124D01*
X27466Y-36123D01*
X27426Y-36121D01*
X27410Y-36120D01*
X27308Y-36100D01*
X27218Y-36065D01*
X27141Y-36018D01*
X27079Y-35959D01*
X27041Y-35901D01*
X27011Y-35832D01*
X26982Y-35744D01*
X26953Y-35640D01*
X26926Y-35525D01*
X26902Y-35401D01*
X26881Y-35271D01*
X26874Y-35221D01*
X26870Y-35184D01*
X26866Y-35146D01*
X26863Y-35103D01*
X26861Y-35055D01*
X26859Y-34999D01*
X26857Y-34932D01*
X26857Y-34852D01*
X26856Y-34758D01*
X26856Y-34646D01*
X26856Y-34515D01*
X26856Y-34500D01*
X26856Y-34335D01*
X26857Y-34190D01*
X26859Y-34063D01*
X26861Y-33953D01*
X26865Y-33857D01*
X26870Y-33774D01*
X26876Y-33701D01*
X26883Y-33638D01*
X26891Y-33581D01*
X26901Y-33529D01*
X26910Y-33489D01*
X26935Y-33399D01*
X26962Y-33325D01*
X26992Y-33260D01*
X27020Y-33214D01*
X27068Y-33149D01*
X27122Y-33102D01*
X27185Y-33069D01*
X27262Y-33049D01*
X27293Y-33045D01*
X27398Y-33033D01*
X27522Y-33022D01*
X27664Y-33011D01*
X27820Y-33001D01*
X27989Y-32992D01*
X28166Y-32983D01*
X28351Y-32976D01*
X28541Y-32970D01*
X28733Y-32965D01*
X28925Y-32962D01*
X29113Y-32959D01*
X29297Y-32958D01*
X29473Y-32959D01*
X29574Y-32960D01*
X29771Y-32964D01*
X29946Y-32969D01*
X30103Y-32976D01*
X30241Y-32984D01*
X30363Y-32993D01*
X30470Y-33005D01*
X30562Y-33018D01*
X30642Y-33033D01*
X30710Y-33051D01*
X30768Y-33071D01*
X30807Y-33088D01*
X30849Y-33112D01*
X30884Y-33140D01*
X30911Y-33175D01*
X30934Y-33219D01*
X30953Y-33277D01*
X30970Y-33351D01*
X30986Y-33441D01*
X31000Y-33523D01*
X31014Y-33586D01*
X31028Y-33632D01*
X31045Y-33664D01*
X31066Y-33684D01*
X31094Y-33695D01*
X31129Y-33700D01*
X31158Y-33701D01*
X31209Y-33699D01*
X31243Y-33690D01*
X31264Y-33674D01*
X31275Y-33648D01*
X31277Y-33639D01*
X31280Y-33605D01*
X31279Y-33554D01*
X31275Y-33491D01*
X31268Y-33421D01*
X31259Y-33351D01*
X31249Y-33283D01*
X31238Y-33223D01*
X31232Y-33201D01*
X31214Y-33139D01*
X31191Y-33075D01*
X31164Y-33012D01*
X31136Y-32955D01*
X31109Y-32908D01*
X31085Y-32876D01*
X31078Y-32870D01*
X31056Y-32855D01*
X31028Y-32843D01*
X30992Y-32833D01*
X30942Y-32823D01*
X30876Y-32812D01*
X30848Y-32808D01*
X30646Y-32784D01*
X30425Y-32762D01*
X30184Y-32745D01*
X29926Y-32732D01*
X29652Y-32723D01*
X29364Y-32719D01*
X29061Y-32718D01*
X28748Y-32720D01*
X28423Y-32728D01*
X28089Y-32739D01*
X27774Y-32753D01*
X27598Y-32762D01*
X27442Y-32770D01*
X27307Y-32778D01*
X27191Y-32784D01*
X27094Y-32790D01*
X27014Y-32796D01*
X26950Y-32802D01*
X26903Y-32806D01*
X26871Y-32811D01*
X26853Y-32815D01*
X26853Y-32815D01*
X26818Y-32839D01*
X26785Y-32883D01*
X26753Y-32946D01*
X26723Y-33027D01*
X26696Y-33123D01*
X26670Y-33233D01*
X26647Y-33357D01*
X26627Y-33491D01*
X26610Y-33635D01*
X26596Y-33787D01*
X26586Y-33946D01*
X26580Y-34111D01*
X26578Y-34278D01*
X26578Y-34278D01*
X26578Y-34278D01*
G37*
G36*
X33525Y-36080D02*
X33526Y-36095D01*
X33542Y-36116D01*
X33571Y-36141D01*
X33607Y-36166D01*
X33648Y-36190D01*
X33676Y-36203D01*
X33735Y-36219D01*
X33806Y-36227D01*
X33879Y-36226D01*
X33918Y-36221D01*
X33965Y-36212D01*
X34024Y-36200D01*
X34089Y-36185D01*
X34157Y-36169D01*
X34223Y-36154D01*
X34283Y-36139D01*
X34333Y-36125D01*
X34369Y-36115D01*
X34383Y-36109D01*
X34414Y-36094D01*
X34455Y-36070D01*
X34500Y-36042D01*
X34516Y-36031D01*
X34675Y-35912D01*
X34815Y-35784D01*
X34936Y-35644D01*
X35039Y-35494D01*
X35124Y-35332D01*
X35175Y-35204D01*
X35199Y-35138D01*
X35215Y-35089D01*
X35224Y-35055D01*
X35227Y-35033D01*
X35224Y-35020D01*
X35216Y-35013D01*
X35211Y-35011D01*
X35169Y-35009D01*
X35133Y-35028D01*
X35104Y-35062D01*
X35070Y-35111D01*
X35023Y-35172D01*
X34967Y-35241D01*
X34906Y-35313D01*
X34843Y-35386D01*
X34781Y-35454D01*
X34733Y-35505D01*
X34621Y-35614D01*
X34513Y-35706D01*
X34404Y-35784D01*
X34290Y-35850D01*
X34168Y-35907D01*
X34115Y-35928D01*
X34064Y-35946D01*
X34010Y-35962D01*
X33947Y-35975D01*
X33871Y-35988D01*
X33827Y-35995D01*
X33722Y-36012D01*
X33639Y-36030D01*
X33578Y-36049D01*
X33539Y-36068D01*
X33525Y-36080D01*
X33525Y-36080D01*
X33525Y-36080D01*
G37*
G36*
X28397Y-35996D02*
X28409Y-35998D01*
X28438Y-36002D01*
X28480Y-36005D01*
X28510Y-36007D01*
X28617Y-36013D01*
X28825Y-35751D01*
X28934Y-35615D01*
X29032Y-35494D01*
X29118Y-35388D01*
X29194Y-35297D01*
X29262Y-35218D01*
X29321Y-35151D01*
X29374Y-35095D01*
X29421Y-35048D01*
X29463Y-35009D01*
X29501Y-34977D01*
X29521Y-34962D01*
X29602Y-34909D01*
X29696Y-34860D01*
X29794Y-34819D01*
X29817Y-34810D01*
X29834Y-34804D01*
X29850Y-34799D01*
X29865Y-34794D01*
X29882Y-34790D01*
X29900Y-34786D01*
X29922Y-34783D01*
X29947Y-34780D01*
X29977Y-34777D01*
X30014Y-34775D01*
X30057Y-34774D01*
X30108Y-34773D01*
X30169Y-34772D01*
X30239Y-34772D01*
X30321Y-34772D01*
X30414Y-34773D01*
X30521Y-34774D01*
X30642Y-34775D01*
X30778Y-34777D01*
X30930Y-34779D01*
X31099Y-34782D01*
X31287Y-34785D01*
X31493Y-34788D01*
X31719Y-34792D01*
X31882Y-34795D01*
X32079Y-34798D01*
X32254Y-34801D01*
X32411Y-34804D01*
X32549Y-34807D01*
X32672Y-34811D01*
X32778Y-34814D01*
X32872Y-34818D01*
X32952Y-34822D01*
X33022Y-34826D01*
X33081Y-34831D01*
X33132Y-34837D01*
X33176Y-34843D01*
X33215Y-34851D01*
X33248Y-34858D01*
X33279Y-34868D01*
X33308Y-34877D01*
X33327Y-34885D01*
X33348Y-34893D01*
X33367Y-34900D01*
X33384Y-34907D01*
X33397Y-34913D01*
X33406Y-34918D01*
X33408Y-34922D01*
X33405Y-34926D01*
X33394Y-34930D01*
X33374Y-34933D01*
X33345Y-34935D01*
X33305Y-34937D01*
X33254Y-34939D01*
X33191Y-34940D01*
X33114Y-34941D01*
X33023Y-34942D01*
X32917Y-34942D01*
X32794Y-34943D01*
X32654Y-34943D01*
X32496Y-34943D01*
X32319Y-34943D01*
X32122Y-34943D01*
X31949Y-34944D01*
X31738Y-34944D01*
X31548Y-34944D01*
X31378Y-34944D01*
X31226Y-34944D01*
X31090Y-34944D01*
X30971Y-34945D01*
X30866Y-34945D01*
X30775Y-34946D01*
X30696Y-34947D01*
X30629Y-34947D01*
X30572Y-34949D01*
X30523Y-34950D01*
X30482Y-34951D01*
X30448Y-34953D01*
X30418Y-34955D01*
X30393Y-34957D01*
X30371Y-34959D01*
X30351Y-34962D01*
X30331Y-34965D01*
X30313Y-34968D01*
X30171Y-34995D01*
X30049Y-35028D01*
X29948Y-35065D01*
X29866Y-35107D01*
X29809Y-35151D01*
X29781Y-35189D01*
X29757Y-35247D01*
X29737Y-35321D01*
X29722Y-35409D01*
X29712Y-35507D01*
X29708Y-35614D01*
X29709Y-35709D01*
X29713Y-35799D01*
X29719Y-35870D01*
X29727Y-35923D01*
X29736Y-35961D01*
X29749Y-35985D01*
X29765Y-35998D01*
X29768Y-36000D01*
X29786Y-36006D01*
X29803Y-36008D01*
X29829Y-36006D01*
X29866Y-36002D01*
X29898Y-35991D01*
X29926Y-35970D01*
X29934Y-35961D01*
X29940Y-35951D01*
X29945Y-35938D01*
X29948Y-35919D01*
X29950Y-35890D01*
X29951Y-35850D01*
X29952Y-35795D01*
X29952Y-35723D01*
X29952Y-35672D01*
X29953Y-35568D01*
X29954Y-35486D01*
X29957Y-35423D01*
X29961Y-35379D01*
X29966Y-35357D01*
X29989Y-35302D01*
X30019Y-35257D01*
X30054Y-35226D01*
X30061Y-35223D01*
X30092Y-35213D01*
X30143Y-35202D01*
X30210Y-35191D01*
X30292Y-35181D01*
X30385Y-35170D01*
X30487Y-35161D01*
X30595Y-35153D01*
X30708Y-35145D01*
X30821Y-35140D01*
X30844Y-35139D01*
X30883Y-35138D01*
X30942Y-35137D01*
X31019Y-35137D01*
X31112Y-35136D01*
X31219Y-35136D01*
X31340Y-35136D01*
X31471Y-35136D01*
X31609Y-35137D01*
X31756Y-35138D01*
X31908Y-35139D01*
X32063Y-35139D01*
X32093Y-35140D01*
X33151Y-35148D01*
X33154Y-35215D01*
X33157Y-35282D01*
X33227Y-35316D01*
X33287Y-35342D01*
X33349Y-35362D01*
X33416Y-35377D01*
X33493Y-35385D01*
X33585Y-35390D01*
X33672Y-35391D01*
X33745Y-35391D01*
X33802Y-35389D01*
X33847Y-35387D01*
X33885Y-35382D01*
X33921Y-35376D01*
X33962Y-35366D01*
X33982Y-35361D01*
X34137Y-35313D01*
X34300Y-35251D01*
X34467Y-35176D01*
X34632Y-35091D01*
X34743Y-35027D01*
X34788Y-35000D01*
X34825Y-34979D01*
X34851Y-34966D01*
X34862Y-34963D01*
X34862Y-34964D01*
X34849Y-34982D01*
X34823Y-35010D01*
X34789Y-35046D01*
X34751Y-35085D01*
X34711Y-35123D01*
X34676Y-35156D01*
X34657Y-35173D01*
X34550Y-35252D01*
X34428Y-35326D01*
X34295Y-35389D01*
X34158Y-35440D01*
X34094Y-35459D01*
X34031Y-35475D01*
X33964Y-35489D01*
X33888Y-35502D01*
X33799Y-35515D01*
X33700Y-35528D01*
X33602Y-35542D01*
X33524Y-35558D01*
X33465Y-35575D01*
X33424Y-35596D01*
X33398Y-35618D01*
X33393Y-35626D01*
X33388Y-35656D01*
X33405Y-35685D01*
X33442Y-35715D01*
X33479Y-35734D01*
X33541Y-35754D01*
X33620Y-35766D01*
X33712Y-35769D01*
X33814Y-35764D01*
X33922Y-35750D01*
X34033Y-35729D01*
X34144Y-35701D01*
X34183Y-35688D01*
X34346Y-35627D01*
X34492Y-35555D01*
X34628Y-35468D01*
X34757Y-35364D01*
X34843Y-35282D01*
X34918Y-35204D01*
X34977Y-35132D01*
X35025Y-35062D01*
X35063Y-34989D01*
X35096Y-34910D01*
X35096Y-34909D01*
X35113Y-34859D01*
X35120Y-34826D01*
X35118Y-34804D01*
X35106Y-34790D01*
X35092Y-34783D01*
X35063Y-34770D01*
X35048Y-34752D01*
X35044Y-34727D01*
X35051Y-34688D01*
X35057Y-34663D01*
X35068Y-34620D01*
X35075Y-34580D01*
X35078Y-34554D01*
X35070Y-34522D01*
X35050Y-34492D01*
X35024Y-34472D01*
X35005Y-34467D01*
X34989Y-34474D01*
X34963Y-34495D01*
X34931Y-34524D01*
X34911Y-34545D01*
X34873Y-34583D01*
X34847Y-34605D01*
X34833Y-34609D01*
X34832Y-34608D01*
X34827Y-34593D01*
X34816Y-34561D01*
X34801Y-34515D01*
X34783Y-34459D01*
X34762Y-34396D01*
X34762Y-34396D01*
X34733Y-34309D01*
X34709Y-34240D01*
X34689Y-34185D01*
X34670Y-34142D01*
X34651Y-34107D01*
X34630Y-34077D01*
X34607Y-34048D01*
X34594Y-34033D01*
X34549Y-33986D01*
X34514Y-33956D01*
X34486Y-33939D01*
X34464Y-33936D01*
X34450Y-33941D01*
X34426Y-33960D01*
X34408Y-33983D01*
X34402Y-33996D01*
X34399Y-34008D01*
X34401Y-34025D01*
X34409Y-34050D01*
X34422Y-34086D01*
X34444Y-34137D01*
X34455Y-34164D01*
X34501Y-34277D01*
X34541Y-34386D01*
X34575Y-34489D01*
X34601Y-34582D01*
X34619Y-34662D01*
X34628Y-34728D01*
X34629Y-34751D01*
X34626Y-34781D01*
X34614Y-34803D01*
X34590Y-34824D01*
X34565Y-34842D01*
X34551Y-34847D01*
X34541Y-34841D01*
X34536Y-34834D01*
X34526Y-34816D01*
X34512Y-34782D01*
X34496Y-34738D01*
X34486Y-34709D01*
X34440Y-34583D01*
X34378Y-34444D01*
X34305Y-34297D01*
X34221Y-34144D01*
X34127Y-33989D01*
X34105Y-33955D01*
X34047Y-33878D01*
X33977Y-33816D01*
X33891Y-33764D01*
X33888Y-33762D01*
X33858Y-33751D01*
X33822Y-33746D01*
X33789Y-33745D01*
X33765Y-33750D01*
X33760Y-33755D01*
X33759Y-33765D01*
X33765Y-33786D01*
X33780Y-33816D01*
X33803Y-33859D01*
X33835Y-33916D01*
X33877Y-33988D01*
X33931Y-34076D01*
X33949Y-34106D01*
X34025Y-34230D01*
X34089Y-34339D01*
X34144Y-34435D01*
X34190Y-34520D01*
X34228Y-34596D01*
X34261Y-34667D01*
X34288Y-34735D01*
X34312Y-34802D01*
X34330Y-34858D01*
X34360Y-34960D01*
X34326Y-34994D01*
X34292Y-35028D01*
X34266Y-34985D01*
X34252Y-34959D01*
X34232Y-34917D01*
X34210Y-34866D01*
X34188Y-34812D01*
X34187Y-34808D01*
X34125Y-34668D01*
X34046Y-34520D01*
X33950Y-34363D01*
X33836Y-34197D01*
X33723Y-34045D01*
X33647Y-33950D01*
X33576Y-33875D01*
X33511Y-33819D01*
X33453Y-33783D01*
X33401Y-33767D01*
X33357Y-33770D01*
X33333Y-33783D01*
X33325Y-33789D01*
X33320Y-33794D01*
X33319Y-33801D01*
X33322Y-33811D01*
X33330Y-33828D01*
X33346Y-33852D01*
X33371Y-33886D01*
X33404Y-33931D01*
X33449Y-33991D01*
X33502Y-34061D01*
X33614Y-34213D01*
X33711Y-34351D01*
X33793Y-34474D01*
X33861Y-34583D01*
X33916Y-34681D01*
X33956Y-34767D01*
X33984Y-34841D01*
X34000Y-34905D01*
X34000Y-34910D01*
X34003Y-34931D01*
X34003Y-34942D01*
X33999Y-34941D01*
X33988Y-34925D01*
X33971Y-34893D01*
X33946Y-34844D01*
X33943Y-34839D01*
X33853Y-34678D01*
X33750Y-34522D01*
X33641Y-34378D01*
X33528Y-34250D01*
X33513Y-34236D01*
X33472Y-34195D01*
X33436Y-34165D01*
X33397Y-34139D01*
X33349Y-34114D01*
X33314Y-34096D01*
X33128Y-34019D01*
X32926Y-33956D01*
X32708Y-33906D01*
X32550Y-33880D01*
X32521Y-33877D01*
X32482Y-33874D01*
X32432Y-33871D01*
X32370Y-33869D01*
X32294Y-33866D01*
X32203Y-33864D01*
X32096Y-33861D01*
X31972Y-33859D01*
X31828Y-33857D01*
X31665Y-33855D01*
X31592Y-33854D01*
X31392Y-33852D01*
X31211Y-33850D01*
X31049Y-33847D01*
X30906Y-33845D01*
X30780Y-33843D01*
X30669Y-33841D01*
X30573Y-33838D01*
X30490Y-33835D01*
X30418Y-33832D01*
X30358Y-33830D01*
X30306Y-33826D01*
X30264Y-33822D01*
X30228Y-33818D01*
X30197Y-33813D01*
X30171Y-33808D01*
X30149Y-33802D01*
X30135Y-33798D01*
X30082Y-33770D01*
X30033Y-33724D01*
X30006Y-33684D01*
X29996Y-33665D01*
X29988Y-33645D01*
X29982Y-33621D01*
X29978Y-33588D01*
X29974Y-33542D01*
X29970Y-33481D01*
X29968Y-33447D01*
X29964Y-33376D01*
X29960Y-33306D01*
X29957Y-33240D01*
X29955Y-33187D01*
X29954Y-33164D01*
X29952Y-33071D01*
X29863Y-33068D01*
X29773Y-33065D01*
X29761Y-33120D01*
X29742Y-33242D01*
X29731Y-33377D01*
X29730Y-33520D01*
X29731Y-33547D01*
X29735Y-33637D01*
X29744Y-33709D01*
X29756Y-33766D01*
X29773Y-33811D01*
X29795Y-33847D01*
X29800Y-33853D01*
X29834Y-33883D01*
X29887Y-33914D01*
X29954Y-33946D01*
X30035Y-33977D01*
X30124Y-34006D01*
X30219Y-34033D01*
X30304Y-34052D01*
X30323Y-34056D01*
X30342Y-34060D01*
X30362Y-34063D01*
X30383Y-34065D01*
X30408Y-34068D01*
X30437Y-34070D01*
X30473Y-34071D01*
X30516Y-34072D01*
X30568Y-34074D01*
X30631Y-34075D01*
X30705Y-34075D01*
X30792Y-34076D01*
X30894Y-34076D01*
X31012Y-34077D01*
X31146Y-34077D01*
X31300Y-34077D01*
X31473Y-34078D01*
X31549Y-34078D01*
X31744Y-34078D01*
X31919Y-34079D01*
X32074Y-34079D01*
X32210Y-34080D01*
X32328Y-34081D01*
X32431Y-34082D01*
X32517Y-34083D01*
X32589Y-34084D01*
X32648Y-34086D01*
X32694Y-34088D01*
X32729Y-34090D01*
X32754Y-34092D01*
X32763Y-34093D01*
X32901Y-34121D01*
X33032Y-34159D01*
X33151Y-34205D01*
X33255Y-34259D01*
X33318Y-34300D01*
X33355Y-34330D01*
X33391Y-34362D01*
X33423Y-34395D01*
X33448Y-34425D01*
X33465Y-34449D01*
X33469Y-34463D01*
X33464Y-34467D01*
X33453Y-34463D01*
X33425Y-34452D01*
X33386Y-34437D01*
X33341Y-34419D01*
X33256Y-34385D01*
X33165Y-34354D01*
X33075Y-34325D01*
X32991Y-34301D01*
X32920Y-34284D01*
X32895Y-34279D01*
X32877Y-34277D01*
X32849Y-34275D01*
X32808Y-34273D01*
X32756Y-34271D01*
X32689Y-34270D01*
X32609Y-34268D01*
X32513Y-34267D01*
X32402Y-34266D01*
X32273Y-34266D01*
X32127Y-34265D01*
X31962Y-34264D01*
X31777Y-34264D01*
X31572Y-34264D01*
X31440Y-34263D01*
X31220Y-34263D01*
X31021Y-34262D01*
X30842Y-34262D01*
X30680Y-34261D01*
X30537Y-34260D01*
X30410Y-34259D01*
X30298Y-34258D01*
X30200Y-34256D01*
X30115Y-34254D01*
X30041Y-34252D01*
X29979Y-34250D01*
X29927Y-34247D01*
X29883Y-34244D01*
X29846Y-34240D01*
X29816Y-34236D01*
X29790Y-34232D01*
X29769Y-34227D01*
X29751Y-34221D01*
X29749Y-34221D01*
X29690Y-34191D01*
X29621Y-34142D01*
X29543Y-34074D01*
X29457Y-33988D01*
X29364Y-33883D01*
X29262Y-33759D01*
X29195Y-33673D01*
X29158Y-33625D01*
X29111Y-33564D01*
X29059Y-33495D01*
X29003Y-33423D01*
X28949Y-33352D01*
X28930Y-33327D01*
X28765Y-33111D01*
X28707Y-33105D01*
X28648Y-33099D01*
X28596Y-33096D01*
X28554Y-33096D01*
X28526Y-33099D01*
X28517Y-33104D01*
X28523Y-33115D01*
X28542Y-33141D01*
X28571Y-33180D01*
X28610Y-33231D01*
X28657Y-33291D01*
X28710Y-33360D01*
X28768Y-33434D01*
X28830Y-33513D01*
X28894Y-33593D01*
X28959Y-33675D01*
X29022Y-33754D01*
X29084Y-33831D01*
X29142Y-33902D01*
X29195Y-33967D01*
X29215Y-33991D01*
X29296Y-34087D01*
X29366Y-34167D01*
X29427Y-34232D01*
X29480Y-34284D01*
X29526Y-34323D01*
X29567Y-34352D01*
X29591Y-34366D01*
X29658Y-34399D01*
X30029Y-34411D01*
X30237Y-34418D01*
X30434Y-34423D01*
X30622Y-34429D01*
X30806Y-34434D01*
X30989Y-34439D01*
X31174Y-34443D01*
X31366Y-34447D01*
X31567Y-34452D01*
X31783Y-34456D01*
X32017Y-34461D01*
X32063Y-34462D01*
X32200Y-34464D01*
X32333Y-34467D01*
X32460Y-34470D01*
X32579Y-34473D01*
X32687Y-34476D01*
X32783Y-34479D01*
X32866Y-34482D01*
X32932Y-34484D01*
X32981Y-34486D01*
X33009Y-34488D01*
X33012Y-34489D01*
X33112Y-34507D01*
X33209Y-34537D01*
X33298Y-34576D01*
X33341Y-34602D01*
X33374Y-34627D01*
X33404Y-34653D01*
X33427Y-34677D01*
X33440Y-34696D01*
X33441Y-34706D01*
X33438Y-34707D01*
X33423Y-34705D01*
X33392Y-34697D01*
X33348Y-34685D01*
X33295Y-34670D01*
X33271Y-34664D01*
X33186Y-34641D01*
X33112Y-34626D01*
X33040Y-34615D01*
X32977Y-34609D01*
X32924Y-34606D01*
X32851Y-34603D01*
X32761Y-34600D01*
X32653Y-34597D01*
X32532Y-34594D01*
X32397Y-34592D01*
X32253Y-34589D01*
X32099Y-34587D01*
X31938Y-34585D01*
X31772Y-34583D01*
X31603Y-34581D01*
X31434Y-34580D01*
X31264Y-34579D01*
X31096Y-34578D01*
X30933Y-34578D01*
X30776Y-34578D01*
X30627Y-34579D01*
X30565Y-34579D01*
X30414Y-34580D01*
X30284Y-34581D01*
X30172Y-34582D01*
X30077Y-34583D01*
X29997Y-34584D01*
X29931Y-34585D01*
X29877Y-34587D01*
X29833Y-34588D01*
X29797Y-34590D01*
X29768Y-34593D01*
X29745Y-34595D01*
X29725Y-34599D01*
X29707Y-34602D01*
X29689Y-34607D01*
X29685Y-34608D01*
X29625Y-34624D01*
X29573Y-34641D01*
X29528Y-34662D01*
X29484Y-34687D01*
X29439Y-34720D01*
X29390Y-34763D01*
X29332Y-34817D01*
X29273Y-34876D01*
X29176Y-34975D01*
X29091Y-35065D01*
X29014Y-35152D01*
X28939Y-35241D01*
X28863Y-35337D01*
X28781Y-35446D01*
X28725Y-35522D01*
X28669Y-35598D01*
X28615Y-35674D01*
X28563Y-35746D01*
X28516Y-35813D01*
X28475Y-35873D01*
X28441Y-35923D01*
X28415Y-35962D01*
X28400Y-35987D01*
X28397Y-35996D01*
X28397Y-35996D01*
X28397Y-35996D01*
G37*
G36*
X27264Y-35912D02*
X27271Y-35923D01*
X27284Y-35936D01*
X27285Y-35937D01*
X27294Y-35943D01*
X27308Y-35947D01*
X27330Y-35951D01*
X27363Y-35953D01*
X27409Y-35954D01*
X27472Y-35955D01*
X27548Y-35955D01*
X27790Y-35955D01*
X27826Y-35923D01*
X27861Y-35890D01*
X27563Y-35890D01*
X27470Y-35890D01*
X27397Y-35890D01*
X27342Y-35892D01*
X27303Y-35894D01*
X27278Y-35898D01*
X27266Y-35904D01*
X27264Y-35912D01*
X27264Y-35912D01*
X27264Y-35912D01*
G37*
G36*
X27242Y-35802D02*
X27245Y-35832D01*
X27249Y-35862D01*
X27568Y-35865D01*
X27886Y-35868D01*
X27904Y-35841D01*
X27917Y-35819D01*
X27922Y-35808D01*
X27911Y-35806D01*
X27881Y-35805D01*
X27835Y-35804D01*
X27775Y-35803D01*
X27703Y-35802D01*
X27622Y-35802D01*
X27582Y-35802D01*
X27242Y-35802D01*
X27242Y-35802D01*
X27242Y-35802D01*
G37*
G36*
X27668Y-35769D02*
X27810Y-35769D01*
X27868Y-35769D01*
X27907Y-35768D01*
X27933Y-35766D01*
X27948Y-35762D01*
X27957Y-35754D01*
X27963Y-35744D01*
X27964Y-35741D01*
X27973Y-35719D01*
X27976Y-35708D01*
X27966Y-35706D01*
X27939Y-35705D01*
X27897Y-35704D01*
X27848Y-35704D01*
X27719Y-35705D01*
X27694Y-35737D01*
X27668Y-35769D01*
X27668Y-35769D01*
X27668Y-35769D01*
G37*
G36*
X27746Y-35671D02*
X27871Y-35671D01*
X27927Y-35670D01*
X27964Y-35668D01*
X27987Y-35665D01*
X27999Y-35659D01*
X28003Y-35653D01*
X28009Y-35633D01*
X28008Y-35619D01*
X27996Y-35611D01*
X27971Y-35606D01*
X27928Y-35605D01*
X27895Y-35605D01*
X27780Y-35605D01*
X27763Y-35638D01*
X27746Y-35671D01*
X27746Y-35671D01*
X27746Y-35671D01*
G37*
G36*
X27791Y-35567D02*
X27800Y-35570D01*
X27827Y-35571D01*
X27864Y-35572D01*
X27907Y-35572D01*
X27950Y-35571D01*
X27988Y-35569D01*
X28014Y-35567D01*
X28024Y-35565D01*
X28030Y-35549D01*
X28031Y-35532D01*
X28030Y-35520D01*
X28025Y-35513D01*
X28012Y-35509D01*
X27985Y-35507D01*
X27943Y-35507D01*
X27922Y-35507D01*
X27872Y-35507D01*
X27839Y-35508D01*
X27820Y-35511D01*
X27810Y-35518D01*
X27803Y-35529D01*
X27801Y-35534D01*
X27793Y-35557D01*
X27791Y-35567D01*
X27791Y-35567D01*
X27791Y-35567D01*
G37*
G36*
X27823Y-35485D02*
X27925Y-35485D01*
X27971Y-35484D01*
X28008Y-35482D01*
X28030Y-35479D01*
X28035Y-35477D01*
X28041Y-35462D01*
X28042Y-35444D01*
X28041Y-35433D01*
X28036Y-35425D01*
X28022Y-35421D01*
X27996Y-35419D01*
X27954Y-35419D01*
X27933Y-35419D01*
X27823Y-35419D01*
X27823Y-35452D01*
X27823Y-35485D01*
X27823Y-35485D01*
X27823Y-35485D01*
G37*
G36*
X27834Y-35386D02*
X27938Y-35386D01*
X28042Y-35386D01*
X28042Y-35353D01*
X28042Y-35320D01*
X27938Y-35320D01*
X27834Y-35320D01*
X27834Y-35353D01*
X27834Y-35386D01*
X27834Y-35386D01*
X27834Y-35386D01*
G37*
G36*
X27834Y-35261D02*
X27836Y-35274D01*
X27849Y-35283D01*
X27877Y-35286D01*
X27922Y-35288D01*
X27938Y-35288D01*
X28042Y-35288D01*
X28042Y-35255D01*
X28042Y-35222D01*
X27945Y-35222D01*
X27896Y-35223D01*
X27866Y-35225D01*
X27848Y-35230D01*
X27841Y-35239D01*
X27841Y-35239D01*
X27834Y-35261D01*
X27834Y-35261D01*
X27834Y-35261D01*
G37*
G36*
X27845Y-35189D02*
X27950Y-35189D01*
X28055Y-35189D01*
X28051Y-35159D01*
X28048Y-35129D01*
X27947Y-35126D01*
X27845Y-35122D01*
X27845Y-35156D01*
X27845Y-35189D01*
X27845Y-35189D01*
X27845Y-35189D01*
G37*
G36*
X27845Y-35101D02*
X27942Y-35101D01*
X27986Y-35101D01*
X28021Y-35098D01*
X28042Y-35095D01*
X28046Y-35094D01*
X28052Y-35078D01*
X28053Y-35061D01*
X28052Y-35050D01*
X28047Y-35042D01*
X28033Y-35038D01*
X28005Y-35036D01*
X27961Y-35036D01*
X27949Y-35036D01*
X27845Y-35036D01*
X27845Y-35069D01*
X27845Y-35101D01*
X27845Y-35101D01*
X27845Y-35101D01*
G37*
G36*
X27845Y-35003D02*
X27949Y-35003D01*
X28053Y-35003D01*
X28053Y-34970D01*
X28053Y-34937D01*
X27949Y-34937D01*
X27845Y-34937D01*
X27845Y-34970D01*
X27845Y-35003D01*
X27845Y-35003D01*
X27845Y-35003D01*
G37*
G36*
X27845Y-34904D02*
X27949Y-34904D01*
X28053Y-34904D01*
X28053Y-34872D01*
X28053Y-34839D01*
X27949Y-34839D01*
X27845Y-34839D01*
X27845Y-34872D01*
X27845Y-34904D01*
X27845Y-34904D01*
X27845Y-34904D01*
G37*
G36*
X27844Y-34806D02*
X27948Y-34806D01*
X28053Y-34806D01*
X28053Y-34773D01*
X28053Y-34740D01*
X27952Y-34743D01*
X27851Y-34746D01*
X27847Y-34776D01*
X27844Y-34806D01*
X27844Y-34806D01*
X27844Y-34806D01*
G37*
G36*
X27844Y-34653D02*
X27847Y-34683D01*
X27851Y-34713D01*
X27952Y-34716D01*
X28053Y-34719D01*
X28053Y-34686D01*
X28053Y-34653D01*
X27948Y-34653D01*
X27844Y-34653D01*
X27844Y-34653D01*
X27844Y-34653D01*
G37*
G36*
X27845Y-34620D02*
X27949Y-34620D01*
X28000Y-34619D01*
X28034Y-34617D01*
X28052Y-34612D01*
X28060Y-34604D01*
X28060Y-34604D01*
X28065Y-34583D01*
X28059Y-34568D01*
X28039Y-34560D01*
X28003Y-34555D01*
X27949Y-34554D01*
X27845Y-34554D01*
X27845Y-34587D01*
X27845Y-34620D01*
X27845Y-34620D01*
X27845Y-34620D01*
G37*
G36*
X27845Y-34522D02*
X27955Y-34522D01*
X28066Y-34522D01*
X28062Y-34491D01*
X28058Y-34461D01*
X27952Y-34458D01*
X27845Y-34455D01*
X27845Y-34488D01*
X27845Y-34522D01*
X27845Y-34522D01*
X27845Y-34522D01*
G37*
G36*
X27845Y-34423D02*
X27955Y-34423D01*
X28066Y-34423D01*
X28062Y-34393D01*
X28058Y-34363D01*
X27952Y-34360D01*
X27845Y-34356D01*
X27845Y-34390D01*
X27845Y-34423D01*
X27845Y-34423D01*
X27845Y-34423D01*
G37*
G36*
X27845Y-34335D02*
X27947Y-34335D01*
X27993Y-34335D01*
X28029Y-34333D01*
X28052Y-34330D01*
X28057Y-34328D01*
X28062Y-34312D01*
X28064Y-34295D01*
X28063Y-34284D01*
X28058Y-34276D01*
X28044Y-34272D01*
X28018Y-34270D01*
X27975Y-34270D01*
X27955Y-34270D01*
X27845Y-34270D01*
X27845Y-34303D01*
X27845Y-34335D01*
X27845Y-34335D01*
X27845Y-34335D01*
G37*
G36*
X27845Y-34237D02*
X27948Y-34237D01*
X27994Y-34236D01*
X28030Y-34234D01*
X28053Y-34230D01*
X28057Y-34228D01*
X28059Y-34211D01*
X28057Y-34195D01*
X28053Y-34184D01*
X28043Y-34177D01*
X28025Y-34173D01*
X27994Y-34172D01*
X27948Y-34171D01*
X27845Y-34171D01*
X27845Y-34204D01*
X27845Y-34237D01*
X27845Y-34237D01*
X27845Y-34237D01*
G37*
G36*
X27845Y-34138D02*
X27949Y-34138D01*
X28053Y-34138D01*
X28053Y-34106D01*
X28053Y-34073D01*
X27949Y-34073D01*
X27845Y-34073D01*
X27845Y-34106D01*
X27845Y-34138D01*
X27845Y-34138D01*
X27845Y-34138D01*
G37*
G36*
X27845Y-34040D02*
X27949Y-34040D01*
X28053Y-34040D01*
X28053Y-34007D01*
X28053Y-33974D01*
X27949Y-33974D01*
X27845Y-33974D01*
X27845Y-34007D01*
X27845Y-34040D01*
X27845Y-34040D01*
X27845Y-34040D01*
G37*
G36*
X27833Y-33887D02*
X27836Y-33917D01*
X27840Y-33947D01*
X27947Y-33950D01*
X28053Y-33953D01*
X28053Y-33920D01*
X28053Y-33887D01*
X27943Y-33887D01*
X27833Y-33887D01*
X27833Y-33887D01*
X27833Y-33887D01*
G37*
G36*
X27833Y-33788D02*
X27836Y-33818D01*
X27840Y-33849D01*
X27947Y-33852D01*
X28053Y-33855D01*
X28053Y-33821D01*
X28053Y-33788D01*
X27943Y-33788D01*
X27833Y-33788D01*
X27833Y-33788D01*
X27833Y-33788D01*
G37*
G36*
X27834Y-33755D02*
X27944Y-33755D01*
X28053Y-33755D01*
X28053Y-33722D01*
X28053Y-33690D01*
X27944Y-33690D01*
X27834Y-33690D01*
X27834Y-33722D01*
X27834Y-33755D01*
X27834Y-33755D01*
X27834Y-33755D01*
G37*
G36*
X27834Y-33657D02*
X27945Y-33657D01*
X28055Y-33657D01*
X28051Y-33627D01*
X28048Y-33597D01*
X27941Y-33593D01*
X27834Y-33591D01*
X27834Y-33624D01*
X27834Y-33657D01*
X27834Y-33657D01*
X27834Y-33657D01*
G37*
G36*
X27833Y-33504D02*
X27836Y-33534D01*
X27838Y-33548D01*
X27844Y-33557D01*
X27859Y-33562D01*
X27884Y-33565D01*
X27927Y-33567D01*
X27939Y-33567D01*
X27983Y-33568D01*
X28019Y-33567D01*
X28041Y-33564D01*
X28045Y-33562D01*
X28052Y-33547D01*
X28053Y-33529D01*
X28052Y-33518D01*
X28047Y-33510D01*
X28033Y-33506D01*
X28007Y-33504D01*
X27965Y-33504D01*
X27943Y-33504D01*
X27833Y-33504D01*
X27833Y-33504D01*
X27833Y-33504D01*
G37*
G36*
X27834Y-33471D02*
X27936Y-33471D01*
X27982Y-33470D01*
X28018Y-33469D01*
X28040Y-33466D01*
X28044Y-33465D01*
X28047Y-33451D01*
X28045Y-33432D01*
X28041Y-33420D01*
X28034Y-33412D01*
X28019Y-33407D01*
X27992Y-33406D01*
X27948Y-33405D01*
X27937Y-33405D01*
X27834Y-33405D01*
X27834Y-33438D01*
X27834Y-33471D01*
X27834Y-33471D01*
X27834Y-33471D01*
G37*
G36*
X27834Y-33373D02*
X27938Y-33373D01*
X28042Y-33373D01*
X28042Y-33340D01*
X28042Y-33307D01*
X27938Y-33307D01*
X27834Y-33307D01*
X27834Y-33340D01*
X27834Y-33373D01*
X27834Y-33373D01*
X27834Y-33373D01*
G37*
G36*
X27834Y-33274D02*
X28196Y-33274D01*
X28558Y-33274D01*
X28535Y-33241D01*
X28511Y-33208D01*
X28173Y-33208D01*
X27834Y-33208D01*
X27834Y-33241D01*
X27834Y-33274D01*
X27834Y-33274D01*
X27834Y-33274D01*
G37*
G36*
X27840Y-33181D02*
X28160Y-33184D01*
X28241Y-33184D01*
X28315Y-33184D01*
X28378Y-33183D01*
X28428Y-33182D01*
X28463Y-33180D01*
X28479Y-33178D01*
X28480Y-33177D01*
X28473Y-33164D01*
X28455Y-33145D01*
X28454Y-33144D01*
X28446Y-33137D01*
X28437Y-33132D01*
X28424Y-33128D01*
X28405Y-33125D01*
X28376Y-33123D01*
X28336Y-33122D01*
X28281Y-33122D01*
X28209Y-33122D01*
X28134Y-33123D01*
X27840Y-33126D01*
X27840Y-33154D01*
X27840Y-33181D01*
X27840Y-33181D01*
X27840Y-33181D01*
G37*
G36*
X29716Y-29069D02*
X29716Y-29084D01*
X29718Y-29097D01*
X29722Y-29108D01*
X29729Y-29120D01*
X29738Y-29131D01*
X29741Y-29133D01*
X29753Y-29144D01*
X29767Y-29153D01*
X29783Y-29161D01*
X29798Y-29167D01*
X29798Y-29086D01*
X29801Y-29080D01*
X29805Y-29074D01*
X29813Y-29070D01*
X29817Y-29069D01*
X29821Y-29068D01*
X29829Y-29068D01*
X29839Y-29067D01*
X29852Y-29067D01*
X29869Y-29066D01*
X29876Y-29066D01*
X29888Y-29065D01*
X29899Y-29065D01*
X29909Y-29065D01*
X29917Y-29064D01*
X29924Y-29064D01*
X29928Y-29064D01*
X29930Y-29063D01*
X29932Y-29063D01*
X29935Y-29064D01*
X29938Y-29067D01*
X29941Y-29070D01*
X29948Y-29077D01*
X29952Y-29085D01*
X29953Y-29093D01*
X29952Y-29101D01*
X29948Y-29107D01*
X29941Y-29113D01*
X29932Y-29118D01*
X29920Y-29122D01*
X29906Y-29124D01*
X29904Y-29125D01*
X29896Y-29125D01*
X29886Y-29126D01*
X29875Y-29126D01*
X29864Y-29125D01*
X29854Y-29124D01*
X29845Y-29123D01*
X29842Y-29123D01*
X29830Y-29119D01*
X29820Y-29115D01*
X29811Y-29110D01*
X29804Y-29104D01*
X29800Y-29097D01*
X29799Y-29094D01*
X29798Y-29086D01*
X29798Y-29167D01*
X29801Y-29168D01*
X29822Y-29173D01*
X29838Y-29177D01*
X29847Y-29178D01*
X29859Y-29179D01*
X29872Y-29180D01*
X29885Y-29180D01*
X29898Y-29180D01*
X29910Y-29180D01*
X29921Y-29180D01*
X29923Y-29179D01*
X29945Y-29176D01*
X29963Y-29172D01*
X29980Y-29166D01*
X29994Y-29158D01*
X30005Y-29150D01*
X30014Y-29140D01*
X30021Y-29128D01*
X30021Y-29127D01*
X30024Y-29116D01*
X30025Y-29105D01*
X30023Y-29094D01*
X30021Y-29086D01*
X30017Y-29078D01*
X30011Y-29070D01*
X30003Y-29062D01*
X29994Y-29055D01*
X29990Y-29052D01*
X29985Y-29049D01*
X29982Y-29047D01*
X29980Y-29045D01*
X29980Y-29045D01*
X29981Y-29043D01*
X29984Y-29040D01*
X29987Y-29037D01*
X29996Y-29029D01*
X30003Y-29018D01*
X30007Y-29007D01*
X30009Y-28995D01*
X30008Y-28983D01*
X30005Y-28975D01*
X30002Y-28968D01*
X29996Y-28960D01*
X29990Y-28952D01*
X29984Y-28945D01*
X29982Y-28944D01*
X29978Y-28941D01*
X29975Y-28938D01*
X29974Y-28937D01*
X29975Y-28935D01*
X29978Y-28932D01*
X29981Y-28929D01*
X29984Y-28926D01*
X29995Y-28914D01*
X30003Y-28902D01*
X30008Y-28888D01*
X30011Y-28872D01*
X30012Y-28865D01*
X30011Y-28847D01*
X30008Y-28830D01*
X30003Y-28814D01*
X29995Y-28800D01*
X29984Y-28788D01*
X29971Y-28777D01*
X29956Y-28768D01*
X29939Y-28761D01*
X29920Y-28755D01*
X29917Y-28755D01*
X29908Y-28753D01*
X29898Y-28753D01*
X29887Y-28752D01*
X29876Y-28752D01*
X29866Y-28753D01*
X29857Y-28754D01*
X29854Y-28755D01*
X29851Y-28756D01*
X29848Y-28756D01*
X29844Y-28757D01*
X29838Y-28757D01*
X29831Y-28757D01*
X29823Y-28757D01*
X29812Y-28758D01*
X29799Y-28758D01*
X29783Y-28758D01*
X29781Y-28758D01*
X29717Y-28759D01*
X29717Y-28791D01*
X29717Y-28823D01*
X29747Y-28823D01*
X29756Y-28823D01*
X29763Y-28824D01*
X29770Y-28824D01*
X29774Y-28824D01*
X29776Y-28824D01*
X29776Y-28825D01*
X29771Y-28833D01*
X29769Y-28839D01*
X29767Y-28844D01*
X29765Y-28848D01*
X29765Y-28853D01*
X29764Y-28858D01*
X29764Y-28861D01*
X29765Y-28878D01*
X29768Y-28893D01*
X29774Y-28908D01*
X29782Y-28921D01*
X29793Y-28932D01*
X29806Y-28941D01*
X29821Y-28949D01*
X29839Y-28955D01*
X29841Y-28956D01*
X29842Y-28956D01*
X29842Y-28860D01*
X29842Y-28860D01*
X29842Y-28850D01*
X29843Y-28842D01*
X29845Y-28835D01*
X29849Y-28830D01*
X29854Y-28824D01*
X29862Y-28817D01*
X29872Y-28813D01*
X29883Y-28811D01*
X29886Y-28811D01*
X29897Y-28812D01*
X29906Y-28815D01*
X29914Y-28821D01*
X29918Y-28825D01*
X29924Y-28832D01*
X29927Y-28840D01*
X29929Y-28849D01*
X29930Y-28860D01*
X29929Y-28873D01*
X29926Y-28884D01*
X29920Y-28893D01*
X29913Y-28900D01*
X29904Y-28905D01*
X29902Y-28906D01*
X29896Y-28907D01*
X29889Y-28907D01*
X29881Y-28907D01*
X29874Y-28906D01*
X29868Y-28905D01*
X29866Y-28904D01*
X29856Y-28898D01*
X29849Y-28890D01*
X29846Y-28884D01*
X29844Y-28880D01*
X29843Y-28877D01*
X29842Y-28873D01*
X29842Y-28867D01*
X29842Y-28860D01*
X29842Y-28956D01*
X29852Y-28958D01*
X29865Y-28960D01*
X29879Y-28961D01*
X29893Y-28961D01*
X29905Y-28960D01*
X29914Y-28958D01*
X29927Y-28956D01*
X29932Y-28960D01*
X29937Y-28965D01*
X29939Y-28972D01*
X29939Y-28979D01*
X29937Y-28985D01*
X29934Y-28989D01*
X29932Y-28992D01*
X29929Y-28993D01*
X29926Y-28995D01*
X29923Y-28996D01*
X29918Y-28997D01*
X29912Y-28997D01*
X29905Y-28998D01*
X29895Y-28998D01*
X29884Y-28999D01*
X29870Y-28999D01*
X29859Y-28999D01*
X29846Y-29000D01*
X29834Y-29000D01*
X29822Y-29000D01*
X29812Y-29001D01*
X29803Y-29001D01*
X29797Y-29002D01*
X29793Y-29002D01*
X29793Y-29002D01*
X29774Y-29006D01*
X29759Y-29011D01*
X29745Y-29017D01*
X29735Y-29025D01*
X29726Y-29035D01*
X29721Y-29043D01*
X29719Y-29048D01*
X29717Y-29052D01*
X29716Y-29056D01*
X29716Y-29062D01*
X29716Y-29069D01*
X29716Y-29069D01*
X29716Y-29069D01*
X29716Y-29069D01*
G37*
G36*
X30443Y-28908D02*
X30443Y-28918D01*
X30443Y-28926D01*
X30444Y-28932D01*
X30444Y-28937D01*
X30445Y-28942D01*
X30446Y-28947D01*
X30447Y-28951D01*
X30453Y-28970D01*
X30462Y-28987D01*
X30472Y-29003D01*
X30483Y-29016D01*
X30494Y-29026D01*
X30505Y-29035D01*
X30516Y-29042D01*
X30527Y-29047D01*
X30533Y-29050D01*
X30533Y-28903D01*
X30533Y-28892D01*
X30534Y-28883D01*
X30534Y-28879D01*
X30538Y-28866D01*
X30543Y-28854D01*
X30550Y-28843D01*
X30558Y-28834D01*
X30567Y-28828D01*
X30568Y-28828D01*
X30572Y-28826D01*
X30576Y-28825D01*
X30580Y-28824D01*
X30586Y-28824D01*
X30593Y-28824D01*
X30601Y-28824D01*
X30606Y-28825D01*
X30610Y-28825D01*
X30614Y-28826D01*
X30618Y-28828D01*
X30618Y-28828D01*
X30628Y-28834D01*
X30636Y-28843D01*
X30643Y-28854D01*
X30649Y-28867D01*
X30650Y-28871D01*
X30651Y-28878D01*
X30652Y-28887D01*
X30653Y-28897D01*
X30653Y-28908D01*
X30653Y-28918D01*
X30653Y-28926D01*
X30652Y-28930D01*
X30649Y-28946D01*
X30644Y-28959D01*
X30637Y-28970D01*
X30629Y-28979D01*
X30619Y-28985D01*
X30614Y-28987D01*
X30606Y-28989D01*
X30597Y-28990D01*
X30587Y-28990D01*
X30578Y-28989D01*
X30571Y-28987D01*
X30562Y-28982D01*
X30553Y-28975D01*
X30546Y-28965D01*
X30540Y-28953D01*
X30536Y-28942D01*
X30535Y-28935D01*
X30533Y-28925D01*
X30533Y-28914D01*
X30533Y-28903D01*
X30533Y-29050D01*
X30541Y-29053D01*
X30555Y-29057D01*
X30571Y-29060D01*
X30577Y-29061D01*
X30585Y-29062D01*
X30590Y-29062D01*
X30595Y-29062D01*
X30600Y-29062D01*
X30605Y-29062D01*
X30627Y-29058D01*
X30647Y-29053D01*
X30666Y-29044D01*
X30683Y-29034D01*
X30698Y-29021D01*
X30712Y-29006D01*
X30723Y-28989D01*
X30728Y-28981D01*
X30731Y-28973D01*
X30735Y-28964D01*
X30738Y-28955D01*
X30739Y-28951D01*
X30740Y-28946D01*
X30741Y-28941D01*
X30742Y-28936D01*
X30742Y-28931D01*
X30743Y-28924D01*
X30743Y-28916D01*
X30743Y-28908D01*
X30743Y-28897D01*
X30743Y-28889D01*
X30742Y-28882D01*
X30742Y-28877D01*
X30741Y-28872D01*
X30740Y-28867D01*
X30740Y-28866D01*
X30733Y-28845D01*
X30724Y-28826D01*
X30713Y-28809D01*
X30700Y-28794D01*
X30684Y-28781D01*
X30667Y-28770D01*
X30648Y-28762D01*
X30627Y-28756D01*
X30625Y-28755D01*
X30613Y-28753D01*
X30600Y-28752D01*
X30586Y-28752D01*
X30572Y-28753D01*
X30563Y-28755D01*
X30542Y-28760D01*
X30523Y-28768D01*
X30506Y-28779D01*
X30490Y-28792D01*
X30476Y-28806D01*
X30464Y-28823D01*
X30455Y-28841D01*
X30448Y-28861D01*
X30446Y-28866D01*
X30445Y-28871D01*
X30444Y-28876D01*
X30444Y-28881D01*
X30443Y-28887D01*
X30443Y-28894D01*
X30443Y-28904D01*
X30443Y-28908D01*
X30443Y-28908D01*
X30443Y-28908D01*
G37*
G36*
X29021Y-29055D02*
X29057Y-29055D01*
X29092Y-29055D01*
X29096Y-29039D01*
X29097Y-29032D01*
X29098Y-29027D01*
X29099Y-29023D01*
X29099Y-29022D01*
X29101Y-29022D01*
X29104Y-29024D01*
X29108Y-29027D01*
X29108Y-28966D01*
X29108Y-28942D01*
X29109Y-28917D01*
X29116Y-28918D01*
X29134Y-28919D01*
X29151Y-28921D01*
X29167Y-28924D01*
X29181Y-28928D01*
X29187Y-28930D01*
X29199Y-28935D01*
X29207Y-28941D01*
X29213Y-28947D01*
X29217Y-28955D01*
X29219Y-28964D01*
X29219Y-28966D01*
X29218Y-28973D01*
X29217Y-28977D01*
X29215Y-28980D01*
X29210Y-28986D01*
X29203Y-28990D01*
X29193Y-28992D01*
X29183Y-28994D01*
X29171Y-28994D01*
X29159Y-28992D01*
X29155Y-28991D01*
X29147Y-28988D01*
X29139Y-28985D01*
X29130Y-28980D01*
X29120Y-28974D01*
X29119Y-28974D01*
X29108Y-28966D01*
X29108Y-29027D01*
X29109Y-29027D01*
X29112Y-29030D01*
X29128Y-29039D01*
X29144Y-29047D01*
X29159Y-29054D01*
X29174Y-29058D01*
X29180Y-29060D01*
X29190Y-29061D01*
X29201Y-29062D01*
X29212Y-29062D01*
X29221Y-29061D01*
X29221Y-29061D01*
X29238Y-29058D01*
X29254Y-29052D01*
X29267Y-29044D01*
X29279Y-29034D01*
X29289Y-29022D01*
X29296Y-29009D01*
X29301Y-28996D01*
X29302Y-28988D01*
X29303Y-28979D01*
X29303Y-28969D01*
X29302Y-28960D01*
X29301Y-28952D01*
X29301Y-28952D01*
X29297Y-28938D01*
X29290Y-28925D01*
X29281Y-28914D01*
X29269Y-28904D01*
X29259Y-28897D01*
X29246Y-28891D01*
X29229Y-28884D01*
X29210Y-28879D01*
X29189Y-28874D01*
X29166Y-28870D01*
X29142Y-28867D01*
X29129Y-28866D01*
X29108Y-28864D01*
X29109Y-28861D01*
X29113Y-28849D01*
X29119Y-28840D01*
X29128Y-28832D01*
X29138Y-28827D01*
X29150Y-28824D01*
X29166Y-28822D01*
X29182Y-28822D01*
X29199Y-28825D01*
X29218Y-28830D01*
X29238Y-28838D01*
X29247Y-28842D01*
X29253Y-28845D01*
X29258Y-28847D01*
X29261Y-28848D01*
X29262Y-28848D01*
X29263Y-28847D01*
X29265Y-28843D01*
X29268Y-28838D01*
X29272Y-28831D01*
X29276Y-28824D01*
X29280Y-28816D01*
X29283Y-28809D01*
X29287Y-28803D01*
X29290Y-28797D01*
X29292Y-28793D01*
X29292Y-28792D01*
X29292Y-28792D01*
X29289Y-28789D01*
X29283Y-28786D01*
X29276Y-28783D01*
X29267Y-28779D01*
X29258Y-28775D01*
X29248Y-28771D01*
X29239Y-28767D01*
X29230Y-28764D01*
X29227Y-28763D01*
X29211Y-28759D01*
X29194Y-28755D01*
X29176Y-28753D01*
X29159Y-28752D01*
X29142Y-28752D01*
X29126Y-28754D01*
X29121Y-28755D01*
X29101Y-28760D01*
X29083Y-28767D01*
X29068Y-28776D01*
X29055Y-28787D01*
X29043Y-28800D01*
X29035Y-28815D01*
X29031Y-28822D01*
X29029Y-28827D01*
X29028Y-28831D01*
X29027Y-28835D01*
X29025Y-28839D01*
X29025Y-28843D01*
X29024Y-28848D01*
X29023Y-28853D01*
X29023Y-28860D01*
X29022Y-28868D01*
X29022Y-28877D01*
X29022Y-28888D01*
X29022Y-28902D01*
X29021Y-28917D01*
X29021Y-28935D01*
X29021Y-28955D01*
X29021Y-29055D01*
X29021Y-29055D01*
X29021Y-29055D01*
G37*
G36*
X27942Y-28883D02*
X27942Y-28891D01*
X27942Y-28900D01*
X27942Y-28909D01*
X27943Y-28917D01*
X27943Y-28923D01*
X27944Y-28928D01*
X27944Y-28929D01*
X27945Y-28933D01*
X28021Y-28933D01*
X28021Y-28874D01*
X28021Y-28868D01*
X28023Y-28855D01*
X28027Y-28844D01*
X28034Y-28835D01*
X28043Y-28828D01*
X28053Y-28823D01*
X28066Y-28820D01*
X28077Y-28819D01*
X28091Y-28820D01*
X28104Y-28823D01*
X28115Y-28829D01*
X28126Y-28837D01*
X28131Y-28842D01*
X28135Y-28850D01*
X28139Y-28857D01*
X28142Y-28865D01*
X28144Y-28870D01*
X28145Y-28875D01*
X28083Y-28875D01*
X28021Y-28874D01*
X28021Y-28933D01*
X28045Y-28933D01*
X28144Y-28933D01*
X28143Y-28937D01*
X28139Y-28951D01*
X28134Y-28963D01*
X28126Y-28972D01*
X28116Y-28980D01*
X28106Y-28985D01*
X28095Y-28990D01*
X28084Y-28993D01*
X28071Y-28994D01*
X28056Y-28995D01*
X28051Y-28994D01*
X28037Y-28993D01*
X28024Y-28991D01*
X28012Y-28988D01*
X27999Y-28983D01*
X27994Y-28981D01*
X27989Y-28979D01*
X27985Y-28977D01*
X27982Y-28976D01*
X27982Y-28976D01*
X27981Y-28978D01*
X27978Y-28982D01*
X27975Y-28987D01*
X27971Y-28994D01*
X27967Y-29002D01*
X27967Y-29002D01*
X27962Y-29011D01*
X27958Y-29018D01*
X27956Y-29023D01*
X27955Y-29026D01*
X27955Y-29028D01*
X27955Y-29029D01*
X27957Y-29030D01*
X27961Y-29032D01*
X27967Y-29035D01*
X27974Y-29039D01*
X27975Y-29039D01*
X27992Y-29047D01*
X28008Y-29053D01*
X28024Y-29057D01*
X28042Y-29060D01*
X28053Y-29061D01*
X28061Y-29062D01*
X28067Y-29062D01*
X28073Y-29062D01*
X28079Y-29062D01*
X28086Y-29062D01*
X28091Y-29061D01*
X28113Y-29058D01*
X28134Y-29052D01*
X28153Y-29044D01*
X28171Y-29033D01*
X28187Y-29021D01*
X28200Y-29007D01*
X28212Y-28990D01*
X28221Y-28972D01*
X28226Y-28960D01*
X28231Y-28943D01*
X28233Y-28924D01*
X28234Y-28905D01*
X28233Y-28886D01*
X28230Y-28867D01*
X28225Y-28850D01*
X28223Y-28845D01*
X28213Y-28826D01*
X28201Y-28809D01*
X28187Y-28794D01*
X28171Y-28781D01*
X28154Y-28770D01*
X28134Y-28761D01*
X28114Y-28755D01*
X28107Y-28754D01*
X28099Y-28753D01*
X28088Y-28752D01*
X28077Y-28752D01*
X28065Y-28753D01*
X28054Y-28754D01*
X28045Y-28755D01*
X28044Y-28755D01*
X28026Y-28760D01*
X28009Y-28768D01*
X27993Y-28778D01*
X27979Y-28790D01*
X27977Y-28792D01*
X27966Y-28806D01*
X27958Y-28820D01*
X27951Y-28836D01*
X27945Y-28855D01*
X27945Y-28859D01*
X27943Y-28865D01*
X27943Y-28871D01*
X27942Y-28876D01*
X27942Y-28883D01*
X27942Y-28883D01*
X27942Y-28883D01*
G37*
G36*
X27594Y-29055D02*
X27630Y-29055D01*
X27641Y-29055D01*
X27650Y-29055D01*
X27656Y-29055D01*
X27660Y-29055D01*
X27663Y-29055D01*
X27665Y-29054D01*
X27666Y-29053D01*
X27666Y-29053D01*
X27667Y-29050D01*
X27668Y-29046D01*
X27669Y-29040D01*
X27669Y-29038D01*
X27670Y-29032D01*
X27671Y-29027D01*
X27672Y-29025D01*
X27672Y-29025D01*
X27673Y-29025D01*
X27676Y-29027D01*
X27681Y-29031D01*
X27682Y-29031D01*
X27682Y-28964D01*
X27682Y-28903D01*
X27682Y-28842D01*
X27690Y-28836D01*
X27702Y-28830D01*
X27715Y-28826D01*
X27729Y-28824D01*
X27731Y-28824D01*
X27738Y-28824D01*
X27743Y-28825D01*
X27748Y-28826D01*
X27753Y-28828D01*
X27753Y-28828D01*
X27764Y-28835D01*
X27773Y-28844D01*
X27781Y-28855D01*
X27786Y-28869D01*
X27788Y-28874D01*
X27789Y-28880D01*
X27790Y-28889D01*
X27790Y-28899D01*
X27790Y-28910D01*
X27790Y-28921D01*
X27789Y-28931D01*
X27788Y-28939D01*
X27787Y-28942D01*
X27783Y-28956D01*
X27778Y-28967D01*
X27773Y-28974D01*
X27765Y-28981D01*
X27756Y-28986D01*
X27747Y-28989D01*
X27736Y-28990D01*
X27730Y-28990D01*
X27723Y-28989D01*
X27717Y-28988D01*
X27711Y-28986D01*
X27708Y-28985D01*
X27697Y-28978D01*
X27690Y-28972D01*
X27682Y-28964D01*
X27682Y-29031D01*
X27685Y-29034D01*
X27694Y-29040D01*
X27704Y-29047D01*
X27715Y-29052D01*
X27725Y-29057D01*
X27732Y-29059D01*
X27743Y-29061D01*
X27756Y-29062D01*
X27769Y-29062D01*
X27773Y-29061D01*
X27784Y-29059D01*
X27795Y-29056D01*
X27806Y-29052D01*
X27816Y-29047D01*
X27817Y-29046D01*
X27825Y-29041D01*
X27834Y-29034D01*
X27842Y-29025D01*
X27849Y-29017D01*
X27855Y-29009D01*
X27855Y-29009D01*
X27864Y-28992D01*
X27871Y-28974D01*
X27876Y-28954D01*
X27880Y-28933D01*
X27881Y-28911D01*
X27880Y-28890D01*
X27878Y-28869D01*
X27877Y-28868D01*
X27872Y-28848D01*
X27865Y-28829D01*
X27856Y-28812D01*
X27844Y-28797D01*
X27832Y-28783D01*
X27817Y-28772D01*
X27802Y-28763D01*
X27785Y-28756D01*
X27778Y-28755D01*
X27770Y-28753D01*
X27760Y-28753D01*
X27749Y-28752D01*
X27739Y-28753D01*
X27731Y-28754D01*
X27728Y-28755D01*
X27717Y-28758D01*
X27706Y-28764D01*
X27695Y-28770D01*
X27689Y-28775D01*
X27685Y-28778D01*
X27681Y-28781D01*
X27679Y-28782D01*
X27679Y-28782D01*
X27679Y-28780D01*
X27679Y-28776D01*
X27679Y-28770D01*
X27680Y-28763D01*
X27680Y-28760D01*
X27680Y-28754D01*
X27681Y-28745D01*
X27681Y-28734D01*
X27681Y-28722D01*
X27682Y-28709D01*
X27682Y-28696D01*
X27682Y-28688D01*
X27682Y-28636D01*
X27638Y-28636D01*
X27594Y-28636D01*
X27594Y-28846D01*
X27594Y-29055D01*
X27594Y-29055D01*
X27594Y-29055D01*
G37*
G36*
X26873Y-29055D02*
X26909Y-29055D01*
X26945Y-29055D01*
X26948Y-29039D01*
X26950Y-29032D01*
X26951Y-29027D01*
X26952Y-29023D01*
X26952Y-29022D01*
X26954Y-29022D01*
X26957Y-29024D01*
X26962Y-29027D01*
X26962Y-29027D01*
X26962Y-28967D01*
X26962Y-28942D01*
X26962Y-28917D01*
X26976Y-28918D01*
X26998Y-28920D01*
X27017Y-28923D01*
X27033Y-28927D01*
X27046Y-28932D01*
X27056Y-28938D01*
X27064Y-28944D01*
X27069Y-28952D01*
X27071Y-28956D01*
X27072Y-28965D01*
X27071Y-28974D01*
X27068Y-28981D01*
X27062Y-28987D01*
X27057Y-28990D01*
X27048Y-28992D01*
X27038Y-28994D01*
X27027Y-28994D01*
X27015Y-28992D01*
X27006Y-28990D01*
X26996Y-28987D01*
X26986Y-28982D01*
X26976Y-28976D01*
X26971Y-28972D01*
X26962Y-28967D01*
X26962Y-29027D01*
X26967Y-29030D01*
X26987Y-29042D01*
X27007Y-29051D01*
X27027Y-29058D01*
X27046Y-29061D01*
X27066Y-29062D01*
X27075Y-29061D01*
X27089Y-29058D01*
X27102Y-29054D01*
X27115Y-29047D01*
X27126Y-29040D01*
X27132Y-29034D01*
X27142Y-29022D01*
X27149Y-29009D01*
X27154Y-28995D01*
X27156Y-28979D01*
X27156Y-28973D01*
X27155Y-28957D01*
X27151Y-28942D01*
X27145Y-28929D01*
X27137Y-28917D01*
X27126Y-28906D01*
X27112Y-28897D01*
X27107Y-28894D01*
X27093Y-28888D01*
X27077Y-28883D01*
X27059Y-28878D01*
X27038Y-28874D01*
X27016Y-28870D01*
X26993Y-28867D01*
X26975Y-28865D01*
X26968Y-28865D01*
X26964Y-28864D01*
X26962Y-28862D01*
X26962Y-28860D01*
X26963Y-28855D01*
X26964Y-28853D01*
X26969Y-28844D01*
X26976Y-28836D01*
X26985Y-28830D01*
X26996Y-28826D01*
X27008Y-28823D01*
X27022Y-28822D01*
X27036Y-28823D01*
X27052Y-28825D01*
X27068Y-28829D01*
X27072Y-28831D01*
X27080Y-28834D01*
X27088Y-28837D01*
X27097Y-28841D01*
X27100Y-28842D01*
X27106Y-28845D01*
X27111Y-28847D01*
X27114Y-28848D01*
X27115Y-28848D01*
X27116Y-28847D01*
X27118Y-28843D01*
X27121Y-28838D01*
X27124Y-28831D01*
X27128Y-28824D01*
X27132Y-28817D01*
X27136Y-28810D01*
X27139Y-28803D01*
X27142Y-28798D01*
X27144Y-28795D01*
X27145Y-28793D01*
X27145Y-28792D01*
X27143Y-28791D01*
X27140Y-28789D01*
X27135Y-28786D01*
X27128Y-28782D01*
X27126Y-28781D01*
X27100Y-28770D01*
X27076Y-28762D01*
X27052Y-28756D01*
X27040Y-28754D01*
X27032Y-28753D01*
X27021Y-28753D01*
X27009Y-28752D01*
X26997Y-28753D01*
X26986Y-28753D01*
X26977Y-28754D01*
X26974Y-28755D01*
X26955Y-28759D01*
X26937Y-28766D01*
X26922Y-28775D01*
X26909Y-28786D01*
X26897Y-28799D01*
X26888Y-28814D01*
X26881Y-28830D01*
X26879Y-28837D01*
X26878Y-28842D01*
X26877Y-28847D01*
X26876Y-28852D01*
X26876Y-28857D01*
X26875Y-28864D01*
X26875Y-28871D01*
X26874Y-28880D01*
X26874Y-28890D01*
X26874Y-28902D01*
X26874Y-28916D01*
X26873Y-28932D01*
X26873Y-28951D01*
X26873Y-28965D01*
X26873Y-29055D01*
X26873Y-29055D01*
X26873Y-29055D01*
G37*
G36*
X26509Y-29018D02*
X26510Y-29019D01*
X26513Y-29022D01*
X26518Y-29026D01*
X26524Y-29030D01*
X26530Y-29034D01*
X26538Y-29039D01*
X26540Y-29040D01*
X26560Y-29049D01*
X26582Y-29056D01*
X26605Y-29060D01*
X26613Y-29061D01*
X26621Y-29062D01*
X26627Y-29062D01*
X26632Y-29062D01*
X26638Y-29062D01*
X26644Y-29062D01*
X26665Y-29059D01*
X26685Y-29055D01*
X26703Y-29049D01*
X26708Y-29047D01*
X26717Y-29042D01*
X26727Y-29037D01*
X26736Y-29030D01*
X26745Y-29024D01*
X26749Y-29020D01*
X26757Y-29013D01*
X26764Y-29003D01*
X26772Y-28993D01*
X26778Y-28983D01*
X26779Y-28981D01*
X26786Y-28963D01*
X26791Y-28943D01*
X26794Y-28923D01*
X26795Y-28903D01*
X26793Y-28883D01*
X26790Y-28864D01*
X26783Y-28846D01*
X26780Y-28839D01*
X26769Y-28821D01*
X26757Y-28805D01*
X26742Y-28791D01*
X26724Y-28779D01*
X26705Y-28769D01*
X26685Y-28762D01*
X26671Y-28757D01*
X26657Y-28755D01*
X26643Y-28753D01*
X26627Y-28752D01*
X26624Y-28752D01*
X26605Y-28753D01*
X26588Y-28755D01*
X26573Y-28759D01*
X26557Y-28764D01*
X26545Y-28770D01*
X26538Y-28774D01*
X26531Y-28778D01*
X26524Y-28782D01*
X26519Y-28786D01*
X26516Y-28790D01*
X26514Y-28792D01*
X26514Y-28793D01*
X26515Y-28795D01*
X26518Y-28799D01*
X26522Y-28804D01*
X26527Y-28810D01*
X26532Y-28817D01*
X26537Y-28824D01*
X26542Y-28830D01*
X26546Y-28836D01*
X26550Y-28841D01*
X26552Y-28844D01*
X26553Y-28846D01*
X26554Y-28846D01*
X26555Y-28845D01*
X26558Y-28843D01*
X26563Y-28840D01*
X26564Y-28840D01*
X26570Y-28836D01*
X26577Y-28833D01*
X26584Y-28829D01*
X26585Y-28829D01*
X26592Y-28827D01*
X26597Y-28826D01*
X26602Y-28825D01*
X26609Y-28824D01*
X26616Y-28824D01*
X26632Y-28824D01*
X26646Y-28826D01*
X26659Y-28831D01*
X26670Y-28837D01*
X26680Y-28845D01*
X26689Y-28856D01*
X26696Y-28867D01*
X26701Y-28880D01*
X26704Y-28894D01*
X26704Y-28901D01*
X26704Y-28917D01*
X26702Y-28933D01*
X26697Y-28947D01*
X26689Y-28959D01*
X26680Y-28970D01*
X26669Y-28979D01*
X26655Y-28985D01*
X26646Y-28988D01*
X26638Y-28990D01*
X26628Y-28990D01*
X26617Y-28990D01*
X26606Y-28990D01*
X26597Y-28988D01*
X26594Y-28988D01*
X26585Y-28985D01*
X26574Y-28980D01*
X26564Y-28975D01*
X26554Y-28970D01*
X26551Y-28968D01*
X26547Y-28966D01*
X26544Y-28964D01*
X26543Y-28964D01*
X26542Y-28966D01*
X26540Y-28969D01*
X26536Y-28974D01*
X26532Y-28981D01*
X26528Y-28987D01*
X26523Y-28995D01*
X26519Y-29002D01*
X26515Y-29008D01*
X26512Y-29013D01*
X26510Y-29016D01*
X26509Y-29018D01*
X26509Y-29018D01*
X26509Y-29018D01*
G37*
G36*
X25794Y-28892D02*
X25794Y-28901D01*
X25794Y-28910D01*
X25795Y-28917D01*
X25795Y-28923D01*
X25795Y-28926D01*
X25796Y-28933D01*
X25873Y-28933D01*
X25873Y-28875D01*
X25873Y-28869D01*
X25874Y-28862D01*
X25875Y-28855D01*
X25878Y-28848D01*
X25880Y-28843D01*
X25882Y-28840D01*
X25886Y-28835D01*
X25888Y-28833D01*
X25895Y-28827D01*
X25902Y-28823D01*
X25911Y-28821D01*
X25922Y-28820D01*
X25926Y-28819D01*
X25938Y-28819D01*
X25949Y-28821D01*
X25958Y-28824D01*
X25964Y-28827D01*
X25970Y-28831D01*
X25977Y-28836D01*
X25983Y-28843D01*
X25987Y-28849D01*
X25988Y-28849D01*
X25990Y-28853D01*
X25992Y-28859D01*
X25994Y-28864D01*
X25996Y-28869D01*
X25997Y-28873D01*
X25997Y-28874D01*
X25996Y-28874D01*
X25992Y-28874D01*
X25985Y-28875D01*
X25977Y-28875D01*
X25967Y-28875D01*
X25955Y-28875D01*
X25942Y-28875D01*
X25935Y-28875D01*
X25873Y-28875D01*
X25873Y-28933D01*
X25896Y-28933D01*
X25916Y-28933D01*
X25933Y-28933D01*
X25948Y-28933D01*
X25960Y-28933D01*
X25970Y-28933D01*
X25978Y-28933D01*
X25984Y-28933D01*
X25989Y-28934D01*
X25992Y-28934D01*
X25994Y-28934D01*
X25995Y-28934D01*
X25996Y-28935D01*
X25995Y-28938D01*
X25994Y-28944D01*
X25991Y-28950D01*
X25989Y-28956D01*
X25987Y-28961D01*
X25986Y-28961D01*
X25979Y-28970D01*
X25970Y-28978D01*
X25959Y-28985D01*
X25945Y-28990D01*
X25935Y-28993D01*
X25928Y-28994D01*
X25921Y-28995D01*
X25913Y-28995D01*
X25903Y-28994D01*
X25903Y-28994D01*
X25891Y-28994D01*
X25881Y-28992D01*
X25871Y-28990D01*
X25861Y-28987D01*
X25850Y-28982D01*
X25848Y-28982D01*
X25842Y-28979D01*
X25837Y-28977D01*
X25834Y-28977D01*
X25833Y-28977D01*
X25832Y-28978D01*
X25830Y-28982D01*
X25827Y-28988D01*
X25823Y-28994D01*
X25819Y-29002D01*
X25818Y-29003D01*
X25814Y-29012D01*
X25810Y-29019D01*
X25808Y-29023D01*
X25807Y-29027D01*
X25806Y-29028D01*
X25807Y-29029D01*
X25809Y-29030D01*
X25813Y-29032D01*
X25818Y-29035D01*
X25823Y-29038D01*
X25844Y-29047D01*
X25866Y-29054D01*
X25888Y-29059D01*
X25911Y-29062D01*
X25933Y-29062D01*
X25943Y-29061D01*
X25965Y-29058D01*
X25986Y-29052D01*
X26006Y-29043D01*
X26023Y-29033D01*
X26039Y-29021D01*
X26052Y-29007D01*
X26064Y-28991D01*
X26073Y-28973D01*
X26080Y-28954D01*
X26084Y-28938D01*
X26085Y-28927D01*
X26086Y-28915D01*
X26086Y-28902D01*
X26085Y-28889D01*
X26084Y-28880D01*
X26080Y-28860D01*
X26073Y-28842D01*
X26064Y-28824D01*
X26052Y-28808D01*
X26039Y-28794D01*
X26023Y-28781D01*
X26006Y-28770D01*
X25988Y-28762D01*
X25968Y-28756D01*
X25959Y-28754D01*
X25953Y-28753D01*
X25945Y-28753D01*
X25936Y-28752D01*
X25926Y-28752D01*
X25917Y-28753D01*
X25910Y-28753D01*
X25907Y-28753D01*
X25889Y-28757D01*
X25871Y-28763D01*
X25855Y-28771D01*
X25840Y-28781D01*
X25828Y-28793D01*
X25824Y-28798D01*
X25818Y-28807D01*
X25812Y-28817D01*
X25806Y-28829D01*
X25801Y-28841D01*
X25798Y-28851D01*
X25797Y-28857D01*
X25796Y-28862D01*
X25795Y-28867D01*
X25795Y-28873D01*
X25794Y-28880D01*
X25794Y-28889D01*
X25794Y-28892D01*
X25794Y-28892D01*
X25794Y-28892D01*
G37*
G36*
X30806Y-29055D02*
X30936Y-29055D01*
X31066Y-29055D01*
X31066Y-28860D01*
X31066Y-28665D01*
X31022Y-28665D01*
X30979Y-28665D01*
X30979Y-28823D01*
X30979Y-28982D01*
X30892Y-28982D01*
X30806Y-28982D01*
X30806Y-29018D01*
X30806Y-29055D01*
X30806Y-29055D01*
X30806Y-29055D01*
G37*
G36*
X30092Y-29055D02*
X30136Y-29055D01*
X30179Y-29055D01*
X30179Y-28964D01*
X30179Y-28944D01*
X30179Y-28926D01*
X30179Y-28910D01*
X30180Y-28896D01*
X30180Y-28884D01*
X30180Y-28875D01*
X30180Y-28868D01*
X30181Y-28864D01*
X30181Y-28863D01*
X30184Y-28851D01*
X30188Y-28842D01*
X30194Y-28835D01*
X30203Y-28830D01*
X30213Y-28827D01*
X30225Y-28827D01*
X30228Y-28827D01*
X30240Y-28829D01*
X30252Y-28833D01*
X30264Y-28841D01*
X30272Y-28847D01*
X30283Y-28856D01*
X30283Y-28955D01*
X30283Y-29055D01*
X30327Y-29055D01*
X30371Y-29055D01*
X30371Y-28907D01*
X30371Y-28758D01*
X30335Y-28758D01*
X30299Y-28758D01*
X30296Y-28778D01*
X30295Y-28785D01*
X30294Y-28791D01*
X30293Y-28796D01*
X30292Y-28798D01*
X30292Y-28798D01*
X30291Y-28797D01*
X30288Y-28795D01*
X30284Y-28792D01*
X30283Y-28791D01*
X30268Y-28780D01*
X30255Y-28770D01*
X30242Y-28763D01*
X30228Y-28758D01*
X30215Y-28754D01*
X30200Y-28753D01*
X30187Y-28752D01*
X30170Y-28753D01*
X30154Y-28757D01*
X30141Y-28762D01*
X30129Y-28770D01*
X30118Y-28780D01*
X30110Y-28792D01*
X30102Y-28807D01*
X30097Y-28825D01*
X30093Y-28839D01*
X30092Y-28947D01*
X30092Y-29055D01*
X30092Y-29055D01*
X30092Y-29055D01*
G37*
G36*
X29378Y-29055D02*
X29422Y-29055D01*
X29466Y-29055D01*
X29466Y-28974D01*
X29466Y-28893D01*
X29519Y-28893D01*
X29572Y-28893D01*
X29572Y-28974D01*
X29572Y-29055D01*
X29616Y-29055D01*
X29659Y-29055D01*
X29659Y-28860D01*
X29659Y-28665D01*
X29616Y-28665D01*
X29572Y-28665D01*
X29572Y-28741D01*
X29572Y-28816D01*
X29519Y-28816D01*
X29466Y-28816D01*
X29466Y-28741D01*
X29466Y-28665D01*
X29422Y-28665D01*
X29378Y-28665D01*
X29378Y-28860D01*
X29378Y-29055D01*
X29378Y-29055D01*
X29378Y-29055D01*
G37*
G36*
X28728Y-29055D02*
X28772Y-29055D01*
X28815Y-29055D01*
X28815Y-28942D01*
X28815Y-28828D01*
X28875Y-28828D01*
X28935Y-28828D01*
X28935Y-28793D01*
X28935Y-28758D01*
X28832Y-28758D01*
X28728Y-28758D01*
X28728Y-28907D01*
X28728Y-29055D01*
X28728Y-29055D01*
X28728Y-29055D01*
G37*
G36*
X28297Y-28764D02*
X28297Y-28765D01*
X28298Y-28769D01*
X28300Y-28775D01*
X28301Y-28783D01*
X28304Y-28791D01*
X28305Y-28797D01*
X28307Y-28807D01*
X28309Y-28815D01*
X28311Y-28823D01*
X28313Y-28829D01*
X28314Y-28833D01*
X28314Y-28834D01*
X28315Y-28836D01*
X28317Y-28836D01*
X28318Y-28836D01*
X28332Y-28833D01*
X28346Y-28831D01*
X28361Y-28829D01*
X28374Y-28830D01*
X28386Y-28831D01*
X28390Y-28832D01*
X28406Y-28837D01*
X28420Y-28844D01*
X28434Y-28855D01*
X28446Y-28867D01*
X28457Y-28883D01*
X28460Y-28888D01*
X28467Y-28899D01*
X28467Y-28977D01*
X28467Y-29055D01*
X28510Y-29055D01*
X28524Y-29055D01*
X28534Y-29055D01*
X28542Y-29055D01*
X28548Y-29055D01*
X28552Y-29054D01*
X28554Y-29054D01*
X28555Y-29054D01*
X28555Y-29052D01*
X28555Y-29047D01*
X28555Y-29040D01*
X28555Y-29031D01*
X28555Y-29020D01*
X28555Y-29006D01*
X28555Y-28991D01*
X28555Y-28974D01*
X28555Y-28956D01*
X28555Y-28937D01*
X28555Y-28917D01*
X28555Y-28905D01*
X28555Y-28759D01*
X28519Y-28759D01*
X28509Y-28759D01*
X28500Y-28759D01*
X28493Y-28759D01*
X28487Y-28759D01*
X28484Y-28759D01*
X28483Y-28759D01*
X28483Y-28762D01*
X28482Y-28767D01*
X28482Y-28774D01*
X28481Y-28782D01*
X28480Y-28790D01*
X28479Y-28798D01*
X28478Y-28806D01*
X28477Y-28813D01*
X28476Y-28818D01*
X28476Y-28821D01*
X28476Y-28821D01*
X28475Y-28822D01*
X28474Y-28822D01*
X28472Y-28820D01*
X28469Y-28816D01*
X28460Y-28803D01*
X28449Y-28791D01*
X28438Y-28781D01*
X28429Y-28775D01*
X28422Y-28770D01*
X28412Y-28765D01*
X28403Y-28761D01*
X28394Y-28758D01*
X28389Y-28756D01*
X28379Y-28754D01*
X28368Y-28753D01*
X28356Y-28752D01*
X28344Y-28752D01*
X28333Y-28753D01*
X28324Y-28754D01*
X28319Y-28755D01*
X28316Y-28757D01*
X28311Y-28758D01*
X28306Y-28760D01*
X28301Y-28762D01*
X28298Y-28763D01*
X28297Y-28764D01*
X28297Y-28764D01*
X28297Y-28764D01*
G37*
G36*
X27231Y-29055D02*
X27275Y-29055D01*
X27318Y-29055D01*
X27318Y-28974D01*
X27318Y-28893D01*
X27371Y-28893D01*
X27425Y-28893D01*
X27425Y-28974D01*
X27425Y-29055D01*
X27469Y-29055D01*
X27513Y-29055D01*
X27513Y-28860D01*
X27513Y-28665D01*
X27469Y-28666D01*
X27425Y-28666D01*
X27425Y-28741D01*
X27425Y-28816D01*
X27372Y-28816D01*
X27319Y-28815D01*
X27319Y-28740D01*
X27318Y-28665D01*
X27275Y-28665D01*
X27231Y-28665D01*
X27231Y-28860D01*
X27231Y-29055D01*
X27231Y-29055D01*
X27231Y-29055D01*
G37*
G36*
X26129Y-29055D02*
X26130Y-29055D01*
X26134Y-29055D01*
X26140Y-29055D01*
X26149Y-29055D01*
X26158Y-29055D01*
X26169Y-29055D01*
X26176Y-29055D01*
X26223Y-29055D01*
X26260Y-28997D01*
X26268Y-28985D01*
X26275Y-28974D01*
X26282Y-28964D01*
X26287Y-28955D01*
X26292Y-28947D01*
X26296Y-28942D01*
X26298Y-28938D01*
X26299Y-28937D01*
X26300Y-28937D01*
X26304Y-28940D01*
X26309Y-28944D01*
X26315Y-28951D01*
X26322Y-28958D01*
X26344Y-28981D01*
X26344Y-29018D01*
X26344Y-29055D01*
X26388Y-29055D01*
X26432Y-29055D01*
X26432Y-28846D01*
X26432Y-28636D01*
X26388Y-28636D01*
X26344Y-28636D01*
X26344Y-28757D01*
X26344Y-28779D01*
X26344Y-28799D01*
X26344Y-28816D01*
X26344Y-28831D01*
X26344Y-28843D01*
X26344Y-28854D01*
X26344Y-28862D01*
X26344Y-28868D01*
X26343Y-28873D01*
X26343Y-28876D01*
X26343Y-28877D01*
X26343Y-28878D01*
X26341Y-28877D01*
X26338Y-28874D01*
X26333Y-28869D01*
X26327Y-28862D01*
X26320Y-28855D01*
X26312Y-28845D01*
X26302Y-28835D01*
X26293Y-28825D01*
X26287Y-28818D01*
X26233Y-28759D01*
X26185Y-28758D01*
X26174Y-28758D01*
X26163Y-28759D01*
X26154Y-28759D01*
X26147Y-28759D01*
X26141Y-28759D01*
X26138Y-28759D01*
X26138Y-28759D01*
X26139Y-28760D01*
X26141Y-28763D01*
X26146Y-28768D01*
X26152Y-28775D01*
X26159Y-28783D01*
X26167Y-28792D01*
X26176Y-28802D01*
X26186Y-28813D01*
X26193Y-28820D01*
X26203Y-28831D01*
X26213Y-28842D01*
X26222Y-28852D01*
X26230Y-28860D01*
X26236Y-28868D01*
X26242Y-28874D01*
X26246Y-28878D01*
X26248Y-28881D01*
X26248Y-28882D01*
X26247Y-28883D01*
X26244Y-28887D01*
X26241Y-28893D01*
X26235Y-28900D01*
X26229Y-28909D01*
X26222Y-28920D01*
X26214Y-28932D01*
X26205Y-28944D01*
X26195Y-28958D01*
X26188Y-28968D01*
X26178Y-28983D01*
X26169Y-28996D01*
X26160Y-29009D01*
X26152Y-29020D01*
X26145Y-29030D01*
X26139Y-29039D01*
X26135Y-29046D01*
X26131Y-29051D01*
X26129Y-29054D01*
X26129Y-29055D01*
X26129Y-29055D01*
X26129Y-29055D01*
G37*
G36*
X25436Y-28765D02*
X25436Y-28769D01*
X25437Y-28775D01*
X25438Y-28782D01*
X25440Y-28790D01*
X25442Y-28799D01*
X25445Y-28808D01*
X25447Y-28816D01*
X25449Y-28824D01*
X25451Y-28830D01*
X25452Y-28834D01*
X25453Y-28836D01*
X25454Y-28836D01*
X25456Y-28835D01*
X25460Y-28835D01*
X25466Y-28833D01*
X25471Y-28832D01*
X25479Y-28831D01*
X25486Y-28830D01*
X25493Y-28830D01*
X25501Y-28830D01*
X25506Y-28830D01*
X25514Y-28830D01*
X25521Y-28831D01*
X25526Y-28831D01*
X25531Y-28833D01*
X25536Y-28834D01*
X25537Y-28835D01*
X25550Y-28840D01*
X25561Y-28847D01*
X25571Y-28855D01*
X25576Y-28860D01*
X25587Y-28872D01*
X25595Y-28885D01*
X25600Y-28894D01*
X25604Y-28902D01*
X25604Y-28979D01*
X25604Y-29055D01*
X25648Y-29055D01*
X25691Y-29055D01*
X25691Y-28907D01*
X25691Y-28758D01*
X25656Y-28758D01*
X25621Y-28758D01*
X25620Y-28763D01*
X25619Y-28766D01*
X25619Y-28772D01*
X25618Y-28779D01*
X25617Y-28787D01*
X25616Y-28795D01*
X25615Y-28806D01*
X25614Y-28814D01*
X25613Y-28819D01*
X25612Y-28822D01*
X25611Y-28824D01*
X25611Y-28823D01*
X25610Y-28822D01*
X25609Y-28819D01*
X25606Y-28815D01*
X25601Y-28809D01*
X25596Y-28803D01*
X25591Y-28797D01*
X25586Y-28792D01*
X25583Y-28789D01*
X25568Y-28776D01*
X25551Y-28766D01*
X25534Y-28759D01*
X25515Y-28754D01*
X25495Y-28752D01*
X25476Y-28753D01*
X25468Y-28754D01*
X25460Y-28755D01*
X25451Y-28757D01*
X25443Y-28760D01*
X25437Y-28762D01*
X25436Y-28763D01*
X25436Y-28765D01*
X25436Y-28765D01*
X25436Y-28765D01*
G37*
G36*
X28718Y-28668D02*
X28720Y-28678D01*
X28720Y-28679D01*
X28725Y-28689D01*
X28732Y-28699D01*
X28742Y-28706D01*
X28752Y-28712D01*
X28753Y-28712D01*
X28761Y-28714D01*
X28770Y-28715D01*
X28780Y-28715D01*
X28789Y-28714D01*
X28793Y-28713D01*
X28805Y-28709D01*
X28816Y-28703D01*
X28824Y-28694D01*
X28831Y-28684D01*
X28831Y-28684D01*
X28833Y-28677D01*
X28834Y-28668D01*
X28834Y-28658D01*
X28833Y-28649D01*
X28831Y-28642D01*
X28827Y-28634D01*
X28820Y-28625D01*
X28812Y-28618D01*
X28804Y-28613D01*
X28800Y-28611D01*
X28796Y-28610D01*
X28792Y-28609D01*
X28788Y-28609D01*
X28782Y-28608D01*
X28776Y-28608D01*
X28768Y-28608D01*
X28763Y-28609D01*
X28759Y-28609D01*
X28755Y-28610D01*
X28751Y-28612D01*
X28750Y-28612D01*
X28741Y-28618D01*
X28732Y-28625D01*
X28726Y-28634D01*
X28723Y-28638D01*
X28720Y-28647D01*
X28718Y-28658D01*
X28718Y-28668D01*
X28718Y-28668D01*
X28718Y-28668D01*
G37*
G36*
X25298Y-28318D02*
X25298Y-28335D01*
X25300Y-28349D01*
X25304Y-28363D01*
X25309Y-28377D01*
X25314Y-28387D01*
X25321Y-28400D01*
X25328Y-28411D01*
X25337Y-28422D01*
X25343Y-28428D01*
X25357Y-28441D01*
X25372Y-28452D01*
X25388Y-28460D01*
X25405Y-28467D01*
X25425Y-28473D01*
X25425Y-28473D01*
X25426Y-28473D01*
X25427Y-28473D01*
X25428Y-28473D01*
X25430Y-28473D01*
X25431Y-28473D01*
X25434Y-28473D01*
X25436Y-28474D01*
X25440Y-28474D01*
X25443Y-28474D01*
X25448Y-28474D01*
X25452Y-28474D01*
X25458Y-28474D01*
X25464Y-28474D01*
X25471Y-28474D01*
X25479Y-28474D01*
X25487Y-28474D01*
X25496Y-28474D01*
X25506Y-28474D01*
X25517Y-28474D01*
X25529Y-28474D01*
X25542Y-28474D01*
X25556Y-28475D01*
X25571Y-28475D01*
X25587Y-28475D01*
X25605Y-28475D01*
X25623Y-28475D01*
X25643Y-28475D01*
X25663Y-28475D01*
X25686Y-28475D01*
X25709Y-28475D01*
X25734Y-28475D01*
X25760Y-28475D01*
X25788Y-28475D01*
X25817Y-28475D01*
X25848Y-28475D01*
X25866Y-28475D01*
X25866Y-27923D01*
X25867Y-27922D01*
X25869Y-27918D01*
X25872Y-27912D01*
X25877Y-27904D01*
X25883Y-27893D01*
X25890Y-27881D01*
X25898Y-27867D01*
X25907Y-27852D01*
X25916Y-27835D01*
X25927Y-27816D01*
X25938Y-27797D01*
X25950Y-27776D01*
X25963Y-27754D01*
X25976Y-27732D01*
X25989Y-27708D01*
X25992Y-27703D01*
X26119Y-27483D01*
X26331Y-27376D01*
X26402Y-27340D01*
X26472Y-27305D01*
X26541Y-27270D01*
X26608Y-27236D01*
X26674Y-27203D01*
X26738Y-27171D01*
X26800Y-27140D01*
X26861Y-27109D01*
X26921Y-27080D01*
X26978Y-27051D01*
X27034Y-27023D01*
X27087Y-26997D01*
X27139Y-26971D01*
X27189Y-26947D01*
X27237Y-26923D01*
X27282Y-26901D01*
X27326Y-26880D01*
X27367Y-26860D01*
X27406Y-26841D01*
X27442Y-26824D01*
X27476Y-26807D01*
X27508Y-26793D01*
X27537Y-26779D01*
X27541Y-26777D01*
X27553Y-26772D01*
X27564Y-26766D01*
X27575Y-26762D01*
X27584Y-26757D01*
X27591Y-26754D01*
X27596Y-26751D01*
X27599Y-26750D01*
X27600Y-26750D01*
X27600Y-26748D01*
X27597Y-26745D01*
X27594Y-26741D01*
X27589Y-26736D01*
X27589Y-26735D01*
X27584Y-26729D01*
X27578Y-26722D01*
X27572Y-26715D01*
X27569Y-26712D01*
X27565Y-26706D01*
X27562Y-26703D01*
X27560Y-26702D01*
X27559Y-26702D01*
X27550Y-26706D01*
X27540Y-26710D01*
X27531Y-26713D01*
X27522Y-26716D01*
X27514Y-26719D01*
X27508Y-26721D01*
X27503Y-26723D01*
X27501Y-26723D01*
X27501Y-26723D01*
X27499Y-26722D01*
X27497Y-26718D01*
X27495Y-26713D01*
X27493Y-26709D01*
X27490Y-26703D01*
X27487Y-26697D01*
X27485Y-26693D01*
X27483Y-26691D01*
X27481Y-26689D01*
X27479Y-26687D01*
X27475Y-26687D01*
X27470Y-26687D01*
X27463Y-26687D01*
X27455Y-26688D01*
X27446Y-26690D01*
X27437Y-26692D01*
X27428Y-26694D01*
X27421Y-26697D01*
X27419Y-26698D01*
X27413Y-26702D01*
X27408Y-26707D01*
X27405Y-26713D01*
X27404Y-26719D01*
X27404Y-26720D01*
X27404Y-26725D01*
X27403Y-26729D01*
X27402Y-26732D01*
X27402Y-26734D01*
X27402Y-26734D01*
X27404Y-26734D01*
X27408Y-26735D01*
X27413Y-26735D01*
X27417Y-26735D01*
X27424Y-26735D01*
X27429Y-26735D01*
X27433Y-26737D01*
X27435Y-26738D01*
X27437Y-26741D01*
X27438Y-26743D01*
X27441Y-26747D01*
X27429Y-26752D01*
X27411Y-26759D01*
X27391Y-26768D01*
X27368Y-26778D01*
X27342Y-26789D01*
X27314Y-26801D01*
X27283Y-26815D01*
X27249Y-26830D01*
X27213Y-26846D01*
X27175Y-26864D01*
X27134Y-26883D01*
X27090Y-26903D01*
X27043Y-26924D01*
X26995Y-26947D01*
X26943Y-26970D01*
X26889Y-26996D01*
X26833Y-27022D01*
X26774Y-27049D01*
X26712Y-27078D01*
X26648Y-27108D01*
X26581Y-27139D01*
X26512Y-27172D01*
X26441Y-27205D01*
X26396Y-27227D01*
X26374Y-27237D01*
X26354Y-27247D01*
X26334Y-27256D01*
X26315Y-27265D01*
X26298Y-27273D01*
X26282Y-27280D01*
X26267Y-27287D01*
X26254Y-27293D01*
X26243Y-27298D01*
X26234Y-27302D01*
X26228Y-27306D01*
X26223Y-27308D01*
X26221Y-27308D01*
X26221Y-27309D01*
X26222Y-27307D01*
X26224Y-27303D01*
X26227Y-27297D01*
X26231Y-27290D01*
X26237Y-27280D01*
X26244Y-27268D01*
X26251Y-27255D01*
X26260Y-27240D01*
X26269Y-27225D01*
X26278Y-27208D01*
X26289Y-27190D01*
X26299Y-27172D01*
X26310Y-27153D01*
X26321Y-27133D01*
X26333Y-27114D01*
X26344Y-27094D01*
X26355Y-27075D01*
X26366Y-27056D01*
X26377Y-27037D01*
X26388Y-27019D01*
X26398Y-27001D01*
X26408Y-26985D01*
X26417Y-26970D01*
X26425Y-26956D01*
X26432Y-26943D01*
X26439Y-26932D01*
X26444Y-26923D01*
X26448Y-26916D01*
X26451Y-26911D01*
X26453Y-26908D01*
X26453Y-26907D01*
X26455Y-26907D01*
X26460Y-26906D01*
X26466Y-26904D01*
X26476Y-26901D01*
X26487Y-26898D01*
X26500Y-26894D01*
X26516Y-26890D01*
X26532Y-26886D01*
X26550Y-26881D01*
X26570Y-26876D01*
X26590Y-26870D01*
X26612Y-26865D01*
X26625Y-26861D01*
X26655Y-26853D01*
X26687Y-26845D01*
X26720Y-26836D01*
X26755Y-26827D01*
X26791Y-26817D01*
X26828Y-26807D01*
X26865Y-26797D01*
X26903Y-26787D01*
X26941Y-26777D01*
X26978Y-26767D01*
X27015Y-26757D01*
X27052Y-26748D01*
X27087Y-26738D01*
X27121Y-26729D01*
X27153Y-26720D01*
X27184Y-26712D01*
X27212Y-26704D01*
X27238Y-26697D01*
X27260Y-26691D01*
X27273Y-26688D01*
X27288Y-26684D01*
X27300Y-26680D01*
X27300Y-26590D01*
X27301Y-26589D01*
X27302Y-26590D01*
X27301Y-26591D01*
X27300Y-26590D01*
X27300Y-26680D01*
X27304Y-26679D01*
X27321Y-26675D01*
X27338Y-26670D01*
X27356Y-26665D01*
X27374Y-26660D01*
X27391Y-26655D01*
X27409Y-26650D01*
X27425Y-26646D01*
X27441Y-26641D01*
X27456Y-26637D01*
X27469Y-26634D01*
X27481Y-26630D01*
X27491Y-26628D01*
X27499Y-26625D01*
X27504Y-26624D01*
X27508Y-26623D01*
X27508Y-26623D01*
X27508Y-26621D01*
X27507Y-26618D01*
X27504Y-26612D01*
X27501Y-26606D01*
X27498Y-26599D01*
X27494Y-26591D01*
X27491Y-26583D01*
X27487Y-26576D01*
X27484Y-26570D01*
X27482Y-26566D01*
X27480Y-26563D01*
X27480Y-26563D01*
X27478Y-26563D01*
X27474Y-26564D01*
X27467Y-26565D01*
X27458Y-26566D01*
X27447Y-26568D01*
X27435Y-26569D01*
X27421Y-26572D01*
X27407Y-26574D01*
X27392Y-26576D01*
X27377Y-26578D01*
X27362Y-26581D01*
X27348Y-26583D01*
X27336Y-26585D01*
X27325Y-26586D01*
X27317Y-26588D01*
X27310Y-26588D01*
X27306Y-26589D01*
X27305Y-26589D01*
X27305Y-26589D01*
X27307Y-26588D01*
X27308Y-26587D01*
X27316Y-26583D01*
X27323Y-26579D01*
X27326Y-26575D01*
X27327Y-26573D01*
X27328Y-26569D01*
X27329Y-26562D01*
X27329Y-26554D01*
X27329Y-26552D01*
X27330Y-26544D01*
X27330Y-26538D01*
X27329Y-26534D01*
X27329Y-26531D01*
X27329Y-26531D01*
X27327Y-26531D01*
X27323Y-26531D01*
X27317Y-26532D01*
X27313Y-26533D01*
X27303Y-26534D01*
X27293Y-26534D01*
X27288Y-26534D01*
X27283Y-26534D01*
X27279Y-26534D01*
X27275Y-26535D01*
X27269Y-26537D01*
X27265Y-26538D01*
X27259Y-26541D01*
X27251Y-26544D01*
X27242Y-26548D01*
X27234Y-26552D01*
X27231Y-26554D01*
X27222Y-26558D01*
X27216Y-26561D01*
X27212Y-26564D01*
X27209Y-26566D01*
X27206Y-26568D01*
X27205Y-26570D01*
X27202Y-26576D01*
X27200Y-26581D01*
X27201Y-26585D01*
X27201Y-26586D01*
X27206Y-26589D01*
X27213Y-26591D01*
X27223Y-26593D01*
X27236Y-26595D01*
X27241Y-26595D01*
X27263Y-26596D01*
X27046Y-26630D01*
X27019Y-26635D01*
X26990Y-26640D01*
X26961Y-26644D01*
X26931Y-26649D01*
X26901Y-26654D01*
X26872Y-26658D01*
X26843Y-26663D01*
X26815Y-26668D01*
X26789Y-26672D01*
X26764Y-26676D01*
X26741Y-26679D01*
X26720Y-26683D01*
X26702Y-26686D01*
X26699Y-26686D01*
X26680Y-26689D01*
X26661Y-26692D01*
X26644Y-26695D01*
X26628Y-26698D01*
X26613Y-26700D01*
X26600Y-26702D01*
X26589Y-26704D01*
X26580Y-26705D01*
X26574Y-26706D01*
X26570Y-26707D01*
X26568Y-26707D01*
X26569Y-26706D01*
X26571Y-26702D01*
X26574Y-26696D01*
X26578Y-26689D01*
X26584Y-26679D01*
X26590Y-26668D01*
X26597Y-26656D01*
X26605Y-26643D01*
X26613Y-26628D01*
X26618Y-26620D01*
X26668Y-26534D01*
X26675Y-26533D01*
X26677Y-26532D01*
X26683Y-26532D01*
X26690Y-26530D01*
X26700Y-26529D01*
X26712Y-26527D01*
X26726Y-26525D01*
X26741Y-26523D01*
X26758Y-26520D01*
X26775Y-26518D01*
X26794Y-26515D01*
X26805Y-26513D01*
X26844Y-26507D01*
X26883Y-26502D01*
X26923Y-26495D01*
X26964Y-26489D01*
X27004Y-26483D01*
X27044Y-26477D01*
X27083Y-26471D01*
X27121Y-26465D01*
X27158Y-26459D01*
X27193Y-26453D01*
X27226Y-26448D01*
X27257Y-26443D01*
X27286Y-26438D01*
X27289Y-26437D01*
X27313Y-26433D01*
X27334Y-26430D01*
X27352Y-26427D01*
X27368Y-26424D01*
X27381Y-26422D01*
X27393Y-26420D01*
X27402Y-26418D01*
X27410Y-26417D01*
X27417Y-26416D01*
X27421Y-26415D01*
X27425Y-26414D01*
X27428Y-26413D01*
X27430Y-26413D01*
X27431Y-26413D01*
X27432Y-26412D01*
X27432Y-26412D01*
X27432Y-26412D01*
X27433Y-26410D01*
X27432Y-26406D01*
X27432Y-26401D01*
X27431Y-26398D01*
X27430Y-26390D01*
X27429Y-26381D01*
X27427Y-26372D01*
X27427Y-26368D01*
X27426Y-26362D01*
X27425Y-26357D01*
X27424Y-26353D01*
X27424Y-26352D01*
X27422Y-26352D01*
X27418Y-26352D01*
X27411Y-26352D01*
X27402Y-26353D01*
X27390Y-26353D01*
X27376Y-26354D01*
X27360Y-26355D01*
X27342Y-26355D01*
X27323Y-26356D01*
X27302Y-26357D01*
X27279Y-26358D01*
X27256Y-26360D01*
X27231Y-26361D01*
X27205Y-26362D01*
X27187Y-26363D01*
X27143Y-26365D01*
X27101Y-26367D01*
X27063Y-26369D01*
X27027Y-26371D01*
X26994Y-26373D01*
X26963Y-26374D01*
X26935Y-26376D01*
X26909Y-26377D01*
X26886Y-26378D01*
X26865Y-26379D01*
X26846Y-26380D01*
X26829Y-26381D01*
X26814Y-26382D01*
X26801Y-26382D01*
X26789Y-26383D01*
X26780Y-26383D01*
X26772Y-26383D01*
X26766Y-26384D01*
X26761Y-26384D01*
X26758Y-26384D01*
X26756Y-26384D01*
X26756Y-26384D01*
X26756Y-26382D01*
X26758Y-26379D01*
X26761Y-26373D01*
X26764Y-26367D01*
X26768Y-26359D01*
X26773Y-26352D01*
X26777Y-26344D01*
X26782Y-26337D01*
X26785Y-26330D01*
X26789Y-26325D01*
X26791Y-26321D01*
X26792Y-26320D01*
X26794Y-26320D01*
X26798Y-26319D01*
X26805Y-26319D01*
X26814Y-26318D01*
X26826Y-26317D01*
X26840Y-26316D01*
X26855Y-26314D01*
X26873Y-26313D01*
X26892Y-26311D01*
X26913Y-26309D01*
X26934Y-26307D01*
X26957Y-26305D01*
X26981Y-26303D01*
X27002Y-26302D01*
X27027Y-26300D01*
X27051Y-26298D01*
X27073Y-26296D01*
X27095Y-26294D01*
X27115Y-26292D01*
X27134Y-26291D01*
X27151Y-26289D01*
X27167Y-26288D01*
X27180Y-26286D01*
X27191Y-26285D01*
X27200Y-26285D01*
X27207Y-26284D01*
X27211Y-26284D01*
X27212Y-26283D01*
X27210Y-26283D01*
X27206Y-26283D01*
X27199Y-26282D01*
X27190Y-26281D01*
X27179Y-26280D01*
X27165Y-26278D01*
X27150Y-26277D01*
X27133Y-26275D01*
X27114Y-26273D01*
X27094Y-26271D01*
X27073Y-26269D01*
X27050Y-26267D01*
X27027Y-26264D01*
X27024Y-26264D01*
X27001Y-26262D01*
X26978Y-26259D01*
X26957Y-26257D01*
X26937Y-26255D01*
X26918Y-26253D01*
X26900Y-26251D01*
X26884Y-26250D01*
X26871Y-26249D01*
X26859Y-26248D01*
X26849Y-26247D01*
X26842Y-26246D01*
X26837Y-26246D01*
X26836Y-26246D01*
X26836Y-26246D01*
X26836Y-26244D01*
X26838Y-26241D01*
X26841Y-26235D01*
X26844Y-26229D01*
X26847Y-26224D01*
X26859Y-26204D01*
X27142Y-26204D01*
X27424Y-26205D01*
X27425Y-26202D01*
X27426Y-26199D01*
X27426Y-26194D01*
X27427Y-26187D01*
X27428Y-26179D01*
X27429Y-26175D01*
X27430Y-26167D01*
X27431Y-26159D01*
X27432Y-26153D01*
X27433Y-26148D01*
X27433Y-26147D01*
X27434Y-26142D01*
X27370Y-26126D01*
X27354Y-26122D01*
X27336Y-26117D01*
X27316Y-26112D01*
X27294Y-26107D01*
X27271Y-26101D01*
X27246Y-26094D01*
X27221Y-26088D01*
X27195Y-26081D01*
X27170Y-26075D01*
X27145Y-26068D01*
X27120Y-26062D01*
X27097Y-26056D01*
X27075Y-26051D01*
X27054Y-26045D01*
X27036Y-26041D01*
X27020Y-26037D01*
X27019Y-26036D01*
X27007Y-26033D01*
X26995Y-26030D01*
X26986Y-26027D01*
X26977Y-26025D01*
X26971Y-26023D01*
X26967Y-26022D01*
X26965Y-26021D01*
X26965Y-26021D01*
X26966Y-26020D01*
X26968Y-26016D01*
X26971Y-26010D01*
X26975Y-26004D01*
X26979Y-25995D01*
X26984Y-25987D01*
X26990Y-25977D01*
X26995Y-25968D01*
X27000Y-25959D01*
X27005Y-25951D01*
X27009Y-25944D01*
X27012Y-25938D01*
X27015Y-25934D01*
X27016Y-25932D01*
X27016Y-25931D01*
X27018Y-25931D01*
X27021Y-25932D01*
X27025Y-25933D01*
X27030Y-25934D01*
X27036Y-25935D01*
X27046Y-25938D01*
X27057Y-25940D01*
X27071Y-25944D01*
X27086Y-25947D01*
X27103Y-25952D01*
X27120Y-25956D01*
X27139Y-25961D01*
X27159Y-25966D01*
X27180Y-25971D01*
X27200Y-25976D01*
X27221Y-25981D01*
X27242Y-25986D01*
X27263Y-25992D01*
X27283Y-25997D01*
X27302Y-26001D01*
X27320Y-26006D01*
X27337Y-26010D01*
X27352Y-26014D01*
X27366Y-26018D01*
X27378Y-26021D01*
X27388Y-26023D01*
X27389Y-26024D01*
X27403Y-26027D01*
X27416Y-26031D01*
X27428Y-26034D01*
X27439Y-26036D01*
X27448Y-26038D01*
X27455Y-26040D01*
X27459Y-26041D01*
X27461Y-26041D01*
X27461Y-26041D01*
X27463Y-26039D01*
X27464Y-26036D01*
X27466Y-26032D01*
X27468Y-26026D01*
X27469Y-26023D01*
X27472Y-26015D01*
X27463Y-26010D01*
X27455Y-26005D01*
X27444Y-25998D01*
X27430Y-25990D01*
X27415Y-25981D01*
X27398Y-25971D01*
X27380Y-25960D01*
X27360Y-25948D01*
X27340Y-25936D01*
X27318Y-25923D01*
X27295Y-25910D01*
X27272Y-25896D01*
X27249Y-25883D01*
X27226Y-25869D01*
X27203Y-25856D01*
X27180Y-25843D01*
X27167Y-25835D01*
X27154Y-25828D01*
X27142Y-25821D01*
X27130Y-25814D01*
X27120Y-25808D01*
X27111Y-25803D01*
X27105Y-25799D01*
X27100Y-25796D01*
X27097Y-25794D01*
X27097Y-25793D01*
X27097Y-25792D01*
X27099Y-25788D01*
X27102Y-25782D01*
X27106Y-25776D01*
X27110Y-25769D01*
X27114Y-25761D01*
X27119Y-25754D01*
X27123Y-25747D01*
X27126Y-25741D01*
X27129Y-25737D01*
X27131Y-25735D01*
X27131Y-25735D01*
X27132Y-25736D01*
X27136Y-25738D01*
X27142Y-25741D01*
X27149Y-25746D01*
X27158Y-25752D01*
X27169Y-25759D01*
X27180Y-25766D01*
X27193Y-25775D01*
X27204Y-25782D01*
X27217Y-25790D01*
X27232Y-25800D01*
X27249Y-25811D01*
X27267Y-25823D01*
X27287Y-25836D01*
X27306Y-25849D01*
X27326Y-25862D01*
X27346Y-25875D01*
X27365Y-25887D01*
X27384Y-25899D01*
X27384Y-25899D01*
X27492Y-25970D01*
X27501Y-25952D01*
X27511Y-25933D01*
X27522Y-25914D01*
X27532Y-25898D01*
X27534Y-25895D01*
X27537Y-25890D01*
X27540Y-25886D01*
X27541Y-25883D01*
X27541Y-25882D01*
X27540Y-25881D01*
X27537Y-25878D01*
X27532Y-25874D01*
X27525Y-25867D01*
X27517Y-25860D01*
X27507Y-25850D01*
X27495Y-25840D01*
X27482Y-25828D01*
X27469Y-25816D01*
X27454Y-25802D01*
X27438Y-25788D01*
X27422Y-25773D01*
X27405Y-25757D01*
X27387Y-25741D01*
X27369Y-25725D01*
X27351Y-25709D01*
X27333Y-25693D01*
X27315Y-25676D01*
X27297Y-25660D01*
X27280Y-25644D01*
X27263Y-25629D01*
X27260Y-25626D01*
X27248Y-25615D01*
X27238Y-25606D01*
X27230Y-25599D01*
X27224Y-25593D01*
X27220Y-25589D01*
X27218Y-25586D01*
X27217Y-25584D01*
X27217Y-25584D01*
X27218Y-25583D01*
X27220Y-25579D01*
X27223Y-25573D01*
X27227Y-25566D01*
X27231Y-25559D01*
X27236Y-25550D01*
X27241Y-25542D01*
X27246Y-25534D01*
X27250Y-25526D01*
X27253Y-25520D01*
X27256Y-25515D01*
X27258Y-25513D01*
X27258Y-25512D01*
X27260Y-25513D01*
X27263Y-25514D01*
X27270Y-25517D01*
X27278Y-25521D01*
X27288Y-25526D01*
X27300Y-25532D01*
X27313Y-25539D01*
X27328Y-25546D01*
X27345Y-25554D01*
X27362Y-25563D01*
X27380Y-25572D01*
X27394Y-25579D01*
X27413Y-25588D01*
X27431Y-25597D01*
X27448Y-25605D01*
X27464Y-25613D01*
X27478Y-25621D01*
X27492Y-25627D01*
X27503Y-25633D01*
X27513Y-25637D01*
X27521Y-25641D01*
X27526Y-25644D01*
X27530Y-25645D01*
X27530Y-25646D01*
X27529Y-25645D01*
X27527Y-25641D01*
X27523Y-25636D01*
X27517Y-25629D01*
X27510Y-25620D01*
X27502Y-25609D01*
X27492Y-25597D01*
X27482Y-25584D01*
X27471Y-25570D01*
X27458Y-25554D01*
X27446Y-25538D01*
X27432Y-25521D01*
X27430Y-25518D01*
X27328Y-25390D01*
X27331Y-25386D01*
X27333Y-25383D01*
X27336Y-25378D01*
X27339Y-25372D01*
X27344Y-25364D01*
X27348Y-25356D01*
X27348Y-25356D01*
X27353Y-25347D01*
X27358Y-25339D01*
X27362Y-25332D01*
X27366Y-25326D01*
X27368Y-25322D01*
X27373Y-25314D01*
X27398Y-25336D01*
X27407Y-25345D01*
X27416Y-25354D01*
X27426Y-25363D01*
X27436Y-25372D01*
X27443Y-25380D01*
X27465Y-25400D01*
X27456Y-25407D01*
X27449Y-25414D01*
X27443Y-25424D01*
X27439Y-25433D01*
X27437Y-25442D01*
X27437Y-25449D01*
X27438Y-25453D01*
X27441Y-25457D01*
X27446Y-25460D01*
X27447Y-25461D01*
X27455Y-25465D01*
X27461Y-25472D01*
X27462Y-25474D01*
X27466Y-25478D01*
X27471Y-25482D01*
X27474Y-25484D01*
X27474Y-25484D01*
X27477Y-25486D01*
X27480Y-25488D01*
X27484Y-25492D01*
X27489Y-25497D01*
X27496Y-25504D01*
X27497Y-25506D01*
X27503Y-25511D01*
X27509Y-25515D01*
X27515Y-25518D01*
X27520Y-25519D01*
X27521Y-25518D01*
X27526Y-25516D01*
X27531Y-25512D01*
X27538Y-25505D01*
X27542Y-25500D01*
X27546Y-25495D01*
X27549Y-25492D01*
X27550Y-25491D01*
X27551Y-25491D01*
X27552Y-25492D01*
X27555Y-25495D01*
X27560Y-25500D01*
X27565Y-25506D01*
X27571Y-25512D01*
X27573Y-25515D01*
X27613Y-25561D01*
X27650Y-25606D01*
X27685Y-25650D01*
X27701Y-25672D01*
X27722Y-25699D01*
X27737Y-25689D01*
X27746Y-25683D01*
X27756Y-25677D01*
X27766Y-25671D01*
X27775Y-25665D01*
X27783Y-25661D01*
X27789Y-25657D01*
X27794Y-25655D01*
X27798Y-25653D01*
X27799Y-25652D01*
X27799Y-25651D01*
X27799Y-25651D01*
X27799Y-25649D01*
X27799Y-25648D01*
X27798Y-25645D01*
X27797Y-25642D01*
X27796Y-25638D01*
X27793Y-25633D01*
X27790Y-25626D01*
X27787Y-25618D01*
X27783Y-25608D01*
X27778Y-25597D01*
X27772Y-25583D01*
X27765Y-25568D01*
X27757Y-25550D01*
X27748Y-25530D01*
X27738Y-25508D01*
X27732Y-25495D01*
X27721Y-25471D01*
X27709Y-25445D01*
X27696Y-25417D01*
X27683Y-25388D01*
X27670Y-25359D01*
X27656Y-25329D01*
X27643Y-25300D01*
X27630Y-25271D01*
X27618Y-25244D01*
X27606Y-25219D01*
X27595Y-25196D01*
X27595Y-25195D01*
X27586Y-25175D01*
X27577Y-25156D01*
X27569Y-25138D01*
X27562Y-25121D01*
X27554Y-25106D01*
X27548Y-25091D01*
X27542Y-25079D01*
X27538Y-25068D01*
X27534Y-25059D01*
X27531Y-25053D01*
X27529Y-25048D01*
X27528Y-25047D01*
X27528Y-25046D01*
X27529Y-25045D01*
X27531Y-25041D01*
X27534Y-25036D01*
X27538Y-25028D01*
X27543Y-25020D01*
X27548Y-25010D01*
X27554Y-25000D01*
X27560Y-24989D01*
X27566Y-24978D01*
X27572Y-24968D01*
X27578Y-24958D01*
X27583Y-24949D01*
X27588Y-24941D01*
X27592Y-24935D01*
X27594Y-24930D01*
X27596Y-24928D01*
X27598Y-24925D01*
X27603Y-24934D01*
X27607Y-24941D01*
X27612Y-24946D01*
X27618Y-24949D01*
X27624Y-24949D01*
X27635Y-24948D01*
X27645Y-24944D01*
X27655Y-24938D01*
X27665Y-24929D01*
X27675Y-24918D01*
X27682Y-24908D01*
X27690Y-24895D01*
X27697Y-24885D01*
X27702Y-24875D01*
X27705Y-24868D01*
X27707Y-24861D01*
X27708Y-24860D01*
X27709Y-24853D01*
X27710Y-24847D01*
X27709Y-24843D01*
X27708Y-24839D01*
X27705Y-24834D01*
X27700Y-24829D01*
X27697Y-24825D01*
X27691Y-24819D01*
X27685Y-24813D01*
X27681Y-24808D01*
X27677Y-24804D01*
X27670Y-24798D01*
X27696Y-24755D01*
X27702Y-24744D01*
X27707Y-24735D01*
X27712Y-24727D01*
X27716Y-24720D01*
X27719Y-24714D01*
X27721Y-24711D01*
X27722Y-24710D01*
X27722Y-24712D01*
X27723Y-24716D01*
X27725Y-24722D01*
X27728Y-24731D01*
X27732Y-24743D01*
X27736Y-24756D01*
X27740Y-24772D01*
X27746Y-24790D01*
X27751Y-24809D01*
X27757Y-24830D01*
X27764Y-24853D01*
X27771Y-24878D01*
X27779Y-24903D01*
X27787Y-24930D01*
X27795Y-24958D01*
X27803Y-24987D01*
X27812Y-25017D01*
X27821Y-25047D01*
X27830Y-25079D01*
X27839Y-25110D01*
X27848Y-25142D01*
X27857Y-25174D01*
X27867Y-25207D01*
X27876Y-25239D01*
X27885Y-25271D01*
X27894Y-25303D01*
X27903Y-25334D01*
X27912Y-25365D01*
X27921Y-25396D01*
X27929Y-25425D01*
X27934Y-25441D01*
X27939Y-25461D01*
X27945Y-25480D01*
X27950Y-25498D01*
X27955Y-25515D01*
X27959Y-25531D01*
X27964Y-25545D01*
X27967Y-25557D01*
X27970Y-25568D01*
X27973Y-25576D01*
X27974Y-25582D01*
X27975Y-25585D01*
X27976Y-25586D01*
X27977Y-25586D01*
X27981Y-25586D01*
X27987Y-25585D01*
X27994Y-25584D01*
X27996Y-25583D01*
X28027Y-25578D01*
X28060Y-25574D01*
X28093Y-25572D01*
X28125Y-25571D01*
X28156Y-25571D01*
X28180Y-25572D01*
X28188Y-25573D01*
X28194Y-25573D01*
X28198Y-25573D01*
X28200Y-25572D01*
X28201Y-25570D01*
X28202Y-25568D01*
X28202Y-25566D01*
X28202Y-25562D01*
X28203Y-25557D01*
X28204Y-25550D01*
X28205Y-25543D01*
X28207Y-25529D01*
X28207Y-25517D01*
X28206Y-25507D01*
X28204Y-25502D01*
X28202Y-25500D01*
X28199Y-25496D01*
X28194Y-25491D01*
X28188Y-25485D01*
X28186Y-25484D01*
X28177Y-25476D01*
X28170Y-25469D01*
X28164Y-25463D01*
X28160Y-25457D01*
X28156Y-25451D01*
X28154Y-25447D01*
X28150Y-25438D01*
X28154Y-25416D01*
X28156Y-25407D01*
X28158Y-25397D01*
X28160Y-25387D01*
X28162Y-25380D01*
X28162Y-25379D01*
X28164Y-25372D01*
X28165Y-25366D01*
X28166Y-25362D01*
X28166Y-25360D01*
X28163Y-25355D01*
X28159Y-25350D01*
X28153Y-25346D01*
X28149Y-25343D01*
X28146Y-25342D01*
X28143Y-25341D01*
X28139Y-25341D01*
X28135Y-25341D01*
X28130Y-25342D01*
X28122Y-25343D01*
X28116Y-25343D01*
X28113Y-25342D01*
X28111Y-25340D01*
X28109Y-25337D01*
X28108Y-25333D01*
X28105Y-25330D01*
X28103Y-25329D01*
X28100Y-25328D01*
X28096Y-25327D01*
X28092Y-25328D01*
X28089Y-25328D01*
X28084Y-25330D01*
X28077Y-25332D01*
X28070Y-25335D01*
X28065Y-25338D01*
X28058Y-25341D01*
X28052Y-25343D01*
X28049Y-25344D01*
X28046Y-25343D01*
X28044Y-25341D01*
X28042Y-25337D01*
X28041Y-25337D01*
X28040Y-25334D01*
X28039Y-25330D01*
X28038Y-25325D01*
X28037Y-25317D01*
X28036Y-25308D01*
X28035Y-25296D01*
X28034Y-25282D01*
X28033Y-25265D01*
X28032Y-25249D01*
X28031Y-25243D01*
X28031Y-25235D01*
X28031Y-25224D01*
X28031Y-25213D01*
X28030Y-25200D01*
X28030Y-25185D01*
X28030Y-25170D01*
X28030Y-25155D01*
X28029Y-25139D01*
X28029Y-25123D01*
X28029Y-25107D01*
X28029Y-25092D01*
X28029Y-25078D01*
X28029Y-25064D01*
X28029Y-25052D01*
X28029Y-25042D01*
X28029Y-25034D01*
X28030Y-25027D01*
X28030Y-25024D01*
X28030Y-25023D01*
X28031Y-25024D01*
X28031Y-25009D01*
X28031Y-25004D01*
X28031Y-25004D01*
X28031Y-25002D01*
X28031Y-25004D01*
X28031Y-25007D01*
X28031Y-25009D01*
X28031Y-25013D01*
X28031Y-25015D01*
X28031Y-25015D01*
X28031Y-25014D01*
X28031Y-25009D01*
X28031Y-25024D01*
X28031Y-25024D01*
X28032Y-25027D01*
X28032Y-25032D01*
X28032Y-25033D01*
X28032Y-24934D01*
X28033Y-24929D01*
X28033Y-24923D01*
X28033Y-24915D01*
X28034Y-24904D01*
X28034Y-24893D01*
X28035Y-24880D01*
X28035Y-24878D01*
X28039Y-24799D01*
X28045Y-24718D01*
X28051Y-24635D01*
X28058Y-24550D01*
X28066Y-24462D01*
X28076Y-24371D01*
X28086Y-24278D01*
X28091Y-24234D01*
X28099Y-24167D01*
X28107Y-24184D01*
X28114Y-24197D01*
X28118Y-24209D01*
X28119Y-24213D01*
X28123Y-24225D01*
X28126Y-24234D01*
X28131Y-24242D01*
X28137Y-24249D01*
X28140Y-24251D01*
X28144Y-24255D01*
X28149Y-24261D01*
X28156Y-24268D01*
X28162Y-24275D01*
X28165Y-24278D01*
X28171Y-24285D01*
X28178Y-24292D01*
X28184Y-24299D01*
X28189Y-24304D01*
X28191Y-24306D01*
X28198Y-24312D01*
X28206Y-24320D01*
X28213Y-24327D01*
X28219Y-24335D01*
X28222Y-24338D01*
X28224Y-24343D01*
X28226Y-24349D01*
X28227Y-24353D01*
X28229Y-24359D01*
X28231Y-24366D01*
X28233Y-24369D01*
X28235Y-24373D01*
X28240Y-24378D01*
X28246Y-24385D01*
X28252Y-24393D01*
X28260Y-24401D01*
X28269Y-24410D01*
X28279Y-24419D01*
X28288Y-24428D01*
X28290Y-24429D01*
X28299Y-24438D01*
X28306Y-24446D01*
X28312Y-24455D01*
X28316Y-24464D01*
X28317Y-24466D01*
X28322Y-24474D01*
X28328Y-24480D01*
X28335Y-24483D01*
X28345Y-24484D01*
X28356Y-24483D01*
X28364Y-24481D01*
X28375Y-24477D01*
X28384Y-24472D01*
X28394Y-24464D01*
X28404Y-24454D01*
X28415Y-24442D01*
X28424Y-24430D01*
X28431Y-24420D01*
X28437Y-24410D01*
X28443Y-24400D01*
X28449Y-24391D01*
X28453Y-24383D01*
X28457Y-24376D01*
X28459Y-24371D01*
X28459Y-24371D01*
X28460Y-24366D01*
X28461Y-24360D01*
X28462Y-24353D01*
X28463Y-24346D01*
X28464Y-24340D01*
X28464Y-24338D01*
X28463Y-24336D01*
X28462Y-24333D01*
X28459Y-24329D01*
X28456Y-24324D01*
X28450Y-24318D01*
X28443Y-24311D01*
X28435Y-24302D01*
X28424Y-24291D01*
X28418Y-24285D01*
X28407Y-24275D01*
X28399Y-24265D01*
X28391Y-24258D01*
X28385Y-24251D01*
X28381Y-24244D01*
X28376Y-24237D01*
X28373Y-24231D01*
X28369Y-24223D01*
X28366Y-24218D01*
X28363Y-24210D01*
X28359Y-24202D01*
X28355Y-24195D01*
X28353Y-24191D01*
X28349Y-24184D01*
X28344Y-24176D01*
X28339Y-24168D01*
X28334Y-24159D01*
X28330Y-24151D01*
X28327Y-24145D01*
X28325Y-24140D01*
X28324Y-24138D01*
X28323Y-24133D01*
X28322Y-24129D01*
X28322Y-24128D01*
X28321Y-24124D01*
X28317Y-24119D01*
X28313Y-24113D01*
X28307Y-24108D01*
X28300Y-24102D01*
X28294Y-24097D01*
X28288Y-24094D01*
X28283Y-24092D01*
X28281Y-24092D01*
X28278Y-24092D01*
X28273Y-24093D01*
X28267Y-24095D01*
X28258Y-24098D01*
X28250Y-24101D01*
X28249Y-24101D01*
X28239Y-24105D01*
X28232Y-24107D01*
X28226Y-24109D01*
X28222Y-24110D01*
X28218Y-24111D01*
X28215Y-24111D01*
X28212Y-24111D01*
X28208Y-24110D01*
X28198Y-24109D01*
X28188Y-24107D01*
X28178Y-24104D01*
X28169Y-24102D01*
X28162Y-24098D01*
X28160Y-24097D01*
X28154Y-24094D01*
X28148Y-24093D01*
X28146Y-24093D01*
X28139Y-24093D01*
X28130Y-24096D01*
X28122Y-24099D01*
X28115Y-24102D01*
X28113Y-24104D01*
X28110Y-24106D01*
X28107Y-24108D01*
X28106Y-24108D01*
X28106Y-24107D01*
X28106Y-24103D01*
X28106Y-24101D01*
X28105Y-24097D01*
X28104Y-24090D01*
X28102Y-24083D01*
X28100Y-24079D01*
X28095Y-24063D01*
X28172Y-23929D01*
X28183Y-23910D01*
X28193Y-23893D01*
X28203Y-23876D01*
X28212Y-23861D01*
X28220Y-23846D01*
X28228Y-23833D01*
X28234Y-23822D01*
X28240Y-23812D01*
X28244Y-23805D01*
X28248Y-23799D01*
X28250Y-23796D01*
X28250Y-23795D01*
X28250Y-23796D01*
X28253Y-23800D01*
X28256Y-23806D01*
X28261Y-23814D01*
X28267Y-23823D01*
X28273Y-23835D01*
X28281Y-23848D01*
X28290Y-23863D01*
X28299Y-23879D01*
X28309Y-23896D01*
X28319Y-23914D01*
X28330Y-23933D01*
X28342Y-23953D01*
X28353Y-23973D01*
X28365Y-23993D01*
X28377Y-24014D01*
X28389Y-24035D01*
X28400Y-24055D01*
X28412Y-24075D01*
X28423Y-24095D01*
X28434Y-24114D01*
X28445Y-24132D01*
X28454Y-24149D01*
X28464Y-24165D01*
X28472Y-24180D01*
X28480Y-24194D01*
X28487Y-24206D01*
X28492Y-24216D01*
X28497Y-24224D01*
X28500Y-24230D01*
X28503Y-24234D01*
X28503Y-24236D01*
X28503Y-24237D01*
X28502Y-24242D01*
X28501Y-24249D01*
X28500Y-24259D01*
X28498Y-24271D01*
X28496Y-24284D01*
X28493Y-24300D01*
X28490Y-24317D01*
X28487Y-24336D01*
X28483Y-24356D01*
X28480Y-24377D01*
X28476Y-24400D01*
X28472Y-24423D01*
X28468Y-24446D01*
X28463Y-24470D01*
X28459Y-24495D01*
X28455Y-24519D01*
X28451Y-24544D01*
X28446Y-24568D01*
X28442Y-24591D01*
X28438Y-24614D01*
X28434Y-24637D01*
X28430Y-24658D01*
X28427Y-24678D01*
X28423Y-24697D01*
X28420Y-24714D01*
X28418Y-24730D01*
X28415Y-24743D01*
X28413Y-24755D01*
X28411Y-24765D01*
X28410Y-24772D01*
X28409Y-24776D01*
X28408Y-24778D01*
X28407Y-24781D01*
X28406Y-24785D01*
X28404Y-24790D01*
X28403Y-24796D01*
X28401Y-24804D01*
X28399Y-24814D01*
X28396Y-24825D01*
X28393Y-24838D01*
X28390Y-24853D01*
X28386Y-24870D01*
X28382Y-24889D01*
X28378Y-24910D01*
X28373Y-24934D01*
X28367Y-24960D01*
X28362Y-24989D01*
X28355Y-25020D01*
X28349Y-25053D01*
X28343Y-25080D01*
X28338Y-25104D01*
X28334Y-25125D01*
X28330Y-25144D01*
X28327Y-25161D01*
X28324Y-25176D01*
X28321Y-25188D01*
X28319Y-25199D01*
X28317Y-25208D01*
X28315Y-25215D01*
X28314Y-25221D01*
X28313Y-25226D01*
X28312Y-25229D01*
X28312Y-25232D01*
X28311Y-25234D01*
X28311Y-25235D01*
X28310Y-25235D01*
X28310Y-25235D01*
X28309Y-25234D01*
X28308Y-25231D01*
X28307Y-25229D01*
X28306Y-25225D01*
X28303Y-25218D01*
X28299Y-25210D01*
X28294Y-25201D01*
X28288Y-25191D01*
X28282Y-25180D01*
X28278Y-25172D01*
X28273Y-25164D01*
X28269Y-25155D01*
X28264Y-25145D01*
X28261Y-25140D01*
X28255Y-25125D01*
X28248Y-25108D01*
X28239Y-25090D01*
X28230Y-25071D01*
X28221Y-25052D01*
X28212Y-25033D01*
X28203Y-25014D01*
X28197Y-25003D01*
X28175Y-24959D01*
X28162Y-24946D01*
X28147Y-24932D01*
X28133Y-24921D01*
X28118Y-24913D01*
X28104Y-24906D01*
X28091Y-24903D01*
X28079Y-24901D01*
X28068Y-24900D01*
X28058Y-24901D01*
X28051Y-24903D01*
X28046Y-24906D01*
X28046Y-24907D01*
X28044Y-24910D01*
X28041Y-24915D01*
X28039Y-24921D01*
X28038Y-24923D01*
X28036Y-24929D01*
X28034Y-24933D01*
X28033Y-24935D01*
X28033Y-24935D01*
X28032Y-24934D01*
X28032Y-25033D01*
X28034Y-25040D01*
X28036Y-25048D01*
X28040Y-25055D01*
X28046Y-25061D01*
X28054Y-25068D01*
X28063Y-25075D01*
X28068Y-25080D01*
X28072Y-25084D01*
X28073Y-25087D01*
X28072Y-25089D01*
X28071Y-25091D01*
X28069Y-25093D01*
X28069Y-25098D01*
X28070Y-25104D01*
X28073Y-25112D01*
X28076Y-25123D01*
X28077Y-25125D01*
X28084Y-25144D01*
X28092Y-25146D01*
X28101Y-25149D01*
X28109Y-25149D01*
X28116Y-25149D01*
X28122Y-25147D01*
X28129Y-25143D01*
X28131Y-25142D01*
X28139Y-25137D01*
X28148Y-25135D01*
X28155Y-25135D01*
X28158Y-25136D01*
X28163Y-25138D01*
X28165Y-25141D01*
X28166Y-25146D01*
X28166Y-25150D01*
X28165Y-25154D01*
X28166Y-25158D01*
X28167Y-25162D01*
X28169Y-25168D01*
X28170Y-25170D01*
X28173Y-25177D01*
X28176Y-25184D01*
X28180Y-25190D01*
X28180Y-25191D01*
X28183Y-25197D01*
X28187Y-25203D01*
X28190Y-25210D01*
X28191Y-25210D01*
X28194Y-25217D01*
X28199Y-25224D01*
X28204Y-25231D01*
X28205Y-25233D01*
X28212Y-25242D01*
X28218Y-25253D01*
X28225Y-25263D01*
X28230Y-25273D01*
X28234Y-25281D01*
X28234Y-25281D01*
X28236Y-25286D01*
X28236Y-25289D01*
X28236Y-25291D01*
X28235Y-25293D01*
X28235Y-25294D01*
X28232Y-25297D01*
X28230Y-25301D01*
X28230Y-25302D01*
X28228Y-25305D01*
X28224Y-25310D01*
X28220Y-25316D01*
X28218Y-25318D01*
X28214Y-25323D01*
X28211Y-25328D01*
X28210Y-25332D01*
X28209Y-25336D01*
X28210Y-25342D01*
X28211Y-25347D01*
X28213Y-25353D01*
X28215Y-25357D01*
X28218Y-25361D01*
X28220Y-25363D01*
X28221Y-25365D01*
X28223Y-25366D01*
X28224Y-25367D01*
X28226Y-25368D01*
X28228Y-25369D01*
X28232Y-25369D01*
X28237Y-25369D01*
X28243Y-25369D01*
X28251Y-25369D01*
X28262Y-25368D01*
X28275Y-25368D01*
X28277Y-25368D01*
X28288Y-25367D01*
X28296Y-25367D01*
X28302Y-25367D01*
X28306Y-25367D01*
X28309Y-25367D01*
X28310Y-25368D01*
X28310Y-25369D01*
X28310Y-25370D01*
X28309Y-25375D01*
X28308Y-25382D01*
X28307Y-25391D01*
X28305Y-25402D01*
X28303Y-25415D01*
X28300Y-25429D01*
X28298Y-25445D01*
X28295Y-25461D01*
X28292Y-25477D01*
X28289Y-25495D01*
X28286Y-25511D01*
X28284Y-25527D01*
X28282Y-25541D01*
X28280Y-25553D01*
X28278Y-25564D01*
X28276Y-25573D01*
X28275Y-25579D01*
X28275Y-25583D01*
X28275Y-25585D01*
X28276Y-25585D01*
X28280Y-25587D01*
X28286Y-25588D01*
X28294Y-25590D01*
X28299Y-25591D01*
X28309Y-25594D01*
X28321Y-25597D01*
X28332Y-25600D01*
X28342Y-25603D01*
X28344Y-25604D01*
X28351Y-25606D01*
X28358Y-25608D01*
X28363Y-25609D01*
X28366Y-25610D01*
X28366Y-25610D01*
X28367Y-25608D01*
X28368Y-25604D01*
X28371Y-25597D01*
X28374Y-25588D01*
X28378Y-25576D01*
X28383Y-25562D01*
X28388Y-25547D01*
X28395Y-25529D01*
X28401Y-25509D01*
X28409Y-25487D01*
X28417Y-25464D01*
X28425Y-25439D01*
X28434Y-25413D01*
X28444Y-25386D01*
X28454Y-25357D01*
X28464Y-25327D01*
X28475Y-25297D01*
X28485Y-25265D01*
X28496Y-25233D01*
X28508Y-25200D01*
X28519Y-25167D01*
X28531Y-25133D01*
X28542Y-25099D01*
X28554Y-25065D01*
X28566Y-25030D01*
X28578Y-24996D01*
X28589Y-24962D01*
X28601Y-24928D01*
X28612Y-24895D01*
X28623Y-24862D01*
X28634Y-24830D01*
X28645Y-24799D01*
X28655Y-24769D01*
X28665Y-24739D01*
X28669Y-24728D01*
X28676Y-24709D01*
X28682Y-24691D01*
X28687Y-24675D01*
X28693Y-24659D01*
X28698Y-24645D01*
X28702Y-24632D01*
X28706Y-24621D01*
X28709Y-24612D01*
X28711Y-24606D01*
X28713Y-24601D01*
X28713Y-24600D01*
X28713Y-24600D01*
X28714Y-24601D01*
X28716Y-24604D01*
X28720Y-24610D01*
X28724Y-24617D01*
X28730Y-24626D01*
X28736Y-24637D01*
X28743Y-24649D01*
X28751Y-24662D01*
X28759Y-24676D01*
X28767Y-24691D01*
X28776Y-24706D01*
X28785Y-24721D01*
X28794Y-24736D01*
X28802Y-24751D01*
X28811Y-24765D01*
X28819Y-24779D01*
X28826Y-24792D01*
X28833Y-24804D01*
X28839Y-24815D01*
X28844Y-24824D01*
X28848Y-24831D01*
X28851Y-24837D01*
X28853Y-24840D01*
X28853Y-24841D01*
X28852Y-24842D01*
X28850Y-24847D01*
X28847Y-24853D01*
X28843Y-24861D01*
X28838Y-24872D01*
X28832Y-24884D01*
X28825Y-24898D01*
X28817Y-24913D01*
X28809Y-24930D01*
X28800Y-24947D01*
X28790Y-24966D01*
X28780Y-24985D01*
X28776Y-24994D01*
X28767Y-25012D01*
X28756Y-25032D01*
X28745Y-25055D01*
X28732Y-25079D01*
X28719Y-25105D01*
X28705Y-25132D01*
X28691Y-25161D01*
X28676Y-25190D01*
X28660Y-25220D01*
X28645Y-25250D01*
X28629Y-25280D01*
X28614Y-25310D01*
X28599Y-25340D01*
X28584Y-25369D01*
X28571Y-25394D01*
X28443Y-25644D01*
X28455Y-25650D01*
X28482Y-25666D01*
X28508Y-25681D01*
X28533Y-25698D01*
X28558Y-25716D01*
X28564Y-25720D01*
X28565Y-25720D01*
X28569Y-25717D01*
X28575Y-25713D01*
X28582Y-25708D01*
X28592Y-25701D01*
X28603Y-25692D01*
X28604Y-25692D01*
X28628Y-25673D01*
X28655Y-25652D01*
X28684Y-25631D01*
X28714Y-25608D01*
X28747Y-25584D01*
X28780Y-25559D01*
X28806Y-25540D01*
X28806Y-25267D01*
X28808Y-25259D01*
X28813Y-25249D01*
X28820Y-25238D01*
X28826Y-25231D01*
X28832Y-25223D01*
X28836Y-25217D01*
X28839Y-25211D01*
X28841Y-25204D01*
X28842Y-25202D01*
X28844Y-25197D01*
X28848Y-25191D01*
X28852Y-25186D01*
X28860Y-25175D01*
X28866Y-25164D01*
X28868Y-25155D01*
X28869Y-25151D01*
X28872Y-25148D01*
X28876Y-25146D01*
X28883Y-25144D01*
X28884Y-25144D01*
X28896Y-25143D01*
X28909Y-25144D01*
X28921Y-25148D01*
X28934Y-25155D01*
X28945Y-25163D01*
X28949Y-25167D01*
X28953Y-25173D01*
X28954Y-25179D01*
X28953Y-25187D01*
X28953Y-25187D01*
X28951Y-25195D01*
X28947Y-25204D01*
X28942Y-25214D01*
X28936Y-25225D01*
X28929Y-25236D01*
X28922Y-25247D01*
X28917Y-25256D01*
X28913Y-25262D01*
X28910Y-25268D01*
X28908Y-25273D01*
X28907Y-25278D01*
X28907Y-25278D01*
X28904Y-25287D01*
X28902Y-25294D01*
X28899Y-25299D01*
X28895Y-25303D01*
X28889Y-25306D01*
X28882Y-25309D01*
X28876Y-25311D01*
X28870Y-25313D01*
X28865Y-25314D01*
X28863Y-25315D01*
X28861Y-25315D01*
X28859Y-25314D01*
X28858Y-25313D01*
X28855Y-25311D01*
X28851Y-25308D01*
X28850Y-25307D01*
X28845Y-25304D01*
X28840Y-25301D01*
X28837Y-25300D01*
X28827Y-25294D01*
X28819Y-25289D01*
X28813Y-25284D01*
X28810Y-25281D01*
X28807Y-25275D01*
X28806Y-25267D01*
X28806Y-25540D01*
X28815Y-25534D01*
X28851Y-25508D01*
X28887Y-25482D01*
X28924Y-25455D01*
X28961Y-25429D01*
X28998Y-25403D01*
X29035Y-25377D01*
X29072Y-25351D01*
X29108Y-25327D01*
X29108Y-25327D01*
X29127Y-25314D01*
X29132Y-25322D01*
X29133Y-25324D01*
X29136Y-25328D01*
X29140Y-25335D01*
X29145Y-25344D01*
X29152Y-25356D01*
X29160Y-25370D01*
X29169Y-25385D01*
X29179Y-25403D01*
X29191Y-25423D01*
X29203Y-25445D01*
X29217Y-25469D01*
X29232Y-25495D01*
X29248Y-25523D01*
X29265Y-25552D01*
X29283Y-25583D01*
X29302Y-25615D01*
X29321Y-25649D01*
X29342Y-25685D01*
X29363Y-25722D01*
X29385Y-25760D01*
X29408Y-25800D01*
X29432Y-25841D01*
X29456Y-25883D01*
X29481Y-25926D01*
X29506Y-25970D01*
X29532Y-26015D01*
X29559Y-26061D01*
X29586Y-26108D01*
X29614Y-26156D01*
X29641Y-26204D01*
X29670Y-26252D01*
X29698Y-26302D01*
X29727Y-26352D01*
X29757Y-26403D01*
X29786Y-26454D01*
X29816Y-26505D01*
X29846Y-26557D01*
X29876Y-26609D01*
X29906Y-26661D01*
X29936Y-26713D01*
X29966Y-26765D01*
X29996Y-26817D01*
X30026Y-26869D01*
X30056Y-26921D01*
X30086Y-26973D01*
X30116Y-27024D01*
X30145Y-27075D01*
X30174Y-27126D01*
X30203Y-27176D01*
X30232Y-27226D01*
X30260Y-27275D01*
X30288Y-27323D01*
X30316Y-27371D01*
X30343Y-27418D01*
X30369Y-27464D01*
X30395Y-27509D01*
X30421Y-27553D01*
X30446Y-27596D01*
X30470Y-27638D01*
X30494Y-27679D01*
X30517Y-27719D01*
X30539Y-27757D01*
X30560Y-27794D01*
X30581Y-27830D01*
X30600Y-27864D01*
X30619Y-27896D01*
X30637Y-27927D01*
X30654Y-27957D01*
X30670Y-27984D01*
X30685Y-28010D01*
X30698Y-28034D01*
X30711Y-28056D01*
X30723Y-28076D01*
X30733Y-28094D01*
X30742Y-28110D01*
X30750Y-28124D01*
X30757Y-28135D01*
X30762Y-28144D01*
X30766Y-28151D01*
X30769Y-28156D01*
X30770Y-28158D01*
X30770Y-28158D01*
X30770Y-28158D01*
X30769Y-28158D01*
X30767Y-28158D01*
X30766Y-28158D01*
X30763Y-28158D01*
X30760Y-28158D01*
X30756Y-28158D01*
X30751Y-28159D01*
X30745Y-28159D01*
X30739Y-28159D01*
X30731Y-28159D01*
X30723Y-28159D01*
X30713Y-28159D01*
X30703Y-28159D01*
X30692Y-28159D01*
X30679Y-28159D01*
X30665Y-28159D01*
X30650Y-28159D01*
X30634Y-28159D01*
X30617Y-28159D01*
X30598Y-28159D01*
X30578Y-28159D01*
X30556Y-28159D01*
X30534Y-28159D01*
X30509Y-28159D01*
X30483Y-28159D01*
X30456Y-28160D01*
X30427Y-28160D01*
X30396Y-28160D01*
X30364Y-28160D01*
X30329Y-28160D01*
X30294Y-28160D01*
X30256Y-28160D01*
X30216Y-28160D01*
X30175Y-28160D01*
X30131Y-28160D01*
X30086Y-28160D01*
X30039Y-28160D01*
X29989Y-28160D01*
X29938Y-28160D01*
X29884Y-28160D01*
X29828Y-28160D01*
X29770Y-28160D01*
X29710Y-28160D01*
X29647Y-28160D01*
X29583Y-28160D01*
X29515Y-28160D01*
X29446Y-28160D01*
X29373Y-28160D01*
X29299Y-28160D01*
X29221Y-28160D01*
X29142Y-28160D01*
X29059Y-28160D01*
X28974Y-28160D01*
X28886Y-28160D01*
X28796Y-28160D01*
X28702Y-28160D01*
X28606Y-28160D01*
X28507Y-28160D01*
X28405Y-28160D01*
X28403Y-28160D01*
X28300Y-28160D01*
X28202Y-28160D01*
X28105Y-28160D01*
X28011Y-28160D01*
X27919Y-28160D01*
X27831Y-28160D01*
X27745Y-28160D01*
X27662Y-28160D01*
X27581Y-28160D01*
X27503Y-28160D01*
X27428Y-28160D01*
X27355Y-28160D01*
X27285Y-28160D01*
X27217Y-28160D01*
X27151Y-28160D01*
X27088Y-28160D01*
X27027Y-28160D01*
X26969Y-28160D01*
X26913Y-28160D01*
X26858Y-28160D01*
X26806Y-28160D01*
X26757Y-28160D01*
X26709Y-28160D01*
X26663Y-28160D01*
X26619Y-28160D01*
X26578Y-28160D01*
X26538Y-28160D01*
X26500Y-28160D01*
X26464Y-28160D01*
X26429Y-28160D01*
X26397Y-28160D01*
X26366Y-28160D01*
X26337Y-28159D01*
X26309Y-28159D01*
X26284Y-28159D01*
X26259Y-28159D01*
X26236Y-28159D01*
X26215Y-28159D01*
X26195Y-28159D01*
X26177Y-28159D01*
X26160Y-28159D01*
X26144Y-28159D01*
X26129Y-28159D01*
X26116Y-28159D01*
X26104Y-28159D01*
X26093Y-28159D01*
X26083Y-28159D01*
X26075Y-28159D01*
X26067Y-28159D01*
X26060Y-28159D01*
X26055Y-28159D01*
X26050Y-28158D01*
X26046Y-28158D01*
X26043Y-28158D01*
X26041Y-28158D01*
X26039Y-28158D01*
X26039Y-28158D01*
X26039Y-28158D01*
X26040Y-28157D01*
X26044Y-28154D01*
X26049Y-28149D01*
X26056Y-28143D01*
X26065Y-28136D01*
X26075Y-28128D01*
X26086Y-28120D01*
X26098Y-28110D01*
X26110Y-28100D01*
X26140Y-28076D01*
X26172Y-28050D01*
X26206Y-28023D01*
X26241Y-27994D01*
X26279Y-27963D01*
X26319Y-27931D01*
X26360Y-27898D01*
X26402Y-27863D01*
X26446Y-27827D01*
X26491Y-27790D01*
X26537Y-27753D01*
X26585Y-27714D01*
X26633Y-27674D01*
X26682Y-27634D01*
X26732Y-27593D01*
X26782Y-27551D01*
X26833Y-27510D01*
X26885Y-27467D01*
X26936Y-27425D01*
X26988Y-27382D01*
X27040Y-27339D01*
X27092Y-27297D01*
X27143Y-27254D01*
X27195Y-27211D01*
X27246Y-27169D01*
X27296Y-27127D01*
X27346Y-27086D01*
X27395Y-27045D01*
X27444Y-27005D01*
X27468Y-26985D01*
X27670Y-26818D01*
X27652Y-26800D01*
X27646Y-26795D01*
X27640Y-26790D01*
X27636Y-26786D01*
X27633Y-26784D01*
X27632Y-26783D01*
X27631Y-26784D01*
X27627Y-26786D01*
X27622Y-26790D01*
X27615Y-26794D01*
X27606Y-26800D01*
X27596Y-26807D01*
X27586Y-26814D01*
X27580Y-26818D01*
X27565Y-26828D01*
X27549Y-26839D01*
X27530Y-26852D01*
X27510Y-26866D01*
X27488Y-26880D01*
X27465Y-26896D01*
X27441Y-26911D01*
X27417Y-26928D01*
X27393Y-26944D01*
X27368Y-26960D01*
X27343Y-26977D01*
X27319Y-26992D01*
X27296Y-27008D01*
X27283Y-27016D01*
X27274Y-27022D01*
X27263Y-27030D01*
X27250Y-27038D01*
X27236Y-27047D01*
X27221Y-27057D01*
X27206Y-27067D01*
X27189Y-27078D01*
X27173Y-27088D01*
X27156Y-27099D01*
X27140Y-27110D01*
X27124Y-27120D01*
X27108Y-27131D01*
X27093Y-27140D01*
X27079Y-27149D01*
X27066Y-27158D01*
X27055Y-27165D01*
X27045Y-27171D01*
X27037Y-27177D01*
X27031Y-27180D01*
X27028Y-27183D01*
X27023Y-27185D01*
X27027Y-27181D01*
X27029Y-27179D01*
X27030Y-27177D01*
X27030Y-27176D01*
X27028Y-27175D01*
X27025Y-27171D01*
X27020Y-27166D01*
X27015Y-27161D01*
X27008Y-27155D01*
X27001Y-27148D01*
X26994Y-27142D01*
X26988Y-27136D01*
X26982Y-27131D01*
X26978Y-27128D01*
X26977Y-27127D01*
X26972Y-27123D01*
X26967Y-27119D01*
X26964Y-27116D01*
X26963Y-27114D01*
X26961Y-27111D01*
X26958Y-27107D01*
X26954Y-27104D01*
X26950Y-27101D01*
X26947Y-27101D01*
X26944Y-27101D01*
X26941Y-27104D01*
X26940Y-27105D01*
X26937Y-27107D01*
X26933Y-27108D01*
X26928Y-27110D01*
X26921Y-27113D01*
X26912Y-27115D01*
X26907Y-27117D01*
X26898Y-27119D01*
X26888Y-27122D01*
X26879Y-27124D01*
X26871Y-27126D01*
X26866Y-27127D01*
X26851Y-27132D01*
X26838Y-27138D01*
X26830Y-27142D01*
X26821Y-27146D01*
X26812Y-27150D01*
X26809Y-27151D01*
X26803Y-27154D01*
X26795Y-27157D01*
X26785Y-27161D01*
X26776Y-27166D01*
X26768Y-27170D01*
X26758Y-27174D01*
X26751Y-27178D01*
X26746Y-27181D01*
X26742Y-27184D01*
X26738Y-27187D01*
X26735Y-27190D01*
X26731Y-27194D01*
X26730Y-27195D01*
X26725Y-27200D01*
X26721Y-27204D01*
X26719Y-27208D01*
X26717Y-27211D01*
X26716Y-27216D01*
X26715Y-27222D01*
X26714Y-27229D01*
X26713Y-27237D01*
X26713Y-27244D01*
X26714Y-27249D01*
X26714Y-27251D01*
X26717Y-27254D01*
X26719Y-27255D01*
X26728Y-27257D01*
X26738Y-27261D01*
X26749Y-27265D01*
X26754Y-27268D01*
X26761Y-27270D01*
X26767Y-27272D01*
X26772Y-27274D01*
X26773Y-27274D01*
X26777Y-27274D01*
X26782Y-27274D01*
X26789Y-27275D01*
X26793Y-27276D01*
X26803Y-27277D01*
X26811Y-27278D01*
X26818Y-27277D01*
X26825Y-27277D01*
X26832Y-27275D01*
X26834Y-27274D01*
X26840Y-27273D01*
X26849Y-27270D01*
X26857Y-27268D01*
X26865Y-27266D01*
X26879Y-27262D01*
X26894Y-27258D01*
X26910Y-27252D01*
X26924Y-27246D01*
X26927Y-27245D01*
X26932Y-27243D01*
X26934Y-27242D01*
X26935Y-27242D01*
X26935Y-27242D01*
X26933Y-27243D01*
X26929Y-27246D01*
X26923Y-27250D01*
X26914Y-27256D01*
X26904Y-27262D01*
X26891Y-27270D01*
X26877Y-27280D01*
X26860Y-27290D01*
X26843Y-27302D01*
X26823Y-27314D01*
X26802Y-27328D01*
X26780Y-27342D01*
X26756Y-27357D01*
X26731Y-27373D01*
X26705Y-27390D01*
X26678Y-27407D01*
X26650Y-27425D01*
X26621Y-27443D01*
X26592Y-27462D01*
X26562Y-27481D01*
X26531Y-27501D01*
X26501Y-27520D01*
X26469Y-27540D01*
X26438Y-27560D01*
X26406Y-27580D01*
X26375Y-27600D01*
X26343Y-27621D01*
X26312Y-27640D01*
X26281Y-27660D01*
X26250Y-27680D01*
X26220Y-27699D01*
X26190Y-27718D01*
X26161Y-27736D01*
X26133Y-27754D01*
X26106Y-27772D01*
X26079Y-27788D01*
X26054Y-27804D01*
X26030Y-27820D01*
X26007Y-27834D01*
X25985Y-27848D01*
X25965Y-27861D01*
X25947Y-27872D01*
X25930Y-27883D01*
X25915Y-27893D01*
X25902Y-27901D01*
X25890Y-27908D01*
X25881Y-27914D01*
X25874Y-27918D01*
X25869Y-27921D01*
X25866Y-27923D01*
X25866Y-27923D01*
X25866Y-28475D01*
X25881Y-28475D01*
X25915Y-28475D01*
X25950Y-28475D01*
X25987Y-28475D01*
X26027Y-28475D01*
X26067Y-28475D01*
X26110Y-28475D01*
X26154Y-28475D01*
X26201Y-28475D01*
X26249Y-28475D01*
X26299Y-28475D01*
X26351Y-28475D01*
X26406Y-28475D01*
X26462Y-28475D01*
X26520Y-28475D01*
X26581Y-28475D01*
X26644Y-28475D01*
X26709Y-28475D01*
X26776Y-28475D01*
X26846Y-28475D01*
X26918Y-28475D01*
X26992Y-28475D01*
X27069Y-28475D01*
X27148Y-28475D01*
X27230Y-28475D01*
X27314Y-28475D01*
X27401Y-28475D01*
X27491Y-28475D01*
X27583Y-28475D01*
X27678Y-28476D01*
X27775Y-28476D01*
X27876Y-28476D01*
X27979Y-28476D01*
X28085Y-28476D01*
X28194Y-28476D01*
X28242Y-28476D01*
X28332Y-28476D01*
X28422Y-28476D01*
X28512Y-28476D01*
X28601Y-28476D01*
X28689Y-28476D01*
X28776Y-28476D01*
X28863Y-28476D01*
X28948Y-28476D01*
X29032Y-28476D01*
X29116Y-28476D01*
X29198Y-28476D01*
X29279Y-28476D01*
X29359Y-28476D01*
X29438Y-28476D01*
X29515Y-28476D01*
X29591Y-28476D01*
X29665Y-28476D01*
X29739Y-28475D01*
X29810Y-28475D01*
X29881Y-28475D01*
X29949Y-28475D01*
X30016Y-28475D01*
X30082Y-28475D01*
X30146Y-28475D01*
X30208Y-28475D01*
X30268Y-28475D01*
X30326Y-28475D01*
X30383Y-28475D01*
X30437Y-28475D01*
X30490Y-28475D01*
X30540Y-28475D01*
X30589Y-28475D01*
X30635Y-28475D01*
X30680Y-28475D01*
X30722Y-28475D01*
X30762Y-28475D01*
X30799Y-28475D01*
X30834Y-28475D01*
X30867Y-28475D01*
X30898Y-28475D01*
X30926Y-28475D01*
X30951Y-28475D01*
X30974Y-28475D01*
X30994Y-28475D01*
X31012Y-28475D01*
X31027Y-28475D01*
X31039Y-28475D01*
X31048Y-28475D01*
X31055Y-28475D01*
X31058Y-28475D01*
X31059Y-28475D01*
X31081Y-28471D01*
X31101Y-28465D01*
X31120Y-28456D01*
X31138Y-28445D01*
X31154Y-28432D01*
X31168Y-28416D01*
X31180Y-28398D01*
X31187Y-28387D01*
X31193Y-28372D01*
X31198Y-28358D01*
X31201Y-28344D01*
X31202Y-28328D01*
X31202Y-28318D01*
X31202Y-28302D01*
X31200Y-28288D01*
X31197Y-28274D01*
X31192Y-28261D01*
X31186Y-28248D01*
X31185Y-28246D01*
X31183Y-28242D01*
X31179Y-28235D01*
X31173Y-28226D01*
X31167Y-28215D01*
X31159Y-28201D01*
X31150Y-28185D01*
X31139Y-28167D01*
X31127Y-28146D01*
X31114Y-28123D01*
X31100Y-28099D01*
X31085Y-28072D01*
X31068Y-28043D01*
X31051Y-28013D01*
X31032Y-27980D01*
X31012Y-27946D01*
X30991Y-27910D01*
X30969Y-27872D01*
X30946Y-27832D01*
X30923Y-27791D01*
X30898Y-27748D01*
X30872Y-27704D01*
X30846Y-27658D01*
X30819Y-27611D01*
X30791Y-27562D01*
X30762Y-27512D01*
X30732Y-27461D01*
X30702Y-27408D01*
X30671Y-27354D01*
X30639Y-27299D01*
X30607Y-27243D01*
X30574Y-27186D01*
X30540Y-27128D01*
X30506Y-27069D01*
X30471Y-27008D01*
X30436Y-26948D01*
X30400Y-26886D01*
X30364Y-26823D01*
X30328Y-26760D01*
X30291Y-26696D01*
X30254Y-26631D01*
X30216Y-26566D01*
X30178Y-26501D01*
X30140Y-26434D01*
X30101Y-26368D01*
X30063Y-26301D01*
X30024Y-26234D01*
X29985Y-26167D01*
X29946Y-26099D01*
X29906Y-26031D01*
X29867Y-25963D01*
X29828Y-25894D01*
X29788Y-25826D01*
X29749Y-25757D01*
X29709Y-25689D01*
X29670Y-25621D01*
X29631Y-25553D01*
X29591Y-25485D01*
X29552Y-25417D01*
X29513Y-25350D01*
X29475Y-25283D01*
X29436Y-25216D01*
X29398Y-25150D01*
X29360Y-25084D01*
X29322Y-25019D01*
X29285Y-24954D01*
X29248Y-24890D01*
X29211Y-24827D01*
X29175Y-24764D01*
X29139Y-24702D01*
X29104Y-24641D01*
X29069Y-24581D01*
X29035Y-24521D01*
X29001Y-24463D01*
X28968Y-24406D01*
X28936Y-24350D01*
X28904Y-24294D01*
X28873Y-24240D01*
X28842Y-24188D01*
X28813Y-24136D01*
X28783Y-24086D01*
X28755Y-24037D01*
X28728Y-23989D01*
X28701Y-23943D01*
X28675Y-23899D01*
X28650Y-23856D01*
X28627Y-23814D01*
X28604Y-23774D01*
X28581Y-23736D01*
X28560Y-23700D01*
X28540Y-23665D01*
X28521Y-23632D01*
X28504Y-23601D01*
X28487Y-23572D01*
X28471Y-23545D01*
X28457Y-23520D01*
X28443Y-23497D01*
X28431Y-23477D01*
X28421Y-23458D01*
X28411Y-23441D01*
X28403Y-23427D01*
X28396Y-23415D01*
X28390Y-23406D01*
X28386Y-23399D01*
X28384Y-23394D01*
X28382Y-23392D01*
X28382Y-23392D01*
X28369Y-23375D01*
X28354Y-23360D01*
X28337Y-23347D01*
X28319Y-23336D01*
X28299Y-23327D01*
X28278Y-23322D01*
X28272Y-23321D01*
X28264Y-23320D01*
X28254Y-23320D01*
X28245Y-23320D01*
X28235Y-23320D01*
X28227Y-23321D01*
X28222Y-23322D01*
X28200Y-23328D01*
X28180Y-23336D01*
X28161Y-23347D01*
X28145Y-23360D01*
X28130Y-23376D01*
X28118Y-23391D01*
X28117Y-23393D01*
X28114Y-23398D01*
X28111Y-23404D01*
X28105Y-23413D01*
X28099Y-23425D01*
X28090Y-23439D01*
X28081Y-23455D01*
X28071Y-23473D01*
X28059Y-23494D01*
X28046Y-23516D01*
X28031Y-23541D01*
X28016Y-23568D01*
X27999Y-23597D01*
X27981Y-23627D01*
X27963Y-23660D01*
X27943Y-23694D01*
X27922Y-23730D01*
X27900Y-23768D01*
X27877Y-23808D01*
X27853Y-23849D01*
X27829Y-23892D01*
X27803Y-23936D01*
X27776Y-23982D01*
X27749Y-24029D01*
X27721Y-24078D01*
X27692Y-24128D01*
X27662Y-24180D01*
X27632Y-24232D01*
X27601Y-24286D01*
X27569Y-24341D01*
X27537Y-24397D01*
X27504Y-24454D01*
X27470Y-24513D01*
X27436Y-24572D01*
X27401Y-24632D01*
X27366Y-24693D01*
X27330Y-24755D01*
X27294Y-24817D01*
X27258Y-24880D01*
X27221Y-24944D01*
X27183Y-25009D01*
X27146Y-25074D01*
X27108Y-25140D01*
X27070Y-25206D01*
X27031Y-25273D01*
X26993Y-25340D01*
X26954Y-25407D01*
X26915Y-25475D01*
X26875Y-25543D01*
X26836Y-25611D01*
X26797Y-25679D01*
X26757Y-25747D01*
X26718Y-25816D01*
X26678Y-25884D01*
X26639Y-25952D01*
X26599Y-26021D01*
X26560Y-26089D01*
X26521Y-26157D01*
X26482Y-26224D01*
X26443Y-26291D01*
X26404Y-26358D01*
X26366Y-26425D01*
X26328Y-26491D01*
X26290Y-26557D01*
X26252Y-26622D01*
X26215Y-26686D01*
X26178Y-26751D01*
X26141Y-26814D01*
X26105Y-26877D01*
X26069Y-26938D01*
X26034Y-27000D01*
X25999Y-27060D01*
X25965Y-27119D01*
X25931Y-27177D01*
X25898Y-27235D01*
X25866Y-27291D01*
X25834Y-27346D01*
X25803Y-27400D01*
X25772Y-27453D01*
X25743Y-27504D01*
X25714Y-27555D01*
X25685Y-27604D01*
X25658Y-27651D01*
X25631Y-27697D01*
X25606Y-27742D01*
X25581Y-27785D01*
X25557Y-27826D01*
X25534Y-27866D01*
X25512Y-27904D01*
X25491Y-27941D01*
X25471Y-27975D01*
X25452Y-28008D01*
X25434Y-28039D01*
X25418Y-28068D01*
X25402Y-28095D01*
X25388Y-28120D01*
X25375Y-28143D01*
X25363Y-28164D01*
X25352Y-28182D01*
X25342Y-28199D01*
X25334Y-28213D01*
X25327Y-28225D01*
X25322Y-28234D01*
X25318Y-28241D01*
X25315Y-28246D01*
X25314Y-28248D01*
X25314Y-28248D01*
X25307Y-28263D01*
X25303Y-28277D01*
X25300Y-28290D01*
X25298Y-28305D01*
X25298Y-28318D01*
X25298Y-28318D01*
X25298Y-28318D01*
G37*
G36*
X27905Y-27200D02*
X27907Y-27201D01*
X27911Y-27202D01*
X27918Y-27203D01*
X27927Y-27204D01*
X27939Y-27207D01*
X27953Y-27209D01*
X27968Y-27212D01*
X27986Y-27215D01*
X28006Y-27218D01*
X28027Y-27222D01*
X28049Y-27226D01*
X28073Y-27230D01*
X28098Y-27235D01*
X28124Y-27239D01*
X28150Y-27244D01*
X28163Y-27246D01*
X28419Y-27292D01*
X28590Y-27411D01*
X28611Y-27426D01*
X28630Y-27439D01*
X28649Y-27452D01*
X28667Y-27465D01*
X28683Y-27476D01*
X28699Y-27487D01*
X28713Y-27497D01*
X28725Y-27506D01*
X28736Y-27513D01*
X28746Y-27520D01*
X28753Y-27525D01*
X28758Y-27529D01*
X28761Y-27531D01*
X28762Y-27531D01*
X28760Y-27532D01*
X28756Y-27533D01*
X28749Y-27534D01*
X28740Y-27536D01*
X28729Y-27538D01*
X28715Y-27541D01*
X28700Y-27544D01*
X28682Y-27548D01*
X28663Y-27552D01*
X28643Y-27556D01*
X28621Y-27560D01*
X28598Y-27565D01*
X28574Y-27570D01*
X28549Y-27575D01*
X28539Y-27577D01*
X28317Y-27623D01*
X28113Y-27767D01*
X28083Y-27789D01*
X28056Y-27808D01*
X28031Y-27826D01*
X28008Y-27842D01*
X27988Y-27857D01*
X27970Y-27870D01*
X27954Y-27881D01*
X27941Y-27890D01*
X27930Y-27898D01*
X27921Y-27905D01*
X27915Y-27909D01*
X27911Y-27913D01*
X27910Y-27914D01*
X27910Y-27914D01*
X27911Y-27916D01*
X27913Y-27919D01*
X27917Y-27925D01*
X27922Y-27932D01*
X27928Y-27941D01*
X27935Y-27951D01*
X27943Y-27961D01*
X27950Y-27973D01*
X27959Y-27984D01*
X27967Y-27996D01*
X27976Y-28008D01*
X27984Y-28019D01*
X27991Y-28030D01*
X27999Y-28040D01*
X28005Y-28049D01*
X28011Y-28057D01*
X28015Y-28063D01*
X28018Y-28067D01*
X28020Y-28069D01*
X28020Y-28070D01*
X28021Y-28069D01*
X28025Y-28067D01*
X28031Y-28063D01*
X28038Y-28058D01*
X28047Y-28052D01*
X28058Y-28045D01*
X28069Y-28037D01*
X28082Y-28029D01*
X28096Y-28020D01*
X28101Y-28016D01*
X28114Y-28007D01*
X28130Y-27997D01*
X28147Y-27985D01*
X28166Y-27972D01*
X28186Y-27959D01*
X28207Y-27945D01*
X28228Y-27931D01*
X28249Y-27917D01*
X28268Y-27903D01*
X28288Y-27890D01*
X28299Y-27883D01*
X28419Y-27802D01*
X28743Y-27764D01*
X28774Y-27760D01*
X28804Y-27757D01*
X28833Y-27753D01*
X28861Y-27750D01*
X28889Y-27747D01*
X28915Y-27744D01*
X28939Y-27741D01*
X28962Y-27738D01*
X28984Y-27735D01*
X29003Y-27733D01*
X29021Y-27731D01*
X29036Y-27729D01*
X29050Y-27727D01*
X29061Y-27726D01*
X29069Y-27725D01*
X29075Y-27724D01*
X29078Y-27723D01*
X29078Y-27723D01*
X29096Y-27719D01*
X29116Y-27713D01*
X29137Y-27705D01*
X29159Y-27696D01*
X29182Y-27686D01*
X29205Y-27675D01*
X29227Y-27663D01*
X29249Y-27651D01*
X29270Y-27639D01*
X29289Y-27626D01*
X29305Y-27614D01*
X29307Y-27613D01*
X29308Y-27612D01*
X29310Y-27610D01*
X29312Y-27608D01*
X29314Y-27606D01*
X29317Y-27604D01*
X29320Y-27601D01*
X29323Y-27597D01*
X29327Y-27593D01*
X29331Y-27588D01*
X29336Y-27582D01*
X29342Y-27575D01*
X29349Y-27567D01*
X29357Y-27558D01*
X29365Y-27549D01*
X29375Y-27537D01*
X29385Y-27525D01*
X29397Y-27511D01*
X29410Y-27496D01*
X29424Y-27479D01*
X29439Y-27461D01*
X29456Y-27441D01*
X29475Y-27419D01*
X29495Y-27396D01*
X29516Y-27370D01*
X29539Y-27343D01*
X29564Y-27314D01*
X29591Y-27282D01*
X29607Y-27262D01*
X29617Y-27251D01*
X29627Y-27240D01*
X29635Y-27229D01*
X29643Y-27220D01*
X29650Y-27213D01*
X29655Y-27206D01*
X29659Y-27202D01*
X29662Y-27199D01*
X29662Y-27199D01*
X29663Y-27200D01*
X29667Y-27203D01*
X29672Y-27207D01*
X29679Y-27213D01*
X29687Y-27220D01*
X29697Y-27229D01*
X29708Y-27238D01*
X29720Y-27248D01*
X29732Y-27259D01*
X29745Y-27270D01*
X29826Y-27342D01*
X29826Y-27527D01*
X29826Y-27711D01*
X29880Y-27710D01*
X29895Y-27710D01*
X29911Y-27710D01*
X29927Y-27709D01*
X29942Y-27709D01*
X29956Y-27709D01*
X29969Y-27708D01*
X29973Y-27708D01*
X30012Y-27707D01*
X30012Y-27478D01*
X30012Y-27248D01*
X29869Y-27102D01*
X29726Y-26957D01*
X29644Y-26957D01*
X29561Y-26957D01*
X29541Y-26968D01*
X29522Y-26978D01*
X29504Y-26986D01*
X29487Y-26992D01*
X29470Y-26995D01*
X29453Y-26997D01*
X29436Y-26996D01*
X29419Y-26993D01*
X29401Y-26988D01*
X29382Y-26981D01*
X29361Y-26972D01*
X29349Y-26966D01*
X29331Y-26957D01*
X29167Y-26957D01*
X29004Y-26957D01*
X28857Y-26841D01*
X28835Y-26824D01*
X28816Y-26809D01*
X28799Y-26795D01*
X28784Y-26783D01*
X28770Y-26773D01*
X28759Y-26763D01*
X28749Y-26755D01*
X28740Y-26749D01*
X28733Y-26743D01*
X28727Y-26739D01*
X28722Y-26735D01*
X28718Y-26732D01*
X28715Y-26730D01*
X28712Y-26729D01*
X28711Y-26728D01*
X28709Y-26727D01*
X28709Y-26727D01*
X28708Y-26727D01*
X28708Y-26728D01*
X28706Y-26729D01*
X28703Y-26733D01*
X28699Y-26739D01*
X28693Y-26746D01*
X28686Y-26755D01*
X28678Y-26765D01*
X28669Y-26776D01*
X28660Y-26787D01*
X28653Y-26796D01*
X28643Y-26808D01*
X28634Y-26820D01*
X28625Y-26830D01*
X28618Y-26840D01*
X28611Y-26848D01*
X28606Y-26854D01*
X28602Y-26859D01*
X28600Y-26862D01*
X28599Y-26863D01*
X28600Y-26864D01*
X28604Y-26867D01*
X28609Y-26871D01*
X28616Y-26877D01*
X28625Y-26885D01*
X28636Y-26894D01*
X28648Y-26904D01*
X28661Y-26915D01*
X28676Y-26928D01*
X28692Y-26941D01*
X28709Y-26955D01*
X28727Y-26970D01*
X28745Y-26986D01*
X28765Y-27002D01*
X28769Y-27005D01*
X28938Y-27146D01*
X28998Y-27147D01*
X29015Y-27147D01*
X29033Y-27148D01*
X29052Y-27148D01*
X29072Y-27148D01*
X29090Y-27149D01*
X29108Y-27149D01*
X29116Y-27149D01*
X29174Y-27150D01*
X29063Y-27265D01*
X29043Y-27286D01*
X29025Y-27305D01*
X29009Y-27322D01*
X28994Y-27336D01*
X28982Y-27349D01*
X28972Y-27359D01*
X28964Y-27367D01*
X28957Y-27373D01*
X28953Y-27377D01*
X28951Y-27379D01*
X28951Y-27379D01*
X28949Y-27378D01*
X28945Y-27375D01*
X28939Y-27372D01*
X28931Y-27367D01*
X28921Y-27360D01*
X28909Y-27353D01*
X28895Y-27344D01*
X28880Y-27335D01*
X28863Y-27324D01*
X28845Y-27313D01*
X28826Y-27301D01*
X28805Y-27288D01*
X28784Y-27275D01*
X28762Y-27261D01*
X28739Y-27247D01*
X28736Y-27244D01*
X28522Y-27111D01*
X28228Y-27053D01*
X28199Y-27047D01*
X28170Y-27042D01*
X28143Y-27036D01*
X28117Y-27031D01*
X28091Y-27026D01*
X28068Y-27022D01*
X28045Y-27017D01*
X28024Y-27013D01*
X28005Y-27009D01*
X27988Y-27006D01*
X27973Y-27003D01*
X27960Y-27001D01*
X27949Y-26999D01*
X27941Y-26997D01*
X27935Y-26996D01*
X27932Y-26996D01*
X27931Y-26996D01*
X27931Y-26997D01*
X27930Y-27001D01*
X27929Y-27008D01*
X27928Y-27016D01*
X27927Y-27027D01*
X27925Y-27039D01*
X27924Y-27052D01*
X27922Y-27066D01*
X27920Y-27080D01*
X27918Y-27095D01*
X27916Y-27110D01*
X27914Y-27125D01*
X27913Y-27139D01*
X27911Y-27153D01*
X27909Y-27165D01*
X27908Y-27176D01*
X27907Y-27185D01*
X27906Y-27193D01*
X27906Y-27198D01*
X27905Y-27200D01*
X27905Y-27200D01*
X27905Y-27200D01*
X27905Y-27200D01*
G37*
G36*
X26247Y-27508D02*
X26248Y-27512D01*
X26251Y-27515D01*
X26256Y-27518D01*
X26261Y-27520D01*
X26268Y-27522D01*
X26275Y-27524D01*
X26284Y-27525D01*
X26293Y-27526D01*
X26319Y-27527D01*
X26339Y-27527D01*
X26351Y-27525D01*
X26364Y-27523D01*
X26376Y-27520D01*
X26388Y-27517D01*
X26398Y-27514D01*
X26404Y-27511D01*
X26413Y-27506D01*
X26419Y-27501D01*
X26422Y-27494D01*
X26424Y-27487D01*
X26424Y-27479D01*
X26424Y-27472D01*
X26424Y-27464D01*
X26424Y-27455D01*
X26424Y-27454D01*
X26424Y-27448D01*
X26424Y-27443D01*
X26423Y-27439D01*
X26423Y-27439D01*
X26421Y-27438D01*
X26416Y-27438D01*
X26409Y-27439D01*
X26401Y-27440D01*
X26400Y-27440D01*
X26389Y-27442D01*
X26380Y-27443D01*
X26373Y-27443D01*
X26370Y-27443D01*
X26363Y-27442D01*
X26358Y-27442D01*
X26353Y-27442D01*
X26347Y-27444D01*
X26341Y-27446D01*
X26333Y-27449D01*
X26324Y-27453D01*
X26315Y-27457D01*
X26305Y-27461D01*
X26296Y-27466D01*
X26286Y-27470D01*
X26277Y-27474D01*
X26270Y-27478D01*
X26264Y-27481D01*
X26260Y-27484D01*
X26258Y-27485D01*
X26256Y-27487D01*
X26253Y-27491D01*
X26251Y-27495D01*
X26248Y-27502D01*
X26247Y-27508D01*
X26247Y-27508D01*
X26247Y-27508D01*
G37*
G36*
X29257Y-26769D02*
X29259Y-26792D01*
X29262Y-26814D01*
X29269Y-26835D01*
X29278Y-26856D01*
X29289Y-26876D01*
X29303Y-26894D01*
X29313Y-26905D01*
X29331Y-26921D01*
X29350Y-26934D01*
X29371Y-26945D01*
X29392Y-26953D01*
X29406Y-26957D01*
X29413Y-26958D01*
X29421Y-26958D01*
X29430Y-26959D01*
X29441Y-26959D01*
X29451Y-26960D01*
X29460Y-26960D01*
X29468Y-26959D01*
X29474Y-26959D01*
X29474Y-26959D01*
X29493Y-26954D01*
X29511Y-26949D01*
X29527Y-26942D01*
X29539Y-26936D01*
X29558Y-26923D01*
X29576Y-26907D01*
X29592Y-26890D01*
X29605Y-26871D01*
X29616Y-26850D01*
X29625Y-26828D01*
X29631Y-26808D01*
X29632Y-26799D01*
X29633Y-26789D01*
X29633Y-26776D01*
X29633Y-26764D01*
X29633Y-26752D01*
X29632Y-26740D01*
X29631Y-26731D01*
X29631Y-26730D01*
X29624Y-26707D01*
X29616Y-26686D01*
X29604Y-26665D01*
X29591Y-26647D01*
X29576Y-26630D01*
X29558Y-26615D01*
X29556Y-26613D01*
X29540Y-26602D01*
X29521Y-26593D01*
X29501Y-26586D01*
X29482Y-26580D01*
X29478Y-26580D01*
X29467Y-26578D01*
X29455Y-26578D01*
X29442Y-26577D01*
X29429Y-26578D01*
X29418Y-26579D01*
X29414Y-26580D01*
X29391Y-26585D01*
X29370Y-26593D01*
X29349Y-26604D01*
X29330Y-26617D01*
X29313Y-26632D01*
X29298Y-26650D01*
X29285Y-26669D01*
X29278Y-26680D01*
X29269Y-26702D01*
X29262Y-26724D01*
X29258Y-26746D01*
X29257Y-26769D01*
X29257Y-26769D01*
X29257Y-26769D01*
G37*
G36*
X26670Y-26887D02*
X26671Y-26888D01*
X26675Y-26889D01*
X26681Y-26891D01*
X26689Y-26894D01*
X26698Y-26897D01*
X26709Y-26901D01*
X26721Y-26906D01*
X26734Y-26910D01*
X26748Y-26915D01*
X26761Y-26920D01*
X26775Y-26924D01*
X26788Y-26929D01*
X26801Y-26933D01*
X26813Y-26937D01*
X26824Y-26941D01*
X26833Y-26944D01*
X26840Y-26947D01*
X26846Y-26948D01*
X26849Y-26950D01*
X26850Y-26950D01*
X26852Y-26949D01*
X26856Y-26948D01*
X26862Y-26945D01*
X26871Y-26942D01*
X26881Y-26938D01*
X26893Y-26934D01*
X26906Y-26929D01*
X26920Y-26923D01*
X26933Y-26918D01*
X26948Y-26913D01*
X26961Y-26907D01*
X26974Y-26902D01*
X26985Y-26898D01*
X26995Y-26894D01*
X27003Y-26890D01*
X27009Y-26888D01*
X27013Y-26886D01*
X27014Y-26885D01*
X27015Y-26883D01*
X27019Y-26879D01*
X27024Y-26874D01*
X27031Y-26868D01*
X27039Y-26862D01*
X27049Y-26855D01*
X27059Y-26849D01*
X27069Y-26842D01*
X27079Y-26836D01*
X27089Y-26830D01*
X27099Y-26825D01*
X27102Y-26823D01*
X27110Y-26820D01*
X27116Y-26817D01*
X27119Y-26815D01*
X27121Y-26813D01*
X27122Y-26812D01*
X27122Y-26811D01*
X27121Y-26811D01*
X27120Y-26809D01*
X27117Y-26805D01*
X27112Y-26800D01*
X27107Y-26795D01*
X27107Y-26794D01*
X27100Y-26786D01*
X27095Y-26780D01*
X27092Y-26775D01*
X27092Y-26771D01*
X27093Y-26770D01*
X27093Y-26768D01*
X27092Y-26766D01*
X27088Y-26763D01*
X27082Y-26762D01*
X27073Y-26763D01*
X27062Y-26765D01*
X27053Y-26767D01*
X27047Y-26769D01*
X27040Y-26771D01*
X27033Y-26772D01*
X27025Y-26774D01*
X27016Y-26776D01*
X27005Y-26778D01*
X26992Y-26781D01*
X26977Y-26784D01*
X26959Y-26787D01*
X26956Y-26788D01*
X26915Y-26797D01*
X26874Y-26808D01*
X26835Y-26821D01*
X26803Y-26833D01*
X26795Y-26836D01*
X26786Y-26840D01*
X26775Y-26844D01*
X26763Y-26849D01*
X26749Y-26855D01*
X26736Y-26860D01*
X26724Y-26865D01*
X26712Y-26870D01*
X26701Y-26874D01*
X26692Y-26878D01*
X26683Y-26881D01*
X26677Y-26884D01*
X26672Y-26886D01*
X26670Y-26887D01*
X26670Y-26887D01*
X26670Y-26887D01*
X26670Y-26887D01*
G37*
G36*
X27470Y-26345D02*
X27474Y-26349D01*
X27475Y-26350D01*
X27476Y-26351D01*
X27478Y-26351D01*
X27481Y-26352D01*
X27485Y-26353D01*
X27490Y-26355D01*
X27497Y-26356D01*
X27505Y-26358D01*
X27516Y-26360D01*
X27529Y-26362D01*
X27545Y-26365D01*
X27555Y-26367D01*
X27569Y-26370D01*
X27584Y-26372D01*
X27597Y-26375D01*
X27608Y-26377D01*
X27619Y-26379D01*
X27627Y-26381D01*
X27633Y-26382D01*
X27636Y-26382D01*
X27637Y-26383D01*
X27641Y-26385D01*
X27644Y-26388D01*
X27646Y-26392D01*
X27648Y-26397D01*
X27651Y-26405D01*
X27655Y-26414D01*
X27659Y-26424D01*
X27663Y-26436D01*
X27668Y-26447D01*
X27673Y-26459D01*
X27677Y-26471D01*
X27681Y-26482D01*
X27685Y-26492D01*
X27689Y-26501D01*
X27692Y-26509D01*
X27694Y-26515D01*
X27695Y-26518D01*
X27695Y-26519D01*
X27695Y-26521D01*
X27695Y-26522D01*
X27694Y-26524D01*
X27693Y-26526D01*
X27691Y-26529D01*
X27688Y-26534D01*
X27684Y-26539D01*
X27680Y-26547D01*
X27673Y-26556D01*
X27666Y-26566D01*
X27658Y-26577D01*
X27650Y-26589D01*
X27642Y-26601D01*
X27634Y-26613D01*
X27627Y-26624D01*
X27620Y-26634D01*
X27614Y-26643D01*
X27609Y-26650D01*
X27606Y-26656D01*
X27603Y-26660D01*
X27603Y-26662D01*
X27603Y-26663D01*
X27603Y-26664D01*
X27604Y-26666D01*
X27606Y-26669D01*
X27610Y-26672D01*
X27614Y-26677D01*
X27619Y-26682D01*
X27626Y-26690D01*
X27635Y-26698D01*
X27645Y-26709D01*
X27658Y-26721D01*
X27661Y-26725D01*
X27672Y-26736D01*
X27683Y-26746D01*
X27693Y-26756D01*
X27701Y-26765D01*
X27709Y-26772D01*
X27716Y-26778D01*
X27721Y-26783D01*
X27724Y-26786D01*
X27725Y-26787D01*
X27729Y-26788D01*
X27731Y-26788D01*
X27733Y-26787D01*
X27737Y-26784D01*
X27743Y-26780D01*
X27750Y-26775D01*
X27759Y-26770D01*
X27769Y-26763D01*
X27779Y-26756D01*
X27781Y-26755D01*
X27792Y-26747D01*
X27801Y-26741D01*
X27810Y-26735D01*
X27817Y-26730D01*
X27823Y-26726D01*
X27827Y-26723D01*
X27829Y-26722D01*
X27829Y-26722D01*
X27830Y-26721D01*
X27834Y-26719D01*
X27839Y-26716D01*
X27845Y-26712D01*
X27847Y-26710D01*
X27856Y-26704D01*
X27863Y-26701D01*
X27867Y-26698D01*
X27869Y-26698D01*
X27872Y-26699D01*
X27877Y-26701D01*
X27883Y-26704D01*
X27891Y-26708D01*
X27892Y-26709D01*
X27904Y-26715D01*
X27915Y-26720D01*
X27924Y-26725D01*
X27930Y-26727D01*
X27935Y-26729D01*
X27936Y-26729D01*
X27939Y-26727D01*
X27941Y-26725D01*
X27942Y-26723D01*
X27943Y-26719D01*
X27946Y-26713D01*
X27949Y-26705D01*
X27953Y-26696D01*
X27957Y-26687D01*
X27961Y-26677D01*
X27966Y-26666D01*
X27970Y-26657D01*
X27973Y-26648D01*
X27976Y-26640D01*
X27979Y-26634D01*
X27981Y-26629D01*
X27982Y-26627D01*
X27982Y-26627D01*
X27982Y-26626D01*
X27984Y-26622D01*
X27986Y-26615D01*
X27990Y-26607D01*
X27994Y-26597D01*
X27999Y-26585D01*
X28004Y-26572D01*
X28010Y-26558D01*
X28016Y-26542D01*
X28020Y-26533D01*
X28028Y-26514D01*
X28034Y-26498D01*
X28040Y-26484D01*
X28045Y-26473D01*
X28049Y-26463D01*
X28052Y-26455D01*
X28054Y-26449D01*
X28056Y-26445D01*
X28057Y-26441D01*
X28057Y-26439D01*
X28057Y-26437D01*
X28057Y-26436D01*
X28055Y-26434D01*
X28051Y-26431D01*
X28049Y-26429D01*
X28040Y-26423D01*
X28030Y-26416D01*
X28019Y-26408D01*
X28009Y-26399D01*
X28000Y-26392D01*
X27997Y-26387D01*
X27982Y-26370D01*
X27970Y-26351D01*
X27960Y-26331D01*
X27953Y-26310D01*
X27948Y-26288D01*
X27946Y-26266D01*
X27947Y-26245D01*
X27950Y-26223D01*
X27957Y-26201D01*
X27962Y-26188D01*
X27973Y-26167D01*
X27986Y-26148D01*
X28001Y-26131D01*
X28018Y-26116D01*
X28037Y-26104D01*
X28057Y-26094D01*
X28079Y-26086D01*
X28098Y-26081D01*
X28108Y-26080D01*
X28120Y-26079D01*
X28133Y-26079D01*
X28146Y-26079D01*
X28157Y-26080D01*
X28162Y-26081D01*
X28184Y-26087D01*
X28206Y-26095D01*
X28225Y-26105D01*
X28244Y-26118D01*
X28259Y-26133D01*
X28274Y-26149D01*
X28287Y-26168D01*
X28297Y-26187D01*
X28305Y-26209D01*
X28310Y-26231D01*
X28311Y-26234D01*
X28312Y-26248D01*
X28313Y-26262D01*
X28312Y-26278D01*
X28310Y-26293D01*
X28308Y-26305D01*
X28301Y-26327D01*
X28291Y-26348D01*
X28279Y-26368D01*
X28264Y-26386D01*
X28263Y-26387D01*
X28255Y-26395D01*
X28247Y-26403D01*
X28236Y-26411D01*
X28226Y-26419D01*
X28216Y-26426D01*
X28212Y-26429D01*
X28207Y-26432D01*
X28204Y-26435D01*
X28203Y-26437D01*
X28203Y-26438D01*
X28203Y-26439D01*
X28204Y-26442D01*
X28205Y-26445D01*
X28207Y-26450D01*
X28209Y-26456D01*
X28212Y-26464D01*
X28216Y-26473D01*
X28220Y-26484D01*
X28225Y-26496D01*
X28231Y-26511D01*
X28238Y-26528D01*
X28246Y-26547D01*
X28254Y-26569D01*
X28260Y-26583D01*
X28268Y-26603D01*
X28276Y-26621D01*
X28283Y-26639D01*
X28290Y-26656D01*
X28297Y-26672D01*
X28303Y-26686D01*
X28308Y-26698D01*
X28312Y-26708D01*
X28316Y-26717D01*
X28319Y-26723D01*
X28321Y-26727D01*
X28321Y-26728D01*
X28322Y-26729D01*
X28323Y-26729D01*
X28325Y-26729D01*
X28327Y-26729D01*
X28329Y-26727D01*
X28334Y-26725D01*
X28339Y-26722D01*
X28347Y-26718D01*
X28357Y-26713D01*
X28358Y-26713D01*
X28367Y-26708D01*
X28375Y-26704D01*
X28382Y-26701D01*
X28387Y-26698D01*
X28390Y-26697D01*
X28391Y-26697D01*
X28393Y-26698D01*
X28396Y-26700D01*
X28401Y-26703D01*
X28408Y-26707D01*
X28417Y-26713D01*
X28428Y-26720D01*
X28442Y-26729D01*
X28457Y-26740D01*
X28460Y-26742D01*
X28472Y-26751D01*
X28484Y-26759D01*
X28495Y-26766D01*
X28505Y-26773D01*
X28513Y-26778D01*
X28520Y-26783D01*
X28525Y-26786D01*
X28528Y-26788D01*
X28528Y-26788D01*
X28532Y-26788D01*
X28534Y-26787D01*
X28536Y-26786D01*
X28539Y-26782D01*
X28544Y-26777D01*
X28551Y-26771D01*
X28559Y-26764D01*
X28567Y-26755D01*
X28577Y-26746D01*
X28586Y-26736D01*
X28596Y-26726D01*
X28606Y-26717D01*
X28616Y-26707D01*
X28625Y-26698D01*
X28633Y-26689D01*
X28640Y-26682D01*
X28646Y-26675D01*
X28651Y-26671D01*
X28654Y-26667D01*
X28655Y-26666D01*
X28656Y-26662D01*
X28656Y-26659D01*
X28655Y-26658D01*
X28653Y-26654D01*
X28649Y-26648D01*
X28644Y-26640D01*
X28638Y-26631D01*
X28631Y-26621D01*
X28623Y-26610D01*
X28615Y-26597D01*
X28610Y-26590D01*
X28599Y-26575D01*
X28591Y-26562D01*
X28583Y-26551D01*
X28577Y-26543D01*
X28573Y-26535D01*
X28569Y-26530D01*
X28567Y-26525D01*
X28565Y-26522D01*
X28564Y-26520D01*
X28564Y-26519D01*
X28565Y-26517D01*
X28566Y-26513D01*
X28569Y-26506D01*
X28572Y-26498D01*
X28575Y-26488D01*
X28579Y-26478D01*
X28584Y-26466D01*
X28588Y-26454D01*
X28593Y-26443D01*
X28598Y-26431D01*
X28602Y-26420D01*
X28606Y-26410D01*
X28609Y-26402D01*
X28612Y-26395D01*
X28614Y-26390D01*
X28615Y-26388D01*
X28618Y-26385D01*
X28622Y-26383D01*
X28625Y-26382D01*
X28630Y-26381D01*
X28637Y-26380D01*
X28646Y-26378D01*
X28657Y-26376D01*
X28670Y-26373D01*
X28684Y-26371D01*
X28698Y-26368D01*
X28705Y-26367D01*
X28722Y-26364D01*
X28736Y-26361D01*
X28748Y-26359D01*
X28758Y-26357D01*
X28766Y-26355D01*
X28772Y-26354D01*
X28777Y-26353D01*
X28780Y-26352D01*
X28782Y-26351D01*
X28784Y-26350D01*
X28785Y-26349D01*
X28786Y-26349D01*
X28789Y-26345D01*
X28789Y-26261D01*
X28789Y-26242D01*
X28789Y-26224D01*
X28789Y-26209D01*
X28788Y-26197D01*
X28788Y-26187D01*
X28788Y-26180D01*
X28788Y-26176D01*
X28787Y-26175D01*
X28785Y-26172D01*
X28783Y-26171D01*
X28781Y-26170D01*
X28777Y-26169D01*
X28770Y-26168D01*
X28761Y-26166D01*
X28750Y-26164D01*
X28738Y-26162D01*
X28724Y-26159D01*
X28709Y-26156D01*
X28699Y-26154D01*
X28679Y-26151D01*
X28662Y-26147D01*
X28647Y-26144D01*
X28635Y-26142D01*
X28625Y-26140D01*
X28619Y-26138D01*
X28615Y-26137D01*
X28615Y-26137D01*
X28613Y-26135D01*
X28611Y-26131D01*
X28608Y-26125D01*
X28604Y-26117D01*
X28599Y-26106D01*
X28593Y-26093D01*
X28587Y-26077D01*
X28586Y-26075D01*
X28579Y-26060D01*
X28574Y-26048D01*
X28570Y-26037D01*
X28566Y-26029D01*
X28564Y-26023D01*
X28562Y-26018D01*
X28561Y-26014D01*
X28560Y-26011D01*
X28560Y-26009D01*
X28560Y-26009D01*
X28561Y-26007D01*
X28561Y-26005D01*
X28563Y-26002D01*
X28565Y-25999D01*
X28568Y-25994D01*
X28572Y-25988D01*
X28577Y-25980D01*
X28583Y-25971D01*
X28591Y-25959D01*
X28600Y-25946D01*
X28608Y-25934D01*
X28617Y-25922D01*
X28625Y-25909D01*
X28633Y-25898D01*
X28639Y-25888D01*
X28645Y-25879D01*
X28650Y-25872D01*
X28654Y-25867D01*
X28656Y-25864D01*
X28656Y-25863D01*
X28656Y-25860D01*
X28655Y-25856D01*
X28654Y-25854D01*
X28650Y-25851D01*
X28646Y-25846D01*
X28639Y-25839D01*
X28632Y-25831D01*
X28623Y-25823D01*
X28614Y-25814D01*
X28605Y-25804D01*
X28595Y-25794D01*
X28585Y-25784D01*
X28575Y-25775D01*
X28566Y-25766D01*
X28558Y-25758D01*
X28550Y-25750D01*
X28544Y-25744D01*
X28539Y-25739D01*
X28535Y-25736D01*
X28533Y-25735D01*
X28533Y-25735D01*
X28530Y-25735D01*
X28528Y-25735D01*
X28527Y-25736D01*
X28523Y-25738D01*
X28517Y-25742D01*
X28509Y-25747D01*
X28500Y-25753D01*
X28490Y-25760D01*
X28478Y-25768D01*
X28466Y-25776D01*
X28455Y-25784D01*
X28442Y-25793D01*
X28430Y-25801D01*
X28418Y-25809D01*
X28408Y-25816D01*
X28399Y-25822D01*
X28391Y-25827D01*
X28386Y-25830D01*
X28382Y-25832D01*
X28381Y-25833D01*
X28379Y-25833D01*
X28375Y-25832D01*
X28370Y-25830D01*
X28363Y-25828D01*
X28354Y-25824D01*
X28342Y-25820D01*
X28328Y-25814D01*
X28319Y-25810D01*
X28306Y-25805D01*
X28295Y-25800D01*
X28284Y-25796D01*
X28275Y-25792D01*
X28267Y-25789D01*
X28262Y-25786D01*
X28258Y-25785D01*
X28257Y-25784D01*
X28255Y-25781D01*
X28253Y-25777D01*
X28253Y-25777D01*
X28252Y-25775D01*
X28251Y-25770D01*
X28250Y-25763D01*
X28249Y-25753D01*
X28247Y-25742D01*
X28244Y-25730D01*
X28242Y-25716D01*
X28239Y-25701D01*
X28237Y-25690D01*
X28234Y-25673D01*
X28231Y-25658D01*
X28229Y-25645D01*
X28227Y-25635D01*
X28225Y-25627D01*
X28224Y-25620D01*
X28223Y-25615D01*
X28222Y-25612D01*
X28221Y-25609D01*
X28220Y-25607D01*
X28219Y-25606D01*
X28218Y-25605D01*
X28215Y-25602D01*
X28130Y-25602D01*
X28045Y-25602D01*
X28041Y-25605D01*
X28039Y-25608D01*
X28038Y-25610D01*
X28038Y-25610D01*
X28037Y-25612D01*
X28037Y-25617D01*
X28036Y-25624D01*
X28034Y-25633D01*
X28032Y-25643D01*
X28030Y-25655D01*
X28027Y-25668D01*
X28025Y-25681D01*
X28022Y-25695D01*
X28020Y-25708D01*
X28017Y-25722D01*
X28015Y-25734D01*
X28012Y-25746D01*
X28010Y-25757D01*
X28008Y-25766D01*
X28007Y-25773D01*
X28006Y-25778D01*
X28005Y-25780D01*
X28005Y-25781D01*
X28005Y-25782D01*
X28004Y-25782D01*
X28003Y-25783D01*
X28001Y-25784D01*
X27999Y-25786D01*
X27995Y-25788D01*
X27990Y-25790D01*
X27984Y-25793D01*
X27975Y-25796D01*
X27965Y-25800D01*
X27952Y-25805D01*
X27939Y-25811D01*
X27924Y-25817D01*
X27911Y-25822D01*
X27900Y-25826D01*
X27892Y-25829D01*
X27886Y-25831D01*
X27882Y-25833D01*
X27879Y-25833D01*
X27879Y-25833D01*
X27877Y-25832D01*
X27873Y-25830D01*
X27867Y-25826D01*
X27859Y-25821D01*
X27850Y-25814D01*
X27839Y-25807D01*
X27827Y-25799D01*
X27815Y-25791D01*
X27805Y-25784D01*
X27792Y-25775D01*
X27779Y-25767D01*
X27768Y-25759D01*
X27758Y-25752D01*
X27749Y-25746D01*
X27742Y-25741D01*
X27736Y-25737D01*
X27733Y-25735D01*
X27731Y-25734D01*
X27728Y-25734D01*
X27725Y-25735D01*
X27723Y-25737D01*
X27719Y-25740D01*
X27714Y-25745D01*
X27708Y-25752D01*
X27700Y-25759D01*
X27691Y-25768D01*
X27682Y-25777D01*
X27672Y-25786D01*
X27662Y-25796D01*
X27653Y-25806D01*
X27643Y-25816D01*
X27634Y-25825D01*
X27626Y-25833D01*
X27618Y-25841D01*
X27612Y-25847D01*
X27608Y-25852D01*
X27605Y-25856D01*
X27603Y-25857D01*
X27603Y-25861D01*
X27603Y-25863D01*
X27604Y-25865D01*
X27606Y-25868D01*
X27610Y-25874D01*
X27615Y-25882D01*
X27622Y-25891D01*
X27629Y-25901D01*
X27637Y-25913D01*
X27645Y-25925D01*
X27651Y-25934D01*
X27660Y-25947D01*
X27668Y-25959D01*
X27676Y-25970D01*
X27683Y-25981D01*
X27689Y-25989D01*
X27693Y-25997D01*
X27697Y-26002D01*
X27699Y-26005D01*
X27700Y-26006D01*
X27700Y-26007D01*
X27700Y-26008D01*
X27700Y-26010D01*
X27700Y-26012D01*
X27699Y-26014D01*
X27698Y-26018D01*
X27696Y-26023D01*
X27693Y-26029D01*
X27690Y-26038D01*
X27685Y-26048D01*
X27680Y-26060D01*
X27674Y-26075D01*
X27673Y-26077D01*
X27667Y-26090D01*
X27662Y-26102D01*
X27657Y-26113D01*
X27653Y-26122D01*
X27650Y-26129D01*
X27647Y-26134D01*
X27646Y-26136D01*
X27646Y-26136D01*
X27644Y-26137D01*
X27642Y-26138D01*
X27638Y-26139D01*
X27633Y-26140D01*
X27627Y-26142D01*
X27618Y-26143D01*
X27607Y-26145D01*
X27594Y-26148D01*
X27578Y-26151D01*
X27576Y-26151D01*
X27556Y-26155D01*
X27540Y-26158D01*
X27525Y-26161D01*
X27514Y-26163D01*
X27504Y-26165D01*
X27496Y-26166D01*
X27489Y-26168D01*
X27484Y-26169D01*
X27481Y-26170D01*
X27478Y-26170D01*
X27476Y-26171D01*
X27475Y-26172D01*
X27474Y-26172D01*
X27473Y-26173D01*
X27473Y-26174D01*
X27473Y-26174D01*
X27472Y-26176D01*
X27472Y-26177D01*
X27471Y-26180D01*
X27471Y-26183D01*
X27471Y-26188D01*
X27471Y-26194D01*
X27471Y-26202D01*
X27470Y-26212D01*
X27470Y-26224D01*
X27470Y-26238D01*
X27470Y-26254D01*
X27470Y-26261D01*
X27470Y-26345D01*
X27470Y-26345D01*
X27470Y-26345D01*
G37*
G36*
X26831Y-26564D02*
X26831Y-26567D01*
X26833Y-26577D01*
X26834Y-26585D01*
X26835Y-26590D01*
X26837Y-26594D01*
X26838Y-26597D01*
X26841Y-26599D01*
X26844Y-26601D01*
X26848Y-26602D01*
X26852Y-26604D01*
X26857Y-26605D01*
X26862Y-26606D01*
X26869Y-26606D01*
X26877Y-26606D01*
X26887Y-26605D01*
X26899Y-26604D01*
X26914Y-26602D01*
X26916Y-26601D01*
X26928Y-26599D01*
X26939Y-26598D01*
X26948Y-26597D01*
X26958Y-26596D01*
X26968Y-26595D01*
X26979Y-26595D01*
X26993Y-26594D01*
X26998Y-26594D01*
X27017Y-26593D01*
X27033Y-26593D01*
X27046Y-26592D01*
X27057Y-26591D01*
X27067Y-26591D01*
X27074Y-26590D01*
X27080Y-26590D01*
X27085Y-26589D01*
X27088Y-26589D01*
X27091Y-26588D01*
X27093Y-26587D01*
X27094Y-26587D01*
X27102Y-26582D01*
X27107Y-26577D01*
X27108Y-26574D01*
X27110Y-26567D01*
X27109Y-26560D01*
X27108Y-26552D01*
X27107Y-26549D01*
X27105Y-26543D01*
X27105Y-26536D01*
X27106Y-26528D01*
X27108Y-26523D01*
X27109Y-26517D01*
X27109Y-26513D01*
X27107Y-26508D01*
X27103Y-26502D01*
X27098Y-26497D01*
X27041Y-26496D01*
X27017Y-26496D01*
X26995Y-26495D01*
X26976Y-26496D01*
X26959Y-26496D01*
X26950Y-26496D01*
X26917Y-26498D01*
X26909Y-26506D01*
X26903Y-26512D01*
X26898Y-26516D01*
X26893Y-26520D01*
X26886Y-26524D01*
X26879Y-26528D01*
X26865Y-26535D01*
X26854Y-26541D01*
X26846Y-26547D01*
X26839Y-26552D01*
X26835Y-26556D01*
X26832Y-26560D01*
X26831Y-26564D01*
X26831Y-26564D01*
X26831Y-26564D01*
G37*
G36*
X27858Y-25623D02*
X27858Y-25624D01*
X27860Y-25623D01*
X27863Y-25623D01*
X27868Y-25621D01*
X27873Y-25618D01*
X27886Y-25613D01*
X27880Y-25612D01*
X27874Y-25613D01*
X27868Y-25615D01*
X27863Y-25617D01*
X27859Y-25620D01*
X27859Y-25621D01*
X27858Y-25623D01*
X27858Y-25623D01*
X27858Y-25623D01*
G37*
G36*
X27771Y-25430D02*
X27772Y-25436D01*
X27776Y-25440D01*
X27777Y-25441D01*
X27782Y-25445D01*
X27786Y-25451D01*
X27789Y-25459D01*
X27791Y-25467D01*
X27792Y-25475D01*
X27791Y-25479D01*
X27790Y-25484D01*
X27789Y-25490D01*
X27787Y-25497D01*
X27787Y-25500D01*
X27785Y-25506D01*
X27784Y-25512D01*
X27784Y-25516D01*
X27784Y-25517D01*
X27785Y-25523D01*
X27789Y-25528D01*
X27793Y-25531D01*
X27799Y-25533D01*
X27806Y-25535D01*
X27815Y-25537D01*
X27824Y-25539D01*
X27832Y-25540D01*
X27835Y-25541D01*
X27845Y-25541D01*
X27855Y-25534D01*
X27860Y-25530D01*
X27863Y-25526D01*
X27866Y-25523D01*
X27869Y-25518D01*
X27871Y-25512D01*
X27877Y-25499D01*
X27880Y-25488D01*
X27883Y-25478D01*
X27884Y-25470D01*
X27884Y-25465D01*
X27883Y-25459D01*
X27882Y-25454D01*
X27880Y-25451D01*
X27877Y-25447D01*
X27873Y-25441D01*
X27867Y-25434D01*
X27861Y-25427D01*
X27854Y-25420D01*
X27848Y-25414D01*
X27845Y-25412D01*
X27839Y-25407D01*
X27834Y-25401D01*
X27829Y-25396D01*
X27828Y-25395D01*
X27820Y-25388D01*
X27813Y-25384D01*
X27805Y-25382D01*
X27796Y-25384D01*
X27790Y-25387D01*
X27786Y-25390D01*
X27782Y-25393D01*
X27779Y-25398D01*
X27778Y-25401D01*
X27773Y-25412D01*
X27771Y-25422D01*
X27771Y-25430D01*
X27771Y-25430D01*
X27771Y-25430D01*
G37*
G36*
X28530Y-25189D02*
X28531Y-25193D01*
X28532Y-25196D01*
X28532Y-25196D01*
X28533Y-25198D01*
X28535Y-25202D01*
X28538Y-25206D01*
X28538Y-25207D01*
X28541Y-25212D01*
X28543Y-25216D01*
X28545Y-25218D01*
X28548Y-25220D01*
X28553Y-25221D01*
X28560Y-25223D01*
X28569Y-25224D01*
X28578Y-25225D01*
X28587Y-25225D01*
X28596Y-25226D01*
X28603Y-25226D01*
X28609Y-25226D01*
X28612Y-25225D01*
X28620Y-25222D01*
X28626Y-25217D01*
X28627Y-25215D01*
X28629Y-25211D01*
X28629Y-25205D01*
X28629Y-25195D01*
X28627Y-25184D01*
X28626Y-25172D01*
X28624Y-25163D01*
X28622Y-25157D01*
X28619Y-25153D01*
X28616Y-25150D01*
X28612Y-25147D01*
X28607Y-25145D01*
X28600Y-25143D01*
X28592Y-25142D01*
X28583Y-25140D01*
X28575Y-25140D01*
X28568Y-25140D01*
X28565Y-25140D01*
X28556Y-25143D01*
X28548Y-25148D01*
X28541Y-25156D01*
X28535Y-25166D01*
X28533Y-25171D01*
X28532Y-25177D01*
X28531Y-25183D01*
X28530Y-25189D01*
X28530Y-25189D01*
X28530Y-25189D01*
G37*
G36*
X28165Y-24632D02*
X28166Y-24637D01*
X28168Y-24641D01*
X28172Y-24644D01*
X28175Y-24646D01*
X28179Y-24649D01*
X28184Y-24656D01*
X28188Y-24664D01*
X28191Y-24674D01*
X28193Y-24681D01*
X28195Y-24693D01*
X28190Y-24712D01*
X28187Y-24726D01*
X28185Y-24738D01*
X28183Y-24747D01*
X28183Y-24753D01*
X28183Y-24756D01*
X28185Y-24760D01*
X28189Y-24765D01*
X28193Y-24769D01*
X28196Y-24770D01*
X28200Y-24772D01*
X28206Y-24773D01*
X28214Y-24775D01*
X28222Y-24777D01*
X28231Y-24779D01*
X28238Y-24781D01*
X28244Y-24782D01*
X28244Y-24782D01*
X28252Y-24783D01*
X28259Y-24783D01*
X28264Y-24783D01*
X28268Y-24781D01*
X28273Y-24779D01*
X28274Y-24778D01*
X28281Y-24773D01*
X28287Y-24768D01*
X28292Y-24763D01*
X28295Y-24757D01*
X28299Y-24750D01*
X28302Y-24744D01*
X28308Y-24728D01*
X28314Y-24715D01*
X28317Y-24703D01*
X28319Y-24692D01*
X28319Y-24682D01*
X28319Y-24673D01*
X28317Y-24665D01*
X28316Y-24661D01*
X28314Y-24658D01*
X28312Y-24654D01*
X28308Y-24650D01*
X28304Y-24644D01*
X28298Y-24638D01*
X28292Y-24631D01*
X28285Y-24624D01*
X28280Y-24618D01*
X28275Y-24613D01*
X28273Y-24612D01*
X28264Y-24604D01*
X28258Y-24599D01*
X28252Y-24594D01*
X28249Y-24590D01*
X28246Y-24586D01*
X28242Y-24582D01*
X28242Y-24582D01*
X28234Y-24574D01*
X28225Y-24568D01*
X28216Y-24565D01*
X28206Y-24566D01*
X28197Y-24569D01*
X28194Y-24570D01*
X28188Y-24574D01*
X28183Y-24577D01*
X28180Y-24581D01*
X28177Y-24585D01*
X28174Y-24592D01*
X28172Y-24597D01*
X28169Y-24606D01*
X28167Y-24613D01*
X28166Y-24619D01*
X28165Y-24624D01*
X28165Y-24632D01*
X28165Y-24632D01*
X28165Y-24632D01*
G37*
M02*
