G04 (created by PCBNEW (2013-may-18)-stable) date Fri 12 Dec 2014 10:12:50 AM CET*
%MOIN*%
G04 Gerber Fmt 3.4, Leading zero omitted, Abs format*
%FSLAX34Y34*%
G01*
G70*
G90*
G04 APERTURE LIST*
%ADD10C,0.00590551*%
%ADD11C,0.0354*%
%ADD12C,0.0787402*%
%ADD13C,0.16*%
%ADD14C,0.023622*%
%ADD15C,0.0275591*%
%ADD16C,0.015748*%
%ADD17C,0.00669291*%
G04 APERTURE END LIST*
G54D10*
G54D11*
X29634Y-38165D03*
X31366Y-38165D03*
G54D12*
X37750Y-35500D03*
X37750Y-34500D03*
X37750Y-33500D03*
X37750Y-32500D03*
X37750Y-31500D03*
X37750Y-30500D03*
X37750Y-29500D03*
X37750Y-28500D03*
X37750Y-27500D03*
X37750Y-26500D03*
X37750Y-25500D03*
X37750Y-24500D03*
X33250Y-27000D03*
X33250Y-25000D03*
X36250Y-27000D03*
X36250Y-25000D03*
G54D13*
X37750Y-39000D03*
X23500Y-39000D03*
X23500Y-23750D03*
G54D14*
X29500Y-25250D03*
X34250Y-28000D03*
X27250Y-36250D03*
X33000Y-36250D03*
X27750Y-39250D03*
X33250Y-39250D03*
X33250Y-37000D03*
X29500Y-26750D03*
X35750Y-34000D03*
X34250Y-28750D03*
X33000Y-33250D03*
X31750Y-31250D03*
X32250Y-33000D03*
X35000Y-34000D03*
X34250Y-32500D03*
X27000Y-26750D03*
X24500Y-26750D03*
X34250Y-33250D03*
X34250Y-31000D03*
X27500Y-27500D03*
X28250Y-27750D03*
X34250Y-30250D03*
X29000Y-27250D03*
X34250Y-29500D03*
X36250Y-35000D03*
G54D15*
X27000Y-35250D03*
G54D14*
X27250Y-31750D03*
G54D16*
X37250Y-30500D02*
X37250Y-30500D01*
X37250Y-30500D02*
X37250Y-30500D01*
X29500Y-25250D02*
X32250Y-28000D01*
X34250Y-28000D02*
X32250Y-28000D01*
X33000Y-36250D02*
X27250Y-36250D01*
X30500Y-26750D02*
X32500Y-28750D01*
X29500Y-26750D02*
X30500Y-26750D01*
X35000Y-33250D02*
X35750Y-34000D01*
X34750Y-28750D02*
X35000Y-29000D01*
X35000Y-29000D02*
X35000Y-33250D01*
X34750Y-28750D02*
X34250Y-28750D01*
X32500Y-28750D02*
X34250Y-28750D01*
X32500Y-32000D02*
X31750Y-31250D01*
X33000Y-32500D02*
X32500Y-32000D01*
X33000Y-33250D02*
X33000Y-32500D01*
X35000Y-34000D02*
X33250Y-34000D01*
X32250Y-33000D02*
X33250Y-34000D01*
X30500Y-28750D02*
X34250Y-32500D01*
X27000Y-26750D02*
X27000Y-28000D01*
X27000Y-28000D02*
X27750Y-28750D01*
X27750Y-28750D02*
X30500Y-28750D01*
X34250Y-32500D02*
X34250Y-32500D01*
X34250Y-32500D02*
X34250Y-32500D01*
X34250Y-32500D02*
X34250Y-32500D01*
X34250Y-33250D02*
X30250Y-29250D01*
X29000Y-29250D02*
X30250Y-29250D01*
X24500Y-26750D02*
X27000Y-29250D01*
X27000Y-29250D02*
X29000Y-29250D01*
X34250Y-33250D02*
X34250Y-33250D01*
X34250Y-33250D02*
X34250Y-33250D01*
X33250Y-31000D02*
X34250Y-31000D01*
X30500Y-28250D02*
X33250Y-31000D01*
X27500Y-27500D02*
X28250Y-28250D01*
X28250Y-28250D02*
X30500Y-28250D01*
X33250Y-31000D02*
X33250Y-31000D01*
X33250Y-31000D02*
X33250Y-31000D01*
X33000Y-30250D02*
X34250Y-30250D01*
X28250Y-27750D02*
X30500Y-27750D01*
X30500Y-27750D02*
X33000Y-30250D01*
X29000Y-27250D02*
X30500Y-27250D01*
X32750Y-29500D02*
X30500Y-27250D01*
X34250Y-29500D02*
X32750Y-29500D01*
X34750Y-25000D02*
X36250Y-25000D01*
X33250Y-25000D02*
X34750Y-25000D01*
X34750Y-26750D02*
X36500Y-28500D01*
X34750Y-25000D02*
X34750Y-26750D01*
X36500Y-34750D02*
X36500Y-28500D01*
X36250Y-35000D02*
X36500Y-34750D01*
X36500Y-28500D02*
X36500Y-28500D01*
X36500Y-28500D02*
X36500Y-28500D01*
X36500Y-28500D02*
X36500Y-28500D01*
X27000Y-35250D02*
X27000Y-32250D01*
X27000Y-32000D02*
X27250Y-31750D01*
X27000Y-32250D02*
X27000Y-32000D01*
X37750Y-26500D02*
X37750Y-27500D01*
X37000Y-35250D02*
X37000Y-26750D01*
X36750Y-35500D02*
X37000Y-35250D01*
X36250Y-35500D02*
X36000Y-35250D01*
X27000Y-35250D02*
X32250Y-35250D01*
X36000Y-35250D02*
X32250Y-35250D01*
X36250Y-35500D02*
X36750Y-35500D01*
X37250Y-26500D02*
X37750Y-26500D01*
X37000Y-26750D02*
X37250Y-26500D01*
G54D10*
G36*
X38879Y-38520D02*
X38838Y-38421D01*
X38705Y-38220D01*
X38536Y-38049D01*
X38336Y-37915D01*
X38255Y-37881D01*
X38255Y-35450D01*
X38236Y-35353D01*
X38198Y-35261D01*
X38143Y-35178D01*
X38074Y-35108D01*
X37991Y-35052D01*
X37900Y-35014D01*
X37829Y-34999D01*
X37886Y-34989D01*
X37979Y-34953D01*
X38062Y-34900D01*
X38134Y-34832D01*
X38192Y-34751D01*
X38232Y-34660D01*
X38254Y-34563D01*
X38255Y-34450D01*
X38236Y-34353D01*
X38198Y-34261D01*
X38143Y-34178D01*
X38074Y-34108D01*
X37991Y-34052D01*
X37900Y-34014D01*
X37829Y-33999D01*
X37886Y-33989D01*
X37979Y-33953D01*
X38062Y-33900D01*
X38134Y-33832D01*
X38192Y-33751D01*
X38232Y-33660D01*
X38254Y-33563D01*
X38255Y-33450D01*
X38236Y-33353D01*
X38198Y-33261D01*
X38143Y-33178D01*
X38074Y-33108D01*
X37991Y-33052D01*
X37900Y-33014D01*
X37829Y-32999D01*
X37886Y-32989D01*
X37979Y-32953D01*
X38062Y-32900D01*
X38134Y-32832D01*
X38192Y-32751D01*
X38232Y-32660D01*
X38254Y-32563D01*
X38255Y-32450D01*
X38236Y-32353D01*
X38198Y-32261D01*
X38143Y-32178D01*
X38074Y-32108D01*
X37991Y-32052D01*
X37900Y-32014D01*
X37829Y-31999D01*
X37886Y-31989D01*
X37979Y-31953D01*
X38062Y-31900D01*
X38134Y-31832D01*
X38192Y-31751D01*
X38232Y-31660D01*
X38254Y-31563D01*
X38255Y-31450D01*
X38236Y-31353D01*
X38198Y-31261D01*
X38143Y-31178D01*
X38074Y-31108D01*
X37991Y-31052D01*
X37900Y-31014D01*
X37829Y-30999D01*
X37886Y-30989D01*
X37979Y-30953D01*
X38062Y-30900D01*
X38134Y-30832D01*
X38192Y-30751D01*
X38232Y-30660D01*
X38254Y-30563D01*
X38255Y-30450D01*
X38236Y-30353D01*
X38198Y-30261D01*
X38143Y-30178D01*
X38074Y-30108D01*
X37991Y-30052D01*
X37900Y-30014D01*
X37829Y-29999D01*
X37886Y-29989D01*
X37979Y-29953D01*
X38062Y-29900D01*
X38134Y-29832D01*
X38192Y-29751D01*
X38232Y-29660D01*
X38254Y-29563D01*
X38255Y-29450D01*
X38236Y-29353D01*
X38198Y-29261D01*
X38143Y-29178D01*
X38074Y-29108D01*
X37991Y-29052D01*
X37900Y-29014D01*
X37829Y-28999D01*
X37886Y-28989D01*
X37979Y-28953D01*
X38062Y-28900D01*
X38134Y-28832D01*
X38192Y-28751D01*
X38232Y-28660D01*
X38254Y-28563D01*
X38255Y-28450D01*
X38236Y-28353D01*
X38198Y-28261D01*
X38143Y-28178D01*
X38074Y-28108D01*
X37991Y-28052D01*
X37900Y-28014D01*
X37829Y-27999D01*
X37886Y-27989D01*
X37979Y-27953D01*
X38062Y-27900D01*
X38134Y-27832D01*
X38192Y-27751D01*
X38232Y-27660D01*
X38254Y-27563D01*
X38255Y-27450D01*
X38236Y-27353D01*
X38198Y-27261D01*
X38143Y-27178D01*
X38074Y-27108D01*
X37991Y-27052D01*
X37940Y-27031D01*
X37940Y-26968D01*
X37979Y-26953D01*
X38062Y-26900D01*
X38134Y-26832D01*
X38192Y-26751D01*
X38232Y-26660D01*
X38254Y-26563D01*
X38255Y-26450D01*
X38236Y-26353D01*
X38198Y-26261D01*
X38143Y-26178D01*
X38074Y-26108D01*
X37991Y-26052D01*
X37900Y-26014D01*
X37829Y-25999D01*
X37886Y-25989D01*
X37979Y-25953D01*
X38062Y-25900D01*
X38134Y-25832D01*
X38192Y-25751D01*
X38232Y-25660D01*
X38254Y-25563D01*
X38255Y-25450D01*
X38246Y-25401D01*
X38246Y-24512D01*
X38239Y-24415D01*
X38234Y-24391D01*
X38192Y-24336D01*
X38028Y-24500D01*
X38192Y-24663D01*
X38234Y-24608D01*
X38246Y-24512D01*
X38246Y-25401D01*
X38236Y-25353D01*
X38198Y-25261D01*
X38143Y-25178D01*
X38074Y-25108D01*
X37991Y-25052D01*
X37900Y-25014D01*
X37803Y-24994D01*
X37767Y-24994D01*
X37834Y-24989D01*
X37858Y-24984D01*
X37913Y-24942D01*
X37913Y-24057D01*
X37858Y-24015D01*
X37762Y-24003D01*
X37665Y-24010D01*
X37641Y-24015D01*
X37586Y-24057D01*
X37750Y-24221D01*
X37913Y-24057D01*
X37913Y-24942D01*
X37750Y-24778D01*
X37586Y-24942D01*
X37641Y-24984D01*
X37717Y-24993D01*
X37703Y-24993D01*
X37606Y-25012D01*
X37514Y-25049D01*
X37471Y-25077D01*
X37471Y-24500D01*
X37307Y-24336D01*
X37265Y-24391D01*
X37253Y-24487D01*
X37260Y-24584D01*
X37265Y-24608D01*
X37307Y-24663D01*
X37471Y-24500D01*
X37471Y-25077D01*
X37431Y-25103D01*
X37360Y-25173D01*
X37304Y-25255D01*
X37265Y-25346D01*
X37244Y-25443D01*
X37243Y-25542D01*
X37261Y-25640D01*
X37297Y-25732D01*
X37351Y-25815D01*
X37420Y-25887D01*
X37501Y-25943D01*
X37592Y-25983D01*
X37669Y-26000D01*
X37606Y-26012D01*
X37514Y-26049D01*
X37431Y-26103D01*
X37360Y-26173D01*
X37304Y-26255D01*
X37281Y-26309D01*
X37250Y-26309D01*
X37232Y-26310D01*
X37214Y-26312D01*
X37213Y-26312D01*
X37212Y-26312D01*
X37196Y-26317D01*
X37179Y-26322D01*
X37178Y-26323D01*
X37177Y-26323D01*
X37161Y-26331D01*
X37146Y-26339D01*
X37145Y-26340D01*
X37144Y-26340D01*
X37130Y-26352D01*
X37116Y-26363D01*
X37115Y-26364D01*
X37115Y-26364D01*
X37115Y-26364D01*
X37114Y-26364D01*
X36864Y-26614D01*
X36853Y-26628D01*
X36842Y-26642D01*
X36841Y-26643D01*
X36841Y-26643D01*
X36832Y-26659D01*
X36824Y-26674D01*
X36824Y-26675D01*
X36823Y-26676D01*
X36818Y-26693D01*
X36813Y-26710D01*
X36813Y-26711D01*
X36812Y-26712D01*
X36811Y-26729D01*
X36809Y-26747D01*
X36809Y-26749D01*
X36809Y-26749D01*
X36809Y-26749D01*
X36809Y-26750D01*
X36809Y-35170D01*
X36746Y-35233D01*
X36746Y-27012D01*
X36739Y-26915D01*
X36734Y-26891D01*
X36692Y-26836D01*
X36528Y-27000D01*
X36692Y-27163D01*
X36734Y-27108D01*
X36746Y-27012D01*
X36746Y-35233D01*
X36670Y-35309D01*
X36329Y-35309D01*
X36250Y-35230D01*
X36267Y-35230D01*
X36312Y-35222D01*
X36354Y-35206D01*
X36392Y-35182D01*
X36425Y-35151D01*
X36451Y-35114D01*
X36469Y-35073D01*
X36476Y-35043D01*
X36635Y-34885D01*
X36646Y-34871D01*
X36657Y-34857D01*
X36658Y-34856D01*
X36658Y-34856D01*
X36667Y-34840D01*
X36675Y-34825D01*
X36675Y-34824D01*
X36676Y-34823D01*
X36681Y-34806D01*
X36686Y-34789D01*
X36686Y-34788D01*
X36687Y-34787D01*
X36688Y-34770D01*
X36690Y-34752D01*
X36690Y-34750D01*
X36690Y-34750D01*
X36690Y-34750D01*
X36690Y-34750D01*
X36690Y-28500D01*
X36689Y-28482D01*
X36687Y-28464D01*
X36687Y-28464D01*
X36687Y-28464D01*
X36687Y-28463D01*
X36687Y-28462D01*
X36682Y-28446D01*
X36677Y-28429D01*
X36677Y-28428D01*
X36677Y-28428D01*
X36676Y-28427D01*
X36676Y-28427D01*
X36668Y-28411D01*
X36660Y-28396D01*
X36659Y-28395D01*
X36659Y-28395D01*
X36659Y-28394D01*
X36659Y-28394D01*
X36647Y-28380D01*
X36636Y-28366D01*
X36636Y-28366D01*
X36636Y-28366D01*
X36636Y-28366D01*
X36635Y-28365D01*
X36635Y-28365D01*
X36635Y-28365D01*
X36635Y-28364D01*
X36413Y-28143D01*
X36413Y-27442D01*
X36413Y-26557D01*
X36358Y-26515D01*
X36262Y-26503D01*
X36165Y-26510D01*
X36141Y-26515D01*
X36086Y-26557D01*
X36250Y-26721D01*
X36413Y-26557D01*
X36413Y-27442D01*
X36250Y-27278D01*
X36086Y-27442D01*
X36141Y-27484D01*
X36237Y-27496D01*
X36334Y-27489D01*
X36358Y-27484D01*
X36413Y-27442D01*
X36413Y-28143D01*
X35971Y-27701D01*
X35971Y-27000D01*
X35807Y-26836D01*
X35765Y-26891D01*
X35753Y-26987D01*
X35760Y-27084D01*
X35765Y-27108D01*
X35807Y-27163D01*
X35971Y-27000D01*
X35971Y-27701D01*
X34940Y-26670D01*
X34940Y-25190D01*
X35781Y-25190D01*
X35797Y-25232D01*
X35851Y-25315D01*
X35920Y-25387D01*
X36001Y-25443D01*
X36092Y-25483D01*
X36189Y-25504D01*
X36289Y-25506D01*
X36386Y-25489D01*
X36479Y-25453D01*
X36562Y-25400D01*
X36634Y-25332D01*
X36692Y-25251D01*
X36732Y-25160D01*
X36754Y-25063D01*
X36755Y-24950D01*
X36736Y-24853D01*
X36698Y-24761D01*
X36643Y-24678D01*
X36574Y-24608D01*
X36491Y-24552D01*
X36400Y-24514D01*
X36303Y-24494D01*
X36203Y-24493D01*
X36106Y-24512D01*
X36014Y-24549D01*
X35931Y-24603D01*
X35860Y-24673D01*
X35804Y-24755D01*
X35781Y-24809D01*
X34750Y-24809D01*
X33718Y-24809D01*
X33698Y-24761D01*
X33643Y-24678D01*
X33574Y-24608D01*
X33491Y-24552D01*
X33400Y-24514D01*
X33303Y-24494D01*
X33203Y-24493D01*
X33106Y-24512D01*
X33014Y-24549D01*
X32931Y-24603D01*
X32860Y-24673D01*
X32804Y-24755D01*
X32765Y-24846D01*
X32744Y-24943D01*
X32743Y-25042D01*
X32761Y-25140D01*
X32797Y-25232D01*
X32851Y-25315D01*
X32920Y-25387D01*
X33001Y-25443D01*
X33092Y-25483D01*
X33189Y-25504D01*
X33289Y-25506D01*
X33386Y-25489D01*
X33479Y-25453D01*
X33562Y-25400D01*
X33634Y-25332D01*
X33692Y-25251D01*
X33718Y-25190D01*
X34559Y-25190D01*
X34559Y-26750D01*
X34560Y-26767D01*
X34562Y-26785D01*
X34562Y-26786D01*
X34562Y-26787D01*
X34567Y-26803D01*
X34572Y-26820D01*
X34573Y-26821D01*
X34573Y-26822D01*
X34581Y-26838D01*
X34589Y-26853D01*
X34590Y-26854D01*
X34590Y-26855D01*
X34602Y-26869D01*
X34613Y-26883D01*
X34614Y-26884D01*
X34614Y-26884D01*
X34614Y-26884D01*
X34614Y-26885D01*
X36309Y-28579D01*
X36309Y-34670D01*
X36206Y-34773D01*
X36184Y-34777D01*
X36142Y-34794D01*
X36104Y-34819D01*
X36072Y-34851D01*
X36047Y-34888D01*
X36029Y-34930D01*
X36020Y-34974D01*
X36019Y-35019D01*
X36027Y-35061D01*
X36020Y-35061D01*
X36002Y-35059D01*
X36000Y-35059D01*
X36000Y-35059D01*
X36000Y-35059D01*
X36000Y-35059D01*
X32250Y-35059D01*
X27190Y-35059D01*
X27190Y-32250D01*
X27190Y-32079D01*
X27293Y-31976D01*
X27312Y-31972D01*
X27354Y-31956D01*
X27392Y-31932D01*
X27425Y-31901D01*
X27451Y-31864D01*
X27469Y-31823D01*
X27479Y-31779D01*
X27480Y-31727D01*
X27471Y-31683D01*
X27454Y-31641D01*
X27429Y-31603D01*
X27397Y-31571D01*
X27360Y-31546D01*
X27318Y-31528D01*
X27274Y-31519D01*
X27229Y-31519D01*
X27184Y-31527D01*
X27142Y-31544D01*
X27104Y-31569D01*
X27072Y-31601D01*
X27047Y-31638D01*
X27029Y-31680D01*
X27023Y-31706D01*
X26864Y-31864D01*
X26853Y-31878D01*
X26842Y-31892D01*
X26841Y-31893D01*
X26841Y-31893D01*
X26832Y-31909D01*
X26824Y-31924D01*
X26824Y-31925D01*
X26823Y-31926D01*
X26818Y-31943D01*
X26813Y-31960D01*
X26813Y-31961D01*
X26812Y-31962D01*
X26811Y-31979D01*
X26809Y-31997D01*
X26809Y-31999D01*
X26809Y-31999D01*
X26809Y-31999D01*
X26809Y-32000D01*
X26809Y-32250D01*
X26809Y-35087D01*
X26807Y-35088D01*
X26779Y-35128D01*
X26760Y-35174D01*
X26750Y-35221D01*
X26749Y-35271D01*
X26758Y-35319D01*
X26776Y-35364D01*
X26803Y-35406D01*
X26837Y-35441D01*
X26877Y-35469D01*
X26922Y-35488D01*
X26970Y-35499D01*
X27019Y-35500D01*
X27067Y-35491D01*
X27113Y-35474D01*
X27154Y-35447D01*
X27162Y-35440D01*
X32250Y-35440D01*
X35920Y-35440D01*
X36114Y-35635D01*
X36128Y-35646D01*
X36142Y-35657D01*
X36143Y-35658D01*
X36143Y-35658D01*
X36159Y-35667D01*
X36174Y-35675D01*
X36175Y-35675D01*
X36176Y-35676D01*
X36193Y-35681D01*
X36210Y-35686D01*
X36211Y-35686D01*
X36212Y-35687D01*
X36229Y-35688D01*
X36247Y-35690D01*
X36249Y-35690D01*
X36249Y-35690D01*
X36249Y-35690D01*
X36250Y-35690D01*
X36750Y-35690D01*
X36767Y-35689D01*
X36785Y-35687D01*
X36786Y-35687D01*
X36787Y-35687D01*
X36803Y-35682D01*
X36820Y-35677D01*
X36821Y-35676D01*
X36822Y-35676D01*
X36838Y-35668D01*
X36853Y-35660D01*
X36854Y-35659D01*
X36855Y-35659D01*
X36869Y-35647D01*
X36883Y-35636D01*
X36884Y-35635D01*
X36884Y-35635D01*
X36884Y-35635D01*
X36885Y-35635D01*
X37135Y-35385D01*
X37146Y-35371D01*
X37157Y-35357D01*
X37158Y-35356D01*
X37158Y-35356D01*
X37167Y-35340D01*
X37175Y-35325D01*
X37175Y-35324D01*
X37176Y-35323D01*
X37181Y-35306D01*
X37186Y-35289D01*
X37186Y-35288D01*
X37187Y-35287D01*
X37188Y-35270D01*
X37190Y-35252D01*
X37190Y-35250D01*
X37190Y-35250D01*
X37190Y-35250D01*
X37190Y-35250D01*
X37190Y-30680D01*
X37210Y-30686D01*
X37247Y-30690D01*
X37250Y-30690D01*
X37280Y-30687D01*
X37297Y-30732D01*
X37351Y-30815D01*
X37420Y-30887D01*
X37501Y-30943D01*
X37592Y-30983D01*
X37669Y-31000D01*
X37606Y-31012D01*
X37514Y-31049D01*
X37431Y-31103D01*
X37360Y-31173D01*
X37304Y-31255D01*
X37265Y-31346D01*
X37244Y-31443D01*
X37243Y-31542D01*
X37261Y-31640D01*
X37297Y-31732D01*
X37351Y-31815D01*
X37420Y-31887D01*
X37501Y-31943D01*
X37592Y-31983D01*
X37669Y-32000D01*
X37606Y-32012D01*
X37514Y-32049D01*
X37431Y-32103D01*
X37360Y-32173D01*
X37304Y-32255D01*
X37265Y-32346D01*
X37244Y-32443D01*
X37243Y-32542D01*
X37261Y-32640D01*
X37297Y-32732D01*
X37351Y-32815D01*
X37420Y-32887D01*
X37501Y-32943D01*
X37592Y-32983D01*
X37669Y-33000D01*
X37606Y-33012D01*
X37514Y-33049D01*
X37431Y-33103D01*
X37360Y-33173D01*
X37304Y-33255D01*
X37265Y-33346D01*
X37244Y-33443D01*
X37243Y-33542D01*
X37261Y-33640D01*
X37297Y-33732D01*
X37351Y-33815D01*
X37420Y-33887D01*
X37501Y-33943D01*
X37592Y-33983D01*
X37669Y-34000D01*
X37606Y-34012D01*
X37514Y-34049D01*
X37431Y-34103D01*
X37360Y-34173D01*
X37304Y-34255D01*
X37265Y-34346D01*
X37244Y-34443D01*
X37243Y-34542D01*
X37261Y-34640D01*
X37297Y-34732D01*
X37351Y-34815D01*
X37420Y-34887D01*
X37501Y-34943D01*
X37592Y-34983D01*
X37669Y-35000D01*
X37606Y-35012D01*
X37514Y-35049D01*
X37431Y-35103D01*
X37360Y-35173D01*
X37304Y-35255D01*
X37265Y-35346D01*
X37244Y-35443D01*
X37243Y-35542D01*
X37261Y-35640D01*
X37297Y-35732D01*
X37351Y-35815D01*
X37420Y-35887D01*
X37501Y-35943D01*
X37592Y-35983D01*
X37689Y-36004D01*
X37789Y-36006D01*
X37886Y-35989D01*
X37979Y-35953D01*
X38062Y-35900D01*
X38134Y-35832D01*
X38192Y-35751D01*
X38232Y-35660D01*
X38254Y-35563D01*
X38255Y-35450D01*
X38255Y-37881D01*
X38114Y-37822D01*
X37878Y-37773D01*
X37638Y-37771D01*
X37401Y-37817D01*
X37178Y-37907D01*
X36977Y-38038D01*
X36805Y-38207D01*
X36669Y-38405D01*
X36574Y-38627D01*
X36524Y-38862D01*
X36521Y-39103D01*
X36564Y-39339D01*
X36653Y-39563D01*
X36783Y-39765D01*
X36950Y-39939D01*
X37148Y-40076D01*
X37270Y-40129D01*
X33230Y-40129D01*
X33230Y-36227D01*
X33221Y-36183D01*
X33204Y-36141D01*
X33179Y-36103D01*
X33147Y-36071D01*
X33110Y-36046D01*
X33068Y-36028D01*
X33024Y-36019D01*
X32979Y-36019D01*
X32934Y-36027D01*
X32892Y-36044D01*
X32871Y-36059D01*
X27378Y-36059D01*
X27360Y-36046D01*
X27318Y-36028D01*
X27274Y-36019D01*
X27229Y-36019D01*
X27184Y-36027D01*
X27142Y-36044D01*
X27104Y-36069D01*
X27072Y-36101D01*
X27047Y-36138D01*
X27029Y-36180D01*
X27020Y-36224D01*
X27019Y-36269D01*
X27027Y-36313D01*
X27044Y-36355D01*
X27068Y-36393D01*
X27100Y-36426D01*
X27137Y-36452D01*
X27178Y-36470D01*
X27222Y-36479D01*
X27267Y-36480D01*
X27312Y-36472D01*
X27354Y-36456D01*
X27378Y-36440D01*
X32871Y-36440D01*
X32887Y-36452D01*
X32928Y-36470D01*
X32972Y-36479D01*
X33017Y-36480D01*
X33062Y-36472D01*
X33104Y-36456D01*
X33142Y-36432D01*
X33175Y-36401D01*
X33201Y-36364D01*
X33219Y-36323D01*
X33229Y-36279D01*
X33230Y-36227D01*
X33230Y-40129D01*
X31655Y-40129D01*
X31655Y-38136D01*
X31644Y-38081D01*
X31622Y-38028D01*
X31591Y-37981D01*
X31551Y-37941D01*
X31504Y-37909D01*
X31451Y-37887D01*
X31396Y-37875D01*
X31339Y-37875D01*
X31283Y-37886D01*
X31231Y-37907D01*
X31183Y-37938D01*
X31143Y-37978D01*
X31111Y-38025D01*
X31088Y-38077D01*
X31077Y-38132D01*
X31076Y-38189D01*
X31086Y-38245D01*
X31107Y-38297D01*
X31138Y-38345D01*
X31177Y-38386D01*
X31224Y-38418D01*
X31276Y-38441D01*
X31331Y-38453D01*
X31388Y-38454D01*
X31444Y-38444D01*
X31497Y-38424D01*
X31544Y-38393D01*
X31585Y-38354D01*
X31618Y-38308D01*
X31641Y-38256D01*
X31654Y-38201D01*
X31655Y-38136D01*
X31655Y-40129D01*
X29923Y-40129D01*
X29923Y-38136D01*
X29912Y-38081D01*
X29890Y-38028D01*
X29859Y-37981D01*
X29819Y-37941D01*
X29772Y-37909D01*
X29719Y-37887D01*
X29664Y-37875D01*
X29607Y-37875D01*
X29551Y-37886D01*
X29499Y-37907D01*
X29451Y-37938D01*
X29411Y-37978D01*
X29379Y-38025D01*
X29356Y-38077D01*
X29345Y-38132D01*
X29344Y-38189D01*
X29354Y-38245D01*
X29375Y-38297D01*
X29406Y-38345D01*
X29445Y-38386D01*
X29492Y-38418D01*
X29544Y-38441D01*
X29599Y-38453D01*
X29656Y-38454D01*
X29712Y-38444D01*
X29765Y-38424D01*
X29812Y-38393D01*
X29853Y-38354D01*
X29886Y-38308D01*
X29909Y-38256D01*
X29922Y-38201D01*
X29923Y-38136D01*
X29923Y-40129D01*
X23980Y-40129D01*
X24055Y-40100D01*
X24259Y-39971D01*
X24433Y-39805D01*
X24572Y-39609D01*
X24670Y-39389D01*
X24723Y-39154D01*
X24727Y-38879D01*
X24680Y-38643D01*
X24588Y-38421D01*
X24455Y-38220D01*
X24286Y-38049D01*
X24086Y-37915D01*
X23864Y-37822D01*
X23628Y-37773D01*
X23388Y-37771D01*
X23151Y-37817D01*
X22928Y-37907D01*
X22727Y-38038D01*
X22555Y-38207D01*
X22419Y-38405D01*
X22370Y-38521D01*
X22370Y-24229D01*
X22403Y-24313D01*
X22533Y-24515D01*
X22700Y-24689D01*
X22898Y-24826D01*
X23118Y-24922D01*
X23353Y-24974D01*
X23594Y-24979D01*
X23831Y-24937D01*
X24055Y-24850D01*
X24259Y-24721D01*
X24433Y-24555D01*
X24466Y-24508D01*
X24466Y-26521D01*
X24434Y-26527D01*
X24392Y-26544D01*
X24354Y-26569D01*
X24322Y-26601D01*
X24297Y-26638D01*
X24279Y-26680D01*
X24270Y-26724D01*
X24269Y-26769D01*
X24277Y-26813D01*
X24294Y-26855D01*
X24318Y-26893D01*
X24350Y-26926D01*
X24387Y-26952D01*
X24428Y-26970D01*
X24456Y-26976D01*
X24466Y-26986D01*
X24466Y-29763D01*
X25236Y-30533D01*
X30013Y-30533D01*
X30533Y-30013D01*
X30533Y-29803D01*
X31749Y-31019D01*
X31729Y-31019D01*
X31684Y-31027D01*
X31642Y-31044D01*
X31604Y-31069D01*
X31572Y-31101D01*
X31547Y-31138D01*
X31529Y-31180D01*
X31520Y-31224D01*
X31519Y-31269D01*
X31527Y-31313D01*
X31544Y-31355D01*
X31568Y-31393D01*
X31600Y-31426D01*
X31637Y-31452D01*
X31678Y-31470D01*
X31706Y-31476D01*
X32364Y-32134D01*
X32364Y-32135D01*
X32809Y-32579D01*
X32809Y-33121D01*
X32797Y-33138D01*
X32779Y-33180D01*
X32770Y-33224D01*
X32769Y-33249D01*
X32476Y-32956D01*
X32471Y-32933D01*
X32454Y-32891D01*
X32429Y-32853D01*
X32397Y-32821D01*
X32360Y-32796D01*
X32318Y-32778D01*
X32274Y-32769D01*
X32229Y-32769D01*
X32184Y-32777D01*
X32142Y-32794D01*
X32104Y-32819D01*
X32072Y-32851D01*
X32047Y-32888D01*
X32029Y-32930D01*
X32020Y-32974D01*
X32019Y-33019D01*
X32027Y-33063D01*
X32044Y-33105D01*
X32068Y-33143D01*
X32100Y-33176D01*
X32137Y-33202D01*
X32178Y-33220D01*
X32206Y-33226D01*
X33114Y-34135D01*
X33128Y-34146D01*
X33142Y-34157D01*
X33143Y-34158D01*
X33143Y-34158D01*
X33159Y-34167D01*
X33174Y-34175D01*
X33175Y-34175D01*
X33176Y-34176D01*
X33193Y-34181D01*
X33210Y-34186D01*
X33211Y-34186D01*
X33212Y-34187D01*
X33229Y-34188D01*
X33247Y-34190D01*
X33249Y-34190D01*
X33249Y-34190D01*
X33249Y-34190D01*
X33250Y-34190D01*
X34871Y-34190D01*
X34887Y-34202D01*
X34928Y-34220D01*
X34972Y-34229D01*
X35017Y-34230D01*
X35062Y-34222D01*
X35104Y-34206D01*
X35142Y-34182D01*
X35175Y-34151D01*
X35201Y-34114D01*
X35219Y-34073D01*
X35229Y-34029D01*
X35230Y-33977D01*
X35221Y-33933D01*
X35204Y-33891D01*
X35179Y-33853D01*
X35147Y-33821D01*
X35110Y-33796D01*
X35068Y-33778D01*
X35024Y-33769D01*
X34979Y-33769D01*
X34934Y-33777D01*
X34892Y-33794D01*
X34871Y-33809D01*
X33329Y-33809D01*
X33000Y-33480D01*
X33017Y-33480D01*
X33062Y-33472D01*
X33104Y-33456D01*
X33142Y-33432D01*
X33175Y-33401D01*
X33201Y-33364D01*
X33219Y-33323D01*
X33229Y-33279D01*
X33230Y-33227D01*
X33221Y-33183D01*
X33204Y-33141D01*
X33190Y-33121D01*
X33190Y-32500D01*
X33189Y-32482D01*
X33187Y-32464D01*
X33187Y-32463D01*
X33187Y-32462D01*
X33184Y-32454D01*
X34023Y-33293D01*
X34027Y-33313D01*
X34044Y-33355D01*
X34068Y-33393D01*
X34100Y-33426D01*
X34137Y-33452D01*
X34178Y-33470D01*
X34222Y-33479D01*
X34267Y-33480D01*
X34312Y-33472D01*
X34354Y-33456D01*
X34392Y-33432D01*
X34425Y-33401D01*
X34451Y-33364D01*
X34469Y-33323D01*
X34479Y-33279D01*
X34480Y-33227D01*
X34471Y-33183D01*
X34454Y-33141D01*
X34429Y-33103D01*
X34397Y-33071D01*
X34360Y-33046D01*
X34318Y-33028D01*
X34293Y-33023D01*
X30658Y-29388D01*
X30763Y-29283D01*
X34023Y-32543D01*
X34027Y-32563D01*
X34044Y-32605D01*
X34068Y-32643D01*
X34100Y-32676D01*
X34137Y-32702D01*
X34178Y-32720D01*
X34222Y-32729D01*
X34267Y-32730D01*
X34312Y-32722D01*
X34354Y-32706D01*
X34392Y-32682D01*
X34425Y-32651D01*
X34451Y-32614D01*
X34469Y-32573D01*
X34479Y-32529D01*
X34480Y-32477D01*
X34471Y-32433D01*
X34454Y-32391D01*
X34429Y-32353D01*
X34397Y-32321D01*
X34360Y-32296D01*
X34318Y-32278D01*
X34293Y-32273D01*
X33205Y-31185D01*
X33210Y-31186D01*
X33211Y-31186D01*
X33212Y-31187D01*
X33229Y-31188D01*
X33247Y-31190D01*
X33249Y-31190D01*
X33249Y-31190D01*
X33249Y-31190D01*
X33250Y-31190D01*
X34121Y-31190D01*
X34137Y-31202D01*
X34178Y-31220D01*
X34222Y-31229D01*
X34267Y-31230D01*
X34312Y-31222D01*
X34354Y-31206D01*
X34392Y-31182D01*
X34425Y-31151D01*
X34451Y-31114D01*
X34469Y-31073D01*
X34479Y-31029D01*
X34480Y-30977D01*
X34471Y-30933D01*
X34454Y-30891D01*
X34429Y-30853D01*
X34397Y-30821D01*
X34360Y-30796D01*
X34318Y-30778D01*
X34274Y-30769D01*
X34229Y-30769D01*
X34184Y-30777D01*
X34142Y-30794D01*
X34121Y-30809D01*
X33329Y-30809D01*
X32955Y-30435D01*
X32960Y-30436D01*
X32961Y-30436D01*
X32962Y-30437D01*
X32979Y-30438D01*
X32997Y-30440D01*
X32999Y-30440D01*
X32999Y-30440D01*
X32999Y-30440D01*
X33000Y-30440D01*
X34121Y-30440D01*
X34137Y-30452D01*
X34178Y-30470D01*
X34222Y-30479D01*
X34267Y-30480D01*
X34312Y-30472D01*
X34354Y-30456D01*
X34392Y-30432D01*
X34425Y-30401D01*
X34451Y-30364D01*
X34469Y-30323D01*
X34479Y-30279D01*
X34480Y-30227D01*
X34471Y-30183D01*
X34454Y-30141D01*
X34429Y-30103D01*
X34397Y-30071D01*
X34360Y-30046D01*
X34318Y-30028D01*
X34274Y-30019D01*
X34229Y-30019D01*
X34184Y-30027D01*
X34142Y-30044D01*
X34121Y-30059D01*
X33079Y-30059D01*
X32705Y-29685D01*
X32710Y-29686D01*
X32711Y-29686D01*
X32712Y-29687D01*
X32729Y-29688D01*
X32747Y-29690D01*
X32749Y-29690D01*
X32749Y-29690D01*
X32749Y-29690D01*
X32750Y-29690D01*
X34121Y-29690D01*
X34137Y-29702D01*
X34178Y-29720D01*
X34222Y-29729D01*
X34267Y-29730D01*
X34312Y-29722D01*
X34354Y-29706D01*
X34392Y-29682D01*
X34425Y-29651D01*
X34451Y-29614D01*
X34469Y-29573D01*
X34479Y-29529D01*
X34480Y-29477D01*
X34471Y-29433D01*
X34454Y-29391D01*
X34429Y-29353D01*
X34397Y-29321D01*
X34360Y-29296D01*
X34318Y-29278D01*
X34274Y-29269D01*
X34229Y-29269D01*
X34184Y-29277D01*
X34142Y-29294D01*
X34121Y-29309D01*
X32829Y-29309D01*
X32455Y-28935D01*
X32460Y-28936D01*
X32461Y-28936D01*
X32462Y-28937D01*
X32479Y-28938D01*
X32497Y-28940D01*
X32499Y-28940D01*
X32499Y-28940D01*
X32499Y-28940D01*
X32500Y-28940D01*
X34121Y-28940D01*
X34137Y-28952D01*
X34178Y-28970D01*
X34222Y-28979D01*
X34267Y-28980D01*
X34312Y-28972D01*
X34354Y-28956D01*
X34378Y-28940D01*
X34670Y-28940D01*
X34809Y-29079D01*
X34809Y-33250D01*
X34810Y-33267D01*
X34812Y-33285D01*
X34812Y-33286D01*
X34812Y-33287D01*
X34817Y-33303D01*
X34822Y-33320D01*
X34823Y-33321D01*
X34823Y-33322D01*
X34831Y-33338D01*
X34839Y-33353D01*
X34840Y-33354D01*
X34840Y-33355D01*
X34852Y-33369D01*
X34863Y-33383D01*
X34864Y-33384D01*
X34864Y-33384D01*
X34864Y-33384D01*
X34864Y-33385D01*
X35523Y-34043D01*
X35527Y-34063D01*
X35544Y-34105D01*
X35568Y-34143D01*
X35600Y-34176D01*
X35637Y-34202D01*
X35678Y-34220D01*
X35722Y-34229D01*
X35767Y-34230D01*
X35812Y-34222D01*
X35854Y-34206D01*
X35892Y-34182D01*
X35925Y-34151D01*
X35951Y-34114D01*
X35969Y-34073D01*
X35979Y-34029D01*
X35980Y-33977D01*
X35971Y-33933D01*
X35954Y-33891D01*
X35929Y-33853D01*
X35897Y-33821D01*
X35860Y-33796D01*
X35818Y-33778D01*
X35793Y-33773D01*
X35190Y-33170D01*
X35190Y-29000D01*
X35189Y-28982D01*
X35187Y-28964D01*
X35187Y-28963D01*
X35187Y-28962D01*
X35182Y-28946D01*
X35177Y-28929D01*
X35176Y-28928D01*
X35176Y-28927D01*
X35168Y-28911D01*
X35160Y-28896D01*
X35159Y-28895D01*
X35159Y-28894D01*
X35147Y-28880D01*
X35136Y-28866D01*
X35135Y-28865D01*
X35135Y-28865D01*
X35135Y-28865D01*
X35135Y-28864D01*
X34885Y-28614D01*
X34871Y-28603D01*
X34857Y-28592D01*
X34856Y-28591D01*
X34856Y-28591D01*
X34840Y-28582D01*
X34825Y-28574D01*
X34824Y-28574D01*
X34823Y-28573D01*
X34806Y-28568D01*
X34789Y-28563D01*
X34788Y-28563D01*
X34787Y-28562D01*
X34770Y-28561D01*
X34752Y-28559D01*
X34750Y-28559D01*
X34750Y-28559D01*
X34750Y-28559D01*
X34750Y-28559D01*
X34378Y-28559D01*
X34360Y-28546D01*
X34318Y-28528D01*
X34274Y-28519D01*
X34229Y-28519D01*
X34184Y-28527D01*
X34142Y-28544D01*
X34121Y-28559D01*
X32579Y-28559D01*
X32205Y-28185D01*
X32210Y-28186D01*
X32211Y-28186D01*
X32212Y-28187D01*
X32229Y-28188D01*
X32247Y-28190D01*
X32249Y-28190D01*
X32249Y-28190D01*
X32249Y-28190D01*
X32250Y-28190D01*
X34121Y-28190D01*
X34137Y-28202D01*
X34178Y-28220D01*
X34222Y-28229D01*
X34267Y-28230D01*
X34312Y-28222D01*
X34354Y-28206D01*
X34392Y-28182D01*
X34425Y-28151D01*
X34451Y-28114D01*
X34469Y-28073D01*
X34479Y-28029D01*
X34480Y-27977D01*
X34471Y-27933D01*
X34454Y-27891D01*
X34429Y-27853D01*
X34397Y-27821D01*
X34360Y-27796D01*
X34318Y-27778D01*
X34274Y-27769D01*
X34229Y-27769D01*
X34184Y-27777D01*
X34142Y-27794D01*
X34121Y-27809D01*
X33746Y-27809D01*
X33746Y-27012D01*
X33739Y-26915D01*
X33734Y-26891D01*
X33692Y-26836D01*
X33528Y-27000D01*
X33692Y-27163D01*
X33734Y-27108D01*
X33746Y-27012D01*
X33746Y-27809D01*
X33413Y-27809D01*
X33413Y-27442D01*
X33413Y-26557D01*
X33358Y-26515D01*
X33262Y-26503D01*
X33165Y-26510D01*
X33141Y-26515D01*
X33086Y-26557D01*
X33250Y-26721D01*
X33413Y-26557D01*
X33413Y-27442D01*
X33250Y-27278D01*
X33086Y-27442D01*
X33141Y-27484D01*
X33237Y-27496D01*
X33334Y-27489D01*
X33358Y-27484D01*
X33413Y-27442D01*
X33413Y-27809D01*
X32971Y-27809D01*
X32971Y-27000D01*
X32807Y-26836D01*
X32765Y-26891D01*
X32753Y-26987D01*
X32760Y-27084D01*
X32765Y-27108D01*
X32807Y-27163D01*
X32971Y-27000D01*
X32971Y-27809D01*
X32329Y-27809D01*
X31783Y-27263D01*
X31783Y-25513D01*
X32533Y-24763D01*
X32533Y-22620D01*
X38879Y-22620D01*
X38879Y-38520D01*
X38879Y-38520D01*
G37*
G54D17*
X38879Y-38520D02*
X38838Y-38421D01*
X38705Y-38220D01*
X38536Y-38049D01*
X38336Y-37915D01*
X38255Y-37881D01*
X38255Y-35450D01*
X38236Y-35353D01*
X38198Y-35261D01*
X38143Y-35178D01*
X38074Y-35108D01*
X37991Y-35052D01*
X37900Y-35014D01*
X37829Y-34999D01*
X37886Y-34989D01*
X37979Y-34953D01*
X38062Y-34900D01*
X38134Y-34832D01*
X38192Y-34751D01*
X38232Y-34660D01*
X38254Y-34563D01*
X38255Y-34450D01*
X38236Y-34353D01*
X38198Y-34261D01*
X38143Y-34178D01*
X38074Y-34108D01*
X37991Y-34052D01*
X37900Y-34014D01*
X37829Y-33999D01*
X37886Y-33989D01*
X37979Y-33953D01*
X38062Y-33900D01*
X38134Y-33832D01*
X38192Y-33751D01*
X38232Y-33660D01*
X38254Y-33563D01*
X38255Y-33450D01*
X38236Y-33353D01*
X38198Y-33261D01*
X38143Y-33178D01*
X38074Y-33108D01*
X37991Y-33052D01*
X37900Y-33014D01*
X37829Y-32999D01*
X37886Y-32989D01*
X37979Y-32953D01*
X38062Y-32900D01*
X38134Y-32832D01*
X38192Y-32751D01*
X38232Y-32660D01*
X38254Y-32563D01*
X38255Y-32450D01*
X38236Y-32353D01*
X38198Y-32261D01*
X38143Y-32178D01*
X38074Y-32108D01*
X37991Y-32052D01*
X37900Y-32014D01*
X37829Y-31999D01*
X37886Y-31989D01*
X37979Y-31953D01*
X38062Y-31900D01*
X38134Y-31832D01*
X38192Y-31751D01*
X38232Y-31660D01*
X38254Y-31563D01*
X38255Y-31450D01*
X38236Y-31353D01*
X38198Y-31261D01*
X38143Y-31178D01*
X38074Y-31108D01*
X37991Y-31052D01*
X37900Y-31014D01*
X37829Y-30999D01*
X37886Y-30989D01*
X37979Y-30953D01*
X38062Y-30900D01*
X38134Y-30832D01*
X38192Y-30751D01*
X38232Y-30660D01*
X38254Y-30563D01*
X38255Y-30450D01*
X38236Y-30353D01*
X38198Y-30261D01*
X38143Y-30178D01*
X38074Y-30108D01*
X37991Y-30052D01*
X37900Y-30014D01*
X37829Y-29999D01*
X37886Y-29989D01*
X37979Y-29953D01*
X38062Y-29900D01*
X38134Y-29832D01*
X38192Y-29751D01*
X38232Y-29660D01*
X38254Y-29563D01*
X38255Y-29450D01*
X38236Y-29353D01*
X38198Y-29261D01*
X38143Y-29178D01*
X38074Y-29108D01*
X37991Y-29052D01*
X37900Y-29014D01*
X37829Y-28999D01*
X37886Y-28989D01*
X37979Y-28953D01*
X38062Y-28900D01*
X38134Y-28832D01*
X38192Y-28751D01*
X38232Y-28660D01*
X38254Y-28563D01*
X38255Y-28450D01*
X38236Y-28353D01*
X38198Y-28261D01*
X38143Y-28178D01*
X38074Y-28108D01*
X37991Y-28052D01*
X37900Y-28014D01*
X37829Y-27999D01*
X37886Y-27989D01*
X37979Y-27953D01*
X38062Y-27900D01*
X38134Y-27832D01*
X38192Y-27751D01*
X38232Y-27660D01*
X38254Y-27563D01*
X38255Y-27450D01*
X38236Y-27353D01*
X38198Y-27261D01*
X38143Y-27178D01*
X38074Y-27108D01*
X37991Y-27052D01*
X37940Y-27031D01*
X37940Y-26968D01*
X37979Y-26953D01*
X38062Y-26900D01*
X38134Y-26832D01*
X38192Y-26751D01*
X38232Y-26660D01*
X38254Y-26563D01*
X38255Y-26450D01*
X38236Y-26353D01*
X38198Y-26261D01*
X38143Y-26178D01*
X38074Y-26108D01*
X37991Y-26052D01*
X37900Y-26014D01*
X37829Y-25999D01*
X37886Y-25989D01*
X37979Y-25953D01*
X38062Y-25900D01*
X38134Y-25832D01*
X38192Y-25751D01*
X38232Y-25660D01*
X38254Y-25563D01*
X38255Y-25450D01*
X38246Y-25401D01*
X38246Y-24512D01*
X38239Y-24415D01*
X38234Y-24391D01*
X38192Y-24336D01*
X38028Y-24500D01*
X38192Y-24663D01*
X38234Y-24608D01*
X38246Y-24512D01*
X38246Y-25401D01*
X38236Y-25353D01*
X38198Y-25261D01*
X38143Y-25178D01*
X38074Y-25108D01*
X37991Y-25052D01*
X37900Y-25014D01*
X37803Y-24994D01*
X37767Y-24994D01*
X37834Y-24989D01*
X37858Y-24984D01*
X37913Y-24942D01*
X37913Y-24057D01*
X37858Y-24015D01*
X37762Y-24003D01*
X37665Y-24010D01*
X37641Y-24015D01*
X37586Y-24057D01*
X37750Y-24221D01*
X37913Y-24057D01*
X37913Y-24942D01*
X37750Y-24778D01*
X37586Y-24942D01*
X37641Y-24984D01*
X37717Y-24993D01*
X37703Y-24993D01*
X37606Y-25012D01*
X37514Y-25049D01*
X37471Y-25077D01*
X37471Y-24500D01*
X37307Y-24336D01*
X37265Y-24391D01*
X37253Y-24487D01*
X37260Y-24584D01*
X37265Y-24608D01*
X37307Y-24663D01*
X37471Y-24500D01*
X37471Y-25077D01*
X37431Y-25103D01*
X37360Y-25173D01*
X37304Y-25255D01*
X37265Y-25346D01*
X37244Y-25443D01*
X37243Y-25542D01*
X37261Y-25640D01*
X37297Y-25732D01*
X37351Y-25815D01*
X37420Y-25887D01*
X37501Y-25943D01*
X37592Y-25983D01*
X37669Y-26000D01*
X37606Y-26012D01*
X37514Y-26049D01*
X37431Y-26103D01*
X37360Y-26173D01*
X37304Y-26255D01*
X37281Y-26309D01*
X37250Y-26309D01*
X37232Y-26310D01*
X37214Y-26312D01*
X37213Y-26312D01*
X37212Y-26312D01*
X37196Y-26317D01*
X37179Y-26322D01*
X37178Y-26323D01*
X37177Y-26323D01*
X37161Y-26331D01*
X37146Y-26339D01*
X37145Y-26340D01*
X37144Y-26340D01*
X37130Y-26352D01*
X37116Y-26363D01*
X37115Y-26364D01*
X37115Y-26364D01*
X37115Y-26364D01*
X37114Y-26364D01*
X36864Y-26614D01*
X36853Y-26628D01*
X36842Y-26642D01*
X36841Y-26643D01*
X36841Y-26643D01*
X36832Y-26659D01*
X36824Y-26674D01*
X36824Y-26675D01*
X36823Y-26676D01*
X36818Y-26693D01*
X36813Y-26710D01*
X36813Y-26711D01*
X36812Y-26712D01*
X36811Y-26729D01*
X36809Y-26747D01*
X36809Y-26749D01*
X36809Y-26749D01*
X36809Y-26749D01*
X36809Y-26750D01*
X36809Y-35170D01*
X36746Y-35233D01*
X36746Y-27012D01*
X36739Y-26915D01*
X36734Y-26891D01*
X36692Y-26836D01*
X36528Y-27000D01*
X36692Y-27163D01*
X36734Y-27108D01*
X36746Y-27012D01*
X36746Y-35233D01*
X36670Y-35309D01*
X36329Y-35309D01*
X36250Y-35230D01*
X36267Y-35230D01*
X36312Y-35222D01*
X36354Y-35206D01*
X36392Y-35182D01*
X36425Y-35151D01*
X36451Y-35114D01*
X36469Y-35073D01*
X36476Y-35043D01*
X36635Y-34885D01*
X36646Y-34871D01*
X36657Y-34857D01*
X36658Y-34856D01*
X36658Y-34856D01*
X36667Y-34840D01*
X36675Y-34825D01*
X36675Y-34824D01*
X36676Y-34823D01*
X36681Y-34806D01*
X36686Y-34789D01*
X36686Y-34788D01*
X36687Y-34787D01*
X36688Y-34770D01*
X36690Y-34752D01*
X36690Y-34750D01*
X36690Y-34750D01*
X36690Y-34750D01*
X36690Y-34750D01*
X36690Y-28500D01*
X36689Y-28482D01*
X36687Y-28464D01*
X36687Y-28464D01*
X36687Y-28464D01*
X36687Y-28463D01*
X36687Y-28462D01*
X36682Y-28446D01*
X36677Y-28429D01*
X36677Y-28428D01*
X36677Y-28428D01*
X36676Y-28427D01*
X36676Y-28427D01*
X36668Y-28411D01*
X36660Y-28396D01*
X36659Y-28395D01*
X36659Y-28395D01*
X36659Y-28394D01*
X36659Y-28394D01*
X36647Y-28380D01*
X36636Y-28366D01*
X36636Y-28366D01*
X36636Y-28366D01*
X36636Y-28366D01*
X36635Y-28365D01*
X36635Y-28365D01*
X36635Y-28365D01*
X36635Y-28364D01*
X36413Y-28143D01*
X36413Y-27442D01*
X36413Y-26557D01*
X36358Y-26515D01*
X36262Y-26503D01*
X36165Y-26510D01*
X36141Y-26515D01*
X36086Y-26557D01*
X36250Y-26721D01*
X36413Y-26557D01*
X36413Y-27442D01*
X36250Y-27278D01*
X36086Y-27442D01*
X36141Y-27484D01*
X36237Y-27496D01*
X36334Y-27489D01*
X36358Y-27484D01*
X36413Y-27442D01*
X36413Y-28143D01*
X35971Y-27701D01*
X35971Y-27000D01*
X35807Y-26836D01*
X35765Y-26891D01*
X35753Y-26987D01*
X35760Y-27084D01*
X35765Y-27108D01*
X35807Y-27163D01*
X35971Y-27000D01*
X35971Y-27701D01*
X34940Y-26670D01*
X34940Y-25190D01*
X35781Y-25190D01*
X35797Y-25232D01*
X35851Y-25315D01*
X35920Y-25387D01*
X36001Y-25443D01*
X36092Y-25483D01*
X36189Y-25504D01*
X36289Y-25506D01*
X36386Y-25489D01*
X36479Y-25453D01*
X36562Y-25400D01*
X36634Y-25332D01*
X36692Y-25251D01*
X36732Y-25160D01*
X36754Y-25063D01*
X36755Y-24950D01*
X36736Y-24853D01*
X36698Y-24761D01*
X36643Y-24678D01*
X36574Y-24608D01*
X36491Y-24552D01*
X36400Y-24514D01*
X36303Y-24494D01*
X36203Y-24493D01*
X36106Y-24512D01*
X36014Y-24549D01*
X35931Y-24603D01*
X35860Y-24673D01*
X35804Y-24755D01*
X35781Y-24809D01*
X34750Y-24809D01*
X33718Y-24809D01*
X33698Y-24761D01*
X33643Y-24678D01*
X33574Y-24608D01*
X33491Y-24552D01*
X33400Y-24514D01*
X33303Y-24494D01*
X33203Y-24493D01*
X33106Y-24512D01*
X33014Y-24549D01*
X32931Y-24603D01*
X32860Y-24673D01*
X32804Y-24755D01*
X32765Y-24846D01*
X32744Y-24943D01*
X32743Y-25042D01*
X32761Y-25140D01*
X32797Y-25232D01*
X32851Y-25315D01*
X32920Y-25387D01*
X33001Y-25443D01*
X33092Y-25483D01*
X33189Y-25504D01*
X33289Y-25506D01*
X33386Y-25489D01*
X33479Y-25453D01*
X33562Y-25400D01*
X33634Y-25332D01*
X33692Y-25251D01*
X33718Y-25190D01*
X34559Y-25190D01*
X34559Y-26750D01*
X34560Y-26767D01*
X34562Y-26785D01*
X34562Y-26786D01*
X34562Y-26787D01*
X34567Y-26803D01*
X34572Y-26820D01*
X34573Y-26821D01*
X34573Y-26822D01*
X34581Y-26838D01*
X34589Y-26853D01*
X34590Y-26854D01*
X34590Y-26855D01*
X34602Y-26869D01*
X34613Y-26883D01*
X34614Y-26884D01*
X34614Y-26884D01*
X34614Y-26884D01*
X34614Y-26885D01*
X36309Y-28579D01*
X36309Y-34670D01*
X36206Y-34773D01*
X36184Y-34777D01*
X36142Y-34794D01*
X36104Y-34819D01*
X36072Y-34851D01*
X36047Y-34888D01*
X36029Y-34930D01*
X36020Y-34974D01*
X36019Y-35019D01*
X36027Y-35061D01*
X36020Y-35061D01*
X36002Y-35059D01*
X36000Y-35059D01*
X36000Y-35059D01*
X36000Y-35059D01*
X36000Y-35059D01*
X32250Y-35059D01*
X27190Y-35059D01*
X27190Y-32250D01*
X27190Y-32079D01*
X27293Y-31976D01*
X27312Y-31972D01*
X27354Y-31956D01*
X27392Y-31932D01*
X27425Y-31901D01*
X27451Y-31864D01*
X27469Y-31823D01*
X27479Y-31779D01*
X27480Y-31727D01*
X27471Y-31683D01*
X27454Y-31641D01*
X27429Y-31603D01*
X27397Y-31571D01*
X27360Y-31546D01*
X27318Y-31528D01*
X27274Y-31519D01*
X27229Y-31519D01*
X27184Y-31527D01*
X27142Y-31544D01*
X27104Y-31569D01*
X27072Y-31601D01*
X27047Y-31638D01*
X27029Y-31680D01*
X27023Y-31706D01*
X26864Y-31864D01*
X26853Y-31878D01*
X26842Y-31892D01*
X26841Y-31893D01*
X26841Y-31893D01*
X26832Y-31909D01*
X26824Y-31924D01*
X26824Y-31925D01*
X26823Y-31926D01*
X26818Y-31943D01*
X26813Y-31960D01*
X26813Y-31961D01*
X26812Y-31962D01*
X26811Y-31979D01*
X26809Y-31997D01*
X26809Y-31999D01*
X26809Y-31999D01*
X26809Y-31999D01*
X26809Y-32000D01*
X26809Y-32250D01*
X26809Y-35087D01*
X26807Y-35088D01*
X26779Y-35128D01*
X26760Y-35174D01*
X26750Y-35221D01*
X26749Y-35271D01*
X26758Y-35319D01*
X26776Y-35364D01*
X26803Y-35406D01*
X26837Y-35441D01*
X26877Y-35469D01*
X26922Y-35488D01*
X26970Y-35499D01*
X27019Y-35500D01*
X27067Y-35491D01*
X27113Y-35474D01*
X27154Y-35447D01*
X27162Y-35440D01*
X32250Y-35440D01*
X35920Y-35440D01*
X36114Y-35635D01*
X36128Y-35646D01*
X36142Y-35657D01*
X36143Y-35658D01*
X36143Y-35658D01*
X36159Y-35667D01*
X36174Y-35675D01*
X36175Y-35675D01*
X36176Y-35676D01*
X36193Y-35681D01*
X36210Y-35686D01*
X36211Y-35686D01*
X36212Y-35687D01*
X36229Y-35688D01*
X36247Y-35690D01*
X36249Y-35690D01*
X36249Y-35690D01*
X36249Y-35690D01*
X36250Y-35690D01*
X36750Y-35690D01*
X36767Y-35689D01*
X36785Y-35687D01*
X36786Y-35687D01*
X36787Y-35687D01*
X36803Y-35682D01*
X36820Y-35677D01*
X36821Y-35676D01*
X36822Y-35676D01*
X36838Y-35668D01*
X36853Y-35660D01*
X36854Y-35659D01*
X36855Y-35659D01*
X36869Y-35647D01*
X36883Y-35636D01*
X36884Y-35635D01*
X36884Y-35635D01*
X36884Y-35635D01*
X36885Y-35635D01*
X37135Y-35385D01*
X37146Y-35371D01*
X37157Y-35357D01*
X37158Y-35356D01*
X37158Y-35356D01*
X37167Y-35340D01*
X37175Y-35325D01*
X37175Y-35324D01*
X37176Y-35323D01*
X37181Y-35306D01*
X37186Y-35289D01*
X37186Y-35288D01*
X37187Y-35287D01*
X37188Y-35270D01*
X37190Y-35252D01*
X37190Y-35250D01*
X37190Y-35250D01*
X37190Y-35250D01*
X37190Y-35250D01*
X37190Y-30680D01*
X37210Y-30686D01*
X37247Y-30690D01*
X37250Y-30690D01*
X37280Y-30687D01*
X37297Y-30732D01*
X37351Y-30815D01*
X37420Y-30887D01*
X37501Y-30943D01*
X37592Y-30983D01*
X37669Y-31000D01*
X37606Y-31012D01*
X37514Y-31049D01*
X37431Y-31103D01*
X37360Y-31173D01*
X37304Y-31255D01*
X37265Y-31346D01*
X37244Y-31443D01*
X37243Y-31542D01*
X37261Y-31640D01*
X37297Y-31732D01*
X37351Y-31815D01*
X37420Y-31887D01*
X37501Y-31943D01*
X37592Y-31983D01*
X37669Y-32000D01*
X37606Y-32012D01*
X37514Y-32049D01*
X37431Y-32103D01*
X37360Y-32173D01*
X37304Y-32255D01*
X37265Y-32346D01*
X37244Y-32443D01*
X37243Y-32542D01*
X37261Y-32640D01*
X37297Y-32732D01*
X37351Y-32815D01*
X37420Y-32887D01*
X37501Y-32943D01*
X37592Y-32983D01*
X37669Y-33000D01*
X37606Y-33012D01*
X37514Y-33049D01*
X37431Y-33103D01*
X37360Y-33173D01*
X37304Y-33255D01*
X37265Y-33346D01*
X37244Y-33443D01*
X37243Y-33542D01*
X37261Y-33640D01*
X37297Y-33732D01*
X37351Y-33815D01*
X37420Y-33887D01*
X37501Y-33943D01*
X37592Y-33983D01*
X37669Y-34000D01*
X37606Y-34012D01*
X37514Y-34049D01*
X37431Y-34103D01*
X37360Y-34173D01*
X37304Y-34255D01*
X37265Y-34346D01*
X37244Y-34443D01*
X37243Y-34542D01*
X37261Y-34640D01*
X37297Y-34732D01*
X37351Y-34815D01*
X37420Y-34887D01*
X37501Y-34943D01*
X37592Y-34983D01*
X37669Y-35000D01*
X37606Y-35012D01*
X37514Y-35049D01*
X37431Y-35103D01*
X37360Y-35173D01*
X37304Y-35255D01*
X37265Y-35346D01*
X37244Y-35443D01*
X37243Y-35542D01*
X37261Y-35640D01*
X37297Y-35732D01*
X37351Y-35815D01*
X37420Y-35887D01*
X37501Y-35943D01*
X37592Y-35983D01*
X37689Y-36004D01*
X37789Y-36006D01*
X37886Y-35989D01*
X37979Y-35953D01*
X38062Y-35900D01*
X38134Y-35832D01*
X38192Y-35751D01*
X38232Y-35660D01*
X38254Y-35563D01*
X38255Y-35450D01*
X38255Y-37881D01*
X38114Y-37822D01*
X37878Y-37773D01*
X37638Y-37771D01*
X37401Y-37817D01*
X37178Y-37907D01*
X36977Y-38038D01*
X36805Y-38207D01*
X36669Y-38405D01*
X36574Y-38627D01*
X36524Y-38862D01*
X36521Y-39103D01*
X36564Y-39339D01*
X36653Y-39563D01*
X36783Y-39765D01*
X36950Y-39939D01*
X37148Y-40076D01*
X37270Y-40129D01*
X33230Y-40129D01*
X33230Y-36227D01*
X33221Y-36183D01*
X33204Y-36141D01*
X33179Y-36103D01*
X33147Y-36071D01*
X33110Y-36046D01*
X33068Y-36028D01*
X33024Y-36019D01*
X32979Y-36019D01*
X32934Y-36027D01*
X32892Y-36044D01*
X32871Y-36059D01*
X27378Y-36059D01*
X27360Y-36046D01*
X27318Y-36028D01*
X27274Y-36019D01*
X27229Y-36019D01*
X27184Y-36027D01*
X27142Y-36044D01*
X27104Y-36069D01*
X27072Y-36101D01*
X27047Y-36138D01*
X27029Y-36180D01*
X27020Y-36224D01*
X27019Y-36269D01*
X27027Y-36313D01*
X27044Y-36355D01*
X27068Y-36393D01*
X27100Y-36426D01*
X27137Y-36452D01*
X27178Y-36470D01*
X27222Y-36479D01*
X27267Y-36480D01*
X27312Y-36472D01*
X27354Y-36456D01*
X27378Y-36440D01*
X32871Y-36440D01*
X32887Y-36452D01*
X32928Y-36470D01*
X32972Y-36479D01*
X33017Y-36480D01*
X33062Y-36472D01*
X33104Y-36456D01*
X33142Y-36432D01*
X33175Y-36401D01*
X33201Y-36364D01*
X33219Y-36323D01*
X33229Y-36279D01*
X33230Y-36227D01*
X33230Y-40129D01*
X31655Y-40129D01*
X31655Y-38136D01*
X31644Y-38081D01*
X31622Y-38028D01*
X31591Y-37981D01*
X31551Y-37941D01*
X31504Y-37909D01*
X31451Y-37887D01*
X31396Y-37875D01*
X31339Y-37875D01*
X31283Y-37886D01*
X31231Y-37907D01*
X31183Y-37938D01*
X31143Y-37978D01*
X31111Y-38025D01*
X31088Y-38077D01*
X31077Y-38132D01*
X31076Y-38189D01*
X31086Y-38245D01*
X31107Y-38297D01*
X31138Y-38345D01*
X31177Y-38386D01*
X31224Y-38418D01*
X31276Y-38441D01*
X31331Y-38453D01*
X31388Y-38454D01*
X31444Y-38444D01*
X31497Y-38424D01*
X31544Y-38393D01*
X31585Y-38354D01*
X31618Y-38308D01*
X31641Y-38256D01*
X31654Y-38201D01*
X31655Y-38136D01*
X31655Y-40129D01*
X29923Y-40129D01*
X29923Y-38136D01*
X29912Y-38081D01*
X29890Y-38028D01*
X29859Y-37981D01*
X29819Y-37941D01*
X29772Y-37909D01*
X29719Y-37887D01*
X29664Y-37875D01*
X29607Y-37875D01*
X29551Y-37886D01*
X29499Y-37907D01*
X29451Y-37938D01*
X29411Y-37978D01*
X29379Y-38025D01*
X29356Y-38077D01*
X29345Y-38132D01*
X29344Y-38189D01*
X29354Y-38245D01*
X29375Y-38297D01*
X29406Y-38345D01*
X29445Y-38386D01*
X29492Y-38418D01*
X29544Y-38441D01*
X29599Y-38453D01*
X29656Y-38454D01*
X29712Y-38444D01*
X29765Y-38424D01*
X29812Y-38393D01*
X29853Y-38354D01*
X29886Y-38308D01*
X29909Y-38256D01*
X29922Y-38201D01*
X29923Y-38136D01*
X29923Y-40129D01*
X23980Y-40129D01*
X24055Y-40100D01*
X24259Y-39971D01*
X24433Y-39805D01*
X24572Y-39609D01*
X24670Y-39389D01*
X24723Y-39154D01*
X24727Y-38879D01*
X24680Y-38643D01*
X24588Y-38421D01*
X24455Y-38220D01*
X24286Y-38049D01*
X24086Y-37915D01*
X23864Y-37822D01*
X23628Y-37773D01*
X23388Y-37771D01*
X23151Y-37817D01*
X22928Y-37907D01*
X22727Y-38038D01*
X22555Y-38207D01*
X22419Y-38405D01*
X22370Y-38521D01*
X22370Y-24229D01*
X22403Y-24313D01*
X22533Y-24515D01*
X22700Y-24689D01*
X22898Y-24826D01*
X23118Y-24922D01*
X23353Y-24974D01*
X23594Y-24979D01*
X23831Y-24937D01*
X24055Y-24850D01*
X24259Y-24721D01*
X24433Y-24555D01*
X24466Y-24508D01*
X24466Y-26521D01*
X24434Y-26527D01*
X24392Y-26544D01*
X24354Y-26569D01*
X24322Y-26601D01*
X24297Y-26638D01*
X24279Y-26680D01*
X24270Y-26724D01*
X24269Y-26769D01*
X24277Y-26813D01*
X24294Y-26855D01*
X24318Y-26893D01*
X24350Y-26926D01*
X24387Y-26952D01*
X24428Y-26970D01*
X24456Y-26976D01*
X24466Y-26986D01*
X24466Y-29763D01*
X25236Y-30533D01*
X30013Y-30533D01*
X30533Y-30013D01*
X30533Y-29803D01*
X31749Y-31019D01*
X31729Y-31019D01*
X31684Y-31027D01*
X31642Y-31044D01*
X31604Y-31069D01*
X31572Y-31101D01*
X31547Y-31138D01*
X31529Y-31180D01*
X31520Y-31224D01*
X31519Y-31269D01*
X31527Y-31313D01*
X31544Y-31355D01*
X31568Y-31393D01*
X31600Y-31426D01*
X31637Y-31452D01*
X31678Y-31470D01*
X31706Y-31476D01*
X32364Y-32134D01*
X32364Y-32135D01*
X32809Y-32579D01*
X32809Y-33121D01*
X32797Y-33138D01*
X32779Y-33180D01*
X32770Y-33224D01*
X32769Y-33249D01*
X32476Y-32956D01*
X32471Y-32933D01*
X32454Y-32891D01*
X32429Y-32853D01*
X32397Y-32821D01*
X32360Y-32796D01*
X32318Y-32778D01*
X32274Y-32769D01*
X32229Y-32769D01*
X32184Y-32777D01*
X32142Y-32794D01*
X32104Y-32819D01*
X32072Y-32851D01*
X32047Y-32888D01*
X32029Y-32930D01*
X32020Y-32974D01*
X32019Y-33019D01*
X32027Y-33063D01*
X32044Y-33105D01*
X32068Y-33143D01*
X32100Y-33176D01*
X32137Y-33202D01*
X32178Y-33220D01*
X32206Y-33226D01*
X33114Y-34135D01*
X33128Y-34146D01*
X33142Y-34157D01*
X33143Y-34158D01*
X33143Y-34158D01*
X33159Y-34167D01*
X33174Y-34175D01*
X33175Y-34175D01*
X33176Y-34176D01*
X33193Y-34181D01*
X33210Y-34186D01*
X33211Y-34186D01*
X33212Y-34187D01*
X33229Y-34188D01*
X33247Y-34190D01*
X33249Y-34190D01*
X33249Y-34190D01*
X33249Y-34190D01*
X33250Y-34190D01*
X34871Y-34190D01*
X34887Y-34202D01*
X34928Y-34220D01*
X34972Y-34229D01*
X35017Y-34230D01*
X35062Y-34222D01*
X35104Y-34206D01*
X35142Y-34182D01*
X35175Y-34151D01*
X35201Y-34114D01*
X35219Y-34073D01*
X35229Y-34029D01*
X35230Y-33977D01*
X35221Y-33933D01*
X35204Y-33891D01*
X35179Y-33853D01*
X35147Y-33821D01*
X35110Y-33796D01*
X35068Y-33778D01*
X35024Y-33769D01*
X34979Y-33769D01*
X34934Y-33777D01*
X34892Y-33794D01*
X34871Y-33809D01*
X33329Y-33809D01*
X33000Y-33480D01*
X33017Y-33480D01*
X33062Y-33472D01*
X33104Y-33456D01*
X33142Y-33432D01*
X33175Y-33401D01*
X33201Y-33364D01*
X33219Y-33323D01*
X33229Y-33279D01*
X33230Y-33227D01*
X33221Y-33183D01*
X33204Y-33141D01*
X33190Y-33121D01*
X33190Y-32500D01*
X33189Y-32482D01*
X33187Y-32464D01*
X33187Y-32463D01*
X33187Y-32462D01*
X33184Y-32454D01*
X34023Y-33293D01*
X34027Y-33313D01*
X34044Y-33355D01*
X34068Y-33393D01*
X34100Y-33426D01*
X34137Y-33452D01*
X34178Y-33470D01*
X34222Y-33479D01*
X34267Y-33480D01*
X34312Y-33472D01*
X34354Y-33456D01*
X34392Y-33432D01*
X34425Y-33401D01*
X34451Y-33364D01*
X34469Y-33323D01*
X34479Y-33279D01*
X34480Y-33227D01*
X34471Y-33183D01*
X34454Y-33141D01*
X34429Y-33103D01*
X34397Y-33071D01*
X34360Y-33046D01*
X34318Y-33028D01*
X34293Y-33023D01*
X30658Y-29388D01*
X30763Y-29283D01*
X34023Y-32543D01*
X34027Y-32563D01*
X34044Y-32605D01*
X34068Y-32643D01*
X34100Y-32676D01*
X34137Y-32702D01*
X34178Y-32720D01*
X34222Y-32729D01*
X34267Y-32730D01*
X34312Y-32722D01*
X34354Y-32706D01*
X34392Y-32682D01*
X34425Y-32651D01*
X34451Y-32614D01*
X34469Y-32573D01*
X34479Y-32529D01*
X34480Y-32477D01*
X34471Y-32433D01*
X34454Y-32391D01*
X34429Y-32353D01*
X34397Y-32321D01*
X34360Y-32296D01*
X34318Y-32278D01*
X34293Y-32273D01*
X33205Y-31185D01*
X33210Y-31186D01*
X33211Y-31186D01*
X33212Y-31187D01*
X33229Y-31188D01*
X33247Y-31190D01*
X33249Y-31190D01*
X33249Y-31190D01*
X33249Y-31190D01*
X33250Y-31190D01*
X34121Y-31190D01*
X34137Y-31202D01*
X34178Y-31220D01*
X34222Y-31229D01*
X34267Y-31230D01*
X34312Y-31222D01*
X34354Y-31206D01*
X34392Y-31182D01*
X34425Y-31151D01*
X34451Y-31114D01*
X34469Y-31073D01*
X34479Y-31029D01*
X34480Y-30977D01*
X34471Y-30933D01*
X34454Y-30891D01*
X34429Y-30853D01*
X34397Y-30821D01*
X34360Y-30796D01*
X34318Y-30778D01*
X34274Y-30769D01*
X34229Y-30769D01*
X34184Y-30777D01*
X34142Y-30794D01*
X34121Y-30809D01*
X33329Y-30809D01*
X32955Y-30435D01*
X32960Y-30436D01*
X32961Y-30436D01*
X32962Y-30437D01*
X32979Y-30438D01*
X32997Y-30440D01*
X32999Y-30440D01*
X32999Y-30440D01*
X32999Y-30440D01*
X33000Y-30440D01*
X34121Y-30440D01*
X34137Y-30452D01*
X34178Y-30470D01*
X34222Y-30479D01*
X34267Y-30480D01*
X34312Y-30472D01*
X34354Y-30456D01*
X34392Y-30432D01*
X34425Y-30401D01*
X34451Y-30364D01*
X34469Y-30323D01*
X34479Y-30279D01*
X34480Y-30227D01*
X34471Y-30183D01*
X34454Y-30141D01*
X34429Y-30103D01*
X34397Y-30071D01*
X34360Y-30046D01*
X34318Y-30028D01*
X34274Y-30019D01*
X34229Y-30019D01*
X34184Y-30027D01*
X34142Y-30044D01*
X34121Y-30059D01*
X33079Y-30059D01*
X32705Y-29685D01*
X32710Y-29686D01*
X32711Y-29686D01*
X32712Y-29687D01*
X32729Y-29688D01*
X32747Y-29690D01*
X32749Y-29690D01*
X32749Y-29690D01*
X32749Y-29690D01*
X32750Y-29690D01*
X34121Y-29690D01*
X34137Y-29702D01*
X34178Y-29720D01*
X34222Y-29729D01*
X34267Y-29730D01*
X34312Y-29722D01*
X34354Y-29706D01*
X34392Y-29682D01*
X34425Y-29651D01*
X34451Y-29614D01*
X34469Y-29573D01*
X34479Y-29529D01*
X34480Y-29477D01*
X34471Y-29433D01*
X34454Y-29391D01*
X34429Y-29353D01*
X34397Y-29321D01*
X34360Y-29296D01*
X34318Y-29278D01*
X34274Y-29269D01*
X34229Y-29269D01*
X34184Y-29277D01*
X34142Y-29294D01*
X34121Y-29309D01*
X32829Y-29309D01*
X32455Y-28935D01*
X32460Y-28936D01*
X32461Y-28936D01*
X32462Y-28937D01*
X32479Y-28938D01*
X32497Y-28940D01*
X32499Y-28940D01*
X32499Y-28940D01*
X32499Y-28940D01*
X32500Y-28940D01*
X34121Y-28940D01*
X34137Y-28952D01*
X34178Y-28970D01*
X34222Y-28979D01*
X34267Y-28980D01*
X34312Y-28972D01*
X34354Y-28956D01*
X34378Y-28940D01*
X34670Y-28940D01*
X34809Y-29079D01*
X34809Y-33250D01*
X34810Y-33267D01*
X34812Y-33285D01*
X34812Y-33286D01*
X34812Y-33287D01*
X34817Y-33303D01*
X34822Y-33320D01*
X34823Y-33321D01*
X34823Y-33322D01*
X34831Y-33338D01*
X34839Y-33353D01*
X34840Y-33354D01*
X34840Y-33355D01*
X34852Y-33369D01*
X34863Y-33383D01*
X34864Y-33384D01*
X34864Y-33384D01*
X34864Y-33384D01*
X34864Y-33385D01*
X35523Y-34043D01*
X35527Y-34063D01*
X35544Y-34105D01*
X35568Y-34143D01*
X35600Y-34176D01*
X35637Y-34202D01*
X35678Y-34220D01*
X35722Y-34229D01*
X35767Y-34230D01*
X35812Y-34222D01*
X35854Y-34206D01*
X35892Y-34182D01*
X35925Y-34151D01*
X35951Y-34114D01*
X35969Y-34073D01*
X35979Y-34029D01*
X35980Y-33977D01*
X35971Y-33933D01*
X35954Y-33891D01*
X35929Y-33853D01*
X35897Y-33821D01*
X35860Y-33796D01*
X35818Y-33778D01*
X35793Y-33773D01*
X35190Y-33170D01*
X35190Y-29000D01*
X35189Y-28982D01*
X35187Y-28964D01*
X35187Y-28963D01*
X35187Y-28962D01*
X35182Y-28946D01*
X35177Y-28929D01*
X35176Y-28928D01*
X35176Y-28927D01*
X35168Y-28911D01*
X35160Y-28896D01*
X35159Y-28895D01*
X35159Y-28894D01*
X35147Y-28880D01*
X35136Y-28866D01*
X35135Y-28865D01*
X35135Y-28865D01*
X35135Y-28865D01*
X35135Y-28864D01*
X34885Y-28614D01*
X34871Y-28603D01*
X34857Y-28592D01*
X34856Y-28591D01*
X34856Y-28591D01*
X34840Y-28582D01*
X34825Y-28574D01*
X34824Y-28574D01*
X34823Y-28573D01*
X34806Y-28568D01*
X34789Y-28563D01*
X34788Y-28563D01*
X34787Y-28562D01*
X34770Y-28561D01*
X34752Y-28559D01*
X34750Y-28559D01*
X34750Y-28559D01*
X34750Y-28559D01*
X34750Y-28559D01*
X34378Y-28559D01*
X34360Y-28546D01*
X34318Y-28528D01*
X34274Y-28519D01*
X34229Y-28519D01*
X34184Y-28527D01*
X34142Y-28544D01*
X34121Y-28559D01*
X32579Y-28559D01*
X32205Y-28185D01*
X32210Y-28186D01*
X32211Y-28186D01*
X32212Y-28187D01*
X32229Y-28188D01*
X32247Y-28190D01*
X32249Y-28190D01*
X32249Y-28190D01*
X32249Y-28190D01*
X32250Y-28190D01*
X34121Y-28190D01*
X34137Y-28202D01*
X34178Y-28220D01*
X34222Y-28229D01*
X34267Y-28230D01*
X34312Y-28222D01*
X34354Y-28206D01*
X34392Y-28182D01*
X34425Y-28151D01*
X34451Y-28114D01*
X34469Y-28073D01*
X34479Y-28029D01*
X34480Y-27977D01*
X34471Y-27933D01*
X34454Y-27891D01*
X34429Y-27853D01*
X34397Y-27821D01*
X34360Y-27796D01*
X34318Y-27778D01*
X34274Y-27769D01*
X34229Y-27769D01*
X34184Y-27777D01*
X34142Y-27794D01*
X34121Y-27809D01*
X33746Y-27809D01*
X33746Y-27012D01*
X33739Y-26915D01*
X33734Y-26891D01*
X33692Y-26836D01*
X33528Y-27000D01*
X33692Y-27163D01*
X33734Y-27108D01*
X33746Y-27012D01*
X33746Y-27809D01*
X33413Y-27809D01*
X33413Y-27442D01*
X33413Y-26557D01*
X33358Y-26515D01*
X33262Y-26503D01*
X33165Y-26510D01*
X33141Y-26515D01*
X33086Y-26557D01*
X33250Y-26721D01*
X33413Y-26557D01*
X33413Y-27442D01*
X33250Y-27278D01*
X33086Y-27442D01*
X33141Y-27484D01*
X33237Y-27496D01*
X33334Y-27489D01*
X33358Y-27484D01*
X33413Y-27442D01*
X33413Y-27809D01*
X32971Y-27809D01*
X32971Y-27000D01*
X32807Y-26836D01*
X32765Y-26891D01*
X32753Y-26987D01*
X32760Y-27084D01*
X32765Y-27108D01*
X32807Y-27163D01*
X32971Y-27000D01*
X32971Y-27809D01*
X32329Y-27809D01*
X31783Y-27263D01*
X31783Y-25513D01*
X32533Y-24763D01*
X32533Y-22620D01*
X38879Y-22620D01*
X38879Y-38520D01*
M02*
