G04 (created by PCBNEW (2013-may-18)-stable) date Fri 12 Dec 2014 10:12:50 AM CET*
%MOIN*%
G04 Gerber Fmt 3.4, Leading zero omitted, Abs format*
%FSLAX34Y34*%
G01*
G70*
G90*
G04 APERTURE LIST*
%ADD10C,0.00590551*%
G04 APERTURE END LIST*
G54D10*
G36*
X24339Y-23670D02*
X24337Y-23852D01*
X24299Y-24019D01*
X24235Y-24164D01*
X24136Y-24303D01*
X24021Y-24413D01*
X23877Y-24504D01*
X23729Y-24561D01*
X23561Y-24591D01*
X23403Y-24588D01*
X23236Y-24551D01*
X23091Y-24488D01*
X22950Y-24390D01*
X22840Y-24276D01*
X22748Y-24132D01*
X22689Y-23985D01*
X22658Y-23817D01*
X22661Y-23659D01*
X22696Y-23491D01*
X22758Y-23346D01*
X22855Y-23204D01*
X22968Y-23094D01*
X23112Y-23000D01*
X23258Y-22941D01*
X23427Y-22909D01*
X23584Y-22910D01*
X23753Y-22945D01*
X23898Y-23006D01*
X24040Y-23102D01*
X24151Y-23213D01*
X24246Y-23357D01*
X24306Y-23502D01*
X24339Y-23670D01*
X24339Y-23670D01*
G37*
G36*
X24339Y-38920D02*
X24337Y-39102D01*
X24299Y-39269D01*
X24235Y-39414D01*
X24136Y-39553D01*
X24021Y-39663D01*
X23877Y-39754D01*
X23729Y-39811D01*
X23561Y-39841D01*
X23403Y-39838D01*
X23236Y-39801D01*
X23091Y-39738D01*
X22950Y-39640D01*
X22840Y-39526D01*
X22748Y-39382D01*
X22689Y-39235D01*
X22658Y-39067D01*
X22661Y-38909D01*
X22696Y-38741D01*
X22758Y-38596D01*
X22855Y-38454D01*
X22968Y-38344D01*
X23112Y-38250D01*
X23258Y-38191D01*
X23427Y-38159D01*
X23584Y-38160D01*
X23753Y-38195D01*
X23898Y-38256D01*
X24040Y-38352D01*
X24151Y-38463D01*
X24246Y-38607D01*
X24306Y-38752D01*
X24339Y-38920D01*
X24339Y-38920D01*
G37*
G36*
X24658Y-26737D02*
X24657Y-26767D01*
X24649Y-26802D01*
X24639Y-26825D01*
X24618Y-26855D01*
X24599Y-26873D01*
X24568Y-26892D01*
X24545Y-26901D01*
X24509Y-26908D01*
X24484Y-26907D01*
X24448Y-26899D01*
X24425Y-26889D01*
X24394Y-26868D01*
X24377Y-26850D01*
X24357Y-26819D01*
X24348Y-26796D01*
X24341Y-26759D01*
X24342Y-26735D01*
X24349Y-26698D01*
X24359Y-26676D01*
X24380Y-26645D01*
X24397Y-26628D01*
X24429Y-26607D01*
X24451Y-26598D01*
X24489Y-26591D01*
X24512Y-26591D01*
X24550Y-26599D01*
X24572Y-26608D01*
X24603Y-26630D01*
X24620Y-26646D01*
X24641Y-26678D01*
X24650Y-26700D01*
X24658Y-26737D01*
X24658Y-26737D01*
G37*
G36*
X27158Y-26737D02*
X27157Y-26767D01*
X27149Y-26802D01*
X27139Y-26825D01*
X27118Y-26855D01*
X27099Y-26873D01*
X27068Y-26892D01*
X27045Y-26901D01*
X27009Y-26908D01*
X26984Y-26907D01*
X26948Y-26899D01*
X26925Y-26889D01*
X26894Y-26868D01*
X26877Y-26850D01*
X26857Y-26819D01*
X26848Y-26796D01*
X26841Y-26759D01*
X26842Y-26735D01*
X26849Y-26698D01*
X26859Y-26676D01*
X26880Y-26645D01*
X26897Y-26628D01*
X26929Y-26607D01*
X26951Y-26598D01*
X26989Y-26591D01*
X27012Y-26591D01*
X27050Y-26599D01*
X27072Y-26608D01*
X27103Y-26630D01*
X27120Y-26646D01*
X27141Y-26678D01*
X27150Y-26700D01*
X27158Y-26737D01*
X27158Y-26737D01*
G37*
G36*
X27177Y-35235D02*
X27177Y-35269D01*
X27168Y-35308D01*
X27156Y-35335D01*
X27133Y-35368D01*
X27112Y-35388D01*
X27077Y-35410D01*
X27050Y-35420D01*
X27010Y-35428D01*
X26981Y-35427D01*
X26941Y-35418D01*
X26915Y-35407D01*
X26881Y-35383D01*
X26862Y-35363D01*
X26839Y-35328D01*
X26829Y-35302D01*
X26821Y-35261D01*
X26822Y-35233D01*
X26831Y-35192D01*
X26842Y-35167D01*
X26865Y-35132D01*
X26885Y-35113D01*
X26920Y-35090D01*
X26946Y-35079D01*
X26987Y-35072D01*
X27015Y-35072D01*
X27056Y-35080D01*
X27081Y-35091D01*
X27116Y-35114D01*
X27135Y-35134D01*
X27159Y-35169D01*
X27169Y-35194D01*
X27177Y-35235D01*
X27177Y-35235D01*
G37*
G36*
X27408Y-31737D02*
X27407Y-31767D01*
X27399Y-31802D01*
X27389Y-31825D01*
X27368Y-31855D01*
X27349Y-31873D01*
X27318Y-31892D01*
X27295Y-31901D01*
X27259Y-31908D01*
X27234Y-31907D01*
X27198Y-31899D01*
X27175Y-31889D01*
X27144Y-31868D01*
X27127Y-31850D01*
X27107Y-31819D01*
X27098Y-31796D01*
X27091Y-31759D01*
X27092Y-31735D01*
X27099Y-31698D01*
X27109Y-31676D01*
X27130Y-31645D01*
X27147Y-31628D01*
X27179Y-31607D01*
X27201Y-31598D01*
X27239Y-31591D01*
X27262Y-31591D01*
X27300Y-31599D01*
X27322Y-31608D01*
X27353Y-31630D01*
X27370Y-31646D01*
X27391Y-31678D01*
X27400Y-31700D01*
X27408Y-31737D01*
X27408Y-31737D01*
G37*
G36*
X27408Y-36237D02*
X27407Y-36267D01*
X27399Y-36302D01*
X27389Y-36325D01*
X27368Y-36355D01*
X27349Y-36373D01*
X27318Y-36392D01*
X27295Y-36401D01*
X27259Y-36408D01*
X27234Y-36407D01*
X27198Y-36399D01*
X27175Y-36389D01*
X27144Y-36368D01*
X27127Y-36350D01*
X27107Y-36319D01*
X27098Y-36296D01*
X27091Y-36259D01*
X27092Y-36235D01*
X27099Y-36198D01*
X27109Y-36176D01*
X27130Y-36145D01*
X27147Y-36128D01*
X27179Y-36107D01*
X27201Y-36098D01*
X27239Y-36091D01*
X27262Y-36091D01*
X27300Y-36099D01*
X27322Y-36108D01*
X27353Y-36130D01*
X27370Y-36146D01*
X27391Y-36178D01*
X27400Y-36200D01*
X27408Y-36237D01*
X27408Y-36237D01*
G37*
G36*
X27658Y-27487D02*
X27657Y-27517D01*
X27649Y-27552D01*
X27639Y-27575D01*
X27618Y-27605D01*
X27599Y-27623D01*
X27568Y-27642D01*
X27545Y-27651D01*
X27509Y-27658D01*
X27484Y-27657D01*
X27448Y-27649D01*
X27425Y-27639D01*
X27394Y-27618D01*
X27377Y-27600D01*
X27357Y-27569D01*
X27348Y-27546D01*
X27341Y-27509D01*
X27342Y-27485D01*
X27349Y-27448D01*
X27359Y-27426D01*
X27380Y-27395D01*
X27397Y-27378D01*
X27429Y-27357D01*
X27451Y-27348D01*
X27489Y-27341D01*
X27512Y-27341D01*
X27550Y-27349D01*
X27572Y-27358D01*
X27603Y-27380D01*
X27620Y-27396D01*
X27641Y-27428D01*
X27650Y-27450D01*
X27658Y-27487D01*
X27658Y-27487D01*
G37*
G36*
X27908Y-39237D02*
X27907Y-39267D01*
X27899Y-39302D01*
X27889Y-39325D01*
X27868Y-39355D01*
X27849Y-39373D01*
X27818Y-39392D01*
X27795Y-39401D01*
X27759Y-39408D01*
X27734Y-39407D01*
X27698Y-39399D01*
X27675Y-39389D01*
X27644Y-39368D01*
X27627Y-39350D01*
X27607Y-39319D01*
X27598Y-39296D01*
X27591Y-39259D01*
X27592Y-39235D01*
X27599Y-39198D01*
X27609Y-39176D01*
X27630Y-39145D01*
X27647Y-39128D01*
X27679Y-39107D01*
X27701Y-39098D01*
X27739Y-39091D01*
X27762Y-39091D01*
X27800Y-39099D01*
X27822Y-39108D01*
X27853Y-39130D01*
X27870Y-39146D01*
X27891Y-39178D01*
X27900Y-39200D01*
X27908Y-39237D01*
X27908Y-39237D01*
G37*
G36*
X28408Y-27737D02*
X28407Y-27767D01*
X28399Y-27802D01*
X28389Y-27825D01*
X28368Y-27855D01*
X28349Y-27873D01*
X28318Y-27892D01*
X28295Y-27901D01*
X28259Y-27908D01*
X28234Y-27907D01*
X28198Y-27899D01*
X28175Y-27889D01*
X28144Y-27868D01*
X28127Y-27850D01*
X28107Y-27819D01*
X28098Y-27796D01*
X28091Y-27759D01*
X28092Y-27735D01*
X28099Y-27698D01*
X28109Y-27676D01*
X28130Y-27645D01*
X28147Y-27628D01*
X28179Y-27607D01*
X28201Y-27598D01*
X28239Y-27591D01*
X28262Y-27591D01*
X28300Y-27599D01*
X28322Y-27608D01*
X28353Y-27630D01*
X28370Y-27646D01*
X28391Y-27678D01*
X28400Y-27700D01*
X28408Y-27737D01*
X28408Y-27737D01*
G37*
G36*
X29158Y-27237D02*
X29157Y-27267D01*
X29149Y-27302D01*
X29139Y-27325D01*
X29118Y-27355D01*
X29099Y-27373D01*
X29068Y-27392D01*
X29045Y-27401D01*
X29009Y-27408D01*
X28984Y-27407D01*
X28948Y-27399D01*
X28925Y-27389D01*
X28894Y-27368D01*
X28877Y-27350D01*
X28857Y-27319D01*
X28848Y-27296D01*
X28841Y-27259D01*
X28842Y-27235D01*
X28849Y-27198D01*
X28859Y-27176D01*
X28880Y-27145D01*
X28897Y-27128D01*
X28929Y-27107D01*
X28951Y-27098D01*
X28989Y-27091D01*
X29012Y-27091D01*
X29050Y-27099D01*
X29072Y-27108D01*
X29103Y-27130D01*
X29120Y-27146D01*
X29141Y-27178D01*
X29150Y-27200D01*
X29158Y-27237D01*
X29158Y-27237D01*
G37*
G36*
X29658Y-25237D02*
X29657Y-25267D01*
X29649Y-25302D01*
X29639Y-25325D01*
X29618Y-25355D01*
X29599Y-25373D01*
X29568Y-25392D01*
X29545Y-25401D01*
X29509Y-25408D01*
X29484Y-25407D01*
X29448Y-25399D01*
X29425Y-25389D01*
X29394Y-25368D01*
X29377Y-25350D01*
X29357Y-25319D01*
X29348Y-25296D01*
X29341Y-25259D01*
X29342Y-25235D01*
X29349Y-25198D01*
X29359Y-25176D01*
X29380Y-25145D01*
X29397Y-25128D01*
X29429Y-25107D01*
X29451Y-25098D01*
X29489Y-25091D01*
X29512Y-25091D01*
X29550Y-25099D01*
X29572Y-25108D01*
X29603Y-25130D01*
X29620Y-25146D01*
X29641Y-25178D01*
X29650Y-25200D01*
X29658Y-25237D01*
X29658Y-25237D01*
G37*
G36*
X29658Y-26737D02*
X29657Y-26767D01*
X29649Y-26802D01*
X29639Y-26825D01*
X29618Y-26855D01*
X29599Y-26873D01*
X29568Y-26892D01*
X29545Y-26901D01*
X29509Y-26908D01*
X29484Y-26907D01*
X29448Y-26899D01*
X29425Y-26889D01*
X29394Y-26868D01*
X29377Y-26850D01*
X29357Y-26819D01*
X29348Y-26796D01*
X29341Y-26759D01*
X29342Y-26735D01*
X29349Y-26698D01*
X29359Y-26676D01*
X29380Y-26645D01*
X29397Y-26628D01*
X29429Y-26607D01*
X29451Y-26598D01*
X29489Y-26591D01*
X29512Y-26591D01*
X29550Y-26599D01*
X29572Y-26608D01*
X29603Y-26630D01*
X29620Y-26646D01*
X29641Y-26678D01*
X29650Y-26700D01*
X29658Y-26737D01*
X29658Y-26737D01*
G37*
G36*
X29850Y-38146D02*
X29850Y-38189D01*
X29839Y-38236D01*
X29824Y-38270D01*
X29796Y-38309D01*
X29770Y-38334D01*
X29729Y-38360D01*
X29695Y-38373D01*
X29647Y-38382D01*
X29611Y-38381D01*
X29563Y-38371D01*
X29530Y-38356D01*
X29490Y-38328D01*
X29465Y-38302D01*
X29438Y-38261D01*
X29425Y-38228D01*
X29416Y-38179D01*
X29417Y-38144D01*
X29427Y-38095D01*
X29441Y-38063D01*
X29469Y-38022D01*
X29494Y-37997D01*
X29536Y-37970D01*
X29569Y-37957D01*
X29617Y-37947D01*
X29653Y-37948D01*
X29701Y-37958D01*
X29734Y-37971D01*
X29775Y-37999D01*
X29800Y-38024D01*
X29828Y-38066D01*
X29841Y-38098D01*
X29850Y-38146D01*
X29850Y-38146D01*
G37*
G36*
X31582Y-38146D02*
X31582Y-38189D01*
X31571Y-38236D01*
X31556Y-38270D01*
X31528Y-38309D01*
X31502Y-38334D01*
X31461Y-38360D01*
X31427Y-38373D01*
X31379Y-38382D01*
X31343Y-38381D01*
X31295Y-38371D01*
X31262Y-38356D01*
X31222Y-38328D01*
X31197Y-38302D01*
X31170Y-38261D01*
X31157Y-38228D01*
X31148Y-38179D01*
X31149Y-38144D01*
X31159Y-38095D01*
X31173Y-38063D01*
X31201Y-38022D01*
X31226Y-37997D01*
X31268Y-37970D01*
X31301Y-37957D01*
X31349Y-37947D01*
X31385Y-37948D01*
X31433Y-37958D01*
X31466Y-37971D01*
X31507Y-37999D01*
X31532Y-38024D01*
X31560Y-38066D01*
X31573Y-38098D01*
X31582Y-38146D01*
X31582Y-38146D01*
G37*
G36*
X31908Y-31237D02*
X31907Y-31267D01*
X31899Y-31302D01*
X31889Y-31325D01*
X31868Y-31355D01*
X31849Y-31373D01*
X31818Y-31392D01*
X31795Y-31401D01*
X31759Y-31408D01*
X31734Y-31407D01*
X31698Y-31399D01*
X31675Y-31389D01*
X31644Y-31368D01*
X31627Y-31350D01*
X31607Y-31319D01*
X31598Y-31296D01*
X31591Y-31259D01*
X31592Y-31235D01*
X31599Y-31198D01*
X31609Y-31176D01*
X31630Y-31145D01*
X31647Y-31128D01*
X31679Y-31107D01*
X31701Y-31098D01*
X31739Y-31091D01*
X31762Y-31091D01*
X31800Y-31099D01*
X31822Y-31108D01*
X31853Y-31130D01*
X31870Y-31146D01*
X31891Y-31178D01*
X31900Y-31200D01*
X31908Y-31237D01*
X31908Y-31237D01*
G37*
G36*
X32408Y-32987D02*
X32407Y-33017D01*
X32399Y-33052D01*
X32389Y-33075D01*
X32368Y-33105D01*
X32349Y-33123D01*
X32318Y-33142D01*
X32295Y-33151D01*
X32259Y-33158D01*
X32234Y-33157D01*
X32198Y-33149D01*
X32175Y-33139D01*
X32144Y-33118D01*
X32127Y-33100D01*
X32107Y-33069D01*
X32098Y-33046D01*
X32091Y-33009D01*
X32092Y-32985D01*
X32099Y-32948D01*
X32109Y-32926D01*
X32130Y-32895D01*
X32147Y-32878D01*
X32179Y-32857D01*
X32201Y-32848D01*
X32239Y-32841D01*
X32262Y-32841D01*
X32300Y-32849D01*
X32322Y-32858D01*
X32353Y-32880D01*
X32370Y-32896D01*
X32391Y-32928D01*
X32400Y-32950D01*
X32408Y-32987D01*
X32408Y-32987D01*
G37*
G36*
X33158Y-33237D02*
X33157Y-33267D01*
X33149Y-33302D01*
X33139Y-33325D01*
X33118Y-33355D01*
X33099Y-33373D01*
X33068Y-33392D01*
X33045Y-33401D01*
X33009Y-33408D01*
X32984Y-33407D01*
X32948Y-33399D01*
X32925Y-33389D01*
X32894Y-33368D01*
X32877Y-33350D01*
X32857Y-33319D01*
X32848Y-33296D01*
X32841Y-33259D01*
X32842Y-33235D01*
X32849Y-33198D01*
X32859Y-33176D01*
X32880Y-33145D01*
X32897Y-33128D01*
X32929Y-33107D01*
X32951Y-33098D01*
X32989Y-33091D01*
X33012Y-33091D01*
X33050Y-33099D01*
X33072Y-33108D01*
X33103Y-33130D01*
X33120Y-33146D01*
X33141Y-33178D01*
X33150Y-33200D01*
X33158Y-33237D01*
X33158Y-33237D01*
G37*
G36*
X33158Y-36237D02*
X33157Y-36267D01*
X33149Y-36302D01*
X33139Y-36325D01*
X33118Y-36355D01*
X33099Y-36373D01*
X33068Y-36392D01*
X33045Y-36401D01*
X33009Y-36408D01*
X32984Y-36407D01*
X32948Y-36399D01*
X32925Y-36389D01*
X32894Y-36368D01*
X32877Y-36350D01*
X32857Y-36319D01*
X32848Y-36296D01*
X32841Y-36259D01*
X32842Y-36235D01*
X32849Y-36198D01*
X32859Y-36176D01*
X32880Y-36145D01*
X32897Y-36128D01*
X32929Y-36107D01*
X32951Y-36098D01*
X32989Y-36091D01*
X33012Y-36091D01*
X33050Y-36099D01*
X33072Y-36108D01*
X33103Y-36130D01*
X33120Y-36146D01*
X33141Y-36178D01*
X33150Y-36200D01*
X33158Y-36237D01*
X33158Y-36237D01*
G37*
G36*
X33408Y-36987D02*
X33407Y-37017D01*
X33399Y-37052D01*
X33389Y-37075D01*
X33368Y-37105D01*
X33349Y-37123D01*
X33318Y-37142D01*
X33295Y-37151D01*
X33259Y-37158D01*
X33234Y-37157D01*
X33198Y-37149D01*
X33175Y-37139D01*
X33144Y-37118D01*
X33127Y-37100D01*
X33107Y-37069D01*
X33098Y-37046D01*
X33091Y-37009D01*
X33092Y-36985D01*
X33099Y-36948D01*
X33109Y-36926D01*
X33130Y-36895D01*
X33147Y-36878D01*
X33179Y-36857D01*
X33201Y-36848D01*
X33239Y-36841D01*
X33262Y-36841D01*
X33300Y-36849D01*
X33322Y-36858D01*
X33353Y-36880D01*
X33370Y-36896D01*
X33391Y-36928D01*
X33400Y-36950D01*
X33408Y-36987D01*
X33408Y-36987D01*
G37*
G36*
X33408Y-39237D02*
X33407Y-39267D01*
X33399Y-39302D01*
X33389Y-39325D01*
X33368Y-39355D01*
X33349Y-39373D01*
X33318Y-39392D01*
X33295Y-39401D01*
X33259Y-39408D01*
X33234Y-39407D01*
X33198Y-39399D01*
X33175Y-39389D01*
X33144Y-39368D01*
X33127Y-39350D01*
X33107Y-39319D01*
X33098Y-39296D01*
X33091Y-39259D01*
X33092Y-39235D01*
X33099Y-39198D01*
X33109Y-39176D01*
X33130Y-39145D01*
X33147Y-39128D01*
X33179Y-39107D01*
X33201Y-39098D01*
X33239Y-39091D01*
X33262Y-39091D01*
X33300Y-39099D01*
X33322Y-39108D01*
X33353Y-39130D01*
X33370Y-39146D01*
X33391Y-39178D01*
X33400Y-39200D01*
X33408Y-39237D01*
X33408Y-39237D01*
G37*
G36*
X33683Y-24960D02*
X33682Y-25051D01*
X33662Y-25140D01*
X33630Y-25212D01*
X33577Y-25286D01*
X33520Y-25341D01*
X33443Y-25390D01*
X33369Y-25418D01*
X33280Y-25434D01*
X33201Y-25432D01*
X33112Y-25413D01*
X33040Y-25381D01*
X32965Y-25329D01*
X32910Y-25273D01*
X32861Y-25196D01*
X32832Y-25123D01*
X32815Y-25033D01*
X32816Y-24954D01*
X32835Y-24865D01*
X32866Y-24793D01*
X32918Y-24717D01*
X32974Y-24662D01*
X33051Y-24612D01*
X33123Y-24583D01*
X33214Y-24565D01*
X33291Y-24566D01*
X33382Y-24585D01*
X33453Y-24615D01*
X33530Y-24666D01*
X33585Y-24721D01*
X33636Y-24798D01*
X33665Y-24870D01*
X33683Y-24960D01*
X33683Y-24960D01*
G37*
G36*
X33683Y-26960D02*
X33682Y-27051D01*
X33662Y-27140D01*
X33630Y-27212D01*
X33577Y-27286D01*
X33520Y-27341D01*
X33443Y-27390D01*
X33369Y-27418D01*
X33280Y-27434D01*
X33201Y-27432D01*
X33112Y-27413D01*
X33040Y-27381D01*
X32965Y-27329D01*
X32910Y-27273D01*
X32861Y-27196D01*
X32832Y-27123D01*
X32815Y-27033D01*
X32816Y-26954D01*
X32835Y-26865D01*
X32866Y-26793D01*
X32918Y-26717D01*
X32974Y-26662D01*
X33051Y-26612D01*
X33123Y-26583D01*
X33214Y-26565D01*
X33291Y-26566D01*
X33382Y-26585D01*
X33453Y-26615D01*
X33530Y-26666D01*
X33585Y-26721D01*
X33636Y-26798D01*
X33665Y-26870D01*
X33683Y-26960D01*
X33683Y-26960D01*
G37*
G36*
X34408Y-27987D02*
X34407Y-28017D01*
X34399Y-28052D01*
X34389Y-28075D01*
X34368Y-28105D01*
X34349Y-28123D01*
X34318Y-28142D01*
X34295Y-28151D01*
X34259Y-28158D01*
X34234Y-28157D01*
X34198Y-28149D01*
X34175Y-28139D01*
X34144Y-28118D01*
X34127Y-28100D01*
X34107Y-28069D01*
X34098Y-28046D01*
X34091Y-28009D01*
X34092Y-27985D01*
X34099Y-27948D01*
X34109Y-27926D01*
X34130Y-27895D01*
X34147Y-27878D01*
X34179Y-27857D01*
X34201Y-27848D01*
X34239Y-27841D01*
X34262Y-27841D01*
X34300Y-27849D01*
X34322Y-27858D01*
X34353Y-27880D01*
X34370Y-27896D01*
X34391Y-27928D01*
X34400Y-27950D01*
X34408Y-27987D01*
X34408Y-27987D01*
G37*
G36*
X34408Y-28737D02*
X34407Y-28767D01*
X34399Y-28802D01*
X34389Y-28825D01*
X34368Y-28855D01*
X34349Y-28873D01*
X34318Y-28892D01*
X34295Y-28901D01*
X34259Y-28908D01*
X34234Y-28907D01*
X34198Y-28899D01*
X34175Y-28889D01*
X34144Y-28868D01*
X34127Y-28850D01*
X34107Y-28819D01*
X34098Y-28796D01*
X34091Y-28759D01*
X34092Y-28735D01*
X34099Y-28698D01*
X34109Y-28676D01*
X34130Y-28645D01*
X34147Y-28628D01*
X34179Y-28607D01*
X34201Y-28598D01*
X34239Y-28591D01*
X34262Y-28591D01*
X34300Y-28599D01*
X34322Y-28608D01*
X34353Y-28630D01*
X34370Y-28646D01*
X34391Y-28678D01*
X34400Y-28700D01*
X34408Y-28737D01*
X34408Y-28737D01*
G37*
G36*
X34408Y-29487D02*
X34407Y-29517D01*
X34399Y-29552D01*
X34389Y-29575D01*
X34368Y-29605D01*
X34349Y-29623D01*
X34318Y-29642D01*
X34295Y-29651D01*
X34259Y-29658D01*
X34234Y-29657D01*
X34198Y-29649D01*
X34175Y-29639D01*
X34144Y-29618D01*
X34127Y-29600D01*
X34107Y-29569D01*
X34098Y-29546D01*
X34091Y-29509D01*
X34092Y-29485D01*
X34099Y-29448D01*
X34109Y-29426D01*
X34130Y-29395D01*
X34147Y-29378D01*
X34179Y-29357D01*
X34201Y-29348D01*
X34239Y-29341D01*
X34262Y-29341D01*
X34300Y-29349D01*
X34322Y-29358D01*
X34353Y-29380D01*
X34370Y-29396D01*
X34391Y-29428D01*
X34400Y-29450D01*
X34408Y-29487D01*
X34408Y-29487D01*
G37*
G36*
X34408Y-30237D02*
X34407Y-30267D01*
X34399Y-30302D01*
X34389Y-30325D01*
X34368Y-30355D01*
X34349Y-30373D01*
X34318Y-30392D01*
X34295Y-30401D01*
X34259Y-30408D01*
X34234Y-30407D01*
X34198Y-30399D01*
X34175Y-30389D01*
X34144Y-30368D01*
X34127Y-30350D01*
X34107Y-30319D01*
X34098Y-30296D01*
X34091Y-30259D01*
X34092Y-30235D01*
X34099Y-30198D01*
X34109Y-30176D01*
X34130Y-30145D01*
X34147Y-30128D01*
X34179Y-30107D01*
X34201Y-30098D01*
X34239Y-30091D01*
X34262Y-30091D01*
X34300Y-30099D01*
X34322Y-30108D01*
X34353Y-30130D01*
X34370Y-30146D01*
X34391Y-30178D01*
X34400Y-30200D01*
X34408Y-30237D01*
X34408Y-30237D01*
G37*
G36*
X34408Y-30987D02*
X34407Y-31017D01*
X34399Y-31052D01*
X34389Y-31075D01*
X34368Y-31105D01*
X34349Y-31123D01*
X34318Y-31142D01*
X34295Y-31151D01*
X34259Y-31158D01*
X34234Y-31157D01*
X34198Y-31149D01*
X34175Y-31139D01*
X34144Y-31118D01*
X34127Y-31100D01*
X34107Y-31069D01*
X34098Y-31046D01*
X34091Y-31009D01*
X34092Y-30985D01*
X34099Y-30948D01*
X34109Y-30926D01*
X34130Y-30895D01*
X34147Y-30878D01*
X34179Y-30857D01*
X34201Y-30848D01*
X34239Y-30841D01*
X34262Y-30841D01*
X34300Y-30849D01*
X34322Y-30858D01*
X34353Y-30880D01*
X34370Y-30896D01*
X34391Y-30928D01*
X34400Y-30950D01*
X34408Y-30987D01*
X34408Y-30987D01*
G37*
G36*
X34408Y-32487D02*
X34407Y-32517D01*
X34399Y-32552D01*
X34389Y-32575D01*
X34368Y-32605D01*
X34349Y-32623D01*
X34318Y-32642D01*
X34295Y-32651D01*
X34259Y-32658D01*
X34234Y-32657D01*
X34198Y-32649D01*
X34175Y-32639D01*
X34144Y-32618D01*
X34127Y-32600D01*
X34107Y-32569D01*
X34098Y-32546D01*
X34091Y-32509D01*
X34092Y-32485D01*
X34099Y-32448D01*
X34109Y-32426D01*
X34130Y-32395D01*
X34147Y-32378D01*
X34179Y-32357D01*
X34201Y-32348D01*
X34239Y-32341D01*
X34262Y-32341D01*
X34300Y-32349D01*
X34322Y-32358D01*
X34353Y-32380D01*
X34370Y-32396D01*
X34391Y-32428D01*
X34400Y-32450D01*
X34408Y-32487D01*
X34408Y-32487D01*
G37*
G36*
X34408Y-33237D02*
X34407Y-33267D01*
X34399Y-33302D01*
X34389Y-33325D01*
X34368Y-33355D01*
X34349Y-33373D01*
X34318Y-33392D01*
X34295Y-33401D01*
X34259Y-33408D01*
X34234Y-33407D01*
X34198Y-33399D01*
X34175Y-33389D01*
X34144Y-33368D01*
X34127Y-33350D01*
X34107Y-33319D01*
X34098Y-33296D01*
X34091Y-33259D01*
X34092Y-33235D01*
X34099Y-33198D01*
X34109Y-33176D01*
X34130Y-33145D01*
X34147Y-33128D01*
X34179Y-33107D01*
X34201Y-33098D01*
X34239Y-33091D01*
X34262Y-33091D01*
X34300Y-33099D01*
X34322Y-33108D01*
X34353Y-33130D01*
X34370Y-33146D01*
X34391Y-33178D01*
X34400Y-33200D01*
X34408Y-33237D01*
X34408Y-33237D01*
G37*
G36*
X35158Y-33987D02*
X35157Y-34017D01*
X35149Y-34052D01*
X35139Y-34075D01*
X35118Y-34105D01*
X35099Y-34123D01*
X35068Y-34142D01*
X35045Y-34151D01*
X35009Y-34158D01*
X34984Y-34157D01*
X34948Y-34149D01*
X34925Y-34139D01*
X34894Y-34118D01*
X34877Y-34100D01*
X34857Y-34069D01*
X34848Y-34046D01*
X34841Y-34009D01*
X34842Y-33985D01*
X34849Y-33948D01*
X34859Y-33926D01*
X34880Y-33895D01*
X34897Y-33878D01*
X34929Y-33857D01*
X34951Y-33848D01*
X34989Y-33841D01*
X35012Y-33841D01*
X35050Y-33849D01*
X35072Y-33858D01*
X35103Y-33880D01*
X35120Y-33896D01*
X35141Y-33928D01*
X35150Y-33950D01*
X35158Y-33987D01*
X35158Y-33987D01*
G37*
G36*
X35908Y-33987D02*
X35907Y-34017D01*
X35899Y-34052D01*
X35889Y-34075D01*
X35868Y-34105D01*
X35849Y-34123D01*
X35818Y-34142D01*
X35795Y-34151D01*
X35759Y-34158D01*
X35734Y-34157D01*
X35698Y-34149D01*
X35675Y-34139D01*
X35644Y-34118D01*
X35627Y-34100D01*
X35607Y-34069D01*
X35598Y-34046D01*
X35591Y-34009D01*
X35592Y-33985D01*
X35599Y-33948D01*
X35609Y-33926D01*
X35630Y-33895D01*
X35647Y-33878D01*
X35679Y-33857D01*
X35701Y-33848D01*
X35739Y-33841D01*
X35762Y-33841D01*
X35800Y-33849D01*
X35822Y-33858D01*
X35853Y-33880D01*
X35870Y-33896D01*
X35891Y-33928D01*
X35900Y-33950D01*
X35908Y-33987D01*
X35908Y-33987D01*
G37*
G36*
X36408Y-34987D02*
X36407Y-35017D01*
X36399Y-35052D01*
X36389Y-35075D01*
X36368Y-35105D01*
X36349Y-35123D01*
X36318Y-35142D01*
X36295Y-35151D01*
X36259Y-35158D01*
X36234Y-35157D01*
X36198Y-35149D01*
X36175Y-35139D01*
X36144Y-35118D01*
X36127Y-35100D01*
X36107Y-35069D01*
X36098Y-35046D01*
X36091Y-35009D01*
X36092Y-34985D01*
X36099Y-34948D01*
X36109Y-34926D01*
X36130Y-34895D01*
X36147Y-34878D01*
X36179Y-34857D01*
X36201Y-34848D01*
X36239Y-34841D01*
X36262Y-34841D01*
X36300Y-34849D01*
X36322Y-34858D01*
X36353Y-34880D01*
X36370Y-34896D01*
X36391Y-34928D01*
X36400Y-34950D01*
X36408Y-34987D01*
X36408Y-34987D01*
G37*
G36*
X36683Y-24960D02*
X36682Y-25051D01*
X36662Y-25140D01*
X36630Y-25212D01*
X36577Y-25286D01*
X36520Y-25341D01*
X36443Y-25390D01*
X36369Y-25418D01*
X36280Y-25434D01*
X36201Y-25432D01*
X36112Y-25413D01*
X36040Y-25381D01*
X35965Y-25329D01*
X35910Y-25273D01*
X35861Y-25196D01*
X35832Y-25123D01*
X35815Y-25033D01*
X35816Y-24954D01*
X35835Y-24865D01*
X35866Y-24793D01*
X35918Y-24717D01*
X35974Y-24662D01*
X36051Y-24612D01*
X36123Y-24583D01*
X36214Y-24565D01*
X36291Y-24566D01*
X36382Y-24585D01*
X36453Y-24615D01*
X36530Y-24666D01*
X36585Y-24721D01*
X36636Y-24798D01*
X36665Y-24870D01*
X36683Y-24960D01*
X36683Y-24960D01*
G37*
G36*
X36683Y-26960D02*
X36682Y-27051D01*
X36662Y-27140D01*
X36630Y-27212D01*
X36577Y-27286D01*
X36520Y-27341D01*
X36443Y-27390D01*
X36369Y-27418D01*
X36280Y-27434D01*
X36201Y-27432D01*
X36112Y-27413D01*
X36040Y-27381D01*
X35965Y-27329D01*
X35910Y-27273D01*
X35861Y-27196D01*
X35832Y-27123D01*
X35815Y-27033D01*
X35816Y-26954D01*
X35835Y-26865D01*
X35866Y-26793D01*
X35918Y-26717D01*
X35974Y-26662D01*
X36051Y-26612D01*
X36123Y-26583D01*
X36214Y-26565D01*
X36291Y-26566D01*
X36382Y-26585D01*
X36453Y-26615D01*
X36530Y-26666D01*
X36585Y-26721D01*
X36636Y-26798D01*
X36665Y-26870D01*
X36683Y-26960D01*
X36683Y-26960D01*
G37*
G36*
X38183Y-24460D02*
X38182Y-24551D01*
X38162Y-24640D01*
X38130Y-24712D01*
X38077Y-24786D01*
X38020Y-24841D01*
X37943Y-24890D01*
X37869Y-24918D01*
X37780Y-24934D01*
X37701Y-24932D01*
X37612Y-24913D01*
X37540Y-24881D01*
X37465Y-24829D01*
X37410Y-24773D01*
X37361Y-24696D01*
X37332Y-24623D01*
X37315Y-24533D01*
X37316Y-24454D01*
X37335Y-24365D01*
X37366Y-24293D01*
X37418Y-24217D01*
X37474Y-24162D01*
X37551Y-24112D01*
X37623Y-24083D01*
X37714Y-24065D01*
X37791Y-24066D01*
X37882Y-24085D01*
X37953Y-24115D01*
X38030Y-24166D01*
X38085Y-24221D01*
X38136Y-24298D01*
X38165Y-24370D01*
X38183Y-24460D01*
X38183Y-24460D01*
G37*
G36*
X38183Y-25460D02*
X38182Y-25551D01*
X38162Y-25640D01*
X38130Y-25712D01*
X38077Y-25786D01*
X38020Y-25841D01*
X37943Y-25890D01*
X37869Y-25918D01*
X37780Y-25934D01*
X37701Y-25932D01*
X37612Y-25913D01*
X37540Y-25881D01*
X37465Y-25829D01*
X37410Y-25773D01*
X37361Y-25696D01*
X37332Y-25623D01*
X37315Y-25533D01*
X37316Y-25454D01*
X37335Y-25365D01*
X37366Y-25293D01*
X37418Y-25217D01*
X37474Y-25162D01*
X37551Y-25112D01*
X37623Y-25083D01*
X37714Y-25065D01*
X37791Y-25066D01*
X37882Y-25085D01*
X37953Y-25115D01*
X38030Y-25166D01*
X38085Y-25221D01*
X38136Y-25298D01*
X38165Y-25370D01*
X38183Y-25460D01*
X38183Y-25460D01*
G37*
G36*
X38183Y-26460D02*
X38182Y-26551D01*
X38162Y-26640D01*
X38130Y-26712D01*
X38077Y-26786D01*
X38020Y-26841D01*
X37943Y-26890D01*
X37869Y-26918D01*
X37780Y-26934D01*
X37701Y-26932D01*
X37612Y-26913D01*
X37540Y-26881D01*
X37465Y-26829D01*
X37410Y-26773D01*
X37361Y-26696D01*
X37332Y-26623D01*
X37315Y-26533D01*
X37316Y-26454D01*
X37335Y-26365D01*
X37366Y-26293D01*
X37418Y-26217D01*
X37474Y-26162D01*
X37551Y-26112D01*
X37623Y-26083D01*
X37714Y-26065D01*
X37791Y-26066D01*
X37882Y-26085D01*
X37953Y-26115D01*
X38030Y-26166D01*
X38085Y-26221D01*
X38136Y-26298D01*
X38165Y-26370D01*
X38183Y-26460D01*
X38183Y-26460D01*
G37*
G36*
X38183Y-27460D02*
X38182Y-27551D01*
X38162Y-27640D01*
X38130Y-27712D01*
X38077Y-27786D01*
X38020Y-27841D01*
X37943Y-27890D01*
X37869Y-27918D01*
X37780Y-27934D01*
X37701Y-27932D01*
X37612Y-27913D01*
X37540Y-27881D01*
X37465Y-27829D01*
X37410Y-27773D01*
X37361Y-27696D01*
X37332Y-27623D01*
X37315Y-27533D01*
X37316Y-27454D01*
X37335Y-27365D01*
X37366Y-27293D01*
X37418Y-27217D01*
X37474Y-27162D01*
X37551Y-27112D01*
X37623Y-27083D01*
X37714Y-27065D01*
X37791Y-27066D01*
X37882Y-27085D01*
X37953Y-27115D01*
X38030Y-27166D01*
X38085Y-27221D01*
X38136Y-27298D01*
X38165Y-27370D01*
X38183Y-27460D01*
X38183Y-27460D01*
G37*
G36*
X38183Y-28460D02*
X38182Y-28551D01*
X38162Y-28640D01*
X38130Y-28712D01*
X38077Y-28786D01*
X38020Y-28841D01*
X37943Y-28890D01*
X37869Y-28918D01*
X37780Y-28934D01*
X37701Y-28932D01*
X37612Y-28913D01*
X37540Y-28881D01*
X37465Y-28829D01*
X37410Y-28773D01*
X37361Y-28696D01*
X37332Y-28623D01*
X37315Y-28533D01*
X37316Y-28454D01*
X37335Y-28365D01*
X37366Y-28293D01*
X37418Y-28217D01*
X37474Y-28162D01*
X37551Y-28112D01*
X37623Y-28083D01*
X37714Y-28065D01*
X37791Y-28066D01*
X37882Y-28085D01*
X37953Y-28115D01*
X38030Y-28166D01*
X38085Y-28221D01*
X38136Y-28298D01*
X38165Y-28370D01*
X38183Y-28460D01*
X38183Y-28460D01*
G37*
G36*
X38183Y-29460D02*
X38182Y-29551D01*
X38162Y-29640D01*
X38130Y-29712D01*
X38077Y-29786D01*
X38020Y-29841D01*
X37943Y-29890D01*
X37869Y-29918D01*
X37780Y-29934D01*
X37701Y-29932D01*
X37612Y-29913D01*
X37540Y-29881D01*
X37465Y-29829D01*
X37410Y-29773D01*
X37361Y-29696D01*
X37332Y-29623D01*
X37315Y-29533D01*
X37316Y-29454D01*
X37335Y-29365D01*
X37366Y-29293D01*
X37418Y-29217D01*
X37474Y-29162D01*
X37551Y-29112D01*
X37623Y-29083D01*
X37714Y-29065D01*
X37791Y-29066D01*
X37882Y-29085D01*
X37953Y-29115D01*
X38030Y-29166D01*
X38085Y-29221D01*
X38136Y-29298D01*
X38165Y-29370D01*
X38183Y-29460D01*
X38183Y-29460D01*
G37*
G36*
X38183Y-30460D02*
X38182Y-30551D01*
X38162Y-30640D01*
X38130Y-30712D01*
X38077Y-30786D01*
X38020Y-30841D01*
X37943Y-30890D01*
X37869Y-30918D01*
X37780Y-30934D01*
X37701Y-30932D01*
X37612Y-30913D01*
X37540Y-30881D01*
X37465Y-30829D01*
X37410Y-30773D01*
X37361Y-30696D01*
X37332Y-30623D01*
X37315Y-30533D01*
X37316Y-30454D01*
X37335Y-30365D01*
X37366Y-30293D01*
X37418Y-30217D01*
X37474Y-30162D01*
X37551Y-30112D01*
X37623Y-30083D01*
X37714Y-30065D01*
X37791Y-30066D01*
X37882Y-30085D01*
X37953Y-30115D01*
X38030Y-30166D01*
X38085Y-30221D01*
X38136Y-30298D01*
X38165Y-30370D01*
X38183Y-30460D01*
X38183Y-30460D01*
G37*
G36*
X38183Y-31460D02*
X38182Y-31551D01*
X38162Y-31640D01*
X38130Y-31712D01*
X38077Y-31786D01*
X38020Y-31841D01*
X37943Y-31890D01*
X37869Y-31918D01*
X37780Y-31934D01*
X37701Y-31932D01*
X37612Y-31913D01*
X37540Y-31881D01*
X37465Y-31829D01*
X37410Y-31773D01*
X37361Y-31696D01*
X37332Y-31623D01*
X37315Y-31533D01*
X37316Y-31454D01*
X37335Y-31365D01*
X37366Y-31293D01*
X37418Y-31217D01*
X37474Y-31162D01*
X37551Y-31112D01*
X37623Y-31083D01*
X37714Y-31065D01*
X37791Y-31066D01*
X37882Y-31085D01*
X37953Y-31115D01*
X38030Y-31166D01*
X38085Y-31221D01*
X38136Y-31298D01*
X38165Y-31370D01*
X38183Y-31460D01*
X38183Y-31460D01*
G37*
G36*
X38183Y-32460D02*
X38182Y-32551D01*
X38162Y-32640D01*
X38130Y-32712D01*
X38077Y-32786D01*
X38020Y-32841D01*
X37943Y-32890D01*
X37869Y-32918D01*
X37780Y-32934D01*
X37701Y-32932D01*
X37612Y-32913D01*
X37540Y-32881D01*
X37465Y-32829D01*
X37410Y-32773D01*
X37361Y-32696D01*
X37332Y-32623D01*
X37315Y-32533D01*
X37316Y-32454D01*
X37335Y-32365D01*
X37366Y-32293D01*
X37418Y-32217D01*
X37474Y-32162D01*
X37551Y-32112D01*
X37623Y-32083D01*
X37714Y-32065D01*
X37791Y-32066D01*
X37882Y-32085D01*
X37953Y-32115D01*
X38030Y-32166D01*
X38085Y-32221D01*
X38136Y-32298D01*
X38165Y-32370D01*
X38183Y-32460D01*
X38183Y-32460D01*
G37*
G36*
X38183Y-33460D02*
X38182Y-33551D01*
X38162Y-33640D01*
X38130Y-33712D01*
X38077Y-33786D01*
X38020Y-33841D01*
X37943Y-33890D01*
X37869Y-33918D01*
X37780Y-33934D01*
X37701Y-33932D01*
X37612Y-33913D01*
X37540Y-33881D01*
X37465Y-33829D01*
X37410Y-33773D01*
X37361Y-33696D01*
X37332Y-33623D01*
X37315Y-33533D01*
X37316Y-33454D01*
X37335Y-33365D01*
X37366Y-33293D01*
X37418Y-33217D01*
X37474Y-33162D01*
X37551Y-33112D01*
X37623Y-33083D01*
X37714Y-33065D01*
X37791Y-33066D01*
X37882Y-33085D01*
X37953Y-33115D01*
X38030Y-33166D01*
X38085Y-33221D01*
X38136Y-33298D01*
X38165Y-33370D01*
X38183Y-33460D01*
X38183Y-33460D01*
G37*
G36*
X38183Y-34460D02*
X38182Y-34551D01*
X38162Y-34640D01*
X38130Y-34712D01*
X38077Y-34786D01*
X38020Y-34841D01*
X37943Y-34890D01*
X37869Y-34918D01*
X37780Y-34934D01*
X37701Y-34932D01*
X37612Y-34913D01*
X37540Y-34881D01*
X37465Y-34829D01*
X37410Y-34773D01*
X37361Y-34696D01*
X37332Y-34623D01*
X37315Y-34533D01*
X37316Y-34454D01*
X37335Y-34365D01*
X37366Y-34293D01*
X37418Y-34217D01*
X37474Y-34162D01*
X37551Y-34112D01*
X37623Y-34083D01*
X37714Y-34065D01*
X37791Y-34066D01*
X37882Y-34085D01*
X37953Y-34115D01*
X38030Y-34166D01*
X38085Y-34221D01*
X38136Y-34298D01*
X38165Y-34370D01*
X38183Y-34460D01*
X38183Y-34460D01*
G37*
G36*
X38183Y-35460D02*
X38182Y-35551D01*
X38162Y-35640D01*
X38130Y-35712D01*
X38077Y-35786D01*
X38020Y-35841D01*
X37943Y-35890D01*
X37869Y-35918D01*
X37780Y-35934D01*
X37701Y-35932D01*
X37612Y-35913D01*
X37540Y-35881D01*
X37465Y-35829D01*
X37410Y-35773D01*
X37361Y-35696D01*
X37332Y-35623D01*
X37315Y-35533D01*
X37316Y-35454D01*
X37335Y-35365D01*
X37366Y-35293D01*
X37418Y-35217D01*
X37474Y-35162D01*
X37551Y-35112D01*
X37623Y-35083D01*
X37714Y-35065D01*
X37791Y-35066D01*
X37882Y-35085D01*
X37953Y-35115D01*
X38030Y-35166D01*
X38085Y-35221D01*
X38136Y-35298D01*
X38165Y-35370D01*
X38183Y-35460D01*
X38183Y-35460D01*
G37*
G36*
X38589Y-38920D02*
X38587Y-39102D01*
X38549Y-39269D01*
X38485Y-39414D01*
X38386Y-39553D01*
X38271Y-39663D01*
X38127Y-39754D01*
X37979Y-39811D01*
X37811Y-39841D01*
X37653Y-39838D01*
X37486Y-39801D01*
X37341Y-39738D01*
X37200Y-39640D01*
X37090Y-39526D01*
X36998Y-39382D01*
X36939Y-39235D01*
X36908Y-39067D01*
X36911Y-38909D01*
X36946Y-38741D01*
X37008Y-38596D01*
X37105Y-38454D01*
X37218Y-38344D01*
X37362Y-38250D01*
X37508Y-38191D01*
X37677Y-38159D01*
X37834Y-38160D01*
X38003Y-38195D01*
X38148Y-38256D01*
X38290Y-38352D01*
X38401Y-38463D01*
X38496Y-38607D01*
X38556Y-38752D01*
X38589Y-38920D01*
X38589Y-38920D01*
G37*
M02*
